M48
;Layer_Color=9474304
;FILE_FORMAT=2:4
INCH
;TYPE=PLATED
T1F00S00C0.0240
T2F00S00C0.0280
T3F00S00C0.0320
T4F00S00C0.0394
T5F00S00C0.0400
T6F00S00C0.0420
T7F00S00C0.0500
T8F00S00C0.0520
T9F00S00C0.0600
T10F00S00C0.1181
%
T01
X044178Y042490
X046478Y042240
Y043240
Y045440
X047278Y044090
X048428Y043040
X047818Y042241
X049619Y042291
X050819
X051928Y043040
X053928Y042240
X055528
X054928Y043040
X056828
X057478Y042240
Y043890
Y045640
X057978Y046640
X059678Y046790
X056028Y046790
Y045840
X055328Y046290
X054628Y046790
X056678Y044840
X055515Y040418
X052069Y040091
X059778Y042240
X063868Y041241
X063578Y048140
X063978Y048890
X061578
X060778Y047690
X058028Y047990
X056828Y048790
X057628Y049790
X059468Y049941
X059969Y050141
X060318Y050491
X060669Y050841
X061019Y051191
X061367Y051539
X059778Y053490
X059068Y055091
X057469Y053541
X056890Y052952
X057618Y052091
X056833Y051145
X054728Y052890
X055568Y053741
X053128Y053690
X050978Y052890
X049428
X049985Y053533
X047319Y053691
X047269Y052891
Y050751
X047278Y047190
X053418Y059741
X054419Y060741
X055368
X056568
X056469Y061991
X055669Y061791
X054169Y062291
X060718Y061291
X061418Y061741
Y060291
X060718Y059841
X059068Y059341
X046478Y052140
Y049940
X046628Y047640
X044419Y053741
X054213Y063747
X055168Y063641
X056418Y063841
X057919Y063091
X057909Y065691
X060419Y066551
Y069651
X057108Y069641
X056609Y070141
X055718Y068091
X054718Y068341
X052319Y068841
X051368Y070541
X060718Y062641
X061418Y063091
T02
X049019Y025741
X052969Y028591
X057894Y029091
X059468
X058668Y026591
X057094
X041869Y025891
X040968
X040368Y025541
X039718Y025891
X039118Y025641
X038468Y025941
X036769Y026741
X035168
X034369Y026191
X033719Y027141
X033219Y027041
X031918Y027491
X031319Y029241
X031969Y030391
X031869Y031191
X033719Y030041
X035168Y030491
X035768Y029791
Y028941
X037469Y029691
X038969Y028141
X040219
X039625Y027541
X040980Y029556
X030319Y030091
X029769Y030991
X028660Y030050
X028700Y029150
X029218Y028391
X028800Y027900
X029350Y027600
X029769Y026841
X028800Y026300
X030168Y028441
X029769Y034941
X029350Y035700
X028800Y036000
X029218Y036491
X030168Y036541
X030319Y038191
X029769Y039091
X028660Y038150
X028700Y037250
X028800Y034400
Y042550
X029769Y043091
X029350Y043850
X028800Y044150
X029218Y044641
X030168Y044691
X030319Y046341
X028660Y046300
X028700Y045400
X031319Y045491
X031969Y046641
X033719Y046291
X035168Y046741
X035768Y046041
Y045191
X037469Y045941
X038969Y044391
X040219
X039625Y043791
X039718Y042141
X039118Y041891
X038468Y042191
X040368Y041791
X040968Y042141
X041869
X040980Y045806
X036769Y042991
X035168
X034369Y042441
X033719Y043391
X033219Y043291
X031918Y043741
X031869Y039291
X031969Y038491
X031319Y037341
X031918Y035591
X033219Y035141
X033719Y035241
X034369Y034291
X035168Y034841
X036769
X038468Y034041
X039118Y033741
X039718Y033991
X040368Y033641
X040968Y033991
X041869
X039625Y035641
X040219Y036241
X038969
X037469Y037791
X035768Y037891
Y037041
X035168Y038591
X033719Y038141
X037968Y039991
X039118
X040980Y037656
X039118Y031891
X037968
X049019Y031841
X056469Y033341
X060978Y046490
X062719Y035541
X065718
X064219Y033091
X044219Y048591
X043719
X042818
X041869Y050291
X040968
X040368Y049941
X039718Y050291
X039118Y050041
X038468Y050341
X036769Y051141
X035168
X034369Y050591
X033719Y051541
X033219Y051441
X031918Y051891
X031319Y053641
X031969Y054791
X031869Y055591
X033719Y054441
X035168Y054891
X035768Y054191
Y053341
X037469Y054091
X037968Y056291
X039118
Y058191
X039718Y058441
X040368Y058091
X040968Y058441
X041869
X042469Y056091
X040980Y053956
X040219Y052541
X039625Y051941
X038969Y052541
X039118Y048141
X037968
X031869Y047441
X031918Y060041
X033219Y059591
X033719Y059691
X034369Y058741
X035168Y059291
X036769
X038468Y058491
X038969Y060691
X040219
X039625Y060091
X040980Y062106
X037469Y062241
X035768Y062341
Y061491
X031319Y061791
X030168Y060991
X029218Y060941
X028800Y060450
X029350Y060150
X029769Y059391
X028800Y058850
X028700Y061700
X028660Y054450
X028700Y053550
X029218Y052791
X028800Y052300
X029350Y052000
X029769Y051241
X028800Y050700
X030168Y052841
X030319Y054491
X029769Y055391
Y047241
X030319Y062641
X029769Y063541
X028660Y062600
X028800Y067000
X029769Y067541
X029350Y068300
X028800Y068600
X029218Y069091
X030168Y069141
X030319Y070791
X029769Y071691
X028660Y070750
X028700Y069850
X031319Y069941
X031969Y071091
X031869Y071891
X033719Y070741
X035168Y071191
X035768Y070491
Y069641
X037469Y070391
X037968Y072591
X039118
X038969Y068841
X040219
X039625Y068241
X039718Y066591
X039118Y066341
X038468Y066641
X040368Y066241
X040968Y066591
X041869
X040980Y070256
X036769Y067441
X035168
X034369Y066891
X033719Y067841
X033219Y067741
X031918Y068191
X031869Y063741
X031969Y062941
X033719Y062591
X035168Y063041
X037968Y064441
X039118
X048969Y070691
X052719Y072591
T03
X065219Y052091
Y053091
Y053841
Y054841
Y055591
Y056591
T04
X044468Y026841
X045469
X046469
T05
X062168Y026541
Y027525
Y028509
Y029493
X027369Y042341
Y043441
Y044541
Y045641
Y046741
X026168Y046241
Y045141
Y044041
Y042841
X045469Y041441
X049478Y043690
X051478
X053478
X055478
X054478Y044690
X053478Y045690
X052478Y046690
X050478
X048478
X049478Y045690
X051478
X052478Y044690
X050478
X048478
X049219Y037841
X054969Y036591
X055768
X056568
Y035791
X058068
Y036591
X058868
X060219Y038091
X059928Y038940
X058719Y041091
X064219Y036091
X055478Y047690
X053478
X051478
X049478
Y049690
Y051690
X051478
X053468Y051691
X052478Y050690
X054478
X055478Y051690
Y049690
X053478
X051478
X050478Y050690
X048478
Y048690
X050478
X052478
X054478
X058468Y059091
X057668Y060441
X062218Y060141
Y061141
Y061941
X027369Y055541
Y054441
Y053341
Y052241
Y051141
Y050041
Y048941
Y047841
X026168Y047241
Y048441
Y049541
Y050641
Y051741
Y052841
Y053941
Y055041
X048969Y069841
X062218Y070051
Y069251
Y068251
Y071051
X062218Y062941
X056069Y063091
T06
X062028Y042540
Y043540
Y044540
Y045540
Y046540
X063028
Y045540
Y044540
Y043540
Y042540
T07
X052719Y030091
X056469Y031091
X034969Y025391
X031469
Y032141
Y033491
X034969
Y032141
X042218Y031591
X044718Y034841
X042568Y041091
X034969Y041641
Y040241
X031469
Y041641
Y048391
Y049791
X034969
Y048391
Y056541
Y057941
X031469
Y056541
X042469Y057091
X045478Y054390
X043969Y047341
X042469Y065341
X034969Y064691
Y066091
X031469
Y064691
Y072841
X034969
X052000Y066250
T08
X026769Y039541
Y057941
T09
X063319Y058941
Y064141
X063319Y067051
Y072251
T10
X066276Y022575
X035961
X025724
Y075724
X035961
X066276
M30
