%FSLAX24Y24*%
%MOIN*%
%SFA1B1*%

%IPPOS*%
%ADD17O,0.020000X0.040000*%
%ADD18O,0.040000X0.020000*%
%ADD35C,0.010000*%
%ADD45C,0.064000*%
%ADD67O,0.038000X0.058000*%
%ADD68R,0.038000X0.058000*%
%ADD69O,0.048000X0.020000*%
%ADD70O,0.020000X0.048000*%
%ADD71O,0.068000X0.028000*%
%ADD72O,0.028000X0.048000*%
%ADD73O,0.048000X0.028000*%
%ADD74O,0.028000X0.068000*%
%ADD83O,0.090700X0.244200*%
%ADD85O,0.090700X0.244200*%
%ADD86R,0.108000X0.038000*%
%ADD89R,0.128000X0.128000*%
%ADD90R,0.088000X0.088000*%
%ADD91C,0.088000*%
%ADD92C,0.104000*%
%ADD93R,0.071000X0.071000*%
%ADD94C,0.071000*%
%ADD95C,0.072000*%
%ADD96R,0.072000X0.072000*%
%ADD97C,0.068000*%
%ADD98C,0.102000*%
%ADD99C,0.204900*%
%ADD100C,0.048000*%
%ADD101C,0.058000*%
%ADD102R,0.048000X0.028000*%
%ADD103R,0.028000X0.048000*%
%ADD104R,0.023700X0.069000*%
%ADD105O,0.058000X0.038000*%
%ADD106R,0.058000X0.038000*%
%ADD107R,0.128000X0.128000*%
%ADD108O,0.078000X0.028000*%
%ADD109R,0.078000X0.028000*%
%ADD110R,0.058000X0.091000*%
%ADD111O,0.058000X0.091000*%
%ADD112O,0.078000X0.023000*%
%ADD113R,0.078000X0.023000*%
%ADD114R,0.083000X0.083000*%
%LN020351-1*%
%LPD*%
G54D17*
X29378Y26841D03*
Y27641D03*
X30578Y26141D03*
X30859D03*
X31128D03*
X31409D03*
X33579Y25891D03*
X33858D03*
X35078Y27791D03*
X35359D03*
Y28591D03*
X35078D03*
X33858Y30541D03*
X33579D03*
Y31341D03*
X33858D03*
Y33991D03*
X33579D03*
Y34791D03*
X33858D03*
X35078Y35891D03*
X35359D03*
Y36691D03*
X35078D03*
X33858Y38641D03*
X33579D03*
Y39441D03*
X33858D03*
X32259Y38341D03*
X31978D03*
Y37541D03*
X32259D03*
Y37041D03*
X31978D03*
Y36241D03*
X32259D03*
X31409Y35041D03*
X31128D03*
Y34241D03*
X31409D03*
X30159Y35741D03*
X29878D03*
X29659D03*
X30029Y36741D03*
X30308D03*
X30159Y34941D03*
X29878D03*
X29659D03*
X30578Y35041D03*
X30859D03*
Y34241D03*
X30578D03*
X29378Y35741D03*
Y34941D03*
X30229Y31641D03*
X30508D03*
Y30841D03*
X30229D03*
X29908Y30741D03*
X29629D03*
Y29941D03*
X29908D03*
X30029Y29441D03*
X30308D03*
Y28641D03*
X30029D03*
X30159Y27641D03*
X29878D03*
X29659D03*
Y26841D03*
X29878D03*
X30159D03*
X30578Y26941D03*
X30859D03*
X31128D03*
X31409D03*
X33579Y26691D03*
X33858D03*
X32259Y28141D03*
X31978D03*
Y28941D03*
X32259D03*
Y29441D03*
X31978D03*
Y30241D03*
X32259D03*
X29358D03*
X29079D03*
Y29441D03*
X29358D03*
X30029Y37541D03*
X30308D03*
X29908Y38041D03*
X29629D03*
Y38841D03*
X29908D03*
X30229Y38941D03*
X30508D03*
Y39741D03*
X30229D03*
X29358Y38341D03*
X29079D03*
Y37541D03*
X29358D03*
X33579Y42141D03*
X33858D03*
Y42941D03*
X33579D03*
X35078Y44041D03*
X35359D03*
Y44841D03*
X35078D03*
X33858Y46791D03*
X33579D03*
Y47591D03*
X33858D03*
X32259Y46491D03*
X31978D03*
Y45691D03*
X32259D03*
Y45191D03*
X31978D03*
Y44391D03*
X32259D03*
X31409Y43191D03*
X31128D03*
Y42391D03*
X31409D03*
X30159Y43891D03*
X29878D03*
X29659D03*
Y43091D03*
X29878D03*
X30159D03*
X30578Y43191D03*
X30859D03*
Y42391D03*
X30578D03*
X29378Y43891D03*
Y43091D03*
X30029Y44891D03*
X30308D03*
Y45691D03*
X30029D03*
X29908Y46191D03*
X29629D03*
Y46991D03*
X29908D03*
X30229Y47091D03*
X30508D03*
Y47891D03*
X30229D03*
X29358Y46491D03*
X29079D03*
Y45691D03*
X29358D03*
X33579Y50291D03*
X33858D03*
X35078Y52191D03*
X35359D03*
Y52991D03*
X35078D03*
X33858Y54941D03*
X33579D03*
Y55741D03*
X33858D03*
Y58441D03*
X33579D03*
Y59241D03*
X33858D03*
X35078Y60341D03*
X35359D03*
Y61141D03*
X35078D03*
X33858Y63091D03*
X33579D03*
Y63891D03*
X33858D03*
X32259Y62791D03*
X31978D03*
Y61991D03*
X32259D03*
Y61491D03*
X31978D03*
Y60691D03*
X32259D03*
X31409Y59491D03*
X31128D03*
Y58691D03*
X31409D03*
X30859Y59491D03*
X30578D03*
X30159Y59391D03*
X29878D03*
X29659D03*
Y60191D03*
X29878D03*
X30159D03*
X30578Y58691D03*
X30859D03*
X30508Y56041D03*
X30229D03*
Y55241D03*
X30508D03*
X29908Y55141D03*
X29629D03*
Y54341D03*
X29908D03*
X30029Y53841D03*
X30308D03*
Y53041D03*
X30029D03*
X30159Y52041D03*
X29878D03*
X29659D03*
Y51241D03*
X29878D03*
X30159D03*
X30578Y51341D03*
X30859D03*
Y50541D03*
X30578D03*
X31128D03*
X31409D03*
X33579Y51091D03*
X33858D03*
X32259Y53341D03*
X31978D03*
Y53841D03*
X32259D03*
Y52541D03*
X31978D03*
X31409Y51341D03*
X31128D03*
X31978Y54641D03*
X32259D03*
X29358D03*
X29079D03*
Y53841D03*
X29358D03*
X29378Y52041D03*
Y51241D03*
Y59391D03*
Y60191D03*
X30029Y61191D03*
X30308D03*
Y61991D03*
X30029D03*
X29908Y62491D03*
X29629D03*
Y63291D03*
X29908D03*
X30229Y63391D03*
X30508D03*
Y64191D03*
X30229D03*
X29358Y62791D03*
X29079D03*
Y61991D03*
X29358D03*
X33579Y66591D03*
X33858D03*
Y67391D03*
X33579D03*
X35078Y68491D03*
X35359D03*
Y69291D03*
X35078D03*
X33858Y71241D03*
X33579D03*
Y72041D03*
X33858D03*
X32259Y70941D03*
X31978D03*
Y70141D03*
X32259D03*
Y69641D03*
X31978D03*
Y68841D03*
X32259D03*
X31409Y67641D03*
X31128D03*
Y66841D03*
X31409D03*
X30159Y68341D03*
X29878D03*
X29659D03*
X30029Y69341D03*
X30308D03*
X30159Y67541D03*
X29878D03*
X29659D03*
X30578Y67641D03*
X30859D03*
Y66841D03*
X30578D03*
X29378Y68341D03*
Y67541D03*
X30029Y70141D03*
X30308D03*
X29908Y70641D03*
X29629D03*
Y71441D03*
X29908D03*
X30229Y71541D03*
X30508D03*
Y72341D03*
X30229D03*
X29358Y70941D03*
X29079D03*
Y70141D03*
X29358D03*
G54D18*
X29418Y26201D03*
X30219D03*
X31219Y27351D03*
Y27631D03*
X32018D03*
Y27351D03*
X30219Y26481D03*
X29418D03*
X34169Y26051D03*
X34969D03*
Y26331D03*
Y26601D03*
Y26881D03*
X34169D03*
Y26601D03*
Y26331D03*
X35768Y28451D03*
Y28731D03*
X36569D03*
Y28451D03*
X34959Y30351D03*
Y30631D03*
X34159D03*
Y30351D03*
X31669Y31051D03*
Y31331D03*
X30868D03*
Y31051D03*
X31219Y35451D03*
X32018D03*
Y35731D03*
X31219D03*
X30219Y34581D03*
Y34301D03*
X29418D03*
Y34581D03*
X34169Y34701D03*
Y34431D03*
Y34151D03*
X34969D03*
Y34431D03*
Y34701D03*
Y34981D03*
X34169D03*
X35768Y36551D03*
Y36831D03*
X36569D03*
Y36551D03*
X34959Y38451D03*
X34159D03*
Y38731D03*
X34959D03*
X34969Y42301D03*
Y42581D03*
Y42851D03*
Y43131D03*
X34169D03*
Y42851D03*
Y42581D03*
Y42301D03*
X35768Y44701D03*
X36569D03*
Y44981D03*
X35768D03*
X34959Y46601D03*
Y46881D03*
X34159D03*
Y46601D03*
X34169Y50451D03*
Y50731D03*
Y51001D03*
X34969D03*
Y50731D03*
Y50451D03*
Y51281D03*
X34169D03*
X35768Y52851D03*
Y53131D03*
X36569D03*
Y52851D03*
X34959Y54751D03*
Y55031D03*
X34159D03*
Y54751D03*
X34169Y58601D03*
X34969D03*
Y58881D03*
Y59151D03*
Y59431D03*
X34169D03*
Y59151D03*
Y58881D03*
X35768Y61001D03*
Y61281D03*
X36569D03*
Y61001D03*
X34959Y62901D03*
Y63181D03*
X34159D03*
Y62901D03*
X31669Y63601D03*
Y63881D03*
X30868D03*
Y63601D03*
X31219Y68051D03*
X32018D03*
Y68331D03*
X31219D03*
X30219Y67181D03*
Y66901D03*
X29418D03*
Y67181D03*
X34169Y67301D03*
Y67031D03*
Y66751D03*
X34969D03*
Y67031D03*
Y67301D03*
Y67581D03*
X34169D03*
X35768Y69151D03*
Y69431D03*
X36569D03*
Y69151D03*
X34969Y71051D03*
X34169D03*
Y71331D03*
X34969D03*
X31669Y71751D03*
Y72031D03*
X30868D03*
Y71751D03*
X30219Y59031D03*
X29418D03*
Y58751D03*
X30219D03*
X30868Y55731D03*
Y55451D03*
X31669D03*
Y55731D03*
X32018Y59901D03*
Y60181D03*
X31219D03*
Y59901D03*
Y52031D03*
Y51751D03*
X32018D03*
Y52031D03*
X30219Y50881D03*
Y50601D03*
X29418D03*
Y50881D03*
X30868Y47581D03*
Y47301D03*
X31669D03*
Y47581D03*
X32018Y43881D03*
Y43601D03*
X31219D03*
Y43881D03*
X30219Y42731D03*
Y42451D03*
X29418D03*
Y42731D03*
X30868Y39431D03*
Y39151D03*
X31669D03*
Y39431D03*
G54D35*
X21000Y21000D02*
X69032D01*
Y77299*
X21000*
Y21000*
G54D45*
X65219Y52091D03*
Y53091D03*
Y53841D03*
Y54841D03*
Y55591D03*
Y56591D03*
G54D67*
X60419Y65701D03*
Y67901D03*
X60918D03*
X59918D03*
X59419D03*
X58918D03*
Y65701D03*
X59419D03*
X59918D03*
X58418Y67901D03*
X57919D03*
Y65701D03*
X58418D03*
X60419Y70101D03*
Y72301D03*
X60918D03*
X59918D03*
X59419D03*
X58918D03*
Y70101D03*
X59419D03*
X59918D03*
X58418Y72301D03*
X57919D03*
Y70101D03*
X58418D03*
X47319Y67191D03*
X46919Y66091D03*
G54D68*
X60918Y65701D03*
Y70101D03*
X47719Y66091D03*
G54D69*
X29218Y29341D03*
X29518Y27741D03*
Y27641D03*
Y27541D03*
X30018D03*
Y27641D03*
Y27741D03*
Y26941D03*
Y26841D03*
Y26741D03*
X29518D03*
Y26841D03*
Y26941D03*
X30719D03*
Y27041D03*
Y26841D03*
Y26241D03*
Y26141D03*
Y26041D03*
X31268D03*
Y26141D03*
Y26241D03*
X33719Y25991D03*
Y25891D03*
Y25791D03*
X35219Y27691D03*
Y27791D03*
Y27891D03*
Y28491D03*
Y28591D03*
Y28691D03*
X33719Y30441D03*
Y30541D03*
Y30641D03*
Y31241D03*
Y31341D03*
Y31441D03*
Y33891D03*
Y33991D03*
Y34091D03*
Y34691D03*
Y34791D03*
Y34891D03*
X35219Y35791D03*
Y35891D03*
Y35991D03*
Y36591D03*
Y36691D03*
Y36791D03*
X33719Y38541D03*
Y38641D03*
Y38741D03*
Y39341D03*
Y39441D03*
Y39541D03*
X32118Y38441D03*
Y38341D03*
Y38241D03*
Y37641D03*
Y37541D03*
Y37441D03*
Y37141D03*
Y37041D03*
Y36941D03*
Y36341D03*
Y36241D03*
Y36141D03*
X31268Y35141D03*
Y35041D03*
Y34941D03*
Y34341D03*
Y34241D03*
Y34141D03*
X30018Y35641D03*
Y35741D03*
Y35841D03*
X29518D03*
Y35741D03*
Y35641D03*
X30168Y36641D03*
Y36741D03*
Y36841D03*
X30018Y35041D03*
Y34941D03*
Y34841D03*
X29518D03*
Y34941D03*
Y35041D03*
X30719D03*
Y35141D03*
Y34941D03*
Y34341D03*
Y34241D03*
Y34141D03*
X30368Y31741D03*
Y31641D03*
Y31541D03*
Y30941D03*
Y30841D03*
Y30741D03*
X29769D03*
Y30841D03*
Y30641D03*
Y30041D03*
Y29941D03*
Y29841D03*
X30168Y29541D03*
Y29441D03*
Y29341D03*
Y28741D03*
Y28641D03*
Y28541D03*
X31268Y27041D03*
Y26941D03*
Y26841D03*
X33719Y26791D03*
Y26691D03*
Y26591D03*
X32118Y28041D03*
Y28141D03*
Y28241D03*
Y28841D03*
Y28941D03*
Y29041D03*
Y29341D03*
Y29441D03*
Y29541D03*
Y30141D03*
Y30241D03*
Y30341D03*
X29218D03*
Y30241D03*
Y30141D03*
Y29541D03*
Y29441D03*
X30168Y37441D03*
Y37541D03*
Y37641D03*
X29769Y37941D03*
Y38041D03*
Y38141D03*
Y38741D03*
Y38841D03*
Y38941D03*
X30368D03*
Y38841D03*
Y39041D03*
Y39641D03*
Y39741D03*
Y39841D03*
X29218Y38441D03*
Y38341D03*
Y38241D03*
Y37641D03*
Y37541D03*
Y37441D03*
X33719Y42041D03*
Y42141D03*
Y42241D03*
Y42841D03*
Y42941D03*
Y43041D03*
X35219Y43941D03*
Y44041D03*
Y44141D03*
Y44741D03*
Y44841D03*
Y44941D03*
X33719Y46691D03*
Y46791D03*
Y46891D03*
Y47491D03*
Y47591D03*
Y47691D03*
X32118Y46591D03*
Y46491D03*
Y46391D03*
Y45791D03*
Y45691D03*
Y45591D03*
Y45291D03*
Y45191D03*
Y45091D03*
Y44491D03*
Y44391D03*
Y44291D03*
X31268Y43291D03*
Y43191D03*
Y43091D03*
Y42491D03*
Y42391D03*
Y42291D03*
X30018Y43791D03*
Y43891D03*
Y43991D03*
X29518D03*
Y43891D03*
Y43791D03*
X30168Y44791D03*
X30018Y43191D03*
Y43091D03*
Y42991D03*
X29518D03*
Y43091D03*
Y43191D03*
X30719D03*
Y43291D03*
Y43091D03*
Y42491D03*
Y42391D03*
Y42291D03*
X30168Y44891D03*
Y44991D03*
Y45591D03*
Y45691D03*
Y45791D03*
X29769Y46091D03*
Y46191D03*
Y46291D03*
Y46891D03*
Y46991D03*
Y47091D03*
X30368D03*
Y46991D03*
Y47191D03*
Y47791D03*
Y47891D03*
Y47991D03*
X31268Y50441D03*
Y50541D03*
Y50641D03*
X33719Y50391D03*
Y50291D03*
Y50191D03*
Y50991D03*
X35219Y52091D03*
Y52191D03*
Y52291D03*
Y52891D03*
Y52991D03*
Y53091D03*
X33719Y54841D03*
Y54941D03*
Y55041D03*
Y55641D03*
Y55741D03*
Y55841D03*
Y58341D03*
Y58441D03*
Y58541D03*
X35219Y60241D03*
Y60341D03*
Y60441D03*
Y61041D03*
Y61141D03*
Y61241D03*
X33719Y62991D03*
Y63091D03*
Y63191D03*
Y63791D03*
Y63891D03*
Y63991D03*
Y66491D03*
Y66591D03*
Y66691D03*
Y67291D03*
Y67391D03*
Y67491D03*
X35219Y68391D03*
Y68491D03*
Y68591D03*
Y69191D03*
Y69291D03*
Y69391D03*
X33719Y71141D03*
Y71241D03*
Y71341D03*
Y71941D03*
Y72041D03*
Y72141D03*
X32118Y71041D03*
Y70941D03*
Y70841D03*
Y70241D03*
Y70141D03*
Y70041D03*
Y69741D03*
Y69641D03*
Y69541D03*
Y68941D03*
Y68841D03*
Y68741D03*
X31268Y67741D03*
Y67641D03*
Y67541D03*
Y66941D03*
Y66841D03*
Y66741D03*
X30018Y68241D03*
Y68341D03*
Y68441D03*
X29518D03*
Y68341D03*
Y68241D03*
X30168Y69241D03*
Y69341D03*
Y69441D03*
X30018Y67641D03*
Y67541D03*
Y67441D03*
X29518D03*
Y67541D03*
Y67641D03*
X30719D03*
Y67741D03*
Y67541D03*
Y66941D03*
Y66841D03*
Y66741D03*
X30368Y64291D03*
Y64191D03*
Y64091D03*
Y63491D03*
Y63391D03*
Y63291D03*
X29769D03*
Y63391D03*
Y63191D03*
Y62591D03*
Y62491D03*
Y62391D03*
X30168Y62091D03*
Y61991D03*
Y61891D03*
Y61291D03*
Y61191D03*
Y61091D03*
X30018Y60291D03*
Y60191D03*
Y60091D03*
X29518D03*
Y60191D03*
Y60291D03*
Y59491D03*
Y59391D03*
Y59291D03*
X30018D03*
Y59391D03*
Y59491D03*
X30719D03*
Y59591D03*
Y59391D03*
Y58791D03*
Y58691D03*
Y58591D03*
X30368Y56141D03*
Y56041D03*
Y55941D03*
Y55341D03*
Y55241D03*
Y55141D03*
X29769D03*
Y55241D03*
Y55041D03*
Y54441D03*
Y54341D03*
Y54241D03*
X30168Y53941D03*
Y53841D03*
Y53741D03*
Y53141D03*
Y53041D03*
Y52941D03*
X30018Y52141D03*
Y52041D03*
Y51941D03*
X29518D03*
Y52041D03*
Y52141D03*
Y51341D03*
Y51241D03*
Y51141D03*
X30018D03*
Y51241D03*
Y51341D03*
X30719D03*
Y51441D03*
Y51241D03*
Y50641D03*
Y50541D03*
Y50441D03*
X31268Y51241D03*
Y51341D03*
Y51441D03*
X32118Y52441D03*
Y52541D03*
X33719Y51191D03*
Y51091D03*
X32118Y52641D03*
Y53241D03*
Y53341D03*
Y53441D03*
Y53741D03*
Y53841D03*
Y53941D03*
Y54541D03*
Y54641D03*
Y54741D03*
X31268Y58591D03*
Y58691D03*
X33719Y59141D03*
Y59241D03*
Y59341D03*
X32118Y60591D03*
Y60691D03*
Y60791D03*
Y61391D03*
Y61491D03*
Y61591D03*
X31268Y59591D03*
Y59491D03*
Y59391D03*
Y58791D03*
X32118Y61891D03*
Y61991D03*
Y62091D03*
Y62691D03*
Y62791D03*
Y62891D03*
X29218D03*
Y62791D03*
Y62691D03*
Y62091D03*
Y61991D03*
Y61891D03*
Y54741D03*
Y54641D03*
Y54541D03*
Y53941D03*
Y53841D03*
Y53741D03*
Y46591D03*
Y46491D03*
Y46391D03*
Y45791D03*
Y45691D03*
Y45591D03*
X30168Y70041D03*
Y70141D03*
Y70241D03*
X29769Y70541D03*
Y70641D03*
Y70741D03*
Y71341D03*
Y71441D03*
Y71541D03*
X30368D03*
Y71441D03*
Y71641D03*
Y72241D03*
Y72341D03*
Y72441D03*
X29218Y71041D03*
Y70941D03*
Y70841D03*
Y70241D03*
Y70141D03*
Y70041D03*
G54D70*
X29318Y26341D03*
X29418D03*
X29518D03*
X30119D03*
X30219D03*
X30319D03*
X31119Y27491D03*
X31219D03*
X31319D03*
X31918D03*
X32018D03*
X32118D03*
X34069Y26191D03*
X34169D03*
X34269D03*
X34869D03*
X34969D03*
X35069D03*
Y26741D03*
X34969D03*
X34869D03*
X34269D03*
X34169D03*
X34069D03*
X35668Y28591D03*
X35768D03*
X35868D03*
X36469D03*
X36569D03*
X36669D03*
X35059Y30491D03*
X34959D03*
X34859D03*
X34259D03*
X34159D03*
X34059D03*
X31769Y31191D03*
X31669D03*
X31569D03*
X30968D03*
X30868D03*
X30768D03*
X30319Y34441D03*
X30219D03*
X30119D03*
X29518D03*
X29418D03*
X31119Y35591D03*
X31219D03*
X31319D03*
X31918D03*
X32018D03*
X32118D03*
X34069Y34841D03*
X34169D03*
X34269D03*
Y34291D03*
X34169D03*
X34069D03*
X34869D03*
X34969D03*
X35069D03*
Y34841D03*
X34969D03*
X34869D03*
X35668Y36691D03*
X35768D03*
X35868D03*
X36469D03*
X36569D03*
X36669D03*
X35059Y38591D03*
X34959D03*
X34859D03*
X34259D03*
X34159D03*
X34059D03*
X31769Y39291D03*
X31669D03*
X31569D03*
X30968D03*
X30868D03*
X30768D03*
X30319Y42591D03*
X30219D03*
X30119D03*
X29518D03*
X29418D03*
X31119Y43741D03*
X31219D03*
X31319D03*
X31918D03*
X32018D03*
X32118D03*
X34069Y42991D03*
X34169D03*
X34269D03*
Y42441D03*
X34169D03*
X34069D03*
X34869D03*
X34969D03*
X35069D03*
Y42991D03*
X34969D03*
X34869D03*
X35668Y44841D03*
X35768D03*
X35868D03*
X36469D03*
X36569D03*
X36669D03*
X35059Y46741D03*
X34959D03*
X34859D03*
X34259D03*
X34159D03*
X34059D03*
X34069Y50591D03*
X34169D03*
X34269D03*
X34869D03*
X34969D03*
X35069D03*
Y51141D03*
X34969D03*
X34869D03*
X34269D03*
X34169D03*
X34069D03*
X35668Y52991D03*
X35768D03*
X35868D03*
X36469D03*
X36569D03*
X36669D03*
X35059Y54891D03*
X34959D03*
X34859D03*
X34259D03*
X34159D03*
X34059D03*
X34069Y58741D03*
X34169D03*
X34269D03*
X34869D03*
X34969D03*
X35069D03*
Y59291D03*
X34969D03*
X34869D03*
X34269D03*
X34169D03*
X34069D03*
X35668Y61141D03*
X35768D03*
X35868D03*
X36469D03*
X36569D03*
X36669D03*
X35059Y63041D03*
X34959D03*
X34859D03*
X34259D03*
X34159D03*
X34059D03*
X31769Y63741D03*
X31669D03*
X31569D03*
X30968D03*
X30868D03*
X30768D03*
X30319Y67041D03*
X30219D03*
X30119D03*
X29518D03*
X29418D03*
X31119Y68191D03*
X31219D03*
X31319D03*
X31918D03*
X32018D03*
X32118D03*
X34069Y67441D03*
X34169D03*
X34269D03*
Y66891D03*
X34169D03*
X34069D03*
X34869D03*
X34969D03*
X35069D03*
Y67441D03*
X34969D03*
X34869D03*
X35668Y69291D03*
X35768D03*
X35868D03*
X36469D03*
X36569D03*
X36669D03*
X35069Y71191D03*
X34969D03*
X34869D03*
X34269D03*
X34169D03*
X34069D03*
X31769Y71891D03*
X31669D03*
X31569D03*
X30968D03*
X30868D03*
X30768D03*
X29318Y67041D03*
Y58891D03*
X29418D03*
X29518D03*
X30119D03*
X30219D03*
X30319D03*
X31119Y60041D03*
X31219D03*
X31319D03*
X31918D03*
X32018D03*
X32118D03*
X30868Y55591D03*
X30768D03*
X30968D03*
X31569D03*
X31669D03*
X31769D03*
X31918Y51891D03*
X32018D03*
X32118D03*
X31319D03*
X31219D03*
X31119D03*
X30319Y50741D03*
X30219D03*
X30119D03*
X29518D03*
X29418D03*
X29318D03*
X30768Y47441D03*
X30868D03*
X30968D03*
X31569D03*
X31669D03*
X31769D03*
X29318Y42591D03*
Y34441D03*
G54D71*
X36469Y25641D03*
Y25741D03*
Y25841D03*
Y26641D03*
Y26741D03*
Y26841D03*
X39618Y26540D03*
Y26440D03*
Y26340D03*
Y27340D03*
Y27440D03*
Y27540D03*
X41959Y28631D03*
Y28731D03*
Y28831D03*
Y29631D03*
Y29731D03*
Y29831D03*
X40968Y30991D03*
Y30891D03*
Y30791D03*
Y29991D03*
Y29891D03*
Y29791D03*
X39718Y34340D03*
Y34440D03*
Y34540D03*
Y35340D03*
Y35440D03*
Y35540D03*
X41959Y36731D03*
Y36831D03*
Y36931D03*
Y37731D03*
Y37831D03*
Y37931D03*
X40968Y38891D03*
Y38991D03*
Y39091D03*
Y38091D03*
Y37991D03*
Y37891D03*
X44169Y41091D03*
Y41191D03*
Y41291D03*
Y42091D03*
Y42191D03*
Y42291D03*
X47278Y42340D03*
Y42240D03*
Y42140D03*
Y43140D03*
Y43240D03*
X48878Y43190D03*
Y43090D03*
Y42990D03*
X49778Y42640D03*
Y42540D03*
Y42440D03*
X50528D03*
Y42540D03*
Y42640D03*
X51278Y42940D03*
Y43040D03*
Y43140D03*
X52628D03*
Y43040D03*
Y42940D03*
X53428Y42640D03*
Y42540D03*
Y42440D03*
X54178Y42940D03*
Y43040D03*
Y43140D03*
X55578Y42640D03*
Y42540D03*
Y42440D03*
X56028Y44740D03*
Y44840D03*
Y44940D03*
Y45740D03*
Y45840D03*
Y45940D03*
Y46690D03*
Y46790D03*
Y46890D03*
Y47690D03*
Y47790D03*
Y47890D03*
X54628Y46890D03*
Y46790D03*
Y46690D03*
Y45890D03*
Y45790D03*
Y45690D03*
X55328Y45390D03*
Y45290D03*
Y45190D03*
Y46190D03*
Y46290D03*
Y46390D03*
X55578Y43640D03*
Y43540D03*
Y43440D03*
X54178Y43940D03*
Y44040D03*
Y44140D03*
X53428Y43640D03*
Y43540D03*
Y43440D03*
X52628Y43940D03*
Y44040D03*
Y44140D03*
X51278D03*
Y44040D03*
Y43940D03*
X50528Y43640D03*
Y43540D03*
Y43440D03*
X49778D03*
Y43540D03*
Y43640D03*
X48878Y43990D03*
Y44090D03*
Y44190D03*
X47278Y43340D03*
X41959Y44881D03*
Y44981D03*
Y45081D03*
Y45881D03*
Y45981D03*
Y46081D03*
X40968Y47041D03*
Y47141D03*
Y47241D03*
Y46241D03*
Y46141D03*
Y46041D03*
X39718Y43690D03*
Y43590D03*
Y43490D03*
Y42690D03*
Y42590D03*
Y42490D03*
X36469Y42091D03*
Y41991D03*
Y41891D03*
Y42891D03*
Y42991D03*
Y43091D03*
Y34941D03*
Y34841D03*
Y34741D03*
Y33941D03*
Y33841D03*
Y33741D03*
X46469Y29091D03*
Y28991D03*
Y28891D03*
Y28091D03*
Y27991D03*
Y27891D03*
X56219Y27991D03*
Y28091D03*
Y28191D03*
Y28991D03*
Y29091D03*
Y29191D03*
X64219Y33191D03*
Y33291D03*
Y33391D03*
Y34191D03*
Y34291D03*
Y34391D03*
X64068Y40641D03*
Y40741D03*
Y40841D03*
Y41641D03*
Y41741D03*
Y41841D03*
X59778Y41990D03*
Y42090D03*
Y42190D03*
Y41190D03*
Y41090D03*
Y40990D03*
X56178Y52290D03*
Y52390D03*
Y52490D03*
Y53290D03*
Y53390D03*
Y53490D03*
X55128Y52990D03*
Y52890D03*
Y52790D03*
Y51990D03*
Y51890D03*
Y51790D03*
X53478Y53290D03*
Y53390D03*
Y53490D03*
X52728D03*
Y53390D03*
Y53290D03*
Y52490D03*
Y52390D03*
Y52290D03*
X53478D03*
Y52390D03*
Y52490D03*
X50178Y52790D03*
Y52890D03*
Y52990D03*
Y51990D03*
Y51890D03*
Y51790D03*
X48528Y52640D03*
Y53440D03*
Y53540D03*
Y53640D03*
Y52540D03*
Y52440D03*
X47678Y52640D03*
Y53440D03*
Y53540D03*
Y53640D03*
Y52540D03*
Y52440D03*
X44419Y54891D03*
Y54991D03*
Y55091D03*
Y54091D03*
Y53991D03*
Y53891D03*
X41959Y54231D03*
Y54131D03*
Y54031D03*
Y53231D03*
Y53131D03*
Y53031D03*
X40968Y54191D03*
Y54291D03*
Y54391D03*
Y55191D03*
Y55291D03*
Y55391D03*
X39618Y51650D03*
Y51550D03*
Y51450D03*
Y50650D03*
Y50550D03*
Y50450D03*
X36469Y51141D03*
Y51241D03*
Y51041D03*
Y50241D03*
Y50141D03*
Y50041D03*
X39618Y58590D03*
Y58690D03*
Y58790D03*
Y59590D03*
Y59690D03*
Y59790D03*
X41959Y61181D03*
Y61281D03*
Y61381D03*
Y62181D03*
Y62281D03*
Y62381D03*
X40968Y63441D03*
Y63541D03*
Y63341D03*
Y62541D03*
Y62441D03*
Y62341D03*
X39618Y66741D03*
Y66841D03*
Y66941D03*
Y67741D03*
Y67841D03*
Y67941D03*
X41968Y69341D03*
Y69441D03*
Y69541D03*
X43259D03*
Y69441D03*
Y69341D03*
Y68541D03*
Y68441D03*
Y68341D03*
X41968Y70341D03*
Y70441D03*
Y70541D03*
X40968Y71491D03*
Y71591D03*
Y71691D03*
Y70691D03*
Y70591D03*
Y70491D03*
X36469Y67541D03*
Y67441D03*
Y67341D03*
Y66541D03*
Y66441D03*
Y66341D03*
Y59391D03*
Y59291D03*
Y59191D03*
Y58391D03*
Y58291D03*
Y58191D03*
X48338Y67991D03*
Y68091D03*
Y68191D03*
Y68991D03*
Y69091D03*
Y69191D03*
X50368Y70991D03*
Y71091D03*
Y71191D03*
Y71991D03*
Y72091D03*
Y72191D03*
X56418Y65191D03*
Y65091D03*
Y64991D03*
Y64191D03*
Y64091D03*
Y63991D03*
X57868Y63391D03*
Y63291D03*
X59369Y60441D03*
Y60341D03*
Y60241D03*
Y59441D03*
Y59341D03*
Y59241D03*
X62550Y56700D03*
Y56600D03*
Y56500D03*
X64068Y56591D03*
Y56691D03*
Y56791D03*
Y57591D03*
Y57691D03*
Y57791D03*
X62550Y57700D03*
Y57600D03*
Y57500D03*
X60019Y54591D03*
Y54491D03*
Y54391D03*
Y53591D03*
Y53491D03*
Y53391D03*
X56582Y59341D03*
Y59441D03*
Y59541D03*
Y60341D03*
Y60441D03*
Y60541D03*
X57868Y63491D03*
Y64291D03*
Y64391D03*
Y64491D03*
X57269Y72041D03*
Y72141D03*
Y72241D03*
Y73041D03*
Y73141D03*
Y73241D03*
G54D72*
X28819Y28091D03*
X29218D03*
X28819Y29091D03*
X29618D03*
X36268Y25741D03*
X36669D03*
Y26741D03*
X36268D03*
X39418Y26440D03*
X39818D03*
Y27440D03*
X39418D03*
X41759Y28731D03*
X42159D03*
Y29731D03*
X41759D03*
X41168Y29891D03*
X40768D03*
Y30891D03*
X41168D03*
X46269Y28991D03*
Y27991D03*
X46669D03*
Y28991D03*
X42159Y36831D03*
Y37831D03*
X41168Y38991D03*
X40768D03*
Y37991D03*
X41168D03*
X41759Y37831D03*
Y36831D03*
X39918Y35440D03*
X39518D03*
Y34440D03*
X39918D03*
X36669Y34841D03*
X36268D03*
Y33841D03*
X36669D03*
X29618Y37191D03*
X28819D03*
Y36191D03*
X29218D03*
X36268Y41991D03*
X36669D03*
Y42991D03*
X36268D03*
X39518Y42590D03*
X39918D03*
Y43590D03*
X39518D03*
X41759Y44981D03*
Y45981D03*
X41168Y46141D03*
X40768D03*
X42159Y45981D03*
Y44981D03*
X41168Y47141D03*
X40768D03*
X39818Y50550D03*
X39418D03*
Y51550D03*
X39818D03*
X41759Y53131D03*
Y54131D03*
X42159D03*
Y53131D03*
X44219Y53991D03*
X44619D03*
Y54991D03*
X44219D03*
X47478Y52540D03*
X47878D03*
X48328D03*
X48728D03*
X49978Y51890D03*
X50378D03*
X52528Y52390D03*
X52928D03*
X53278D03*
X53678D03*
X54928Y51890D03*
X55328D03*
X55978Y52390D03*
X56378D03*
Y53390D03*
X55978D03*
X55328Y52890D03*
X54928D03*
X53678Y53390D03*
X53278D03*
X52928D03*
X52528D03*
X50378Y52890D03*
X49978D03*
X48728Y53540D03*
X48328D03*
X47878D03*
X47478D03*
X41168Y54291D03*
X40768D03*
Y55291D03*
X41168D03*
X39818Y58690D03*
X39418D03*
Y59690D03*
X39818D03*
X41759Y61281D03*
X42159D03*
Y62281D03*
X41168Y63441D03*
X40768D03*
Y62441D03*
X41168D03*
X41759Y62281D03*
X39818Y66841D03*
X39418D03*
Y67841D03*
X39818D03*
X41768Y69441D03*
X42168D03*
X43059D03*
Y68441D03*
X43459D03*
Y69441D03*
X42168Y70441D03*
X41168Y71591D03*
X40768D03*
Y70591D03*
X41168D03*
X41768Y70441D03*
X36669Y67441D03*
X36268D03*
Y66441D03*
X36669D03*
Y59291D03*
X36268D03*
Y58291D03*
X36669D03*
Y51141D03*
X36268D03*
Y50141D03*
X36669D03*
X29618Y53491D03*
X28819D03*
Y52491D03*
X29218D03*
X28819Y45341D03*
Y44341D03*
X29218D03*
X29618Y45341D03*
X43969Y41191D03*
X44369D03*
Y42191D03*
X43969D03*
X47078Y42240D03*
X47478D03*
Y43240D03*
X47078D03*
X48678Y43090D03*
X49078D03*
X49578Y42540D03*
X49978D03*
X50328D03*
X50728D03*
X51078Y43040D03*
X51478D03*
X52428D03*
X52828D03*
X53228Y42540D03*
X53628D03*
X53978Y43040D03*
X54378D03*
X55378Y42540D03*
X55778D03*
Y43540D03*
X55828Y44840D03*
X56228D03*
Y45840D03*
X55828D03*
Y46790D03*
X56228D03*
Y47790D03*
X55828D03*
X54828Y46790D03*
X54428D03*
Y45790D03*
X54828D03*
X55128Y45290D03*
X55528D03*
Y46290D03*
X55128D03*
X55378Y43540D03*
X54378Y44040D03*
X53978D03*
X53628Y43540D03*
X53228D03*
X52828Y44040D03*
X52428D03*
X51478D03*
X51078D03*
X50728Y43540D03*
X50328D03*
X49978D03*
X49578D03*
X49078Y44090D03*
X48678D03*
X59578Y41090D03*
X59978D03*
Y42090D03*
X59578D03*
X63868Y41741D03*
X64268D03*
Y40741D03*
X63868D03*
X64019Y34291D03*
X64419D03*
Y33291D03*
X64019D03*
X56418Y29091D03*
X56019D03*
Y28091D03*
X56418D03*
X59819Y53491D03*
X60219D03*
Y54491D03*
X59819D03*
X62350Y56600D03*
X62750D03*
X63868Y56691D03*
X64268D03*
Y57691D03*
X63868D03*
X62750Y57600D03*
X62350D03*
X59569Y60341D03*
X59169D03*
Y59341D03*
X59569D03*
X58068Y63391D03*
X57668D03*
Y64391D03*
X58068D03*
X56618Y65091D03*
X56219D03*
Y64091D03*
X56618D03*
X56782Y60441D03*
X56382D03*
Y59441D03*
X56782D03*
X48538Y68091D03*
X48138D03*
Y69091D03*
X48538D03*
X50168Y71091D03*
X50568D03*
Y72091D03*
X50168D03*
X57069Y72141D03*
X57469D03*
Y73141D03*
X57069D03*
X29618Y69791D03*
X28819D03*
Y68791D03*
X29218D03*
X28819Y61641D03*
Y60641D03*
X29218D03*
X29618Y61641D03*
G54D73*
X36869Y31691D03*
Y32091D03*
X37868D03*
Y31691D03*
X39218D03*
Y32091D03*
X40219D03*
Y31691D03*
X41069Y33790D03*
X42069D03*
Y34190D03*
X42509Y34591D03*
Y34991D03*
X41509D03*
Y34591D03*
X41069Y34190D03*
X40068Y36040D03*
Y36440D03*
X39069D03*
Y36040D03*
X38368Y34241D03*
X37369D03*
Y33841D03*
X38368D03*
X39069Y28340D03*
Y27940D03*
X40068D03*
Y28340D03*
X41509Y26891D03*
Y26491D03*
X41069Y26090D03*
Y25690D03*
X42069D03*
Y26090D03*
X43468Y25791D03*
Y25391D03*
X44468D03*
Y25791D03*
X45469D03*
Y25391D03*
X46469D03*
Y25791D03*
X45469Y27891D03*
Y28291D03*
X44468D03*
Y27891D03*
X42509Y26891D03*
Y26491D03*
X38368Y26141D03*
Y25741D03*
X37369D03*
Y26141D03*
X39218Y39791D03*
Y40191D03*
X40219D03*
Y39791D03*
X37868D03*
Y40191D03*
X36869D03*
Y39791D03*
X37369Y41991D03*
Y42391D03*
X38368D03*
Y41991D03*
X39069Y44190D03*
Y44590D03*
X40068D03*
Y44190D03*
X41509Y43141D03*
Y42741D03*
X41069Y42340D03*
Y41940D03*
X42069D03*
Y42340D03*
X42509Y42741D03*
Y43141D03*
X46778Y44840D03*
X47778D03*
Y45240D03*
Y45640D03*
Y46040D03*
X46778D03*
Y45640D03*
Y45240D03*
X48278Y47240D03*
Y47640D03*
Y48040D03*
Y48440D03*
Y48840D03*
Y49240D03*
X47828Y49740D03*
Y50140D03*
X46828D03*
Y49740D03*
X47278Y49240D03*
Y48840D03*
Y48440D03*
Y48040D03*
Y47640D03*
Y47240D03*
X47478Y51490D03*
Y51890D03*
X46478D03*
Y51490D03*
X42509Y51291D03*
Y50891D03*
X42069Y50490D03*
Y50090D03*
X41509Y51291D03*
Y50891D03*
X41069Y50490D03*
Y50090D03*
X40068Y52340D03*
X39069D03*
Y52740D03*
X40068D03*
X38368Y50541D03*
Y50141D03*
X37369D03*
Y50541D03*
X37868Y48341D03*
Y47941D03*
X39218D03*
X40219D03*
Y48341D03*
X39218D03*
X36869D03*
Y47941D03*
X39218Y56091D03*
Y56491D03*
X40219D03*
Y56091D03*
X41069Y58240D03*
Y58640D03*
X42069D03*
Y58240D03*
X42509Y59041D03*
Y59441D03*
X41509D03*
Y59041D03*
X40068Y60490D03*
Y60890D03*
X39069D03*
Y60490D03*
X38368Y58691D03*
Y58291D03*
X37369D03*
Y58691D03*
X37868Y56491D03*
Y56091D03*
X36869D03*
Y56491D03*
X39218Y64241D03*
Y64641D03*
X40219D03*
Y64241D03*
X41069Y66391D03*
X42069D03*
Y66791D03*
X42509Y67191D03*
Y67591D03*
X41509D03*
Y67191D03*
X41069Y66791D03*
X40068Y68641D03*
Y69041D03*
X39069D03*
Y68641D03*
X38368Y66841D03*
X37369D03*
Y66441D03*
X38368D03*
X37868Y64641D03*
Y64241D03*
X36869D03*
Y64641D03*
X39218Y72391D03*
X40219D03*
Y72791D03*
X39218D03*
X37868D03*
Y72391D03*
X36869Y72791D03*
Y72391D03*
X49819Y69541D03*
X50819D03*
Y69941D03*
X49819D03*
X53921Y63841D03*
Y63441D03*
X54169Y62891D03*
Y62491D03*
X55168D03*
Y62891D03*
X55469Y61941D03*
Y61541D03*
X55619Y60941D03*
Y60541D03*
X54619D03*
Y60941D03*
X56469Y61541D03*
Y61941D03*
X54921Y63441D03*
Y63841D03*
X60219Y60091D03*
X61219Y59841D03*
X60850Y59250D03*
Y58850D03*
X61850D03*
Y59250D03*
X61219Y61291D03*
Y62641D03*
X60419Y64741D03*
Y65141D03*
X59419D03*
Y64741D03*
X60219Y62891D03*
Y61541D03*
X60409Y69141D03*
Y69541D03*
X59408D03*
Y69141D03*
X57178Y51940D03*
Y51540D03*
X57119Y51191D03*
X56118D03*
X56178Y51540D03*
Y51940D03*
X56118Y50791D03*
X56578Y50390D03*
Y49990D03*
Y49640D03*
X57119Y50791D03*
X56578Y49240D03*
X57578D03*
Y49640D03*
Y49990D03*
Y50390D03*
X56328Y44090D03*
Y43690D03*
X57328D03*
Y44090D03*
X62418Y41391D03*
Y40991D03*
Y40591D03*
X63418D03*
Y40991D03*
Y41391D03*
Y41791D03*
X62418D03*
G54D74*
X36769Y31891D03*
X36869D03*
X36969D03*
X37768D03*
X37868D03*
X37968D03*
X39118D03*
X39218D03*
X39318D03*
X40118D03*
X40219D03*
X40318D03*
X41968Y33990D03*
X42069D03*
X42168D03*
X42409Y34791D03*
X42509D03*
X42609D03*
X41609D03*
X41509D03*
X41409D03*
X41168Y33990D03*
X41069D03*
X40968D03*
X40168Y36240D03*
X40068D03*
X39969D03*
X39169D03*
X39069D03*
X38969D03*
X38468Y34041D03*
X38368D03*
X38268D03*
X37469D03*
X37369D03*
X37269D03*
X40318Y39991D03*
X40219D03*
X40118D03*
X39318D03*
X39218D03*
X39118D03*
X37968D03*
X37868D03*
X37768D03*
X36969D03*
X36869D03*
X36769D03*
X37269Y42191D03*
X37369D03*
X37469D03*
X38268D03*
X38368D03*
X38468D03*
X38969Y44390D03*
X39069D03*
X39169D03*
X39969D03*
X40068D03*
X40168D03*
X41409Y42941D03*
X41509D03*
X41609D03*
X41168Y42140D03*
X41069D03*
X40968D03*
X41968D03*
X42069D03*
X42168D03*
X42409Y42941D03*
X42509D03*
X42609D03*
X46678Y45040D03*
X46778D03*
X46878D03*
Y45840D03*
X46778D03*
X46678D03*
X47678D03*
X47778D03*
X47878D03*
Y45040D03*
X47778D03*
X47678D03*
X48178Y47440D03*
X48278D03*
X48378D03*
Y48240D03*
X48278D03*
X48178D03*
Y49040D03*
X48278D03*
X48378D03*
X47928Y49940D03*
X47828D03*
X47728D03*
X46928D03*
X46828D03*
X46728D03*
X47178Y49040D03*
X47278D03*
X47378D03*
Y48240D03*
X47278D03*
X47178D03*
Y47440D03*
X47278D03*
X47378D03*
Y51690D03*
X47478D03*
X47578D03*
X46578D03*
X46478D03*
X46378D03*
X42609Y51091D03*
X42509D03*
X42409D03*
X42168Y50290D03*
X42069D03*
X41968D03*
X41609Y51091D03*
X41509D03*
X41409D03*
X41168Y50290D03*
X41069D03*
X40968D03*
X40318Y48141D03*
X40219D03*
X40118D03*
X39318D03*
X39218D03*
X39118D03*
X38468Y50341D03*
X38368D03*
X38268D03*
X37469D03*
X37369D03*
X37269D03*
X37768Y48141D03*
X37868D03*
X37968D03*
X36969D03*
X36869D03*
X36769D03*
X38969Y52540D03*
X39069D03*
X39169D03*
X39969D03*
X40068D03*
X40168D03*
X40318Y56291D03*
X41968Y58440D03*
X42069D03*
X42168D03*
X42409Y59241D03*
X42509D03*
X42609D03*
X41609D03*
X41509D03*
X41409D03*
X41168Y58440D03*
X41069D03*
X40968D03*
X40219Y56291D03*
X40118D03*
X39318D03*
X39218D03*
X39118D03*
X38468Y58491D03*
X38368D03*
X38268D03*
X37469D03*
X37369D03*
X37269D03*
X37768Y56291D03*
X37868D03*
X37968D03*
X36969D03*
X36869D03*
X36769D03*
X38969Y60690D03*
X39069D03*
X39169D03*
X39969D03*
X40068D03*
X40168D03*
X40318Y64441D03*
X40219D03*
X40118D03*
X39318D03*
X39218D03*
X39118D03*
X37968D03*
X37868D03*
X37768D03*
X36969D03*
X36869D03*
X36769D03*
X37269Y66641D03*
X37369D03*
X37469D03*
X38268D03*
X38368D03*
X38468D03*
X38969Y68841D03*
X39069D03*
X39169D03*
X39969D03*
X40068D03*
X40168D03*
X41409Y67391D03*
X41509D03*
X41609D03*
X41168Y66591D03*
X41069D03*
X40968D03*
X41968D03*
X42069D03*
X42168D03*
X42409Y67391D03*
X42509D03*
X42609D03*
X40318Y72591D03*
X40219D03*
X40118D03*
X39318D03*
X39218D03*
X39118D03*
X37968D03*
X37868D03*
X37768D03*
X36969D03*
X36869D03*
X36769D03*
X49718Y69741D03*
X49819D03*
X49918D03*
X50718D03*
X50819D03*
X50918D03*
X53821Y63641D03*
X53921D03*
X54021D03*
X54068Y62691D03*
X55368Y61741D03*
X55469D03*
X55568D03*
X55518Y60741D03*
X55619D03*
X54718D03*
X54619D03*
X54518D03*
X55718D03*
X56368Y61741D03*
X56469D03*
X56568D03*
X55269Y62691D03*
X55168D03*
X55068D03*
X54268D03*
X54169D03*
X54821Y63641D03*
X54921D03*
X55021D03*
X59318Y64941D03*
X59419D03*
X59518D03*
X60318D03*
X60419D03*
X60518D03*
X60750Y59050D03*
X60850D03*
X60950D03*
X61750D03*
X61850D03*
X61950D03*
X57178Y51740D03*
X57078D03*
X56278D03*
X56178D03*
X56078D03*
X56118Y50991D03*
X56019D03*
X56219D03*
X57018D03*
X57119D03*
X57218D03*
X56678Y50190D03*
X56578D03*
X56478D03*
Y49440D03*
X56578D03*
X56678D03*
X57478D03*
X57578D03*
X57678D03*
Y50190D03*
X57578D03*
X57478D03*
X57278Y51740D03*
X57228Y43890D03*
X56428D03*
X56328D03*
X56228D03*
X57328D03*
X57428D03*
X62319Y41591D03*
X62418D03*
X62519D03*
X63319D03*
X63418D03*
Y40791D03*
X63319D03*
X62519D03*
X62418D03*
X62319D03*
X63519D03*
Y41591D03*
X46568Y25591D03*
X46469D03*
X46368D03*
X45568D03*
X45469D03*
X45368D03*
X44569D03*
X44468D03*
X44369D03*
X43569D03*
X43468D03*
X43369D03*
X42609Y26691D03*
X42509D03*
X42409D03*
X42168Y25890D03*
X42069D03*
X41968D03*
X41609Y26691D03*
X41509D03*
X41409D03*
X41168Y25890D03*
X41069D03*
X40968D03*
X44369Y28091D03*
X44468D03*
X44569D03*
X45368D03*
X45469D03*
X45568D03*
X40168Y28140D03*
X40068D03*
X39969D03*
X39169D03*
X39069D03*
X38969D03*
X38468Y25941D03*
X38368D03*
X38268D03*
X37469D03*
X37369D03*
X37269D03*
X60409Y69341D03*
X60508D03*
X60308D03*
X59509D03*
X59408D03*
X59309D03*
G54D83*
X38531Y29940D03*
Y38040D03*
Y46190D03*
Y54340D03*
Y62490D03*
Y70641D03*
G54D85*
X40106Y29940D03*
Y38040D03*
Y46190D03*
Y54340D03*
Y62490D03*
Y70641D03*
G54D86*
X48969Y70691D03*
Y71591D03*
Y72491D03*
X45469Y71591D03*
G54D89*
X44868Y30091D03*
X47868D03*
X53719Y26591D03*
X56719D03*
X59969Y33341D03*
X56968D03*
G54D90*
X27369Y42341D03*
G54D91*
X26168Y42841D03*
X27369Y43441D03*
Y44541D03*
Y45641D03*
Y46741D03*
Y47841D03*
Y48941D03*
Y50041D03*
Y51141D03*
Y52241D03*
Y53341D03*
Y54441D03*
Y55541D03*
X26168Y55041D03*
Y53941D03*
Y52841D03*
Y51741D03*
Y50641D03*
Y49541D03*
Y48441D03*
Y47241D03*
Y46241D03*
Y45141D03*
Y44041D03*
G54D92*
X26769Y39541D03*
Y57941D03*
G54D93*
X46469Y26841D03*
G54D94*
X44468Y26841D03*
X45469D03*
G54D95*
X62028Y42540D03*
Y43540D03*
Y44540D03*
X63028D03*
Y43540D03*
Y45540D03*
X62028D03*
Y46540D03*
X63028D03*
G54D96*
X63028Y42540D03*
G54D97*
X31469Y25391D03*
X34969D03*
Y32141D03*
Y33491D03*
X31469D03*
Y32141D03*
X34969Y40241D03*
Y41641D03*
X31469D03*
Y40241D03*
X34969Y48391D03*
Y49791D03*
X31469D03*
Y48391D03*
X34969Y56541D03*
Y57941D03*
X31469D03*
Y56541D03*
X34969Y64691D03*
Y66091D03*
X31469D03*
Y64691D03*
X34969Y72841D03*
X31469D03*
X42469Y65341D03*
Y57091D03*
X45478Y54390D03*
X43969Y47341D03*
X42568Y41091D03*
X44718Y34841D03*
X42218Y31591D03*
X52719Y30091D03*
X56469Y31091D03*
X58868Y36591D03*
X60219Y38091D03*
X59928Y38940D03*
X58068Y36591D03*
Y35791D03*
X56568D03*
Y36591D03*
X55768D03*
X54969D03*
X62168Y28509D03*
Y27525D03*
Y26541D03*
Y29493D03*
X62218Y60141D03*
Y61141D03*
Y61941D03*
Y62941D03*
Y68251D03*
Y69251D03*
Y70051D03*
Y71051D03*
X52000Y66250D03*
G54D98*
X63319Y58941D03*
Y64141D03*
Y67051D03*
Y72251D03*
G54D99*
X25724Y22575D03*
X35961D03*
X66276D03*
Y75724D03*
X35961D03*
X25724D03*
G54D100*
X28800Y26300D03*
X29350Y27600D03*
X29769Y26841D03*
X31918Y27491D03*
X33219Y27041D03*
X33719Y27141D03*
X34369Y26191D03*
X36769Y26741D03*
X38468Y25941D03*
X39118Y25641D03*
X39718Y25891D03*
X40368Y25541D03*
X40968Y25891D03*
X41869D03*
X40219Y28141D03*
X38969D03*
X39625Y27541D03*
X40980Y29556D03*
X39118Y31891D03*
X40368Y33641D03*
X40968Y33991D03*
X41869D03*
X39625Y35641D03*
X40219Y36241D03*
X38969D03*
X40980Y37656D03*
X39118Y39991D03*
X37968D03*
X37469Y37791D03*
X35768Y37891D03*
Y37041D03*
X36769Y34841D03*
X38468Y34041D03*
X39118Y33741D03*
X39718Y33991D03*
X37968Y31891D03*
X37469Y29691D03*
X35768Y29791D03*
Y28941D03*
X35168Y30491D03*
X33719Y30041D03*
X31869Y31191D03*
X31969Y30391D03*
X31319Y29241D03*
X30319Y30091D03*
X30168Y28441D03*
X28660Y30050D03*
X28700Y29150D03*
X29218Y28391D03*
X28800Y27900D03*
X29769Y30991D03*
X33219Y35141D03*
X33719Y35241D03*
X34369Y34291D03*
X35168Y34841D03*
Y38591D03*
X33719Y38141D03*
X31869Y39291D03*
X31969Y38491D03*
X31319Y37341D03*
X31918Y35591D03*
X30319Y38191D03*
X30168Y36541D03*
X29769Y34941D03*
X29350Y35700D03*
X28800Y36000D03*
X29218Y36491D03*
X28800Y34400D03*
X28700Y37250D03*
X28660Y38150D03*
X29769Y39091D03*
X33219Y43291D03*
X34369Y42441D03*
X35168Y42991D03*
X36769D03*
X38468Y42191D03*
X39118Y41891D03*
X39718Y42141D03*
X40368Y41791D03*
X40968Y42141D03*
X41869D03*
X44178Y42490D03*
X46478Y42240D03*
Y43240D03*
X47818Y42241D03*
X48428Y43040D03*
X49619Y42291D03*
X50819D03*
X51928Y43040D03*
X53928Y42240D03*
X55515Y40418D03*
X56828Y43040D03*
X57478Y42240D03*
X59778D03*
X57478Y43890D03*
Y45640D03*
X59678Y46790D03*
X60778Y47690D03*
X61578Y48890D03*
X60669Y50841D03*
X61019Y51191D03*
X61367Y51539D03*
X59778Y53490D03*
X59068Y55091D03*
X57469Y53541D03*
X57618Y52091D03*
X57628Y49790D03*
X58028Y47990D03*
X57978Y46640D03*
X56828Y48790D03*
X56028Y46790D03*
Y45840D03*
X56678Y44840D03*
X55328Y46290D03*
X54628Y46790D03*
X54928Y43040D03*
X55528Y42240D03*
X52069Y40091D03*
X47278Y44090D03*
X46478Y45440D03*
X46628Y47640D03*
X47278Y47190D03*
X46478Y49940D03*
X47269Y50751D03*
X46478Y52140D03*
X49428Y52890D03*
X49985Y53533D03*
X50978Y52890D03*
X53128Y53690D03*
X54728Y52890D03*
X55568Y53741D03*
X56833Y51145D03*
X56890Y52952D03*
X59468Y49941D03*
X59969Y50141D03*
X60318Y50491D03*
X63978Y48890D03*
X63578Y48140D03*
X63868Y41241D03*
X47269Y52891D03*
X47319Y53691D03*
X44419Y53741D03*
X41869Y50291D03*
X42818Y48591D03*
X43719D03*
X44219D03*
X40968Y50291D03*
X40368Y49941D03*
X39625Y51941D03*
X40219Y52541D03*
X38969D03*
X39118Y50041D03*
X39718Y50291D03*
X39118Y48141D03*
X38468Y50341D03*
X37968Y48141D03*
X35768Y46041D03*
Y45191D03*
X37469Y45941D03*
X38969Y44391D03*
X40219D03*
X39625Y43791D03*
X40980Y45806D03*
X36769Y51141D03*
X37469Y54091D03*
X35768Y54191D03*
Y53341D03*
X35168Y54891D03*
X33719Y54441D03*
X31969Y54791D03*
X31869Y55591D03*
X31319Y53641D03*
X31918Y51891D03*
X33219Y51441D03*
X33719Y51541D03*
X34369Y50591D03*
X35168Y51141D03*
X31869Y47441D03*
X31969Y46641D03*
X31319Y45491D03*
X31918Y43741D03*
X33719Y43391D03*
Y46291D03*
X35168Y46741D03*
X29769Y51241D03*
X30168Y52841D03*
X30319Y54491D03*
X29769Y55391D03*
X28660Y54450D03*
X28700Y53550D03*
X29218Y52791D03*
X28800Y52300D03*
X29350Y52000D03*
X28800Y50700D03*
X29769Y47241D03*
X30319Y46341D03*
X30168Y44691D03*
X29769Y43091D03*
X29350Y43850D03*
X28800Y44150D03*
X29218Y44641D03*
X28800Y42550D03*
X28700Y45400D03*
X28660Y46300D03*
X39118Y56291D03*
X40368Y58091D03*
X40968Y58441D03*
X42469Y56091D03*
X41869Y58441D03*
X40219Y60691D03*
X38969D03*
X39625Y60091D03*
X39718Y58441D03*
X39118Y58191D03*
X38468Y58491D03*
X37968Y56291D03*
X40980Y53956D03*
X36769Y59291D03*
X35768Y61491D03*
X37469Y62241D03*
X39118Y64441D03*
X40980Y62106D03*
X40368Y66241D03*
X41869Y66591D03*
X40968D03*
X39625Y68241D03*
X40219Y68841D03*
X38969D03*
X39718Y66591D03*
X39118Y66341D03*
X38468Y66641D03*
X36769Y67441D03*
X35168D03*
X34369Y66891D03*
X33719Y67841D03*
X33219Y67741D03*
X31918Y68191D03*
X33719Y70741D03*
X35168Y71191D03*
X35768Y70491D03*
Y69641D03*
X37469Y70391D03*
X39118Y72591D03*
X40980Y70256D03*
X37968Y72591D03*
X31869Y71891D03*
X31969Y71091D03*
X31319Y69941D03*
X29769Y71691D03*
X30319Y70791D03*
X30168Y69141D03*
X29769Y67541D03*
X29350Y68300D03*
X28800Y68600D03*
X29218Y69091D03*
X28800Y67000D03*
X29769Y63541D03*
X30319Y62641D03*
X30168Y60991D03*
X29769Y59391D03*
X31918Y60041D03*
X33219Y59591D03*
X33719Y59691D03*
X34369Y58741D03*
X35168Y59291D03*
X35768Y62341D03*
X37968Y64441D03*
X35168Y63041D03*
X33719Y62591D03*
X31869Y63741D03*
X31969Y62941D03*
X31319Y61791D03*
X28660Y62600D03*
X28700Y61700D03*
X29218Y60941D03*
X28800Y60450D03*
X29350Y60150D03*
X28800Y58850D03*
X28700Y69850D03*
X28660Y70750D03*
X52319Y68841D03*
X51368Y70541D03*
X54718Y68341D03*
X55718Y68091D03*
X57108Y69641D03*
X56609Y70141D03*
X57909Y65691D03*
X56418Y63841D03*
X56469Y61991D03*
X56568Y60741D03*
X57919Y63091D03*
X59068Y59341D03*
X60718Y59841D03*
X61418Y60291D03*
Y61741D03*
X60718Y61291D03*
Y62641D03*
X61418Y63091D03*
X60419Y66551D03*
Y69651D03*
X55168Y63641D03*
X54213Y63747D03*
X54169Y62291D03*
X54419Y60741D03*
X55368D03*
X55669Y61791D03*
X53418Y59741D03*
X35168Y26741D03*
G54D101*
X45469Y41441D03*
X49219Y37841D03*
X49019Y31841D03*
X52969Y28591D03*
X57094Y26591D03*
X58668D03*
X59468Y29091D03*
X57894D03*
X56469Y33341D03*
X62719Y35541D03*
X64219Y33091D03*
X65718Y35541D03*
X64219Y36091D03*
X58719Y41091D03*
X55478Y43690D03*
X54478Y44690D03*
X53478Y45690D03*
Y43690D03*
X51478Y45690D03*
Y43690D03*
X52478Y44690D03*
X50478D03*
X49478Y45690D03*
Y43690D03*
X48478Y44690D03*
X51478Y47690D03*
X52478Y46690D03*
X53478Y47690D03*
X55478D03*
X54478Y48690D03*
Y50690D03*
X55478Y49690D03*
Y51690D03*
X53468Y51691D03*
X53478Y49690D03*
X51478Y51690D03*
X52478Y50690D03*
X51478Y49690D03*
X52478Y48690D03*
X50478Y50690D03*
Y48690D03*
Y46690D03*
X48478Y48690D03*
X49478Y47690D03*
X48478Y46690D03*
Y50690D03*
X49478Y49690D03*
Y51690D03*
X58468Y59091D03*
X57668Y60441D03*
X56069Y63091D03*
X48969Y69841D03*
Y70691D03*
X52719Y72591D03*
X60978Y46490D03*
X49019Y25741D03*
G54D102*
X61219Y60341D03*
Y61791D03*
Y63141D03*
G54D103*
X29618Y28091D03*
Y36191D03*
Y44341D03*
Y52491D03*
Y60641D03*
Y68791D03*
G54D104*
X30701Y28441D03*
X30957D03*
X31213D03*
X31469D03*
Y30074D03*
X31213D03*
X30957D03*
X30701D03*
X30957Y36541D03*
X31213D03*
X31469D03*
Y38174D03*
X31213D03*
X30957D03*
X30701D03*
Y36541D03*
X30957Y44691D03*
X31213D03*
X31469D03*
Y46324D03*
X31213D03*
X30957D03*
X30701D03*
Y44691D03*
X30957Y52841D03*
X31213D03*
X31469D03*
Y54474D03*
X31213D03*
X30957D03*
X30701D03*
Y52841D03*
X30957Y60991D03*
X31213D03*
X31469D03*
Y62624D03*
X31213D03*
X30957D03*
X30701D03*
Y60991D03*
X30957Y69141D03*
X31213D03*
X31469D03*
Y70774D03*
X31213D03*
X30957D03*
X30701D03*
Y69141D03*
G54D105*
X41409Y27741D03*
X42509Y27341D03*
Y35441D03*
X41409Y35841D03*
X42509Y43591D03*
X41409Y43991D03*
X42509Y51741D03*
X41409Y52141D03*
X42509Y59891D03*
X41409Y60291D03*
X42509Y68041D03*
X41409Y68441D03*
X57269Y61541D03*
X59468D03*
Y61041D03*
Y62041D03*
Y62541D03*
X57269D03*
Y62041D03*
X61378Y49390D03*
Y48890D03*
Y48390D03*
X63578Y47890D03*
Y48390D03*
Y48890D03*
Y49390D03*
G54D106*
X42509Y28141D03*
Y36241D03*
Y44391D03*
Y52541D03*
Y60691D03*
Y68841D03*
X57269Y61041D03*
X61378Y47890D03*
G54D107*
X49468Y28841D03*
Y31841D03*
X52719Y28841D03*
Y31841D03*
X57668Y28841D03*
Y31841D03*
X62719Y32091D03*
X65718D03*
Y35091D03*
X62719D03*
G54D108*
X55339Y66591D03*
Y67091D03*
Y67591D03*
Y68091D03*
Y68591D03*
Y69091D03*
Y69591D03*
X53218Y70091D03*
Y69591D03*
Y69091D03*
Y68591D03*
Y68091D03*
Y67591D03*
Y67091D03*
Y66591D03*
G54D109*
X55339Y70091D03*
G54D110*
X55718Y71291D03*
Y73091D03*
X53719Y71291D03*
G54D111*
X53719Y73091D03*
G54D112*
X51638Y67299D03*
Y67555D03*
Y67811D03*
Y68067D03*
Y68323D03*
Y68579D03*
Y68835D03*
X49300D03*
Y68579D03*
Y68323D03*
Y69091D03*
Y68067D03*
Y67811D03*
Y67555D03*
Y67299D03*
G54D113*
X51638Y69091D03*
G54D114*
X60800Y56000D03*
Y58000D03*
M02*