M48
;Layer_Color=9474304
;FILE_FORMAT=4:3
METRIC
;TYPE=PLATED
T1F00S00C0.120
T2F00S00C0.300
T3F00S00C0.400
T4F00S00C0.500
T5F00S00C0.600
T6F00S00C0.700
T7F00S00C0.920
T8F00S00C1.000
T9F00S00C1.016
T10F00S00C1.090
T11F00S00C1.100
T12F00S00C2.300
T13F00S00C3.000
T14F00S00C3.200
T15F00S00C3.240
%
T01
X0121500Y0082800
Y0083300
X0130000Y0112000
X0131000
X0133000Y0114000
Y0115000
X0134000Y0115000
Y0114000
X0136000Y0114000
Y0115000
X0137000Y0115000
X0138000Y0115000
Y0114000
X0139000Y0114000
X0140000Y0114000
Y0115000
Y0117000
Y0118000
Y0119000
X0139000Y0116000
X0135000Y0116000
X0134000
Y0117000
X0135000Y0118000
X0133000Y0118000
X0132000
Y0116000
X0133000
X0142000Y0115000
Y0114000
X0144000
X0145000
X0146000
X0146000Y0115000
Y0116000
X0145000
X0145000Y0115000
X0144000
X0147000
X0148000Y0115000
Y0114000
X0147000Y0114000
X0149000
X0149000Y0115000
X0150000
Y0116000
X0149000
X0149000Y0117000
X0148000
X0147000
Y0118000
X0149000Y0119000
X0150000
X0150000Y0117000
X0151000Y0117000
X0152000
Y0115000
X0151000
X0150000Y0114000
X0151000Y0112000
X0152000
X0152200Y0108700
X0144000Y0119000
X0144000Y0120000
X0143000
X0142000
Y0122000
X0144000
Y0121000
Y0124000
X0144000Y0125000
Y0126000
Y0127000
X0143000
X0142000
Y0126000
X0143000
X0143000Y0128000
Y0129000
Y0130000
X0144000
X0145000
Y0129000
X0144000
Y0128000
X0145000
X0146000
Y0129000
X0147000Y0129000
X0148000
X0148000Y0130000
X0149000
Y0129000
X0150000
Y0130000
Y0131000
X0149000
X0148000Y0131000
X0147000Y0131000
X0146000Y0131000
X0145000
X0144000
X0143000
X0142000
X0142000Y0132000
X0143000
X0144000
X0145000
X0146000
X0146000Y0133000
X0146500Y0135000
X0150000Y0134000
X0151000Y0134000
X0151000Y0133000
X0150000Y0132000
X0149000Y0132000
X0149000Y0132000
X0148000Y0132000
X0148000Y0128000
X0147000Y0128000
X0147000Y0127000
X0148000
X0149000
X0150000
X0151000
Y0126000
X0152000Y0126000
Y0125000
Y0124000
X0151000Y0125000
X0150000Y0125000
X0149000
X0149000Y0126000
X0150000
X0148000Y0126000
X0147000Y0126000
X0146000
Y0127000
X0145000Y0127000
Y0126000
X0142000Y0124000
X0140000
X0138000
Y0125000
X0137000
Y0124000
Y0122000
Y0121000
Y0120000
X0136000Y0120000
Y0122000
X0135000
X0134000
X0133000
X0132000
Y0120000
X0133000
X0134000Y0120000
Y0121000
X0134000Y0124000
X0135000Y0124000
X0133000
X0132000
X0133000Y0126000
X0134000
X0135000Y0127000
X0136000Y0127000
X0138000Y0126000
X0139000
X0140000
X0140000Y0127000
X0139000
X0141000Y0129000
X0140000Y0131000
Y0132000
X0139000Y0131000
X0138000Y0131000
Y0132000
X0137000
X0136000Y0131000
X0135000
X0134000
Y0132000
X0135000
Y0130000
X0134000
Y0129000
X0132000Y0129000
Y0130000
X0133000
X0133000Y0132000
X0132000Y0132000
X0131000Y0133000
Y0134000
X0132000Y0128000
X0133000
X0138000Y0122000
Y0121000
Y0120000
X0139000
X0140000
Y0122000
X0147000Y0121000
X0148000
Y0122000
X0149000
Y0121000
X0150000
Y0122000
X0151000
X0152000
X0152000Y0127000
X0152000Y0129000
Y0130000
X0151000
Y0129000
X0150000Y0128000
X0149000
X0150125Y0149625
Y0150375
Y0151125
Y0151875
Y0152625
X0150875
X0151625
Y0151875
X0152375
X0153125
X0153875
Y0152625
X0154625
Y0151125
Y0150375
X0153875
X0153125
X0153125Y0149625
X0152375Y0149625
X0152375Y0150375
X0151625
Y0151125
X0150875
Y0151875
Y0150375
Y0149625
X0151625
X0151625Y0148875
X0152375
X0153125Y0148875
X0153875
Y0149625
X0154625
X0156125Y0149625
Y0150375
Y0151125
Y0151875
X0153875Y0151125
X0153125Y0153375
X0152375
X0155375Y0148875
X0121500Y0123100
Y0122600
X0121500Y0162300
Y0162800
T02
X0118000Y0075500
X0110700Y0079600
X0110800Y0080700
X0110000Y0082000
Y0083000
X0109000Y0082500
X0108500Y0083800
X0109900Y0084900
X0110300Y0085800
X0111000Y0086500
X0117000Y0089500
X0118000Y0115000
X0111000Y0116300
X0110000Y0119000
X0109800Y0110300
X0122500Y0083400
Y0081500
Y0121300
Y0123400
X0156800Y0122000
X0153000Y0135500
X0153500Y0138500
X0118000Y0129500
X0111000Y0126300
X0110300Y0125600
X0109900Y0124700
X0110000Y0122800
Y0121800
X0109000Y0122300
X0108500Y0123800
X0110800Y0120500
X0117600Y0156000
X0110700Y0159100
X0110800Y0160200
X0110000Y0161500
Y0162500
X0109000Y0162000
X0108500Y0163500
X0109900Y0164400
X0110300Y0165300
X0111000Y0166000
X0118000Y0169000
X0114000Y0178800
X0108200Y0175500
X0122500Y0163000
X0123000Y0160500
T03
X0082300Y0073900
X0085200Y0072900
X0087200Y0076500
X0085200Y0078600
X0079600Y0077300
X0091500Y0077300
X0094100Y0073300
X0096000Y0070600
X0102000Y0072500
X0103500Y0072800
X0102000Y0076500
X0098000
X0106000Y0076600
X0107500Y0076800
X0108768Y0075300
Y0073800
X0113000Y0074500
X0114500
X0114750Y0077250
X0116750
X0112100Y0078400
X0108768Y0078800
X0106500Y0064100
X0101000Y0066000
X0077500Y0071900
X0076000Y0071900
X0073500Y0073900
Y0075100
X0075000Y0077100
X0076000Y0077600
X0077500
X0070000Y0079300
Y0075400
Y0073600
Y0081100
Y0084800
Y0086600
X0073500Y0086300
Y0085100
X0075000Y0082800
X0076000Y0083100
X0077500
Y0088800
X0076000
X0075000Y0088300
X0073500Y0090800
Y0092000
X0075000Y0094000
X0076000Y0094600
X0077500
Y0100300
X0076000
X0075000Y0099800
X0073500Y0097800
Y0096600
X0070000Y0096300
Y0098100
Y0102000
Y0103800
X0073500Y0103500
Y0102300
X0075000Y0105500
X0070000Y0092300
Y0090500
X0073500Y0080800
Y0079600
X0082300
X0082300Y0085100
X0085200Y0084100
X0087200Y0082200
X0091500Y0083000
X0094100Y0084500
X0096000Y0082100
X0100500Y0082200
X0102000Y0083700
X0103500Y0084000
X0102000Y0080500
X0108768Y0080400
X0108500Y0085000
X0108768Y0086500
X0107500Y0088000
X0106000Y0087800
X0102000Y0087700
X0098000
X0097600Y0092400
Y0094200
X0102000Y0093600
Y0095200
X0103500Y0095500
X0102000Y0091800
X0108768Y0091600
Y0090000
X0111300Y0087700
X0112100Y0086700
X0114750Y0087850
X0116750
X0114500Y0097200
X0113000
X0108768Y0096500
Y0098000
X0107500Y0099500
X0106000Y0099300
X0102000Y0099200
X0098000
X0094100Y0096000
X0091500Y0094200
X0087200Y0093400
X0085200Y0095600
X0082300Y0096600
X0079600Y0094200
X0079600Y0088500
X0082300Y0090800
X0085200Y0089800
X0087200Y0087700
X0091500Y0088500
Y0100000
X0087200Y0099200
X0085200Y0101300
X0082300Y0102300
X0079600Y0100000
X0079600Y0105700
X0087200Y0104900
X0093000Y0106200
X0096000Y0104800
X0102000Y0105000
Y0103200
X0108768Y0103100
Y0101500
X0105000Y0115200
X0112100Y0118200
X0114750Y0117050
X0116750
X0079600Y0083000
X0142800Y0089300
X0147516Y0090300
X0147300Y0094000
X0146995Y0097936
X0142800Y0098800
X0150800Y0100000
X0134000Y0098300
X0138300Y0094000
X0160800Y0093384
Y0097616
X0116750Y0127650
X0114750
X0112100Y0126500
X0112500Y0136000
X0108768Y0141700
Y0143200
X0107500Y0144700
X0106000Y0144500
X0102000Y0144400
Y0140400
X0103500Y0140700
X0098000Y0144400
X0097600Y0149100
Y0151000
X0102000Y0150300
Y0152000
X0103500Y0152300
X0102000Y0156000
X0098000
X0094100Y0152800
X0091500Y0151100
X0087200Y0150100
X0085200Y0152400
X0082300Y0153400
X0079600Y0150900
X0079600Y0145200
X0082300Y0147500
X0085200Y0146500
X0087200Y0144400
X0091500Y0145200
X0091500Y0139500
X0094100Y0141200
X0096000Y0138800
X0085200Y0140800
X0082300Y0141800
X0079600Y0156800
X0085200Y0158100
X0087200Y0156000
X0091500Y0156800
X0106000Y0156100
X0107500Y0156300
X0108768Y0154800
Y0153300
X0113000Y0154000
X0114500
X0114750Y0156750
X0116750
X0112100Y0157900
X0108768Y0158300
Y0148300
Y0146700
X0102000Y0148500
X0101500Y0127000
X0101000Y0126000
X0101500Y0125000
X0102500Y0124000
X0101000Y0123000
X0102000Y0122000
X0076000Y0139800
X0073500Y0141800
Y0143000
X0075000Y0145000
X0076000Y0145500
X0077500
X0077500Y0151200
X0076000Y0151400
X0075000Y0150700
X0073500Y0148700
Y0147500
X0070000Y0147200
Y0149000
Y0153100
Y0154900
X0073500Y0154600
Y0153400
X0075000Y0156600
X0076000Y0157100
X0077500Y0156900
X0070000Y0143300
Y0141500
Y0158800
Y0160600
Y0164300
Y0166100
X0073500Y0165800
Y0164600
X0075000Y0162300
X0076000Y0162600
X0077500Y0162700
Y0168300
X0076000
X0075000Y0167800
X0073500Y0170300
Y0171500
X0075000Y0173500
X0070000Y0171800
Y0170000
X0073500Y0160300
Y0159100
X0082300
X0082300Y0164600
X0085200Y0163600
X0087200Y0161700
X0091500Y0162300
X0094100Y0164000
X0096000Y0161600
X0102000Y0161700
Y0163200
X0103500Y0163500
X0102000Y0160100
X0108768Y0159900
Y0164500
Y0166000
X0107500Y0167500
X0106000Y0167300
X0102000Y0167200
X0098000
X0091500Y0168000
X0087200Y0167200
X0085200Y0169300
X0082300Y0170300
X0079600Y0168000
X0079600Y0162500
X0079600Y0173700
X0087200Y0172900
X0096000Y0172800
X0102000Y0173000
Y0171300
X0108768Y0171100
Y0169500
X0111300Y0167200
X0112100Y0166200
X0114750Y0167350
X0116750
X0109300Y0174000
X0122300Y0173500
Y0172400
Y0174800
Y0175900
X0126100Y0168500
X0127600Y0168000
X0130100Y0184500
X0145300Y0179500
T04
X0113600Y0079900
Y0081700
Y0083500
Y0085200
X0115400
Y0083500
X0117200
X0118900
Y0085200
X0117200
Y0081700
X0118900
Y0079900
X0117200
X0115400
Y0081700
X0086500Y0111000
X0165500Y0151000
X0165500Y0156500
X0170000
Y0149000
X0118900Y0125000
Y0123300
X0117200
Y0125000
X0115400
Y0123300
X0113600
Y0125000
Y0121500
X0115400
X0117200
X0118900
Y0119700
X0117200
X0115400
X0113600
Y0159400
X0115400
X0117200
X0118900
Y0161200
X0117200
X0115400
X0113600
Y0163000
Y0164700
X0115400
Y0163000
X0117200
Y0164700
X0118900
Y0163000
X0127100Y0174400
X0130385Y0174670
X0133600Y0174400
X0136100Y0171900
X0138300Y0172100
X0140600Y0173000
X0139400Y0174200
X0148600Y0170200
Y0187000
X0132600Y0185200
X0127845Y0184705
X0127700Y0179400
X0130385Y0179750
X0165500Y0162000
X0170000Y0163000
T05
X0159508Y0121492
X0156500Y0119500
T06
X0132000Y0068000
X0134000Y0072500
X0151500Y0072000
X0115015Y0070215
X0073500Y0063500
X0074500Y0115500
X0060500Y0113200
X0083000Y0113000
X0095000Y0109000
X0119000Y0109500
X0115500Y0093500
X0122000Y0104500
X0141200Y0095400
X0141100Y0092400
X0144500
Y0095900
X0152000Y0091900
X0153500Y0103400
X0158000Y0104000
Y0106000
Y0108000
Y0110000
Y0102000
X0134000Y0080500
X0162000
X0159700Y0102000
Y0104000
Y0106000
Y0108000
Y0110000
X0120000Y0148000
X0115500
X0104500Y0135000
X0093500Y0134300
X0090000Y0136000
Y0128000
X0079600Y0135500
X0074500Y0128000
T07
X0163000Y0090500
Y0093000
Y0095000
X0163000Y0097500
X0160500Y0134000
Y0136500
Y0138500
X0160500Y0141000
T08
X0163500Y0065000
Y0067500
Y0070000
Y0072500
X0066500Y0123500
X0061500
T09
X0164460Y0114000
Y0116540
X0167000
Y0114000
Y0119080
Y0121620
X0164460
Y0124160
X0167000
X0164460Y0119080
T10
X0054900Y0080950
Y0083250
Y0085550
Y0087850
Y0090150
Y0092450
Y0094750
Y0097050
X0057400Y0098200
Y0095900
Y0093600
Y0091300
Y0089000
Y0086700
Y0084400
Y0082100
Y0079800
X0059940Y0080950
Y0083250
Y0085550
Y0087850
Y0090150
Y0092450
Y0094750
Y0097050
Y0099350
X0060340Y0148550
Y0150850
Y0153150
Y0155450
Y0157750
X0057800Y0156600
Y0154300
Y0152000
Y0149700
Y0147400
X0055300Y0148550
Y0150850
Y0153150
Y0155450
Y0157750
Y0160050
Y0162350
Y0164650
X0057800Y0165800
Y0163500
Y0161200
Y0158900
X0060340Y0160050
Y0162350
Y0164650
Y0166950
T11
X0124080Y0057500
X0119000
X0116000Y0188500
X0121080
T12
X0165710Y0087430
Y0100570
X0163210Y0130930
Y0144070
T13
X0167000Y0056000
X0090000
X0064000
Y0191000
X0090000
X0167000
X0169020Y0184950
Y0172250
T14
X0057400Y0106100
X0057800Y0173700
T15
X0057400Y0072800
X0057800Y0140400
M30
