%FSAX24Y24*%
%MOIN*%
G70*
G01*
G75*
G04 Layer_Color=16711935*
%ADD10O,0.0300X0.0500*%
%ADD11R,0.0300X0.0500*%
%ADD12O,0.0400X0.0120*%
%ADD13O,0.0120X0.0320*%
%ADD14O,0.0120X0.0400*%
%ADD15O,0.0320X0.0120*%
%ADD16O,0.0600X0.0200*%
%ADD17O,0.0200X0.0400*%
%ADD18O,0.0400X0.0200*%
%ADD19O,0.0200X0.0600*%
%ADD20O,0.0591X0.0118*%
%ADD21O,0.0118X0.0591*%
%ADD22R,0.0118X0.0591*%
%ADD23O,0.0118X0.0827*%
%ADD24O,0.0827X0.0118*%
%ADD25O,0.0800X0.0240*%
%ADD26R,0.0700X0.0400*%
%ADD27R,0.0700X0.1300*%
%ADD28O,0.0827X0.2362*%
%ADD29R,0.0300X0.1000*%
%ADD30O,0.0827X0.2362*%
%ADD31R,0.1000X0.0300*%
%ADD32O,0.0709X0.0118*%
%ADD33O,0.0118X0.0709*%
%ADD34R,0.1200X0.1200*%
%ADD35C,0.0100*%
%ADD36C,0.0200*%
%ADD37C,0.0400*%
%ADD38C,0.0120*%
%ADD39C,0.0600*%
%ADD40R,0.0800X0.0800*%
%ADD41C,0.0800*%
%ADD42C,0.0960*%
%ADD43R,0.0630X0.0630*%
%ADD44C,0.0630*%
%ADD45C,0.0640*%
%ADD46R,0.0640X0.0640*%
%ADD47C,0.0560*%
%ADD48C,0.0600*%
%ADD49C,0.0940*%
%ADD50C,0.1969*%
%ADD51C,0.0400*%
%ADD52C,0.0500*%
%ADD53C,0.0300*%
%ADD54R,0.0400X0.0200*%
%ADD55R,0.0200X0.0400*%
%ADD56R,0.0157X0.0610*%
%ADD57O,0.0500X0.0300*%
%ADD58R,0.0500X0.0300*%
%ADD59R,0.1200X0.1200*%
%ADD60O,0.0700X0.0200*%
%ADD61R,0.0700X0.0200*%
%ADD62R,0.0500X0.0830*%
%ADD63O,0.0500X0.0830*%
%ADD64O,0.0700X0.0150*%
%ADD65R,0.0700X0.0150*%
%ADD66R,0.0750X0.0750*%
%ADD67O,0.0380X0.0580*%
%ADD68R,0.0380X0.0580*%
%ADD69O,0.0480X0.0200*%
%ADD70O,0.0200X0.0480*%
%ADD71O,0.0680X0.0280*%
%ADD72O,0.0280X0.0480*%
%ADD73O,0.0480X0.0280*%
%ADD74O,0.0280X0.0680*%
%ADD75O,0.0671X0.0198*%
%ADD76O,0.0198X0.0671*%
%ADD77R,0.0198X0.0671*%
%ADD78O,0.0198X0.0907*%
%ADD79O,0.0907X0.0198*%
%ADD80O,0.0880X0.0320*%
%ADD81R,0.0780X0.0480*%
%ADD82R,0.0780X0.1380*%
%ADD83O,0.0907X0.2442*%
%ADD84R,0.0380X0.1080*%
%ADD85O,0.0907X0.2442*%
%ADD86R,0.1080X0.0380*%
%ADD87O,0.0789X0.0198*%
%ADD88O,0.0198X0.0789*%
%ADD89R,0.1280X0.1280*%
%ADD90R,0.0880X0.0880*%
%ADD91C,0.0880*%
%ADD92C,0.1040*%
%ADD93R,0.0710X0.0710*%
%ADD94C,0.0710*%
%ADD95C,0.0720*%
%ADD96R,0.0720X0.0720*%
%ADD97C,0.0680*%
%ADD98C,0.1020*%
%ADD99C,0.2049*%
%ADD100C,0.0480*%
%ADD101C,0.0580*%
%ADD102R,0.0480X0.0280*%
%ADD103R,0.0280X0.0480*%
%ADD104R,0.0237X0.0690*%
%ADD105O,0.0580X0.0380*%
%ADD106R,0.0580X0.0380*%
%ADD107R,0.1280X0.1280*%
%ADD108O,0.0780X0.0280*%
%ADD109R,0.0780X0.0280*%
%ADD110R,0.0580X0.0910*%
%ADD111O,0.0580X0.0910*%
%ADD112O,0.0780X0.0230*%
%ADD113R,0.0780X0.0230*%
%ADD114R,0.0830X0.0830*%
G54D17*
X029378Y026841D02*
D03*
X029378Y027641D02*
D03*
X030578Y026141D02*
D03*
X030859Y026141D02*
D03*
X031128Y026141D02*
D03*
X031409Y026141D02*
D03*
X033579Y025891D02*
D03*
X033858Y025891D02*
D03*
X035078Y027791D02*
D03*
X035359Y027791D02*
D03*
X035359Y028591D02*
D03*
X035078Y028591D02*
D03*
X033858Y030541D02*
D03*
X033579Y030541D02*
D03*
X033579Y031341D02*
D03*
X033858Y031341D02*
D03*
X033858Y033991D02*
D03*
X033579Y033991D02*
D03*
X033579Y034791D02*
D03*
X033858Y034791D02*
D03*
X035078Y035891D02*
D03*
X035359Y035891D02*
D03*
X035359Y036691D02*
D03*
X035078Y036691D02*
D03*
X033858Y038641D02*
D03*
X033579Y038641D02*
D03*
X033579Y039441D02*
D03*
X033858Y039441D02*
D03*
X032259Y038341D02*
D03*
X031978Y038341D02*
D03*
X031978Y037541D02*
D03*
X032259Y037541D02*
D03*
X032259Y037041D02*
D03*
X031978Y037041D02*
D03*
X031978Y036241D02*
D03*
X032259Y036241D02*
D03*
X031409Y035041D02*
D03*
X031128Y035041D02*
D03*
X031128Y034241D02*
D03*
X031409Y034241D02*
D03*
X030159Y035741D02*
D03*
X029878Y035741D02*
D03*
X029659Y035741D02*
D03*
X030029Y036741D02*
D03*
X030308Y036741D02*
D03*
X030159Y034941D02*
D03*
X029878Y034941D02*
D03*
X029659Y034941D02*
D03*
X030578Y035041D02*
D03*
X030859Y035041D02*
D03*
X030859Y034241D02*
D03*
X030578Y034241D02*
D03*
X029378Y035741D02*
D03*
X029378Y034941D02*
D03*
X030229Y031641D02*
D03*
X030508Y031641D02*
D03*
X030508Y030841D02*
D03*
X030229Y030841D02*
D03*
X029908Y030741D02*
D03*
X029629Y030741D02*
D03*
X029629Y029941D02*
D03*
X029908Y029941D02*
D03*
X030029Y029441D02*
D03*
X030308Y029441D02*
D03*
X030308Y028641D02*
D03*
X030029Y028641D02*
D03*
X030159Y027641D02*
D03*
X029878Y027641D02*
D03*
X029659Y027641D02*
D03*
X029659Y026841D02*
D03*
X029878Y026841D02*
D03*
X030159Y026841D02*
D03*
X030578Y026941D02*
D03*
X030859Y026941D02*
D03*
X031128Y026941D02*
D03*
X031409Y026941D02*
D03*
X033579Y026691D02*
D03*
X033858Y026691D02*
D03*
X032259Y028141D02*
D03*
X031978Y028141D02*
D03*
X031978Y028941D02*
D03*
X032259Y028941D02*
D03*
X032259Y029441D02*
D03*
X031978Y029441D02*
D03*
X031978Y030241D02*
D03*
X032259Y030241D02*
D03*
X029358Y030241D02*
D03*
X029079Y030241D02*
D03*
X029079Y029441D02*
D03*
X029358Y029441D02*
D03*
X030029Y037541D02*
D03*
X030308Y037541D02*
D03*
X029908Y038041D02*
D03*
X029629Y038041D02*
D03*
X029629Y038841D02*
D03*
X029908Y038841D02*
D03*
X030229Y038941D02*
D03*
X030508Y038941D02*
D03*
X030508Y039741D02*
D03*
X030229Y039741D02*
D03*
X029358Y038341D02*
D03*
X029079Y038341D02*
D03*
X029079Y037541D02*
D03*
X029358Y037541D02*
D03*
X033579Y042141D02*
D03*
X033858Y042141D02*
D03*
X033858Y042941D02*
D03*
X033579Y042941D02*
D03*
X035078Y044041D02*
D03*
X035359Y044041D02*
D03*
X035359Y044841D02*
D03*
X035078Y044841D02*
D03*
X033858Y046791D02*
D03*
X033579Y046791D02*
D03*
X033579Y047591D02*
D03*
X033858Y047591D02*
D03*
X032259Y046491D02*
D03*
X031978Y046491D02*
D03*
X031978Y045691D02*
D03*
X032259Y045691D02*
D03*
X032259Y045191D02*
D03*
X031978Y045191D02*
D03*
X031978Y044391D02*
D03*
X032259Y044391D02*
D03*
X031409Y043191D02*
D03*
X031128Y043191D02*
D03*
X031128Y042391D02*
D03*
X031409Y042391D02*
D03*
X030159Y043891D02*
D03*
X029878Y043891D02*
D03*
X029659Y043891D02*
D03*
X029659Y043091D02*
D03*
X029878Y043091D02*
D03*
X030159Y043091D02*
D03*
X030578Y043191D02*
D03*
X030859Y043191D02*
D03*
X030859Y042391D02*
D03*
X030578Y042391D02*
D03*
X029378Y043891D02*
D03*
X029378Y043091D02*
D03*
X030029Y044891D02*
D03*
X030308Y044891D02*
D03*
X030308Y045691D02*
D03*
X030029Y045691D02*
D03*
X029908Y046191D02*
D03*
X029629Y046191D02*
D03*
X029629Y046991D02*
D03*
X029908Y046991D02*
D03*
X030229Y047091D02*
D03*
X030508Y047091D02*
D03*
X030508Y047891D02*
D03*
X030229Y047891D02*
D03*
X029358Y046491D02*
D03*
X029079Y046491D02*
D03*
X029079Y045691D02*
D03*
X029358Y045691D02*
D03*
X033579Y050291D02*
D03*
X033858Y050291D02*
D03*
X035078Y052191D02*
D03*
X035359Y052191D02*
D03*
X035359Y052991D02*
D03*
X035078Y052991D02*
D03*
X033858Y054941D02*
D03*
X033579Y054941D02*
D03*
X033579Y055741D02*
D03*
X033858Y055741D02*
D03*
X033858Y058441D02*
D03*
X033579Y058441D02*
D03*
X033579Y059241D02*
D03*
X033858Y059241D02*
D03*
X035078Y060341D02*
D03*
X035359Y060341D02*
D03*
X035359Y061141D02*
D03*
X035078Y061141D02*
D03*
X033858Y063091D02*
D03*
X033579Y063091D02*
D03*
X033579Y063891D02*
D03*
X033858Y063891D02*
D03*
X032259Y062791D02*
D03*
X031978Y062791D02*
D03*
X031978Y061991D02*
D03*
X032259Y061991D02*
D03*
X032259Y061491D02*
D03*
X031978Y061491D02*
D03*
X031978Y060691D02*
D03*
X032259Y060691D02*
D03*
X031409Y059491D02*
D03*
X031128Y059491D02*
D03*
X031128Y058691D02*
D03*
X031409Y058691D02*
D03*
X030859Y059491D02*
D03*
X030578Y059491D02*
D03*
X030159Y059391D02*
D03*
X029878Y059391D02*
D03*
X029659Y059391D02*
D03*
X029659Y060191D02*
D03*
X029878Y060191D02*
D03*
X030159Y060191D02*
D03*
X030578Y058691D02*
D03*
X030859Y058691D02*
D03*
X030508Y056041D02*
D03*
X030229Y056041D02*
D03*
X030229Y055241D02*
D03*
X030508Y055241D02*
D03*
X029908Y055141D02*
D03*
X029629Y055141D02*
D03*
X029629Y054341D02*
D03*
X029908Y054341D02*
D03*
X030029Y053841D02*
D03*
X030308Y053841D02*
D03*
X030308Y053041D02*
D03*
X030029Y053041D02*
D03*
X030159Y052041D02*
D03*
X029878Y052041D02*
D03*
X029659Y052041D02*
D03*
X029659Y051241D02*
D03*
X029878Y051241D02*
D03*
X030159Y051241D02*
D03*
X030578Y051341D02*
D03*
X030859Y051341D02*
D03*
X030859Y050541D02*
D03*
X030578Y050541D02*
D03*
X031128Y050541D02*
D03*
X031409Y050541D02*
D03*
X033579Y051091D02*
D03*
X033858Y051091D02*
D03*
X032259Y053341D02*
D03*
X031978Y053341D02*
D03*
X031978Y053841D02*
D03*
X032259Y053841D02*
D03*
X032259Y052541D02*
D03*
X031978Y052541D02*
D03*
X031409Y051341D02*
D03*
X031128Y051341D02*
D03*
X031978Y054641D02*
D03*
X032259Y054641D02*
D03*
X029358Y054641D02*
D03*
X029079Y054641D02*
D03*
X029079Y053841D02*
D03*
X029358Y053841D02*
D03*
X029378Y052041D02*
D03*
X029378Y051241D02*
D03*
X029378Y059391D02*
D03*
X029378Y060191D02*
D03*
X030029Y061191D02*
D03*
X030308Y061191D02*
D03*
X030308Y061991D02*
D03*
X030029Y061991D02*
D03*
X029908Y062491D02*
D03*
X029629Y062491D02*
D03*
X029629Y063291D02*
D03*
X029908Y063291D02*
D03*
X030229Y063391D02*
D03*
X030508Y063391D02*
D03*
X030508Y064191D02*
D03*
X030229Y064191D02*
D03*
X029358Y062791D02*
D03*
X029079Y062791D02*
D03*
X029079Y061991D02*
D03*
X029358Y061991D02*
D03*
X033579Y066591D02*
D03*
X033858Y066591D02*
D03*
X033858Y067391D02*
D03*
X033579Y067391D02*
D03*
X035078Y068491D02*
D03*
X035359Y068491D02*
D03*
X035359Y069291D02*
D03*
X035078Y069291D02*
D03*
X033858Y071241D02*
D03*
X033579Y071241D02*
D03*
X033579Y072041D02*
D03*
X033858Y072041D02*
D03*
X032259Y070941D02*
D03*
X031978Y070941D02*
D03*
X031978Y070141D02*
D03*
X032259Y070141D02*
D03*
X032259Y069641D02*
D03*
X031978Y069641D02*
D03*
X031978Y068841D02*
D03*
X032259Y068841D02*
D03*
X031409Y067641D02*
D03*
X031128Y067641D02*
D03*
X031128Y066841D02*
D03*
X031409Y066841D02*
D03*
X030159Y068341D02*
D03*
X029878Y068341D02*
D03*
X029659Y068341D02*
D03*
X030029Y069341D02*
D03*
X030308Y069341D02*
D03*
X030159Y067541D02*
D03*
X029878Y067541D02*
D03*
X029659Y067541D02*
D03*
X030578Y067641D02*
D03*
X030859Y067641D02*
D03*
X030859Y066841D02*
D03*
X030578Y066841D02*
D03*
X029378Y068341D02*
D03*
X029378Y067541D02*
D03*
X030029Y070141D02*
D03*
X030308Y070141D02*
D03*
X029908Y070641D02*
D03*
X029629Y070641D02*
D03*
X029629Y071441D02*
D03*
X029908Y071441D02*
D03*
X030229Y071541D02*
D03*
X030508Y071541D02*
D03*
X030508Y072341D02*
D03*
X030229Y072341D02*
D03*
X029358Y070941D02*
D03*
X029079Y070941D02*
D03*
X029079Y070141D02*
D03*
X029358Y070141D02*
D03*
G54D18*
X029418Y026201D02*
D03*
X030219Y026201D02*
D03*
X031219Y027351D02*
D03*
X031219Y027631D02*
D03*
X032018Y027631D02*
D03*
X032018Y027351D02*
D03*
X030219Y026481D02*
D03*
X029418Y026481D02*
D03*
X034169Y026051D02*
D03*
X034969Y026051D02*
D03*
X034969Y026331D02*
D03*
X034969Y026601D02*
D03*
X034969Y026881D02*
D03*
X034169Y026881D02*
D03*
X034169Y026601D02*
D03*
X034169Y026331D02*
D03*
X035768Y028451D02*
D03*
X035768Y028731D02*
D03*
X036569Y028731D02*
D03*
X036569Y028451D02*
D03*
X034959Y030351D02*
D03*
X034959Y030631D02*
D03*
X034159Y030631D02*
D03*
X034159Y030351D02*
D03*
X031669Y031051D02*
D03*
X031669Y031331D02*
D03*
X030868Y031331D02*
D03*
X030868Y031051D02*
D03*
X031219Y035451D02*
D03*
X032018Y035451D02*
D03*
X032018Y035731D02*
D03*
X031219Y035731D02*
D03*
X030219Y034581D02*
D03*
X030219Y034301D02*
D03*
X029418Y034301D02*
D03*
X029418Y034581D02*
D03*
X034169Y034701D02*
D03*
X034169Y034431D02*
D03*
X034169Y034151D02*
D03*
X034969Y034151D02*
D03*
X034969Y034431D02*
D03*
X034969Y034701D02*
D03*
X034969Y034981D02*
D03*
X034169Y034981D02*
D03*
X035768Y036551D02*
D03*
X035768Y036831D02*
D03*
X036569Y036831D02*
D03*
X036569Y036551D02*
D03*
X034959Y038451D02*
D03*
X034159Y038451D02*
D03*
X034159Y038731D02*
D03*
X034959Y038731D02*
D03*
X034969Y042301D02*
D03*
X034969Y042581D02*
D03*
X034969Y042851D02*
D03*
X034969Y043131D02*
D03*
X034169Y043131D02*
D03*
X034169Y042851D02*
D03*
X034169Y042581D02*
D03*
X034169Y042301D02*
D03*
X035768Y044701D02*
D03*
X036569Y044701D02*
D03*
X036569Y044981D02*
D03*
X035768Y044981D02*
D03*
X034959Y046601D02*
D03*
X034959Y046881D02*
D03*
X034159Y046881D02*
D03*
X034159Y046601D02*
D03*
X034169Y050451D02*
D03*
X034169Y050731D02*
D03*
X034169Y051001D02*
D03*
X034969Y051001D02*
D03*
X034969Y050731D02*
D03*
X034969Y050451D02*
D03*
X034969Y051281D02*
D03*
X034169Y051281D02*
D03*
X035768Y052851D02*
D03*
X035768Y053131D02*
D03*
X036569Y053131D02*
D03*
X036569Y052851D02*
D03*
X034959Y054751D02*
D03*
X034959Y055031D02*
D03*
X034159Y055031D02*
D03*
X034159Y054751D02*
D03*
X034169Y058601D02*
D03*
X034969Y058601D02*
D03*
X034969Y058881D02*
D03*
X034969Y059151D02*
D03*
X034969Y059431D02*
D03*
X034169Y059431D02*
D03*
X034169Y059151D02*
D03*
X034169Y058881D02*
D03*
X035768Y061001D02*
D03*
X035768Y061281D02*
D03*
X036569Y061281D02*
D03*
X036569Y061001D02*
D03*
X034959Y062901D02*
D03*
X034959Y063181D02*
D03*
X034159Y063181D02*
D03*
X034159Y062901D02*
D03*
X031669Y063601D02*
D03*
X031669Y063881D02*
D03*
X030868Y063881D02*
D03*
X030868Y063601D02*
D03*
X031219Y068051D02*
D03*
X032018Y068051D02*
D03*
X032018Y068331D02*
D03*
X031219Y068331D02*
D03*
X030219Y067181D02*
D03*
X030219Y066901D02*
D03*
X029418Y066901D02*
D03*
X029418Y067181D02*
D03*
X034169Y067301D02*
D03*
X034169Y067031D02*
D03*
X034169Y066751D02*
D03*
X034969Y066751D02*
D03*
X034969Y067031D02*
D03*
X034969Y067301D02*
D03*
X034969Y067581D02*
D03*
X034169Y067581D02*
D03*
X035768Y069151D02*
D03*
X035768Y069431D02*
D03*
X036569Y069431D02*
D03*
X036569Y069151D02*
D03*
X034969Y071051D02*
D03*
X034169Y071051D02*
D03*
X034169Y071331D02*
D03*
X034969Y071331D02*
D03*
X031669Y071751D02*
D03*
X031669Y072031D02*
D03*
X030868Y072031D02*
D03*
X030868Y071751D02*
D03*
X030219Y059031D02*
D03*
X029418Y059031D02*
D03*
X029418Y058751D02*
D03*
X030219Y058751D02*
D03*
X030868Y055731D02*
D03*
X030868Y055451D02*
D03*
X031669Y055451D02*
D03*
X031669Y055731D02*
D03*
X032018Y059901D02*
D03*
X032018Y060181D02*
D03*
X031219Y060181D02*
D03*
X031219Y059901D02*
D03*
X031219Y052031D02*
D03*
X031219Y051751D02*
D03*
X032018Y051751D02*
D03*
X032018Y052031D02*
D03*
X030219Y050881D02*
D03*
X030219Y050601D02*
D03*
X029418Y050601D02*
D03*
X029418Y050881D02*
D03*
X030868Y047581D02*
D03*
X030868Y047301D02*
D03*
X031669Y047301D02*
D03*
X031669Y047581D02*
D03*
X032018Y043881D02*
D03*
X032018Y043601D02*
D03*
X031219Y043601D02*
D03*
X031219Y043881D02*
D03*
X030219Y042731D02*
D03*
X030219Y042451D02*
D03*
X029418Y042451D02*
D03*
X029418Y042731D02*
D03*
X030868Y039431D02*
D03*
X030868Y039151D02*
D03*
X031669Y039151D02*
D03*
X031669Y039431D02*
D03*
G54D35*
X021000Y021000D02*
X069032Y021000D01*
X069032Y077299D01*
X021000Y077299D01*
X021000Y021000D01*
G54D45*
X065219Y052091D02*
D03*
X065219Y053091D02*
D03*
X065219Y053841D02*
D03*
X065219Y054841D02*
D03*
X065219Y055591D02*
D03*
X065219Y056591D02*
D03*
G54D67*
X060419Y065701D02*
D03*
X060419Y067901D02*
D03*
X060918Y067901D02*
D03*
X059918Y067901D02*
D03*
X059419Y067901D02*
D03*
X058918Y067901D02*
D03*
X058918Y065701D02*
D03*
X059419Y065701D02*
D03*
X059918Y065701D02*
D03*
X058418Y067901D02*
D03*
X057919Y067901D02*
D03*
X057919Y065701D02*
D03*
X058418Y065701D02*
D03*
X060419Y070101D02*
D03*
X060419Y072301D02*
D03*
X060918Y072301D02*
D03*
X059918Y072301D02*
D03*
X059419Y072301D02*
D03*
X058918Y072301D02*
D03*
X058918Y070101D02*
D03*
X059419Y070101D02*
D03*
X059918Y070101D02*
D03*
X058418Y072301D02*
D03*
X057919Y072301D02*
D03*
X057919Y070101D02*
D03*
X058418Y070101D02*
D03*
X047319Y067191D02*
D03*
X046919Y066091D02*
D03*
G54D68*
X060918Y065701D02*
D03*
X060918Y070101D02*
D03*
X047719Y066091D02*
D03*
G54D69*
X029218Y029341D02*
D03*
X029518Y027741D02*
D03*
X029518Y027641D02*
D03*
X029518Y027541D02*
D03*
X030018Y027541D02*
D03*
X030018Y027641D02*
D03*
X030018Y027741D02*
D03*
X030018Y026941D02*
D03*
X030018Y026841D02*
D03*
X030018Y026741D02*
D03*
X029518Y026741D02*
D03*
X029518Y026841D02*
D03*
X029518Y026941D02*
D03*
X030719Y026941D02*
D03*
X030719Y027041D02*
D03*
X030719Y026841D02*
D03*
X030719Y026241D02*
D03*
X030719Y026141D02*
D03*
X030719Y026041D02*
D03*
X031268Y026041D02*
D03*
X031268Y026141D02*
D03*
X031268Y026241D02*
D03*
X033719Y025991D02*
D03*
X033719Y025891D02*
D03*
X033719Y025791D02*
D03*
X035219Y027691D02*
D03*
X035219Y027791D02*
D03*
X035219Y027891D02*
D03*
X035219Y028491D02*
D03*
X035219Y028591D02*
D03*
X035219Y028691D02*
D03*
X033719Y030441D02*
D03*
X033719Y030541D02*
D03*
X033719Y030641D02*
D03*
X033719Y031241D02*
D03*
X033719Y031341D02*
D03*
X033719Y031441D02*
D03*
X033719Y033891D02*
D03*
X033719Y033991D02*
D03*
X033719Y034091D02*
D03*
X033719Y034691D02*
D03*
X033719Y034791D02*
D03*
X033719Y034891D02*
D03*
X035219Y035791D02*
D03*
X035219Y035891D02*
D03*
X035219Y035991D02*
D03*
X035219Y036591D02*
D03*
X035219Y036691D02*
D03*
X035219Y036791D02*
D03*
X033719Y038541D02*
D03*
X033719Y038641D02*
D03*
X033719Y038741D02*
D03*
X033719Y039341D02*
D03*
X033719Y039441D02*
D03*
X033719Y039541D02*
D03*
X032118Y038441D02*
D03*
X032118Y038341D02*
D03*
X032118Y038241D02*
D03*
X032118Y037641D02*
D03*
X032118Y037541D02*
D03*
X032118Y037441D02*
D03*
X032118Y037141D02*
D03*
X032118Y037041D02*
D03*
X032118Y036941D02*
D03*
X032118Y036341D02*
D03*
X032118Y036241D02*
D03*
X032118Y036141D02*
D03*
X031268Y035141D02*
D03*
X031268Y035041D02*
D03*
X031268Y034941D02*
D03*
X031268Y034341D02*
D03*
X031268Y034241D02*
D03*
X031268Y034141D02*
D03*
X030018Y035641D02*
D03*
X030018Y035741D02*
D03*
X030018Y035841D02*
D03*
X029518Y035841D02*
D03*
X029518Y035741D02*
D03*
X029518Y035641D02*
D03*
X030168Y036641D02*
D03*
X030168Y036741D02*
D03*
X030168Y036841D02*
D03*
X030018Y035041D02*
D03*
X030018Y034941D02*
D03*
X030018Y034841D02*
D03*
X029518Y034841D02*
D03*
X029518Y034941D02*
D03*
X029518Y035041D02*
D03*
X030719Y035041D02*
D03*
X030719Y035141D02*
D03*
X030719Y034941D02*
D03*
X030719Y034341D02*
D03*
X030719Y034241D02*
D03*
X030719Y034141D02*
D03*
X030368Y031741D02*
D03*
X030368Y031641D02*
D03*
X030368Y031541D02*
D03*
X030368Y030941D02*
D03*
X030368Y030841D02*
D03*
X030368Y030741D02*
D03*
X029769Y030741D02*
D03*
X029769Y030841D02*
D03*
X029769Y030641D02*
D03*
X029769Y030041D02*
D03*
X029769Y029941D02*
D03*
X029769Y029841D02*
D03*
X030168Y029541D02*
D03*
X030168Y029441D02*
D03*
X030168Y029341D02*
D03*
X030168Y028741D02*
D03*
X030168Y028641D02*
D03*
X030168Y028541D02*
D03*
X031268Y027041D02*
D03*
X031268Y026941D02*
D03*
X031268Y026841D02*
D03*
X033719Y026791D02*
D03*
X033719Y026691D02*
D03*
X033719Y026591D02*
D03*
X032118Y028041D02*
D03*
X032118Y028141D02*
D03*
X032118Y028241D02*
D03*
X032118Y028841D02*
D03*
X032118Y028941D02*
D03*
X032118Y029041D02*
D03*
X032118Y029341D02*
D03*
X032118Y029441D02*
D03*
X032118Y029541D02*
D03*
X032118Y030141D02*
D03*
X032118Y030241D02*
D03*
X032118Y030341D02*
D03*
X029218Y030341D02*
D03*
X029218Y030241D02*
D03*
X029218Y030141D02*
D03*
X029218Y029541D02*
D03*
X029218Y029441D02*
D03*
X030168Y037441D02*
D03*
X030168Y037541D02*
D03*
X030168Y037641D02*
D03*
X029769Y037941D02*
D03*
X029769Y038041D02*
D03*
X029769Y038141D02*
D03*
X029769Y038741D02*
D03*
X029769Y038841D02*
D03*
X029769Y038941D02*
D03*
X030368Y038941D02*
D03*
X030368Y038841D02*
D03*
X030368Y039041D02*
D03*
X030368Y039641D02*
D03*
X030368Y039741D02*
D03*
X030368Y039841D02*
D03*
X029218Y038441D02*
D03*
X029218Y038341D02*
D03*
X029218Y038241D02*
D03*
X029218Y037641D02*
D03*
X029218Y037541D02*
D03*
X029218Y037441D02*
D03*
X033719Y042041D02*
D03*
X033719Y042141D02*
D03*
X033719Y042241D02*
D03*
X033719Y042841D02*
D03*
X033719Y042941D02*
D03*
X033719Y043041D02*
D03*
X035219Y043941D02*
D03*
X035219Y044041D02*
D03*
X035219Y044141D02*
D03*
X035219Y044741D02*
D03*
X035219Y044841D02*
D03*
X035219Y044941D02*
D03*
X033719Y046691D02*
D03*
X033719Y046791D02*
D03*
X033719Y046891D02*
D03*
X033719Y047491D02*
D03*
X033719Y047591D02*
D03*
X033719Y047691D02*
D03*
X032118Y046591D02*
D03*
X032118Y046491D02*
D03*
X032118Y046391D02*
D03*
X032118Y045791D02*
D03*
X032118Y045691D02*
D03*
X032118Y045591D02*
D03*
X032118Y045291D02*
D03*
X032118Y045191D02*
D03*
X032118Y045091D02*
D03*
X032118Y044491D02*
D03*
X032118Y044391D02*
D03*
X032118Y044291D02*
D03*
X031268Y043291D02*
D03*
X031268Y043191D02*
D03*
X031268Y043091D02*
D03*
X031268Y042491D02*
D03*
X031268Y042391D02*
D03*
X031268Y042291D02*
D03*
X030018Y043791D02*
D03*
X030018Y043891D02*
D03*
X030018Y043991D02*
D03*
X029518Y043991D02*
D03*
X029518Y043891D02*
D03*
X029518Y043791D02*
D03*
X030168Y044791D02*
D03*
X030018Y043191D02*
D03*
X030018Y043091D02*
D03*
X030018Y042991D02*
D03*
X029518Y042991D02*
D03*
X029518Y043091D02*
D03*
X029518Y043191D02*
D03*
X030719Y043191D02*
D03*
X030719Y043291D02*
D03*
X030719Y043091D02*
D03*
X030719Y042491D02*
D03*
X030719Y042391D02*
D03*
X030719Y042291D02*
D03*
X030168Y044891D02*
D03*
X030168Y044991D02*
D03*
X030168Y045591D02*
D03*
X030168Y045691D02*
D03*
X030168Y045791D02*
D03*
X029769Y046091D02*
D03*
X029769Y046191D02*
D03*
X029769Y046291D02*
D03*
X029769Y046891D02*
D03*
X029769Y046991D02*
D03*
X029769Y047091D02*
D03*
X030368Y047091D02*
D03*
X030368Y046991D02*
D03*
X030368Y047191D02*
D03*
X030368Y047791D02*
D03*
X030368Y047891D02*
D03*
X030368Y047991D02*
D03*
X031268Y050441D02*
D03*
X031268Y050541D02*
D03*
X031268Y050641D02*
D03*
X033719Y050391D02*
D03*
X033719Y050291D02*
D03*
X033719Y050191D02*
D03*
X033719Y050991D02*
D03*
X035219Y052091D02*
D03*
X035219Y052191D02*
D03*
X035219Y052291D02*
D03*
X035219Y052891D02*
D03*
X035219Y052991D02*
D03*
X035219Y053091D02*
D03*
X033719Y054841D02*
D03*
X033719Y054941D02*
D03*
X033719Y055041D02*
D03*
X033719Y055641D02*
D03*
X033719Y055741D02*
D03*
X033719Y055841D02*
D03*
X033719Y058341D02*
D03*
X033719Y058441D02*
D03*
X033719Y058541D02*
D03*
X035219Y060241D02*
D03*
X035219Y060341D02*
D03*
X035219Y060441D02*
D03*
X035219Y061041D02*
D03*
X035219Y061141D02*
D03*
X035219Y061241D02*
D03*
X033719Y062991D02*
D03*
X033719Y063091D02*
D03*
X033719Y063191D02*
D03*
X033719Y063791D02*
D03*
X033719Y063891D02*
D03*
X033719Y063991D02*
D03*
X033719Y066491D02*
D03*
X033719Y066591D02*
D03*
X033719Y066691D02*
D03*
X033719Y067291D02*
D03*
X033719Y067391D02*
D03*
X033719Y067491D02*
D03*
X035219Y068391D02*
D03*
X035219Y068491D02*
D03*
X035219Y068591D02*
D03*
X035219Y069191D02*
D03*
X035219Y069291D02*
D03*
X035219Y069391D02*
D03*
X033719Y071141D02*
D03*
X033719Y071241D02*
D03*
X033719Y071341D02*
D03*
X033719Y071941D02*
D03*
X033719Y072041D02*
D03*
X033719Y072141D02*
D03*
X032118Y071041D02*
D03*
X032118Y070941D02*
D03*
X032118Y070841D02*
D03*
X032118Y070241D02*
D03*
X032118Y070141D02*
D03*
X032118Y070041D02*
D03*
X032118Y069741D02*
D03*
X032118Y069641D02*
D03*
X032118Y069541D02*
D03*
X032118Y068941D02*
D03*
X032118Y068841D02*
D03*
X032118Y068741D02*
D03*
X031268Y067741D02*
D03*
X031268Y067641D02*
D03*
X031268Y067541D02*
D03*
X031268Y066941D02*
D03*
X031268Y066841D02*
D03*
X031268Y066741D02*
D03*
X030018Y068241D02*
D03*
X030018Y068341D02*
D03*
X030018Y068441D02*
D03*
X029518Y068441D02*
D03*
X029518Y068341D02*
D03*
X029518Y068241D02*
D03*
X030168Y069241D02*
D03*
X030168Y069341D02*
D03*
X030168Y069441D02*
D03*
X030018Y067641D02*
D03*
X030018Y067541D02*
D03*
X030018Y067441D02*
D03*
X029518Y067441D02*
D03*
X029518Y067541D02*
D03*
X029518Y067641D02*
D03*
X030719Y067641D02*
D03*
X030719Y067741D02*
D03*
X030719Y067541D02*
D03*
X030719Y066941D02*
D03*
X030719Y066841D02*
D03*
X030719Y066741D02*
D03*
X030368Y064291D02*
D03*
X030368Y064191D02*
D03*
X030368Y064091D02*
D03*
X030368Y063491D02*
D03*
X030368Y063391D02*
D03*
X030368Y063291D02*
D03*
X029769Y063291D02*
D03*
X029769Y063391D02*
D03*
X029769Y063191D02*
D03*
X029769Y062591D02*
D03*
X029769Y062491D02*
D03*
X029769Y062391D02*
D03*
X030168Y062091D02*
D03*
X030168Y061991D02*
D03*
X030168Y061891D02*
D03*
X030168Y061291D02*
D03*
X030168Y061191D02*
D03*
X030168Y061091D02*
D03*
X030018Y060291D02*
D03*
X030018Y060191D02*
D03*
X030018Y060091D02*
D03*
X029518Y060091D02*
D03*
X029518Y060191D02*
D03*
X029518Y060291D02*
D03*
X029518Y059491D02*
D03*
X029518Y059391D02*
D03*
X029518Y059291D02*
D03*
X030018Y059291D02*
D03*
X030018Y059391D02*
D03*
X030018Y059491D02*
D03*
X030719Y059491D02*
D03*
X030719Y059591D02*
D03*
X030719Y059391D02*
D03*
X030719Y058791D02*
D03*
X030719Y058691D02*
D03*
X030719Y058591D02*
D03*
X030368Y056141D02*
D03*
X030368Y056041D02*
D03*
X030368Y055941D02*
D03*
X030368Y055341D02*
D03*
X030368Y055241D02*
D03*
X030368Y055141D02*
D03*
X029769Y055141D02*
D03*
X029769Y055241D02*
D03*
X029769Y055041D02*
D03*
X029769Y054441D02*
D03*
X029769Y054341D02*
D03*
X029769Y054241D02*
D03*
X030168Y053941D02*
D03*
X030168Y053841D02*
D03*
X030168Y053741D02*
D03*
X030168Y053141D02*
D03*
X030168Y053041D02*
D03*
X030168Y052941D02*
D03*
X030018Y052141D02*
D03*
X030018Y052041D02*
D03*
X030018Y051941D02*
D03*
X029518Y051941D02*
D03*
X029518Y052041D02*
D03*
X029518Y052141D02*
D03*
X029518Y051341D02*
D03*
X029518Y051241D02*
D03*
X029518Y051141D02*
D03*
X030018Y051141D02*
D03*
X030018Y051241D02*
D03*
X030018Y051341D02*
D03*
X030719Y051341D02*
D03*
X030719Y051441D02*
D03*
X030719Y051241D02*
D03*
X030719Y050641D02*
D03*
X030719Y050541D02*
D03*
X030719Y050441D02*
D03*
X031268Y051241D02*
D03*
X031268Y051341D02*
D03*
X031268Y051441D02*
D03*
X032118Y052441D02*
D03*
X032118Y052541D02*
D03*
X033719Y051191D02*
D03*
X033719Y051091D02*
D03*
X032118Y052641D02*
D03*
X032118Y053241D02*
D03*
X032118Y053341D02*
D03*
X032118Y053441D02*
D03*
X032118Y053741D02*
D03*
X032118Y053841D02*
D03*
X032118Y053941D02*
D03*
X032118Y054541D02*
D03*
X032118Y054641D02*
D03*
X032118Y054741D02*
D03*
X031268Y058591D02*
D03*
X031268Y058691D02*
D03*
X033719Y059141D02*
D03*
X033719Y059241D02*
D03*
X033719Y059341D02*
D03*
X032118Y060591D02*
D03*
X032118Y060691D02*
D03*
X032118Y060791D02*
D03*
X032118Y061391D02*
D03*
X032118Y061491D02*
D03*
X032118Y061591D02*
D03*
X031268Y059591D02*
D03*
X031268Y059491D02*
D03*
X031268Y059391D02*
D03*
X031268Y058791D02*
D03*
X032118Y061891D02*
D03*
X032118Y061991D02*
D03*
X032118Y062091D02*
D03*
X032118Y062691D02*
D03*
X032118Y062791D02*
D03*
X032118Y062891D02*
D03*
X029218Y062891D02*
D03*
X029218Y062791D02*
D03*
X029218Y062691D02*
D03*
X029218Y062091D02*
D03*
X029218Y061991D02*
D03*
X029218Y061891D02*
D03*
X029218Y054741D02*
D03*
X029218Y054641D02*
D03*
X029218Y054541D02*
D03*
X029218Y053941D02*
D03*
X029218Y053841D02*
D03*
X029218Y053741D02*
D03*
X029218Y046591D02*
D03*
X029218Y046491D02*
D03*
X029218Y046391D02*
D03*
X029218Y045791D02*
D03*
X029218Y045691D02*
D03*
X029218Y045591D02*
D03*
X030168Y070041D02*
D03*
X030168Y070141D02*
D03*
X030168Y070241D02*
D03*
X029769Y070541D02*
D03*
X029769Y070641D02*
D03*
X029769Y070741D02*
D03*
X029769Y071341D02*
D03*
X029769Y071441D02*
D03*
X029769Y071541D02*
D03*
X030368Y071541D02*
D03*
X030368Y071441D02*
D03*
X030368Y071641D02*
D03*
X030368Y072241D02*
D03*
X030368Y072341D02*
D03*
X030368Y072441D02*
D03*
X029218Y071041D02*
D03*
X029218Y070941D02*
D03*
X029218Y070841D02*
D03*
X029218Y070241D02*
D03*
X029218Y070141D02*
D03*
X029218Y070041D02*
D03*
G54D70*
X029318Y026341D02*
D03*
X029418Y026341D02*
D03*
X029518Y026341D02*
D03*
X030119Y026341D02*
D03*
X030219Y026341D02*
D03*
X030319Y026341D02*
D03*
X031119Y027491D02*
D03*
X031219Y027491D02*
D03*
X031319Y027491D02*
D03*
X031918Y027491D02*
D03*
X032018Y027491D02*
D03*
X032118Y027491D02*
D03*
X034069Y026191D02*
D03*
X034169Y026191D02*
D03*
X034269Y026191D02*
D03*
X034869Y026191D02*
D03*
X034969Y026191D02*
D03*
X035069Y026191D02*
D03*
X035069Y026741D02*
D03*
X034969Y026741D02*
D03*
X034869Y026741D02*
D03*
X034269Y026741D02*
D03*
X034169Y026741D02*
D03*
X034069Y026741D02*
D03*
X035668Y028591D02*
D03*
X035768Y028591D02*
D03*
X035868Y028591D02*
D03*
X036469Y028591D02*
D03*
X036569Y028591D02*
D03*
X036669Y028591D02*
D03*
X035059Y030491D02*
D03*
X034959Y030491D02*
D03*
X034859Y030491D02*
D03*
X034259Y030491D02*
D03*
X034159Y030491D02*
D03*
X034059Y030491D02*
D03*
X031769Y031191D02*
D03*
X031669Y031191D02*
D03*
X031569Y031191D02*
D03*
X030968Y031191D02*
D03*
X030868Y031191D02*
D03*
X030768Y031191D02*
D03*
X030319Y034441D02*
D03*
X030219Y034441D02*
D03*
X030119Y034441D02*
D03*
X029518Y034441D02*
D03*
X029418Y034441D02*
D03*
X031119Y035591D02*
D03*
X031219Y035591D02*
D03*
X031319Y035591D02*
D03*
X031918Y035591D02*
D03*
X032018Y035591D02*
D03*
X032118Y035591D02*
D03*
X034069Y034841D02*
D03*
X034169Y034841D02*
D03*
X034269Y034841D02*
D03*
X034269Y034291D02*
D03*
X034169Y034291D02*
D03*
X034069Y034291D02*
D03*
X034869Y034291D02*
D03*
X034969Y034291D02*
D03*
X035069Y034291D02*
D03*
X035069Y034841D02*
D03*
X034969Y034841D02*
D03*
X034869Y034841D02*
D03*
X035668Y036691D02*
D03*
X035768Y036691D02*
D03*
X035868Y036691D02*
D03*
X036469Y036691D02*
D03*
X036569Y036691D02*
D03*
X036669Y036691D02*
D03*
X035059Y038591D02*
D03*
X034959Y038591D02*
D03*
X034859Y038591D02*
D03*
X034259Y038591D02*
D03*
X034159Y038591D02*
D03*
X034059Y038591D02*
D03*
X031769Y039291D02*
D03*
X031669Y039291D02*
D03*
X031569Y039291D02*
D03*
X030968Y039291D02*
D03*
X030868Y039291D02*
D03*
X030768Y039291D02*
D03*
X030319Y042591D02*
D03*
X030219Y042591D02*
D03*
X030119Y042591D02*
D03*
X029518Y042591D02*
D03*
X029418Y042591D02*
D03*
X031119Y043741D02*
D03*
X031219Y043741D02*
D03*
X031319Y043741D02*
D03*
X031918Y043741D02*
D03*
X032018Y043741D02*
D03*
X032118Y043741D02*
D03*
X034069Y042991D02*
D03*
X034169Y042991D02*
D03*
X034269Y042991D02*
D03*
X034269Y042441D02*
D03*
X034169Y042441D02*
D03*
X034069Y042441D02*
D03*
X034869Y042441D02*
D03*
X034969Y042441D02*
D03*
X035069Y042441D02*
D03*
X035069Y042991D02*
D03*
X034969Y042991D02*
D03*
X034869Y042991D02*
D03*
X035668Y044841D02*
D03*
X035768Y044841D02*
D03*
X035868Y044841D02*
D03*
X036469Y044841D02*
D03*
X036569Y044841D02*
D03*
X036669Y044841D02*
D03*
X035059Y046741D02*
D03*
X034959Y046741D02*
D03*
X034859Y046741D02*
D03*
X034259Y046741D02*
D03*
X034159Y046741D02*
D03*
X034059Y046741D02*
D03*
X034069Y050591D02*
D03*
X034169Y050591D02*
D03*
X034269Y050591D02*
D03*
X034869Y050591D02*
D03*
X034969Y050591D02*
D03*
X035069Y050591D02*
D03*
X035069Y051141D02*
D03*
X034969Y051141D02*
D03*
X034869Y051141D02*
D03*
X034269Y051141D02*
D03*
X034169Y051141D02*
D03*
X034069Y051141D02*
D03*
X035668Y052991D02*
D03*
X035768Y052991D02*
D03*
X035868Y052991D02*
D03*
X036469Y052991D02*
D03*
X036569Y052991D02*
D03*
X036669Y052991D02*
D03*
X035059Y054891D02*
D03*
X034959Y054891D02*
D03*
X034859Y054891D02*
D03*
X034259Y054891D02*
D03*
X034159Y054891D02*
D03*
X034059Y054891D02*
D03*
X034069Y058741D02*
D03*
X034169Y058741D02*
D03*
X034269Y058741D02*
D03*
X034869Y058741D02*
D03*
X034969Y058741D02*
D03*
X035069Y058741D02*
D03*
X035069Y059291D02*
D03*
X034969Y059291D02*
D03*
X034869Y059291D02*
D03*
X034269Y059291D02*
D03*
X034169Y059291D02*
D03*
X034069Y059291D02*
D03*
X035668Y061141D02*
D03*
X035768Y061141D02*
D03*
X035868Y061141D02*
D03*
X036469Y061141D02*
D03*
X036569Y061141D02*
D03*
X036669Y061141D02*
D03*
X035059Y063041D02*
D03*
X034959Y063041D02*
D03*
X034859Y063041D02*
D03*
X034259Y063041D02*
D03*
X034159Y063041D02*
D03*
X034059Y063041D02*
D03*
X031769Y063741D02*
D03*
X031669Y063741D02*
D03*
X031569Y063741D02*
D03*
X030968Y063741D02*
D03*
X030868Y063741D02*
D03*
X030768Y063741D02*
D03*
X030319Y067041D02*
D03*
X030219Y067041D02*
D03*
X030119Y067041D02*
D03*
X029518Y067041D02*
D03*
X029418Y067041D02*
D03*
X031119Y068191D02*
D03*
X031219Y068191D02*
D03*
X031319Y068191D02*
D03*
X031918Y068191D02*
D03*
X032018Y068191D02*
D03*
X032118Y068191D02*
D03*
X034069Y067441D02*
D03*
X034169Y067441D02*
D03*
X034269Y067441D02*
D03*
X034269Y066891D02*
D03*
X034169Y066891D02*
D03*
X034069Y066891D02*
D03*
X034869Y066891D02*
D03*
X034969Y066891D02*
D03*
X035069Y066891D02*
D03*
X035069Y067441D02*
D03*
X034969Y067441D02*
D03*
X034869Y067441D02*
D03*
X035668Y069291D02*
D03*
X035768Y069291D02*
D03*
X035868Y069291D02*
D03*
X036469Y069291D02*
D03*
X036569Y069291D02*
D03*
X036669Y069291D02*
D03*
X035069Y071191D02*
D03*
X034969Y071191D02*
D03*
X034869Y071191D02*
D03*
X034269Y071191D02*
D03*
X034169Y071191D02*
D03*
X034069Y071191D02*
D03*
X031769Y071891D02*
D03*
X031669Y071891D02*
D03*
X031569Y071891D02*
D03*
X030968Y071891D02*
D03*
X030868Y071891D02*
D03*
X030768Y071891D02*
D03*
X029318Y067041D02*
D03*
X029318Y058891D02*
D03*
X029418Y058891D02*
D03*
X029518Y058891D02*
D03*
X030119Y058891D02*
D03*
X030219Y058891D02*
D03*
X030319Y058891D02*
D03*
X031119Y060041D02*
D03*
X031219Y060041D02*
D03*
X031319Y060041D02*
D03*
X031918Y060041D02*
D03*
X032018Y060041D02*
D03*
X032118Y060041D02*
D03*
X030868Y055591D02*
D03*
X030768Y055591D02*
D03*
X030968Y055591D02*
D03*
X031569Y055591D02*
D03*
X031669Y055591D02*
D03*
X031769Y055591D02*
D03*
X031918Y051891D02*
D03*
X032018Y051891D02*
D03*
X032118Y051891D02*
D03*
X031319Y051891D02*
D03*
X031219Y051891D02*
D03*
X031119Y051891D02*
D03*
X030319Y050741D02*
D03*
X030219Y050741D02*
D03*
X030119Y050741D02*
D03*
X029518Y050741D02*
D03*
X029418Y050741D02*
D03*
X029318Y050741D02*
D03*
X030768Y047441D02*
D03*
X030868Y047441D02*
D03*
X030968Y047441D02*
D03*
X031569Y047441D02*
D03*
X031669Y047441D02*
D03*
X031769Y047441D02*
D03*
X029318Y042591D02*
D03*
X029318Y034441D02*
D03*
G54D71*
X036469Y025641D02*
D03*
X036469Y025741D02*
D03*
X036469Y025841D02*
D03*
X036469Y026641D02*
D03*
X036469Y026741D02*
D03*
X036469Y026841D02*
D03*
X039618Y026540D02*
D03*
X039618Y026440D02*
D03*
X039618Y026340D02*
D03*
X039618Y027340D02*
D03*
X039618Y027440D02*
D03*
X039618Y027540D02*
D03*
X041959Y028631D02*
D03*
X041959Y028731D02*
D03*
X041959Y028831D02*
D03*
X041959Y029631D02*
D03*
X041959Y029731D02*
D03*
X041959Y029831D02*
D03*
X040968Y030991D02*
D03*
X040968Y030891D02*
D03*
X040968Y030791D02*
D03*
X040968Y029991D02*
D03*
X040968Y029891D02*
D03*
X040968Y029791D02*
D03*
X039718Y034340D02*
D03*
X039718Y034440D02*
D03*
X039718Y034540D02*
D03*
X039718Y035340D02*
D03*
X039718Y035440D02*
D03*
X039718Y035540D02*
D03*
X041959Y036731D02*
D03*
X041959Y036831D02*
D03*
X041959Y036931D02*
D03*
X041959Y037731D02*
D03*
X041959Y037831D02*
D03*
X041959Y037931D02*
D03*
X040968Y038891D02*
D03*
X040968Y038991D02*
D03*
X040968Y039091D02*
D03*
X040968Y038091D02*
D03*
X040968Y037991D02*
D03*
X040968Y037891D02*
D03*
X044169Y041091D02*
D03*
X044169Y041191D02*
D03*
X044169Y041291D02*
D03*
X044169Y042091D02*
D03*
X044169Y042191D02*
D03*
X044169Y042291D02*
D03*
X047278Y042340D02*
D03*
X047278Y042240D02*
D03*
X047278Y042140D02*
D03*
X047278Y043140D02*
D03*
X047278Y043240D02*
D03*
X048878Y043190D02*
D03*
X048878Y043090D02*
D03*
X048878Y042990D02*
D03*
X049778Y042640D02*
D03*
X049778Y042540D02*
D03*
X049778Y042440D02*
D03*
X050528Y042440D02*
D03*
X050528Y042540D02*
D03*
X050528Y042640D02*
D03*
X051278Y042940D02*
D03*
X051278Y043040D02*
D03*
X051278Y043140D02*
D03*
X052628Y043140D02*
D03*
X052628Y043040D02*
D03*
X052628Y042940D02*
D03*
X053428Y042640D02*
D03*
X053428Y042540D02*
D03*
X053428Y042440D02*
D03*
X054178Y042940D02*
D03*
X054178Y043040D02*
D03*
X054178Y043140D02*
D03*
X055578Y042640D02*
D03*
X055578Y042540D02*
D03*
X055578Y042440D02*
D03*
X056028Y044740D02*
D03*
X056028Y044840D02*
D03*
X056028Y044940D02*
D03*
X056028Y045740D02*
D03*
X056028Y045840D02*
D03*
X056028Y045940D02*
D03*
X056028Y046690D02*
D03*
X056028Y046790D02*
D03*
X056028Y046890D02*
D03*
X056028Y047690D02*
D03*
X056028Y047790D02*
D03*
X056028Y047890D02*
D03*
X054628Y046890D02*
D03*
X054628Y046790D02*
D03*
X054628Y046690D02*
D03*
X054628Y045890D02*
D03*
X054628Y045790D02*
D03*
X054628Y045690D02*
D03*
X055328Y045390D02*
D03*
X055328Y045290D02*
D03*
X055328Y045190D02*
D03*
X055328Y046190D02*
D03*
X055328Y046290D02*
D03*
X055328Y046390D02*
D03*
X055578Y043640D02*
D03*
X055578Y043540D02*
D03*
X055578Y043440D02*
D03*
X054178Y043940D02*
D03*
X054178Y044040D02*
D03*
X054178Y044140D02*
D03*
X053428Y043640D02*
D03*
X053428Y043540D02*
D03*
X053428Y043440D02*
D03*
X052628Y043940D02*
D03*
X052628Y044040D02*
D03*
X052628Y044140D02*
D03*
X051278Y044140D02*
D03*
X051278Y044040D02*
D03*
X051278Y043940D02*
D03*
X050528Y043640D02*
D03*
X050528Y043540D02*
D03*
X050528Y043440D02*
D03*
X049778Y043440D02*
D03*
X049778Y043540D02*
D03*
X049778Y043640D02*
D03*
X048878Y043990D02*
D03*
X048878Y044090D02*
D03*
X048878Y044190D02*
D03*
X047278Y043340D02*
D03*
X041959Y044881D02*
D03*
X041959Y044981D02*
D03*
X041959Y045081D02*
D03*
X041959Y045881D02*
D03*
X041959Y045981D02*
D03*
X041959Y046081D02*
D03*
X040968Y047041D02*
D03*
X040968Y047141D02*
D03*
X040968Y047241D02*
D03*
X040968Y046241D02*
D03*
X040968Y046141D02*
D03*
X040968Y046041D02*
D03*
X039718Y043690D02*
D03*
X039718Y043590D02*
D03*
X039718Y043490D02*
D03*
X039718Y042690D02*
D03*
X039718Y042590D02*
D03*
X039718Y042490D02*
D03*
X036469Y042091D02*
D03*
X036469Y041991D02*
D03*
X036469Y041891D02*
D03*
X036469Y042891D02*
D03*
X036469Y042991D02*
D03*
X036469Y043091D02*
D03*
X036469Y034941D02*
D03*
X036469Y034841D02*
D03*
X036469Y034741D02*
D03*
X036469Y033941D02*
D03*
X036469Y033841D02*
D03*
X036469Y033741D02*
D03*
X046469Y029091D02*
D03*
X046469Y028991D02*
D03*
X046469Y028891D02*
D03*
X046469Y028091D02*
D03*
X046469Y027991D02*
D03*
X046469Y027891D02*
D03*
X056219Y027991D02*
D03*
X056219Y028091D02*
D03*
X056219Y028191D02*
D03*
X056219Y028991D02*
D03*
X056219Y029091D02*
D03*
X056219Y029191D02*
D03*
X064219Y033191D02*
D03*
X064219Y033291D02*
D03*
X064219Y033391D02*
D03*
X064219Y034191D02*
D03*
X064219Y034291D02*
D03*
X064219Y034391D02*
D03*
X064068Y040641D02*
D03*
X064068Y040741D02*
D03*
X064068Y040841D02*
D03*
X064068Y041641D02*
D03*
X064068Y041741D02*
D03*
X064068Y041841D02*
D03*
X059778Y041990D02*
D03*
X059778Y042090D02*
D03*
X059778Y042190D02*
D03*
X059778Y041190D02*
D03*
X059778Y041090D02*
D03*
X059778Y040990D02*
D03*
X056178Y052290D02*
D03*
X056178Y052390D02*
D03*
X056178Y052490D02*
D03*
X056178Y053290D02*
D03*
X056178Y053390D02*
D03*
X056178Y053490D02*
D03*
X055128Y052990D02*
D03*
X055128Y052890D02*
D03*
X055128Y052790D02*
D03*
X055128Y051990D02*
D03*
X055128Y051890D02*
D03*
X055128Y051790D02*
D03*
X053478Y053290D02*
D03*
X053478Y053390D02*
D03*
X053478Y053490D02*
D03*
X052728Y053490D02*
D03*
X052728Y053390D02*
D03*
X052728Y053290D02*
D03*
X052728Y052490D02*
D03*
X052728Y052390D02*
D03*
X052728Y052290D02*
D03*
X053478Y052290D02*
D03*
X053478Y052390D02*
D03*
X053478Y052490D02*
D03*
X050178Y052790D02*
D03*
X050178Y052890D02*
D03*
X050178Y052990D02*
D03*
X050178Y051990D02*
D03*
X050178Y051890D02*
D03*
X050178Y051790D02*
D03*
X048528Y052640D02*
D03*
X048528Y053440D02*
D03*
X048528Y053540D02*
D03*
X048528Y053640D02*
D03*
X048528Y052540D02*
D03*
X048528Y052440D02*
D03*
X047678Y052640D02*
D03*
X047678Y053440D02*
D03*
X047678Y053540D02*
D03*
X047678Y053640D02*
D03*
X047678Y052540D02*
D03*
X047678Y052440D02*
D03*
X044419Y054891D02*
D03*
X044419Y054991D02*
D03*
X044419Y055091D02*
D03*
X044419Y054091D02*
D03*
X044419Y053991D02*
D03*
X044419Y053891D02*
D03*
X041959Y054231D02*
D03*
X041959Y054131D02*
D03*
X041959Y054031D02*
D03*
X041959Y053231D02*
D03*
X041959Y053131D02*
D03*
X041959Y053031D02*
D03*
X040968Y054191D02*
D03*
X040968Y054291D02*
D03*
X040968Y054391D02*
D03*
X040968Y055191D02*
D03*
X040968Y055291D02*
D03*
X040968Y055391D02*
D03*
X039618Y051650D02*
D03*
X039618Y051550D02*
D03*
X039618Y051450D02*
D03*
X039618Y050650D02*
D03*
X039618Y050550D02*
D03*
X039618Y050450D02*
D03*
X036469Y051141D02*
D03*
X036469Y051241D02*
D03*
X036469Y051041D02*
D03*
X036469Y050241D02*
D03*
X036469Y050141D02*
D03*
X036469Y050041D02*
D03*
X039618Y058590D02*
D03*
X039618Y058690D02*
D03*
X039618Y058790D02*
D03*
X039618Y059590D02*
D03*
X039618Y059690D02*
D03*
X039618Y059790D02*
D03*
X041959Y061181D02*
D03*
X041959Y061281D02*
D03*
X041959Y061381D02*
D03*
X041959Y062181D02*
D03*
X041959Y062281D02*
D03*
X041959Y062381D02*
D03*
X040968Y063441D02*
D03*
X040968Y063541D02*
D03*
X040968Y063341D02*
D03*
X040968Y062541D02*
D03*
X040968Y062441D02*
D03*
X040968Y062341D02*
D03*
X039618Y066741D02*
D03*
X039618Y066841D02*
D03*
X039618Y066941D02*
D03*
X039618Y067741D02*
D03*
X039618Y067841D02*
D03*
X039618Y067941D02*
D03*
X041968Y069341D02*
D03*
X041968Y069441D02*
D03*
X041968Y069541D02*
D03*
X043259Y069541D02*
D03*
X043259Y069441D02*
D03*
X043259Y069341D02*
D03*
X043259Y068541D02*
D03*
X043259Y068441D02*
D03*
X043259Y068341D02*
D03*
X041968Y070341D02*
D03*
X041968Y070441D02*
D03*
X041968Y070541D02*
D03*
X040968Y071491D02*
D03*
X040968Y071591D02*
D03*
X040968Y071691D02*
D03*
X040968Y070691D02*
D03*
X040968Y070591D02*
D03*
X040968Y070491D02*
D03*
X036469Y067541D02*
D03*
X036469Y067441D02*
D03*
X036469Y067341D02*
D03*
X036469Y066541D02*
D03*
X036469Y066441D02*
D03*
X036469Y066341D02*
D03*
X036469Y059391D02*
D03*
X036469Y059291D02*
D03*
X036469Y059191D02*
D03*
X036469Y058391D02*
D03*
X036469Y058291D02*
D03*
X036469Y058191D02*
D03*
X048338Y067991D02*
D03*
X048338Y068091D02*
D03*
X048338Y068191D02*
D03*
X048338Y068991D02*
D03*
X048338Y069091D02*
D03*
X048338Y069191D02*
D03*
X050368Y070991D02*
D03*
X050368Y071091D02*
D03*
X050368Y071191D02*
D03*
X050368Y071991D02*
D03*
X050368Y072091D02*
D03*
X050368Y072191D02*
D03*
X056418Y065191D02*
D03*
X056418Y065091D02*
D03*
X056418Y064991D02*
D03*
X056418Y064191D02*
D03*
X056418Y064091D02*
D03*
X056418Y063991D02*
D03*
X057868Y063391D02*
D03*
X057868Y063291D02*
D03*
X059369Y060441D02*
D03*
X059369Y060341D02*
D03*
X059369Y060241D02*
D03*
X059369Y059441D02*
D03*
X059369Y059341D02*
D03*
X059369Y059241D02*
D03*
X062550Y056700D02*
D03*
X062550Y056600D02*
D03*
X062550Y056500D02*
D03*
X064068Y056591D02*
D03*
X064068Y056691D02*
D03*
X064068Y056791D02*
D03*
X064068Y057591D02*
D03*
X064068Y057691D02*
D03*
X064068Y057791D02*
D03*
X062550Y057700D02*
D03*
X062550Y057600D02*
D03*
X062550Y057500D02*
D03*
X060019Y054591D02*
D03*
X060019Y054491D02*
D03*
X060019Y054391D02*
D03*
X060019Y053591D02*
D03*
X060019Y053491D02*
D03*
X060019Y053391D02*
D03*
X056582Y059341D02*
D03*
X056582Y059441D02*
D03*
X056582Y059541D02*
D03*
X056582Y060341D02*
D03*
X056582Y060441D02*
D03*
X056582Y060541D02*
D03*
X057868Y063491D02*
D03*
X057868Y064291D02*
D03*
X057868Y064391D02*
D03*
X057868Y064491D02*
D03*
X057269Y072041D02*
D03*
X057269Y072141D02*
D03*
X057269Y072241D02*
D03*
X057269Y073041D02*
D03*
X057269Y073141D02*
D03*
X057269Y073241D02*
D03*
G54D72*
X028819Y028091D02*
D03*
X029218Y028091D02*
D03*
X028819Y029091D02*
D03*
X029618Y029091D02*
D03*
X036268Y025741D02*
D03*
X036669Y025741D02*
D03*
X036669Y026741D02*
D03*
X036268Y026741D02*
D03*
X039418Y026440D02*
D03*
X039818Y026440D02*
D03*
X039818Y027440D02*
D03*
X039418Y027440D02*
D03*
X041759Y028731D02*
D03*
X042159Y028731D02*
D03*
X042159Y029731D02*
D03*
X041759Y029731D02*
D03*
X041168Y029891D02*
D03*
X040768Y029891D02*
D03*
X040768Y030891D02*
D03*
X041168Y030891D02*
D03*
X046269Y028991D02*
D03*
X046269Y027991D02*
D03*
X046669Y027991D02*
D03*
X046669Y028991D02*
D03*
X042159Y036831D02*
D03*
X042159Y037831D02*
D03*
X041168Y038991D02*
D03*
X040768Y038991D02*
D03*
X040768Y037991D02*
D03*
X041168Y037991D02*
D03*
X041759Y037831D02*
D03*
X041759Y036831D02*
D03*
X039918Y035440D02*
D03*
X039518Y035440D02*
D03*
X039518Y034440D02*
D03*
X039918Y034440D02*
D03*
X036669Y034841D02*
D03*
X036268Y034841D02*
D03*
X036268Y033841D02*
D03*
X036669Y033841D02*
D03*
X029618Y037191D02*
D03*
X028819Y037191D02*
D03*
X028819Y036191D02*
D03*
X029218Y036191D02*
D03*
X036268Y041991D02*
D03*
X036669Y041991D02*
D03*
X036669Y042991D02*
D03*
X036268Y042991D02*
D03*
X039518Y042590D02*
D03*
X039918Y042590D02*
D03*
X039918Y043590D02*
D03*
X039518Y043590D02*
D03*
X041759Y044981D02*
D03*
X041759Y045981D02*
D03*
X041168Y046141D02*
D03*
X040768Y046141D02*
D03*
X042159Y045981D02*
D03*
X042159Y044981D02*
D03*
X041168Y047141D02*
D03*
X040768Y047141D02*
D03*
X039818Y050550D02*
D03*
X039418Y050550D02*
D03*
X039418Y051550D02*
D03*
X039818Y051550D02*
D03*
X041759Y053131D02*
D03*
X041759Y054131D02*
D03*
X042159Y054131D02*
D03*
X042159Y053131D02*
D03*
X044219Y053991D02*
D03*
X044619Y053991D02*
D03*
X044619Y054991D02*
D03*
X044219Y054991D02*
D03*
X047478Y052540D02*
D03*
X047878Y052540D02*
D03*
X048328Y052540D02*
D03*
X048728Y052540D02*
D03*
X049978Y051890D02*
D03*
X050378Y051890D02*
D03*
X052528Y052390D02*
D03*
X052928Y052390D02*
D03*
X053278Y052390D02*
D03*
X053678Y052390D02*
D03*
X054928Y051890D02*
D03*
X055328Y051890D02*
D03*
X055978Y052390D02*
D03*
X056378Y052390D02*
D03*
X056378Y053390D02*
D03*
X055978Y053390D02*
D03*
X055328Y052890D02*
D03*
X054928Y052890D02*
D03*
X053678Y053390D02*
D03*
X053278Y053390D02*
D03*
X052928Y053390D02*
D03*
X052528Y053390D02*
D03*
X050378Y052890D02*
D03*
X049978Y052890D02*
D03*
X048728Y053540D02*
D03*
X048328Y053540D02*
D03*
X047878Y053540D02*
D03*
X047478Y053540D02*
D03*
X041168Y054291D02*
D03*
X040768Y054291D02*
D03*
X040768Y055291D02*
D03*
X041168Y055291D02*
D03*
X039818Y058690D02*
D03*
X039418Y058690D02*
D03*
X039418Y059690D02*
D03*
X039818Y059690D02*
D03*
X041759Y061281D02*
D03*
X042159Y061281D02*
D03*
X042159Y062281D02*
D03*
X041168Y063441D02*
D03*
X040768Y063441D02*
D03*
X040768Y062441D02*
D03*
X041168Y062441D02*
D03*
X041759Y062281D02*
D03*
X039818Y066841D02*
D03*
X039418Y066841D02*
D03*
X039418Y067841D02*
D03*
X039818Y067841D02*
D03*
X041768Y069441D02*
D03*
X042168Y069441D02*
D03*
X043059Y069441D02*
D03*
X043059Y068441D02*
D03*
X043459Y068441D02*
D03*
X043459Y069441D02*
D03*
X042168Y070441D02*
D03*
X041168Y071591D02*
D03*
X040768Y071591D02*
D03*
X040768Y070591D02*
D03*
X041168Y070591D02*
D03*
X041768Y070441D02*
D03*
X036669Y067441D02*
D03*
X036268Y067441D02*
D03*
X036268Y066441D02*
D03*
X036669Y066441D02*
D03*
X036669Y059291D02*
D03*
X036268Y059291D02*
D03*
X036268Y058291D02*
D03*
X036669Y058291D02*
D03*
X036669Y051141D02*
D03*
X036268Y051141D02*
D03*
X036268Y050141D02*
D03*
X036669Y050141D02*
D03*
X029618Y053491D02*
D03*
X028819Y053491D02*
D03*
X028819Y052491D02*
D03*
X029218Y052491D02*
D03*
X028819Y045341D02*
D03*
X028819Y044341D02*
D03*
X029218Y044341D02*
D03*
X029618Y045341D02*
D03*
X043969Y041191D02*
D03*
X044369Y041191D02*
D03*
X044369Y042191D02*
D03*
X043969Y042191D02*
D03*
X047078Y042240D02*
D03*
X047478Y042240D02*
D03*
X047478Y043240D02*
D03*
X047078Y043240D02*
D03*
X048678Y043090D02*
D03*
X049078Y043090D02*
D03*
X049578Y042540D02*
D03*
X049978Y042540D02*
D03*
X050328Y042540D02*
D03*
X050728Y042540D02*
D03*
X051078Y043040D02*
D03*
X051478Y043040D02*
D03*
X052428Y043040D02*
D03*
X052828Y043040D02*
D03*
X053228Y042540D02*
D03*
X053628Y042540D02*
D03*
X053978Y043040D02*
D03*
X054378Y043040D02*
D03*
X055378Y042540D02*
D03*
X055778Y042540D02*
D03*
X055778Y043540D02*
D03*
X055828Y044840D02*
D03*
X056228Y044840D02*
D03*
X056228Y045840D02*
D03*
X055828Y045840D02*
D03*
X055828Y046790D02*
D03*
X056228Y046790D02*
D03*
X056228Y047790D02*
D03*
X055828Y047790D02*
D03*
X054828Y046790D02*
D03*
X054428Y046790D02*
D03*
X054428Y045790D02*
D03*
X054828Y045790D02*
D03*
X055128Y045290D02*
D03*
X055528Y045290D02*
D03*
X055528Y046290D02*
D03*
X055128Y046290D02*
D03*
X055378Y043540D02*
D03*
X054378Y044040D02*
D03*
X053978Y044040D02*
D03*
X053628Y043540D02*
D03*
X053228Y043540D02*
D03*
X052828Y044040D02*
D03*
X052428Y044040D02*
D03*
X051478Y044040D02*
D03*
X051078Y044040D02*
D03*
X050728Y043540D02*
D03*
X050328Y043540D02*
D03*
X049978Y043540D02*
D03*
X049578Y043540D02*
D03*
X049078Y044090D02*
D03*
X048678Y044090D02*
D03*
X059578Y041090D02*
D03*
X059978Y041090D02*
D03*
X059978Y042090D02*
D03*
X059578Y042090D02*
D03*
X063868Y041741D02*
D03*
X064268Y041741D02*
D03*
X064268Y040741D02*
D03*
X063868Y040741D02*
D03*
X064019Y034291D02*
D03*
X064419Y034291D02*
D03*
X064419Y033291D02*
D03*
X064019Y033291D02*
D03*
X056418Y029091D02*
D03*
X056019Y029091D02*
D03*
X056019Y028091D02*
D03*
X056418Y028091D02*
D03*
X059819Y053491D02*
D03*
X060219Y053491D02*
D03*
X060219Y054491D02*
D03*
X059819Y054491D02*
D03*
X062350Y056600D02*
D03*
X062750Y056600D02*
D03*
X063868Y056691D02*
D03*
X064268Y056691D02*
D03*
X064268Y057691D02*
D03*
X063868Y057691D02*
D03*
X062750Y057600D02*
D03*
X062350Y057600D02*
D03*
X059569Y060341D02*
D03*
X059169Y060341D02*
D03*
X059169Y059341D02*
D03*
X059569Y059341D02*
D03*
X058068Y063391D02*
D03*
X057668Y063391D02*
D03*
X057668Y064391D02*
D03*
X058068Y064391D02*
D03*
X056618Y065091D02*
D03*
X056219Y065091D02*
D03*
X056219Y064091D02*
D03*
X056618Y064091D02*
D03*
X056782Y060441D02*
D03*
X056382Y060441D02*
D03*
X056382Y059441D02*
D03*
X056782Y059441D02*
D03*
X048538Y068091D02*
D03*
X048138Y068091D02*
D03*
X048138Y069091D02*
D03*
X048538Y069091D02*
D03*
X050168Y071091D02*
D03*
X050568Y071091D02*
D03*
X050568Y072091D02*
D03*
X050168Y072091D02*
D03*
X057069Y072141D02*
D03*
X057469Y072141D02*
D03*
X057469Y073141D02*
D03*
X057069Y073141D02*
D03*
X029618Y069791D02*
D03*
X028819Y069791D02*
D03*
X028819Y068791D02*
D03*
X029218Y068791D02*
D03*
X028819Y061641D02*
D03*
X028819Y060641D02*
D03*
X029218Y060641D02*
D03*
X029618Y061641D02*
D03*
G54D73*
X036869Y031691D02*
D03*
X036869Y032091D02*
D03*
X037868Y032091D02*
D03*
X037868Y031691D02*
D03*
X039218Y031691D02*
D03*
X039218Y032091D02*
D03*
X040219Y032091D02*
D03*
X040219Y031691D02*
D03*
X041069Y033790D02*
D03*
X042069Y033790D02*
D03*
X042069Y034190D02*
D03*
X042509Y034591D02*
D03*
X042509Y034991D02*
D03*
X041509Y034991D02*
D03*
X041509Y034591D02*
D03*
X041069Y034190D02*
D03*
X040068Y036040D02*
D03*
X040068Y036440D02*
D03*
X039069Y036440D02*
D03*
X039069Y036040D02*
D03*
X038368Y034241D02*
D03*
X037369Y034241D02*
D03*
X037369Y033841D02*
D03*
X038368Y033841D02*
D03*
X039069Y028340D02*
D03*
X039069Y027940D02*
D03*
X040068Y027940D02*
D03*
X040068Y028340D02*
D03*
X041509Y026891D02*
D03*
X041509Y026491D02*
D03*
X041069Y026090D02*
D03*
X041069Y025690D02*
D03*
X042069Y025690D02*
D03*
X042069Y026090D02*
D03*
X043468Y025791D02*
D03*
X043468Y025391D02*
D03*
X044468Y025391D02*
D03*
X044468Y025791D02*
D03*
X045469Y025791D02*
D03*
X045469Y025391D02*
D03*
X046469Y025391D02*
D03*
X046469Y025791D02*
D03*
X045469Y027891D02*
D03*
X045469Y028291D02*
D03*
X044468Y028291D02*
D03*
X044468Y027891D02*
D03*
X042509Y026891D02*
D03*
X042509Y026491D02*
D03*
X038368Y026141D02*
D03*
X038368Y025741D02*
D03*
X037369Y025741D02*
D03*
X037369Y026141D02*
D03*
X039218Y039791D02*
D03*
X039218Y040191D02*
D03*
X040219Y040191D02*
D03*
X040219Y039791D02*
D03*
X037868Y039791D02*
D03*
X037868Y040191D02*
D03*
X036869Y040191D02*
D03*
X036869Y039791D02*
D03*
X037369Y041991D02*
D03*
X037369Y042391D02*
D03*
X038368Y042391D02*
D03*
X038368Y041991D02*
D03*
X039069Y044190D02*
D03*
X039069Y044590D02*
D03*
X040068Y044590D02*
D03*
X040068Y044190D02*
D03*
X041509Y043141D02*
D03*
X041509Y042741D02*
D03*
X041069Y042340D02*
D03*
X041069Y041940D02*
D03*
X042069Y041940D02*
D03*
X042069Y042340D02*
D03*
X042509Y042741D02*
D03*
X042509Y043141D02*
D03*
X046778Y044840D02*
D03*
X047778Y044840D02*
D03*
X047778Y045240D02*
D03*
X047778Y045640D02*
D03*
X047778Y046040D02*
D03*
X046778Y046040D02*
D03*
X046778Y045640D02*
D03*
X046778Y045240D02*
D03*
X048278Y047240D02*
D03*
X048278Y047640D02*
D03*
X048278Y048040D02*
D03*
X048278Y048440D02*
D03*
X048278Y048840D02*
D03*
X048278Y049240D02*
D03*
X047828Y049740D02*
D03*
X047828Y050140D02*
D03*
X046828Y050140D02*
D03*
X046828Y049740D02*
D03*
X047278Y049240D02*
D03*
X047278Y048840D02*
D03*
X047278Y048440D02*
D03*
X047278Y048040D02*
D03*
X047278Y047640D02*
D03*
X047278Y047240D02*
D03*
X047478Y051490D02*
D03*
X047478Y051890D02*
D03*
X046478Y051890D02*
D03*
X046478Y051490D02*
D03*
X042509Y051291D02*
D03*
X042509Y050891D02*
D03*
X042069Y050490D02*
D03*
X042069Y050090D02*
D03*
X041509Y051291D02*
D03*
X041509Y050891D02*
D03*
X041069Y050490D02*
D03*
X041069Y050090D02*
D03*
X040068Y052340D02*
D03*
X039069Y052340D02*
D03*
X039069Y052740D02*
D03*
X040068Y052740D02*
D03*
X038368Y050541D02*
D03*
X038368Y050141D02*
D03*
X037369Y050141D02*
D03*
X037369Y050541D02*
D03*
X037868Y048341D02*
D03*
X037868Y047941D02*
D03*
X039218Y047941D02*
D03*
X040219Y047941D02*
D03*
X040219Y048341D02*
D03*
X039218Y048341D02*
D03*
X036869Y048341D02*
D03*
X036869Y047941D02*
D03*
X039218Y056091D02*
D03*
X039218Y056491D02*
D03*
X040219Y056491D02*
D03*
X040219Y056091D02*
D03*
X041069Y058240D02*
D03*
X041069Y058640D02*
D03*
X042069Y058640D02*
D03*
X042069Y058240D02*
D03*
X042509Y059041D02*
D03*
X042509Y059441D02*
D03*
X041509Y059441D02*
D03*
X041509Y059041D02*
D03*
X040068Y060490D02*
D03*
X040068Y060890D02*
D03*
X039069Y060890D02*
D03*
X039069Y060490D02*
D03*
X038368Y058691D02*
D03*
X038368Y058291D02*
D03*
X037369Y058291D02*
D03*
X037369Y058691D02*
D03*
X037868Y056491D02*
D03*
X037868Y056091D02*
D03*
X036869Y056091D02*
D03*
X036869Y056491D02*
D03*
X039218Y064241D02*
D03*
X039218Y064641D02*
D03*
X040219Y064641D02*
D03*
X040219Y064241D02*
D03*
X041069Y066391D02*
D03*
X042069Y066391D02*
D03*
X042069Y066791D02*
D03*
X042509Y067191D02*
D03*
X042509Y067591D02*
D03*
X041509Y067591D02*
D03*
X041509Y067191D02*
D03*
X041069Y066791D02*
D03*
X040068Y068641D02*
D03*
X040068Y069041D02*
D03*
X039069Y069041D02*
D03*
X039069Y068641D02*
D03*
X038368Y066841D02*
D03*
X037369Y066841D02*
D03*
X037369Y066441D02*
D03*
X038368Y066441D02*
D03*
X037868Y064641D02*
D03*
X037868Y064241D02*
D03*
X036869Y064241D02*
D03*
X036869Y064641D02*
D03*
X039218Y072391D02*
D03*
X040219Y072391D02*
D03*
X040219Y072791D02*
D03*
X039218Y072791D02*
D03*
X037868Y072791D02*
D03*
X037868Y072391D02*
D03*
X036869Y072791D02*
D03*
X036869Y072391D02*
D03*
X049819Y069541D02*
D03*
X050819Y069541D02*
D03*
X050819Y069941D02*
D03*
X049819Y069941D02*
D03*
X053921Y063841D02*
D03*
X053921Y063441D02*
D03*
X054169Y062891D02*
D03*
X054169Y062491D02*
D03*
X055168Y062491D02*
D03*
X055168Y062891D02*
D03*
X055469Y061941D02*
D03*
X055469Y061541D02*
D03*
X055619Y060941D02*
D03*
X055619Y060541D02*
D03*
X054619Y060541D02*
D03*
X054619Y060941D02*
D03*
X056469Y061541D02*
D03*
X056469Y061941D02*
D03*
X054921Y063441D02*
D03*
X054921Y063841D02*
D03*
X060219Y060091D02*
D03*
X061219Y059841D02*
D03*
X060850Y059250D02*
D03*
X060850Y058850D02*
D03*
X061850Y058850D02*
D03*
X061850Y059250D02*
D03*
X061219Y061291D02*
D03*
X061219Y062641D02*
D03*
X060419Y064741D02*
D03*
X060419Y065141D02*
D03*
X059419Y065141D02*
D03*
X059419Y064741D02*
D03*
X060219Y062891D02*
D03*
X060219Y061541D02*
D03*
X060409Y069141D02*
D03*
X060409Y069541D02*
D03*
X059408Y069541D02*
D03*
X059408Y069141D02*
D03*
X057178Y051940D02*
D03*
X057178Y051540D02*
D03*
X057119Y051191D02*
D03*
X056118Y051191D02*
D03*
X056178Y051540D02*
D03*
X056178Y051940D02*
D03*
X056118Y050791D02*
D03*
X056578Y050390D02*
D03*
X056578Y049990D02*
D03*
X056578Y049640D02*
D03*
X057119Y050791D02*
D03*
X056578Y049240D02*
D03*
X057578Y049240D02*
D03*
X057578Y049640D02*
D03*
X057578Y049990D02*
D03*
X057578Y050390D02*
D03*
X056328Y044090D02*
D03*
X056328Y043690D02*
D03*
X057328Y043690D02*
D03*
X057328Y044090D02*
D03*
X062418Y041391D02*
D03*
X062418Y040991D02*
D03*
X062418Y040591D02*
D03*
X063418Y040591D02*
D03*
X063418Y040991D02*
D03*
X063418Y041391D02*
D03*
X063418Y041791D02*
D03*
X062418Y041791D02*
D03*
G54D74*
X036769Y031891D02*
D03*
X036869Y031891D02*
D03*
X036969Y031891D02*
D03*
X037768Y031891D02*
D03*
X037868Y031891D02*
D03*
X037968Y031891D02*
D03*
X039118Y031891D02*
D03*
X039218Y031891D02*
D03*
X039318Y031891D02*
D03*
X040118Y031891D02*
D03*
X040219Y031891D02*
D03*
X040318Y031891D02*
D03*
X041968Y033990D02*
D03*
X042069Y033990D02*
D03*
X042168Y033990D02*
D03*
X042409Y034791D02*
D03*
X042509Y034791D02*
D03*
X042609Y034791D02*
D03*
X041609Y034791D02*
D03*
X041509Y034791D02*
D03*
X041409Y034791D02*
D03*
X041168Y033990D02*
D03*
X041069Y033990D02*
D03*
X040968Y033990D02*
D03*
X040168Y036240D02*
D03*
X040068Y036240D02*
D03*
X039969Y036240D02*
D03*
X039169Y036240D02*
D03*
X039069Y036240D02*
D03*
X038969Y036240D02*
D03*
X038468Y034041D02*
D03*
X038368Y034041D02*
D03*
X038268Y034041D02*
D03*
X037469Y034041D02*
D03*
X037369Y034041D02*
D03*
X037269Y034041D02*
D03*
X040318Y039991D02*
D03*
X040219Y039991D02*
D03*
X040118Y039991D02*
D03*
X039318Y039991D02*
D03*
X039218Y039991D02*
D03*
X039118Y039991D02*
D03*
X037968Y039991D02*
D03*
X037868Y039991D02*
D03*
X037768Y039991D02*
D03*
X036969Y039991D02*
D03*
X036869Y039991D02*
D03*
X036769Y039991D02*
D03*
X037269Y042191D02*
D03*
X037369Y042191D02*
D03*
X037469Y042191D02*
D03*
X038268Y042191D02*
D03*
X038368Y042191D02*
D03*
X038468Y042191D02*
D03*
X038969Y044390D02*
D03*
X039069Y044390D02*
D03*
X039169Y044390D02*
D03*
X039969Y044390D02*
D03*
X040068Y044390D02*
D03*
X040168Y044390D02*
D03*
X041409Y042941D02*
D03*
X041509Y042941D02*
D03*
X041609Y042941D02*
D03*
X041168Y042140D02*
D03*
X041069Y042140D02*
D03*
X040968Y042140D02*
D03*
X041968Y042140D02*
D03*
X042069Y042140D02*
D03*
X042168Y042140D02*
D03*
X042409Y042941D02*
D03*
X042509Y042941D02*
D03*
X042609Y042941D02*
D03*
X046678Y045040D02*
D03*
X046778Y045040D02*
D03*
X046878Y045040D02*
D03*
X046878Y045840D02*
D03*
X046778Y045840D02*
D03*
X046678Y045840D02*
D03*
X047678Y045840D02*
D03*
X047778Y045840D02*
D03*
X047878Y045840D02*
D03*
X047878Y045040D02*
D03*
X047778Y045040D02*
D03*
X047678Y045040D02*
D03*
X048178Y047440D02*
D03*
X048278Y047440D02*
D03*
X048378Y047440D02*
D03*
X048378Y048240D02*
D03*
X048278Y048240D02*
D03*
X048178Y048240D02*
D03*
X048178Y049040D02*
D03*
X048278Y049040D02*
D03*
X048378Y049040D02*
D03*
X047928Y049940D02*
D03*
X047828Y049940D02*
D03*
X047728Y049940D02*
D03*
X046928Y049940D02*
D03*
X046828Y049940D02*
D03*
X046728Y049940D02*
D03*
X047178Y049040D02*
D03*
X047278Y049040D02*
D03*
X047378Y049040D02*
D03*
X047378Y048240D02*
D03*
X047278Y048240D02*
D03*
X047178Y048240D02*
D03*
X047178Y047440D02*
D03*
X047278Y047440D02*
D03*
X047378Y047440D02*
D03*
X047378Y051690D02*
D03*
X047478Y051690D02*
D03*
X047578Y051690D02*
D03*
X046578Y051690D02*
D03*
X046478Y051690D02*
D03*
X046378Y051690D02*
D03*
X042609Y051091D02*
D03*
X042509Y051091D02*
D03*
X042409Y051091D02*
D03*
X042168Y050290D02*
D03*
X042069Y050290D02*
D03*
X041968Y050290D02*
D03*
X041609Y051091D02*
D03*
X041509Y051091D02*
D03*
X041409Y051091D02*
D03*
X041168Y050290D02*
D03*
X041069Y050290D02*
D03*
X040968Y050290D02*
D03*
X040318Y048141D02*
D03*
X040219Y048141D02*
D03*
X040118Y048141D02*
D03*
X039318Y048141D02*
D03*
X039218Y048141D02*
D03*
X039118Y048141D02*
D03*
X038468Y050341D02*
D03*
X038368Y050341D02*
D03*
X038268Y050341D02*
D03*
X037469Y050341D02*
D03*
X037369Y050341D02*
D03*
X037269Y050341D02*
D03*
X037768Y048141D02*
D03*
X037868Y048141D02*
D03*
X037968Y048141D02*
D03*
X036969Y048141D02*
D03*
X036869Y048141D02*
D03*
X036769Y048141D02*
D03*
X038969Y052540D02*
D03*
X039069Y052540D02*
D03*
X039169Y052540D02*
D03*
X039969Y052540D02*
D03*
X040068Y052540D02*
D03*
X040168Y052540D02*
D03*
X040318Y056291D02*
D03*
X041968Y058440D02*
D03*
X042069Y058440D02*
D03*
X042168Y058440D02*
D03*
X042409Y059241D02*
D03*
X042509Y059241D02*
D03*
X042609Y059241D02*
D03*
X041609Y059241D02*
D03*
X041509Y059241D02*
D03*
X041409Y059241D02*
D03*
X041168Y058440D02*
D03*
X041069Y058440D02*
D03*
X040968Y058440D02*
D03*
X040219Y056291D02*
D03*
X040118Y056291D02*
D03*
X039318Y056291D02*
D03*
X039218Y056291D02*
D03*
X039118Y056291D02*
D03*
X038468Y058491D02*
D03*
X038368Y058491D02*
D03*
X038268Y058491D02*
D03*
X037469Y058491D02*
D03*
X037369Y058491D02*
D03*
X037269Y058491D02*
D03*
X037768Y056291D02*
D03*
X037868Y056291D02*
D03*
X037968Y056291D02*
D03*
X036969Y056291D02*
D03*
X036869Y056291D02*
D03*
X036769Y056291D02*
D03*
X038969Y060690D02*
D03*
X039069Y060690D02*
D03*
X039169Y060690D02*
D03*
X039969Y060690D02*
D03*
X040068Y060690D02*
D03*
X040168Y060690D02*
D03*
X040318Y064441D02*
D03*
X040219Y064441D02*
D03*
X040118Y064441D02*
D03*
X039318Y064441D02*
D03*
X039218Y064441D02*
D03*
X039118Y064441D02*
D03*
X037968Y064441D02*
D03*
X037868Y064441D02*
D03*
X037768Y064441D02*
D03*
X036969Y064441D02*
D03*
X036869Y064441D02*
D03*
X036769Y064441D02*
D03*
X037269Y066641D02*
D03*
X037369Y066641D02*
D03*
X037469Y066641D02*
D03*
X038268Y066641D02*
D03*
X038368Y066641D02*
D03*
X038468Y066641D02*
D03*
X038969Y068841D02*
D03*
X039069Y068841D02*
D03*
X039169Y068841D02*
D03*
X039969Y068841D02*
D03*
X040068Y068841D02*
D03*
X040168Y068841D02*
D03*
X041409Y067391D02*
D03*
X041509Y067391D02*
D03*
X041609Y067391D02*
D03*
X041168Y066591D02*
D03*
X041069Y066591D02*
D03*
X040968Y066591D02*
D03*
X041968Y066591D02*
D03*
X042069Y066591D02*
D03*
X042168Y066591D02*
D03*
X042409Y067391D02*
D03*
X042509Y067391D02*
D03*
X042609Y067391D02*
D03*
X040318Y072591D02*
D03*
X040219Y072591D02*
D03*
X040118Y072591D02*
D03*
X039318Y072591D02*
D03*
X039218Y072591D02*
D03*
X039118Y072591D02*
D03*
X037968Y072591D02*
D03*
X037868Y072591D02*
D03*
X037768Y072591D02*
D03*
X036969Y072591D02*
D03*
X036869Y072591D02*
D03*
X036769Y072591D02*
D03*
X049718Y069741D02*
D03*
X049819Y069741D02*
D03*
X049918Y069741D02*
D03*
X050718Y069741D02*
D03*
X050819Y069741D02*
D03*
X050918Y069741D02*
D03*
X053821Y063641D02*
D03*
X053921Y063641D02*
D03*
X054021Y063641D02*
D03*
X054068Y062691D02*
D03*
X055368Y061741D02*
D03*
X055469Y061741D02*
D03*
X055568Y061741D02*
D03*
X055518Y060741D02*
D03*
X055619Y060741D02*
D03*
X054718Y060741D02*
D03*
X054619Y060741D02*
D03*
X054518Y060741D02*
D03*
X055718Y060741D02*
D03*
X056368Y061741D02*
D03*
X056469Y061741D02*
D03*
X056568Y061741D02*
D03*
X055269Y062691D02*
D03*
X055168Y062691D02*
D03*
X055068Y062691D02*
D03*
X054268Y062691D02*
D03*
X054169Y062691D02*
D03*
X054821Y063641D02*
D03*
X054921Y063641D02*
D03*
X055021Y063641D02*
D03*
X059318Y064941D02*
D03*
X059419Y064941D02*
D03*
X059518Y064941D02*
D03*
X060318Y064941D02*
D03*
X060419Y064941D02*
D03*
X060518Y064941D02*
D03*
X060750Y059050D02*
D03*
X060850Y059050D02*
D03*
X060950Y059050D02*
D03*
X061750Y059050D02*
D03*
X061850Y059050D02*
D03*
X061950Y059050D02*
D03*
X057178Y051740D02*
D03*
X057078Y051740D02*
D03*
X056278Y051740D02*
D03*
X056178Y051740D02*
D03*
X056078Y051740D02*
D03*
X056118Y050991D02*
D03*
X056019Y050991D02*
D03*
X056219Y050991D02*
D03*
X057018Y050991D02*
D03*
X057119Y050991D02*
D03*
X057218Y050991D02*
D03*
X056678Y050190D02*
D03*
X056578Y050190D02*
D03*
X056478Y050190D02*
D03*
X056478Y049440D02*
D03*
X056578Y049440D02*
D03*
X056678Y049440D02*
D03*
X057478Y049440D02*
D03*
X057578Y049440D02*
D03*
X057678Y049440D02*
D03*
X057678Y050190D02*
D03*
X057578Y050190D02*
D03*
X057478Y050190D02*
D03*
X057278Y051740D02*
D03*
X057228Y043890D02*
D03*
X056428Y043890D02*
D03*
X056328Y043890D02*
D03*
X056228Y043890D02*
D03*
X057328Y043890D02*
D03*
X057428Y043890D02*
D03*
X062319Y041591D02*
D03*
X062418Y041591D02*
D03*
X062519Y041591D02*
D03*
X063319Y041591D02*
D03*
X063418Y041591D02*
D03*
X063418Y040791D02*
D03*
X063319Y040791D02*
D03*
X062519Y040791D02*
D03*
X062418Y040791D02*
D03*
X062319Y040791D02*
D03*
X063519Y040791D02*
D03*
X063519Y041591D02*
D03*
X046568Y025591D02*
D03*
X046469Y025591D02*
D03*
X046368Y025591D02*
D03*
X045568Y025591D02*
D03*
X045469Y025591D02*
D03*
X045368Y025591D02*
D03*
X044569Y025591D02*
D03*
X044468Y025591D02*
D03*
X044369Y025591D02*
D03*
X043569Y025591D02*
D03*
X043468Y025591D02*
D03*
X043369Y025591D02*
D03*
X042609Y026691D02*
D03*
X042509Y026691D02*
D03*
X042409Y026691D02*
D03*
X042168Y025890D02*
D03*
X042069Y025890D02*
D03*
X041968Y025890D02*
D03*
X041609Y026691D02*
D03*
X041509Y026691D02*
D03*
X041409Y026691D02*
D03*
X041168Y025890D02*
D03*
X041069Y025890D02*
D03*
X040968Y025890D02*
D03*
X044369Y028091D02*
D03*
X044468Y028091D02*
D03*
X044569Y028091D02*
D03*
X045368Y028091D02*
D03*
X045469Y028091D02*
D03*
X045568Y028091D02*
D03*
X040168Y028140D02*
D03*
X040068Y028140D02*
D03*
X039969Y028140D02*
D03*
X039169Y028140D02*
D03*
X039069Y028140D02*
D03*
X038969Y028140D02*
D03*
X038468Y025941D02*
D03*
X038368Y025941D02*
D03*
X038268Y025941D02*
D03*
X037469Y025941D02*
D03*
X037369Y025941D02*
D03*
X037269Y025941D02*
D03*
X060409Y069341D02*
D03*
X060508Y069341D02*
D03*
X060308Y069341D02*
D03*
X059509Y069341D02*
D03*
X059408Y069341D02*
D03*
X059309Y069341D02*
D03*
G54D83*
X038531Y029940D02*
D03*
X038531Y038040D02*
D03*
X038531Y046190D02*
D03*
X038531Y054340D02*
D03*
X038531Y062490D02*
D03*
X038531Y070641D02*
D03*
G54D85*
X040106Y029940D02*
D03*
X040106Y038040D02*
D03*
X040106Y046190D02*
D03*
X040106Y054340D02*
D03*
X040106Y062490D02*
D03*
X040106Y070641D02*
D03*
G54D86*
X048969Y070691D02*
D03*
X048969Y071591D02*
D03*
X048969Y072491D02*
D03*
X045469Y071591D02*
D03*
G54D89*
X044868Y030091D02*
D03*
X047868Y030091D02*
D03*
X053719Y026591D02*
D03*
X056719Y026591D02*
D03*
X059969Y033341D02*
D03*
X056968Y033341D02*
D03*
G54D90*
X027369Y042341D02*
D03*
G54D91*
X026168Y042841D02*
D03*
X027369Y043441D02*
D03*
X027369Y044541D02*
D03*
X027369Y045641D02*
D03*
X027369Y046741D02*
D03*
X027369Y047841D02*
D03*
X027369Y048941D02*
D03*
X027369Y050041D02*
D03*
X027369Y051141D02*
D03*
X027369Y052241D02*
D03*
X027369Y053341D02*
D03*
X027369Y054441D02*
D03*
X027369Y055541D02*
D03*
X026168Y055041D02*
D03*
X026168Y053941D02*
D03*
X026168Y052841D02*
D03*
X026168Y051741D02*
D03*
X026168Y050641D02*
D03*
X026168Y049541D02*
D03*
X026168Y048441D02*
D03*
X026168Y047241D02*
D03*
X026168Y046241D02*
D03*
X026168Y045141D02*
D03*
X026168Y044041D02*
D03*
G54D92*
X026769Y039541D02*
D03*
X026769Y057941D02*
D03*
G54D93*
X046469Y026841D02*
D03*
G54D94*
X044468Y026841D02*
D03*
X045469Y026841D02*
D03*
G54D95*
X062028Y042540D02*
D03*
X062028Y043540D02*
D03*
X062028Y044540D02*
D03*
X063028Y044540D02*
D03*
X063028Y043540D02*
D03*
X063028Y045540D02*
D03*
X062028Y045540D02*
D03*
X062028Y046540D02*
D03*
X063028Y046540D02*
D03*
G54D96*
X063028Y042540D02*
D03*
G54D97*
X031469Y025391D02*
D03*
X034969Y025391D02*
D03*
X034969Y032141D02*
D03*
X034969Y033491D02*
D03*
X031469Y033491D02*
D03*
X031469Y032141D02*
D03*
X034969Y040241D02*
D03*
X034969Y041641D02*
D03*
X031469Y041641D02*
D03*
X031469Y040241D02*
D03*
X034969Y048391D02*
D03*
X034969Y049791D02*
D03*
X031469Y049791D02*
D03*
X031469Y048391D02*
D03*
X034969Y056541D02*
D03*
X034969Y057941D02*
D03*
X031469Y057941D02*
D03*
X031469Y056541D02*
D03*
X034969Y064691D02*
D03*
X034969Y066091D02*
D03*
X031469Y066091D02*
D03*
X031469Y064691D02*
D03*
X034969Y072841D02*
D03*
X031469Y072841D02*
D03*
X042469Y065341D02*
D03*
X042469Y057091D02*
D03*
X045478Y054390D02*
D03*
X043969Y047341D02*
D03*
X042568Y041091D02*
D03*
X044718Y034841D02*
D03*
X042218Y031591D02*
D03*
X052719Y030091D02*
D03*
X056469Y031091D02*
D03*
X058868Y036591D02*
D03*
X060219Y038091D02*
D03*
X059928Y038940D02*
D03*
X058068Y036591D02*
D03*
X058068Y035791D02*
D03*
X056568Y035791D02*
D03*
X056568Y036591D02*
D03*
X055768Y036591D02*
D03*
X054969Y036591D02*
D03*
X062168Y028509D02*
D03*
X062168Y027525D02*
D03*
X062168Y026541D02*
D03*
X062168Y029493D02*
D03*
X062218Y060141D02*
D03*
X062218Y061141D02*
D03*
X062218Y061941D02*
D03*
X062218Y062941D02*
D03*
X062218Y068251D02*
D03*
X062218Y069251D02*
D03*
X062218Y070051D02*
D03*
X062218Y071051D02*
D03*
X052000Y066250D02*
D03*
G54D98*
X063319Y058941D02*
D03*
X063319Y064141D02*
D03*
X063319Y067051D02*
D03*
X063319Y072251D02*
D03*
G54D99*
X025724Y022575D02*
D03*
X035961Y022575D02*
D03*
X066276Y022575D02*
D03*
X066276Y075724D02*
D03*
X035961Y075724D02*
D03*
X025724Y075724D02*
D03*
G54D100*
X028800Y026300D02*
D03*
X029350Y027600D02*
D03*
X029769Y026841D02*
D03*
X031918Y027491D02*
D03*
X033219Y027041D02*
D03*
X033719Y027141D02*
D03*
X034369Y026191D02*
D03*
X036769Y026741D02*
D03*
X038468Y025941D02*
D03*
X039118Y025641D02*
D03*
X039718Y025891D02*
D03*
X040368Y025541D02*
D03*
X040968Y025891D02*
D03*
X041869Y025891D02*
D03*
X040219Y028141D02*
D03*
X038969Y028141D02*
D03*
X039625Y027541D02*
D03*
X040980Y029556D02*
D03*
X039118Y031891D02*
D03*
X040368Y033641D02*
D03*
X040968Y033991D02*
D03*
X041869Y033991D02*
D03*
X039625Y035641D02*
D03*
X040219Y036241D02*
D03*
X038969Y036241D02*
D03*
X040980Y037656D02*
D03*
X039118Y039991D02*
D03*
X037968Y039991D02*
D03*
X037469Y037791D02*
D03*
X035768Y037891D02*
D03*
X035768Y037041D02*
D03*
X036769Y034841D02*
D03*
X038468Y034041D02*
D03*
X039118Y033741D02*
D03*
X039718Y033991D02*
D03*
X037968Y031891D02*
D03*
X037469Y029691D02*
D03*
X035768Y029791D02*
D03*
X035768Y028941D02*
D03*
X035168Y030491D02*
D03*
X033719Y030041D02*
D03*
X031869Y031191D02*
D03*
X031969Y030391D02*
D03*
X031319Y029241D02*
D03*
X030319Y030091D02*
D03*
X030168Y028441D02*
D03*
X028660Y030050D02*
D03*
X028700Y029150D02*
D03*
X029218Y028391D02*
D03*
X028800Y027900D02*
D03*
X029769Y030991D02*
D03*
X033219Y035141D02*
D03*
X033719Y035241D02*
D03*
X034369Y034291D02*
D03*
X035168Y034841D02*
D03*
X035168Y038591D02*
D03*
X033719Y038141D02*
D03*
X031869Y039291D02*
D03*
X031969Y038491D02*
D03*
X031319Y037341D02*
D03*
X031918Y035591D02*
D03*
X030319Y038191D02*
D03*
X030168Y036541D02*
D03*
X029769Y034941D02*
D03*
X029350Y035700D02*
D03*
X028800Y036000D02*
D03*
X029218Y036491D02*
D03*
X028800Y034400D02*
D03*
X028700Y037250D02*
D03*
X028660Y038150D02*
D03*
X029769Y039091D02*
D03*
X033219Y043291D02*
D03*
X034369Y042441D02*
D03*
X035168Y042991D02*
D03*
X036769Y042991D02*
D03*
X038468Y042191D02*
D03*
X039118Y041891D02*
D03*
X039718Y042141D02*
D03*
X040368Y041791D02*
D03*
X040968Y042141D02*
D03*
X041869Y042141D02*
D03*
X044178Y042490D02*
D03*
X046478Y042240D02*
D03*
X046478Y043240D02*
D03*
X047818Y042241D02*
D03*
X048428Y043040D02*
D03*
X049619Y042291D02*
D03*
X050819Y042291D02*
D03*
X051928Y043040D02*
D03*
X053928Y042240D02*
D03*
X055515Y040418D02*
D03*
X056828Y043040D02*
D03*
X057478Y042240D02*
D03*
X059778Y042240D02*
D03*
X057478Y043890D02*
D03*
X057478Y045640D02*
D03*
X059678Y046790D02*
D03*
X060778Y047690D02*
D03*
X061578Y048890D02*
D03*
X060669Y050841D02*
D03*
X061019Y051191D02*
D03*
X061367Y051539D02*
D03*
X059778Y053490D02*
D03*
X059068Y055091D02*
D03*
X057469Y053541D02*
D03*
X057618Y052091D02*
D03*
X057628Y049790D02*
D03*
X058028Y047990D02*
D03*
X057978Y046640D02*
D03*
X056828Y048790D02*
D03*
X056028Y046790D02*
D03*
X056028Y045840D02*
D03*
X056678Y044840D02*
D03*
X055328Y046290D02*
D03*
X054628Y046790D02*
D03*
X054928Y043040D02*
D03*
X055528Y042240D02*
D03*
X052069Y040091D02*
D03*
X047278Y044090D02*
D03*
X046478Y045440D02*
D03*
X046628Y047640D02*
D03*
X047278Y047190D02*
D03*
X046478Y049940D02*
D03*
X047269Y050751D02*
D03*
X046478Y052140D02*
D03*
X049428Y052890D02*
D03*
X049985Y053533D02*
D03*
X050978Y052890D02*
D03*
X053128Y053690D02*
D03*
X054728Y052890D02*
D03*
X055568Y053741D02*
D03*
X056833Y051145D02*
D03*
X056890Y052952D02*
D03*
X059468Y049941D02*
D03*
X059969Y050141D02*
D03*
X060318Y050491D02*
D03*
X063978Y048890D02*
D03*
X063578Y048140D02*
D03*
X063868Y041241D02*
D03*
X047269Y052891D02*
D03*
X047319Y053691D02*
D03*
X044419Y053741D02*
D03*
X041869Y050291D02*
D03*
X042818Y048591D02*
D03*
X043719Y048591D02*
D03*
X044219Y048591D02*
D03*
X040968Y050291D02*
D03*
X040368Y049941D02*
D03*
X039625Y051941D02*
D03*
X040219Y052541D02*
D03*
X038969Y052541D02*
D03*
X039118Y050041D02*
D03*
X039718Y050291D02*
D03*
X039118Y048141D02*
D03*
X038468Y050341D02*
D03*
X037968Y048141D02*
D03*
X035768Y046041D02*
D03*
X035768Y045191D02*
D03*
X037469Y045941D02*
D03*
X038969Y044391D02*
D03*
X040219Y044391D02*
D03*
X039625Y043791D02*
D03*
X040980Y045806D02*
D03*
X036769Y051141D02*
D03*
X037469Y054091D02*
D03*
X035768Y054191D02*
D03*
X035768Y053341D02*
D03*
X035168Y054891D02*
D03*
X033719Y054441D02*
D03*
X031969Y054791D02*
D03*
X031869Y055591D02*
D03*
X031319Y053641D02*
D03*
X031918Y051891D02*
D03*
X033219Y051441D02*
D03*
X033719Y051541D02*
D03*
X034369Y050591D02*
D03*
X035168Y051141D02*
D03*
X031869Y047441D02*
D03*
X031969Y046641D02*
D03*
X031319Y045491D02*
D03*
X031918Y043741D02*
D03*
X033719Y043391D02*
D03*
X033719Y046291D02*
D03*
X035168Y046741D02*
D03*
X029769Y051241D02*
D03*
X030168Y052841D02*
D03*
X030319Y054491D02*
D03*
X029769Y055391D02*
D03*
X028660Y054450D02*
D03*
X028700Y053550D02*
D03*
X029218Y052791D02*
D03*
X028800Y052300D02*
D03*
X029350Y052000D02*
D03*
X028800Y050700D02*
D03*
X029769Y047241D02*
D03*
X030319Y046341D02*
D03*
X030168Y044691D02*
D03*
X029769Y043091D02*
D03*
X029350Y043850D02*
D03*
X028800Y044150D02*
D03*
X029218Y044641D02*
D03*
X028800Y042550D02*
D03*
X028700Y045400D02*
D03*
X028660Y046300D02*
D03*
X039118Y056291D02*
D03*
X040368Y058091D02*
D03*
X040968Y058441D02*
D03*
X042469Y056091D02*
D03*
X041869Y058441D02*
D03*
X040219Y060691D02*
D03*
X038969Y060691D02*
D03*
X039625Y060091D02*
D03*
X039718Y058441D02*
D03*
X039118Y058191D02*
D03*
X038468Y058491D02*
D03*
X037968Y056291D02*
D03*
X040980Y053956D02*
D03*
X036769Y059291D02*
D03*
X035768Y061491D02*
D03*
X037469Y062241D02*
D03*
X039118Y064441D02*
D03*
X040980Y062106D02*
D03*
X040368Y066241D02*
D03*
X041869Y066591D02*
D03*
X040968Y066591D02*
D03*
X039625Y068241D02*
D03*
X040219Y068841D02*
D03*
X038969Y068841D02*
D03*
X039718Y066591D02*
D03*
X039118Y066341D02*
D03*
X038468Y066641D02*
D03*
X036769Y067441D02*
D03*
X035168Y067441D02*
D03*
X034369Y066891D02*
D03*
X033719Y067841D02*
D03*
X033219Y067741D02*
D03*
X031918Y068191D02*
D03*
X033719Y070741D02*
D03*
X035168Y071191D02*
D03*
X035768Y070491D02*
D03*
X035768Y069641D02*
D03*
X037469Y070391D02*
D03*
X039118Y072591D02*
D03*
X040980Y070256D02*
D03*
X037968Y072591D02*
D03*
X031869Y071891D02*
D03*
X031969Y071091D02*
D03*
X031319Y069941D02*
D03*
X029769Y071691D02*
D03*
X030319Y070791D02*
D03*
X030168Y069141D02*
D03*
X029769Y067541D02*
D03*
X029350Y068300D02*
D03*
X028800Y068600D02*
D03*
X029218Y069091D02*
D03*
X028800Y067000D02*
D03*
X029769Y063541D02*
D03*
X030319Y062641D02*
D03*
X030168Y060991D02*
D03*
X029769Y059391D02*
D03*
X031918Y060041D02*
D03*
X033219Y059591D02*
D03*
X033719Y059691D02*
D03*
X034369Y058741D02*
D03*
X035168Y059291D02*
D03*
X035768Y062341D02*
D03*
X037968Y064441D02*
D03*
X035168Y063041D02*
D03*
X033719Y062591D02*
D03*
X031869Y063741D02*
D03*
X031969Y062941D02*
D03*
X031319Y061791D02*
D03*
X028660Y062600D02*
D03*
X028700Y061700D02*
D03*
X029218Y060941D02*
D03*
X028800Y060450D02*
D03*
X029350Y060150D02*
D03*
X028800Y058850D02*
D03*
X028700Y069850D02*
D03*
X028660Y070750D02*
D03*
X052319Y068841D02*
D03*
X051368Y070541D02*
D03*
X054718Y068341D02*
D03*
X055718Y068091D02*
D03*
X057108Y069641D02*
D03*
X056609Y070141D02*
D03*
X057909Y065691D02*
D03*
X056418Y063841D02*
D03*
X056469Y061991D02*
D03*
X056568Y060741D02*
D03*
X057919Y063091D02*
D03*
X059068Y059341D02*
D03*
X060718Y059841D02*
D03*
X061418Y060291D02*
D03*
X061418Y061741D02*
D03*
X060718Y061291D02*
D03*
X060718Y062641D02*
D03*
X061418Y063091D02*
D03*
X060419Y066551D02*
D03*
X060419Y069651D02*
D03*
X055168Y063641D02*
D03*
X054213Y063747D02*
D03*
X054169Y062291D02*
D03*
X054419Y060741D02*
D03*
X055368Y060741D02*
D03*
X055669Y061791D02*
D03*
X053418Y059741D02*
D03*
X035168Y026741D02*
D03*
G54D101*
X045469Y041441D02*
D03*
X049219Y037841D02*
D03*
X049019Y031841D02*
D03*
X052969Y028591D02*
D03*
X057094Y026591D02*
D03*
X058668Y026591D02*
D03*
X059468Y029091D02*
D03*
X057894Y029091D02*
D03*
X056469Y033341D02*
D03*
X062719Y035541D02*
D03*
X064219Y033091D02*
D03*
X065718Y035541D02*
D03*
X064219Y036091D02*
D03*
X058719Y041091D02*
D03*
X055478Y043690D02*
D03*
X054478Y044690D02*
D03*
X053478Y045690D02*
D03*
X053478Y043690D02*
D03*
X051478Y045690D02*
D03*
X051478Y043690D02*
D03*
X052478Y044690D02*
D03*
X050478Y044690D02*
D03*
X049478Y045690D02*
D03*
X049478Y043690D02*
D03*
X048478Y044690D02*
D03*
X051478Y047690D02*
D03*
X052478Y046690D02*
D03*
X053478Y047690D02*
D03*
X055478Y047690D02*
D03*
X054478Y048690D02*
D03*
X054478Y050690D02*
D03*
X055478Y049690D02*
D03*
X055478Y051690D02*
D03*
X053468Y051691D02*
D03*
X053478Y049690D02*
D03*
X051478Y051690D02*
D03*
X052478Y050690D02*
D03*
X051478Y049690D02*
D03*
X052478Y048690D02*
D03*
X050478Y050690D02*
D03*
X050478Y048690D02*
D03*
X050478Y046690D02*
D03*
X048478Y048690D02*
D03*
X049478Y047690D02*
D03*
X048478Y046690D02*
D03*
X048478Y050690D02*
D03*
X049478Y049690D02*
D03*
X049478Y051690D02*
D03*
X058468Y059091D02*
D03*
X057668Y060441D02*
D03*
X056069Y063091D02*
D03*
X048969Y069841D02*
D03*
X048969Y070691D02*
D03*
X052719Y072591D02*
D03*
X060978Y046490D02*
D03*
X049019Y025741D02*
D03*
G54D102*
X061219Y060341D02*
D03*
X061219Y061791D02*
D03*
X061219Y063141D02*
D03*
G54D103*
X029618Y028091D02*
D03*
X029618Y036191D02*
D03*
X029618Y044341D02*
D03*
X029618Y052491D02*
D03*
X029618Y060641D02*
D03*
X029618Y068791D02*
D03*
G54D104*
X030701Y028441D02*
D03*
X030957Y028441D02*
D03*
X031213Y028441D02*
D03*
X031469Y028441D02*
D03*
X031469Y030074D02*
D03*
X031213Y030074D02*
D03*
X030957Y030074D02*
D03*
X030701Y030074D02*
D03*
X030957Y036541D02*
D03*
X031213Y036541D02*
D03*
X031469Y036541D02*
D03*
X031469Y038174D02*
D03*
X031213Y038174D02*
D03*
X030957Y038174D02*
D03*
X030701Y038174D02*
D03*
X030701Y036541D02*
D03*
X030957Y044691D02*
D03*
X031213Y044691D02*
D03*
X031469Y044691D02*
D03*
X031469Y046324D02*
D03*
X031213Y046324D02*
D03*
X030957Y046324D02*
D03*
X030701Y046324D02*
D03*
X030701Y044691D02*
D03*
X030957Y052841D02*
D03*
X031213Y052841D02*
D03*
X031469Y052841D02*
D03*
X031469Y054474D02*
D03*
X031213Y054474D02*
D03*
X030957Y054474D02*
D03*
X030701Y054474D02*
D03*
X030701Y052841D02*
D03*
X030957Y060991D02*
D03*
X031213Y060991D02*
D03*
X031469Y060991D02*
D03*
X031469Y062624D02*
D03*
X031213Y062624D02*
D03*
X030957Y062624D02*
D03*
X030701Y062624D02*
D03*
X030701Y060991D02*
D03*
X030957Y069141D02*
D03*
X031213Y069141D02*
D03*
X031469Y069141D02*
D03*
X031469Y070774D02*
D03*
X031213Y070774D02*
D03*
X030957Y070774D02*
D03*
X030701Y070774D02*
D03*
X030701Y069141D02*
D03*
G54D105*
X041409Y027741D02*
D03*
X042509Y027341D02*
D03*
X042509Y035441D02*
D03*
X041409Y035841D02*
D03*
X042509Y043591D02*
D03*
X041409Y043991D02*
D03*
X042509Y051741D02*
D03*
X041409Y052141D02*
D03*
X042509Y059891D02*
D03*
X041409Y060291D02*
D03*
X042509Y068041D02*
D03*
X041409Y068441D02*
D03*
X057269Y061541D02*
D03*
X059468Y061541D02*
D03*
X059468Y061041D02*
D03*
X059468Y062041D02*
D03*
X059468Y062541D02*
D03*
X057269Y062541D02*
D03*
X057269Y062041D02*
D03*
X061378Y049390D02*
D03*
X061378Y048890D02*
D03*
X061378Y048390D02*
D03*
X063578Y047890D02*
D03*
X063578Y048390D02*
D03*
X063578Y048890D02*
D03*
X063578Y049390D02*
D03*
G54D106*
X042509Y028141D02*
D03*
X042509Y036241D02*
D03*
X042509Y044391D02*
D03*
X042509Y052541D02*
D03*
X042509Y060691D02*
D03*
X042509Y068841D02*
D03*
X057269Y061041D02*
D03*
X061378Y047890D02*
D03*
G54D107*
X049468Y028841D02*
D03*
X049468Y031841D02*
D03*
X052719Y028841D02*
D03*
X052719Y031841D02*
D03*
X057668Y028841D02*
D03*
X057668Y031841D02*
D03*
X062719Y032091D02*
D03*
X065718Y032091D02*
D03*
X065718Y035091D02*
D03*
X062719Y035091D02*
D03*
G54D108*
X055339Y066591D02*
D03*
X055339Y067091D02*
D03*
X055339Y067591D02*
D03*
X055339Y068091D02*
D03*
X055339Y068591D02*
D03*
X055339Y069091D02*
D03*
X055339Y069591D02*
D03*
X053218Y070091D02*
D03*
X053218Y069591D02*
D03*
X053218Y069091D02*
D03*
X053218Y068591D02*
D03*
X053218Y068091D02*
D03*
X053218Y067591D02*
D03*
X053218Y067091D02*
D03*
X053218Y066591D02*
D03*
G54D109*
X055339Y070091D02*
D03*
G54D110*
X055718Y071291D02*
D03*
X055718Y073091D02*
D03*
X053719Y071291D02*
D03*
G54D111*
X053719Y073091D02*
D03*
G54D112*
X051638Y067299D02*
D03*
X051638Y067555D02*
D03*
X051638Y067811D02*
D03*
X051638Y068067D02*
D03*
X051638Y068323D02*
D03*
X051638Y068579D02*
D03*
X051638Y068835D02*
D03*
X049300Y068835D02*
D03*
X049300Y068579D02*
D03*
X049300Y068323D02*
D03*
X049300Y069091D02*
D03*
X049300Y068067D02*
D03*
X049300Y067811D02*
D03*
X049300Y067555D02*
D03*
X049300Y067299D02*
D03*
G54D113*
X051638Y069091D02*
D03*
G54D114*
X060800Y056000D02*
D03*
X060800Y058000D02*
D03*
M02*
