%FSAX24Y24*%
%MOIN*%
G70*
G01*
G75*
G04 Layer_Color=8388736*
%ADD10O,0.0300X0.0500*%
%ADD11R,0.0300X0.0500*%
%ADD12O,0.0400X0.0120*%
%ADD13O,0.0120X0.0320*%
%ADD14O,0.0120X0.0400*%
%ADD15O,0.0320X0.0120*%
%ADD16O,0.0600X0.0200*%
%ADD17O,0.0200X0.0400*%
%ADD18O,0.0400X0.0200*%
%ADD19O,0.0200X0.0600*%
%ADD20O,0.0591X0.0118*%
%ADD21O,0.0118X0.0591*%
%ADD22R,0.0118X0.0591*%
%ADD23O,0.0118X0.0827*%
%ADD24O,0.0827X0.0118*%
%ADD25O,0.0800X0.0240*%
%ADD26R,0.0700X0.0400*%
%ADD27R,0.0700X0.1300*%
%ADD28O,0.0827X0.2362*%
%ADD29R,0.0300X0.1000*%
%ADD30O,0.0827X0.2362*%
%ADD31R,0.1000X0.0300*%
%ADD32O,0.0709X0.0118*%
%ADD33O,0.0118X0.0709*%
%ADD34R,0.1200X0.1200*%
%ADD35C,0.0100*%
%ADD36C,0.0200*%
%ADD37C,0.0400*%
%ADD38C,0.0120*%
%ADD39C,0.0600*%
%ADD40R,0.0800X0.0800*%
%ADD41C,0.0800*%
%ADD42C,0.0960*%
%ADD43R,0.0630X0.0630*%
%ADD44C,0.0630*%
%ADD45C,0.0640*%
%ADD46R,0.0640X0.0640*%
%ADD47C,0.0560*%
%ADD48C,0.0600*%
%ADD49C,0.0940*%
%ADD50C,0.1969*%
%ADD51C,0.0400*%
%ADD52C,0.0500*%
%ADD53C,0.0300*%
%ADD54R,0.0400X0.0200*%
%ADD55R,0.0200X0.0400*%
%ADD56R,0.0157X0.0610*%
%ADD57O,0.0500X0.0300*%
%ADD58R,0.0500X0.0300*%
%ADD59R,0.1200X0.1200*%
%ADD60O,0.0700X0.0200*%
%ADD61R,0.0700X0.0200*%
%ADD62R,0.0500X0.0830*%
%ADD63O,0.0500X0.0830*%
%ADD64O,0.0700X0.0150*%
%ADD65R,0.0700X0.0150*%
%ADD66R,0.0750X0.0750*%
%ADD67O,0.0380X0.0580*%
%ADD68R,0.0380X0.0580*%
%ADD69O,0.0480X0.0200*%
%ADD70O,0.0200X0.0480*%
%ADD71O,0.0680X0.0280*%
%ADD72O,0.0280X0.0480*%
%ADD73O,0.0480X0.0280*%
%ADD74O,0.0280X0.0680*%
%ADD75O,0.0671X0.0198*%
%ADD76O,0.0198X0.0671*%
%ADD77R,0.0198X0.0671*%
%ADD78O,0.0198X0.0907*%
%ADD79O,0.0907X0.0198*%
%ADD80O,0.0880X0.0320*%
%ADD81R,0.0780X0.0480*%
%ADD82R,0.0780X0.1380*%
%ADD83O,0.0907X0.2442*%
%ADD84R,0.0380X0.1080*%
%ADD85O,0.0907X0.2442*%
%ADD86R,0.1080X0.0380*%
%ADD87O,0.0789X0.0198*%
%ADD88O,0.0198X0.0789*%
%ADD89R,0.1280X0.1280*%
%ADD90R,0.0880X0.0880*%
%ADD91C,0.0880*%
%ADD92C,0.1040*%
%ADD93R,0.0710X0.0710*%
%ADD94C,0.0710*%
%ADD95C,0.0720*%
%ADD96R,0.0720X0.0720*%
%ADD97C,0.0680*%
%ADD98C,0.1020*%
%ADD99C,0.2049*%
%ADD100C,0.0480*%
%ADD101C,0.0580*%
G54D17*
X028660Y026050D02*
D03*
X028940Y026050D02*
D03*
X028940Y026850D02*
D03*
X028660Y026850D02*
D03*
X028660Y027650D02*
D03*
X028940Y027650D02*
D03*
X029560Y028000D02*
D03*
X029840Y028000D02*
D03*
X029840Y028800D02*
D03*
X029560Y028800D02*
D03*
X030529Y028641D02*
D03*
X030808Y028641D02*
D03*
X032429Y030691D02*
D03*
X032708Y030691D02*
D03*
X034629Y029191D02*
D03*
X034908Y029191D02*
D03*
X035129Y029191D02*
D03*
X035408Y029191D02*
D03*
X034908Y027991D02*
D03*
X034629Y027991D02*
D03*
X034629Y027191D02*
D03*
X034908Y027191D02*
D03*
X035529Y026991D02*
D03*
X035529Y027791D02*
D03*
X035808Y027791D02*
D03*
X035808Y026991D02*
D03*
X035909Y029941D02*
D03*
X035628Y029941D02*
D03*
X035628Y030741D02*
D03*
X035909Y030741D02*
D03*
X035408Y029991D02*
D03*
X035129Y029991D02*
D03*
X034908Y029991D02*
D03*
X034629Y029991D02*
D03*
X032708Y031491D02*
D03*
X032429Y031491D02*
D03*
X030808Y029441D02*
D03*
X030529Y029441D02*
D03*
X028940Y030100D02*
D03*
X028660Y030100D02*
D03*
X028660Y029300D02*
D03*
X028940Y029300D02*
D03*
X028940Y028450D02*
D03*
X028660Y028450D02*
D03*
X034629Y035291D02*
D03*
X034908Y035291D02*
D03*
X035529Y035091D02*
D03*
X035808Y035091D02*
D03*
X035808Y035891D02*
D03*
X035909Y038041D02*
D03*
X035628Y038041D02*
D03*
X035628Y038841D02*
D03*
X035909Y038841D02*
D03*
X035408Y038091D02*
D03*
X035129Y038091D02*
D03*
X034908Y038091D02*
D03*
X034629Y038091D02*
D03*
X034629Y037291D02*
D03*
X034908Y037291D02*
D03*
X035129Y037291D02*
D03*
X035408Y037291D02*
D03*
X035529Y035891D02*
D03*
X034908Y036091D02*
D03*
X034629Y036091D02*
D03*
X032708Y038791D02*
D03*
X032708Y039591D02*
D03*
X032429Y039591D02*
D03*
X032429Y038791D02*
D03*
X030808Y037541D02*
D03*
X030529Y037541D02*
D03*
X030529Y036741D02*
D03*
X030808Y036741D02*
D03*
X029840Y036900D02*
D03*
X029560Y036900D02*
D03*
X029560Y036100D02*
D03*
X029840Y036100D02*
D03*
X028940Y037350D02*
D03*
X028660Y037350D02*
D03*
X028660Y038150D02*
D03*
X028940Y038150D02*
D03*
X028940Y036550D02*
D03*
X028660Y036550D02*
D03*
X028660Y035750D02*
D03*
X028940Y035750D02*
D03*
X028940Y034950D02*
D03*
X028660Y034950D02*
D03*
X028660Y034150D02*
D03*
X028940Y034150D02*
D03*
X035808Y043241D02*
D03*
X035808Y044041D02*
D03*
X035909Y046191D02*
D03*
X035628Y046191D02*
D03*
X035628Y046991D02*
D03*
X035909Y046991D02*
D03*
X035408Y046241D02*
D03*
X035129Y046241D02*
D03*
X034908Y046241D02*
D03*
X034629Y046241D02*
D03*
X034629Y045441D02*
D03*
X034908Y045441D02*
D03*
X035129Y045441D02*
D03*
X035408Y045441D02*
D03*
X035529Y044041D02*
D03*
X034908Y044241D02*
D03*
X034629Y044241D02*
D03*
X034629Y043441D02*
D03*
X034908Y043441D02*
D03*
X035529Y043241D02*
D03*
X032708Y046941D02*
D03*
X032708Y047741D02*
D03*
X032429Y047741D02*
D03*
X032429Y046941D02*
D03*
X030808Y045691D02*
D03*
X030529Y045691D02*
D03*
X030529Y044891D02*
D03*
X030808Y044891D02*
D03*
X029840Y045050D02*
D03*
X029560Y045050D02*
D03*
X029560Y044250D02*
D03*
X029840Y044250D02*
D03*
X028940Y045500D02*
D03*
X028660Y045500D02*
D03*
X028660Y046300D02*
D03*
X028940Y046300D02*
D03*
X028940Y044750D02*
D03*
X028660Y044750D02*
D03*
X028660Y043950D02*
D03*
X028940Y043950D02*
D03*
X028940Y043100D02*
D03*
X028660Y043100D02*
D03*
X028660Y042300D02*
D03*
X028940Y042300D02*
D03*
X028940Y050500D02*
D03*
X028660Y050500D02*
D03*
X029560Y052450D02*
D03*
X029840Y052450D02*
D03*
X029840Y053250D02*
D03*
X029560Y053250D02*
D03*
X030529Y053041D02*
D03*
X030808Y053041D02*
D03*
X030808Y053841D02*
D03*
X030529Y053841D02*
D03*
X032429Y055091D02*
D03*
X032708Y055091D02*
D03*
X034629Y053591D02*
D03*
X034908Y053591D02*
D03*
X035129Y053591D02*
D03*
X035408Y053591D02*
D03*
X035529Y052191D02*
D03*
X035529Y051391D02*
D03*
X034908Y051591D02*
D03*
X034629Y051591D02*
D03*
X034629Y052391D02*
D03*
X034908Y052391D02*
D03*
X035808Y052191D02*
D03*
X035808Y051391D02*
D03*
X035909Y054341D02*
D03*
X035628Y054341D02*
D03*
X035628Y055141D02*
D03*
X035909Y055141D02*
D03*
X035408Y054391D02*
D03*
X035129Y054391D02*
D03*
X034908Y054391D02*
D03*
X034629Y054391D02*
D03*
X032708Y055891D02*
D03*
X032429Y055891D02*
D03*
X034629Y059741D02*
D03*
X034908Y059741D02*
D03*
X035529Y059541D02*
D03*
X035808Y059541D02*
D03*
X035808Y060341D02*
D03*
X035909Y062491D02*
D03*
X035628Y062491D02*
D03*
X035628Y063291D02*
D03*
X035909Y063291D02*
D03*
X035408Y062541D02*
D03*
X035129Y062541D02*
D03*
X034908Y062541D02*
D03*
X034629Y062541D02*
D03*
X034629Y061741D02*
D03*
X034908Y061741D02*
D03*
X035129Y061741D02*
D03*
X035408Y061741D02*
D03*
X035529Y060341D02*
D03*
X034908Y060541D02*
D03*
X034629Y060541D02*
D03*
X032708Y063241D02*
D03*
X032708Y064041D02*
D03*
X032429Y064041D02*
D03*
X032429Y063241D02*
D03*
X030808Y061991D02*
D03*
X030529Y061991D02*
D03*
X030529Y061191D02*
D03*
X030808Y061191D02*
D03*
X029840Y061450D02*
D03*
X029560Y061450D02*
D03*
X029560Y060650D02*
D03*
X029840Y060650D02*
D03*
X028940Y062600D02*
D03*
X028660Y062600D02*
D03*
X028660Y061800D02*
D03*
X028940Y061800D02*
D03*
X028940Y061000D02*
D03*
X028660Y061000D02*
D03*
X028660Y060200D02*
D03*
X028940Y060200D02*
D03*
X028940Y059400D02*
D03*
X028660Y059400D02*
D03*
X028660Y058600D02*
D03*
X028940Y058600D02*
D03*
X028940Y054500D02*
D03*
X028660Y054500D02*
D03*
X028660Y053700D02*
D03*
X028940Y053700D02*
D03*
X028940Y052850D02*
D03*
X028660Y052850D02*
D03*
X028660Y052050D02*
D03*
X028940Y052050D02*
D03*
X028940Y051300D02*
D03*
X028660Y051300D02*
D03*
X035808Y067691D02*
D03*
X035808Y068491D02*
D03*
X035909Y070641D02*
D03*
X035628Y070641D02*
D03*
X035628Y071441D02*
D03*
X035909Y071441D02*
D03*
X035408Y070691D02*
D03*
X035129Y070691D02*
D03*
X034908Y070691D02*
D03*
X034629Y070691D02*
D03*
X034629Y069891D02*
D03*
X034908Y069891D02*
D03*
X035129Y069891D02*
D03*
X035408Y069891D02*
D03*
X035529Y068491D02*
D03*
X034908Y068691D02*
D03*
X034629Y068691D02*
D03*
X034629Y067891D02*
D03*
X034908Y067891D02*
D03*
X035529Y067691D02*
D03*
X032708Y071391D02*
D03*
X032708Y072191D02*
D03*
X032429Y072191D02*
D03*
X032429Y071391D02*
D03*
X030808Y070141D02*
D03*
X030529Y070141D02*
D03*
X030529Y069341D02*
D03*
X030808Y069341D02*
D03*
X029840Y069500D02*
D03*
X029560Y069500D02*
D03*
X029560Y068700D02*
D03*
X029840Y068700D02*
D03*
X028940Y069950D02*
D03*
X028660Y069950D02*
D03*
X028660Y070750D02*
D03*
X028940Y070750D02*
D03*
X028940Y069150D02*
D03*
X028660Y069150D02*
D03*
X028660Y068350D02*
D03*
X028940Y068350D02*
D03*
X028940Y067550D02*
D03*
X028660Y067550D02*
D03*
X028660Y066750D02*
D03*
X028940Y066750D02*
D03*
G54D18*
X030668Y027351D02*
D03*
X030668Y027631D02*
D03*
X031469Y027631D02*
D03*
X031469Y027351D02*
D03*
X033068Y026631D02*
D03*
X033068Y026351D02*
D03*
X033869Y026351D02*
D03*
X033869Y026631D02*
D03*
X033869Y030601D02*
D03*
X033869Y030881D02*
D03*
X033068Y030881D02*
D03*
X033068Y030601D02*
D03*
X030168Y030081D02*
D03*
X030168Y029801D02*
D03*
X029369Y029801D02*
D03*
X029369Y030081D02*
D03*
X033068Y034451D02*
D03*
X033068Y034731D02*
D03*
X033869Y034731D02*
D03*
X033869Y034451D02*
D03*
X031469Y035731D02*
D03*
X031469Y035451D02*
D03*
X030668Y035731D02*
D03*
X030668Y035451D02*
D03*
X030168Y037901D02*
D03*
X030168Y038181D02*
D03*
X029369Y038181D02*
D03*
X029369Y037901D02*
D03*
X033068Y038701D02*
D03*
X033068Y038981D02*
D03*
X033869Y038981D02*
D03*
X033869Y038701D02*
D03*
X033869Y042601D02*
D03*
X033869Y042881D02*
D03*
X033068Y042881D02*
D03*
X033068Y042601D02*
D03*
X031469Y043601D02*
D03*
X031469Y043881D02*
D03*
X030168Y046051D02*
D03*
X030168Y046331D02*
D03*
X030668Y043881D02*
D03*
X030668Y043601D02*
D03*
X029369Y046051D02*
D03*
X029369Y046331D02*
D03*
X033068Y046851D02*
D03*
X033068Y047131D02*
D03*
X033869Y047131D02*
D03*
X033869Y046851D02*
D03*
X033869Y050751D02*
D03*
X033869Y051031D02*
D03*
X033068Y051031D02*
D03*
X033068Y050751D02*
D03*
X031469Y051751D02*
D03*
X031469Y052031D02*
D03*
X030668Y052031D02*
D03*
X030668Y051751D02*
D03*
X033068Y055001D02*
D03*
X033068Y055281D02*
D03*
X033869Y055281D02*
D03*
X033869Y055001D02*
D03*
X030168Y054481D02*
D03*
X030168Y054201D02*
D03*
X029369Y054201D02*
D03*
X029369Y054481D02*
D03*
X033068Y058901D02*
D03*
X033068Y059181D02*
D03*
X033869Y059181D02*
D03*
X033869Y058901D02*
D03*
X031469Y059901D02*
D03*
X031469Y060181D02*
D03*
X030668Y060181D02*
D03*
X030668Y059901D02*
D03*
X033068Y063151D02*
D03*
X033869Y063151D02*
D03*
X033869Y063431D02*
D03*
X033068Y063431D02*
D03*
X033068Y067051D02*
D03*
X033068Y067331D02*
D03*
X033869Y067331D02*
D03*
X033869Y067051D02*
D03*
X031469Y068331D02*
D03*
X031469Y068051D02*
D03*
X030668Y068331D02*
D03*
X030668Y068051D02*
D03*
X030168Y070501D02*
D03*
X030168Y070781D02*
D03*
X029369Y070781D02*
D03*
X029369Y070501D02*
D03*
X033068Y071301D02*
D03*
X033068Y071581D02*
D03*
X033869Y071581D02*
D03*
X033869Y071301D02*
D03*
X029369Y062631D02*
D03*
X029369Y062351D02*
D03*
X030168Y062351D02*
D03*
X030168Y062631D02*
D03*
G54D35*
X021000Y021000D02*
X069032Y021000D01*
X069032Y077299D01*
X021000Y077299D01*
X021000Y021000D01*
G54D45*
X065219Y052091D02*
D03*
X065219Y053091D02*
D03*
X065219Y053841D02*
D03*
X065219Y054841D02*
D03*
X065219Y055591D02*
D03*
X065219Y056591D02*
D03*
G54D67*
X033219Y027491D02*
D03*
X033719Y027491D02*
D03*
X034218Y027491D02*
D03*
X034218Y029691D02*
D03*
X033719Y029691D02*
D03*
X033219Y029691D02*
D03*
X032719Y029691D02*
D03*
X034218Y035591D02*
D03*
X034218Y037791D02*
D03*
X033719Y037791D02*
D03*
X033219Y037791D02*
D03*
X032719Y037791D02*
D03*
X033219Y035591D02*
D03*
X033719Y035591D02*
D03*
X034218Y043741D02*
D03*
X034218Y045941D02*
D03*
X033719Y045941D02*
D03*
X033219Y045941D02*
D03*
X032719Y045941D02*
D03*
X033219Y043741D02*
D03*
X033719Y043741D02*
D03*
X034218Y051891D02*
D03*
X034218Y054091D02*
D03*
X033719Y054091D02*
D03*
X033219Y054091D02*
D03*
X032719Y054091D02*
D03*
X033219Y051891D02*
D03*
X033719Y051891D02*
D03*
X034218Y060041D02*
D03*
X033719Y060041D02*
D03*
X033219Y060041D02*
D03*
X034218Y062241D02*
D03*
X033719Y062241D02*
D03*
X033219Y062241D02*
D03*
X032719Y062241D02*
D03*
X034218Y068191D02*
D03*
X034218Y070391D02*
D03*
X033719Y070391D02*
D03*
X033219Y070391D02*
D03*
X032719Y070391D02*
D03*
X033219Y068191D02*
D03*
X033719Y068191D02*
D03*
G54D68*
X032719Y027491D02*
D03*
X032719Y035591D02*
D03*
X032719Y043741D02*
D03*
X032719Y051891D02*
D03*
X032719Y060041D02*
D03*
X032719Y068191D02*
D03*
G54D69*
X028800Y025950D02*
D03*
X028800Y026050D02*
D03*
X028800Y026150D02*
D03*
X028800Y026750D02*
D03*
X028800Y026850D02*
D03*
X028800Y026950D02*
D03*
X028800Y027550D02*
D03*
X028800Y027650D02*
D03*
X028800Y027750D02*
D03*
X029700Y027900D02*
D03*
X029700Y028000D02*
D03*
X029700Y028100D02*
D03*
X029700Y028700D02*
D03*
X029700Y028800D02*
D03*
X029700Y028900D02*
D03*
X030668Y028741D02*
D03*
X030668Y028641D02*
D03*
X030668Y028541D02*
D03*
X030668Y029341D02*
D03*
X030668Y029441D02*
D03*
X030668Y029541D02*
D03*
X028800Y029400D02*
D03*
X028800Y030000D02*
D03*
X028800Y030100D02*
D03*
X028800Y030200D02*
D03*
X028800Y029300D02*
D03*
X028800Y029200D02*
D03*
X028800Y028550D02*
D03*
X028800Y028450D02*
D03*
X028800Y028350D02*
D03*
X032569Y030591D02*
D03*
X032569Y030691D02*
D03*
X032569Y030791D02*
D03*
X034769Y029291D02*
D03*
X034769Y029191D02*
D03*
X034769Y029091D02*
D03*
X035268Y029091D02*
D03*
X035268Y029191D02*
D03*
X035268Y029291D02*
D03*
X034769Y028091D02*
D03*
X034769Y027991D02*
D03*
X034769Y027891D02*
D03*
X034769Y027291D02*
D03*
X034769Y027191D02*
D03*
X034769Y027091D02*
D03*
X035668Y027091D02*
D03*
X035668Y026991D02*
D03*
X035668Y026891D02*
D03*
X035668Y027691D02*
D03*
X035668Y027791D02*
D03*
X035668Y027891D02*
D03*
X035768Y029841D02*
D03*
X035768Y029941D02*
D03*
X035768Y030041D02*
D03*
X035768Y030641D02*
D03*
X035768Y030741D02*
D03*
X035768Y030841D02*
D03*
X035268Y030091D02*
D03*
X035268Y029991D02*
D03*
X035268Y029891D02*
D03*
X034769Y029891D02*
D03*
X034769Y029991D02*
D03*
X034769Y030091D02*
D03*
X032569Y031391D02*
D03*
X032569Y031491D02*
D03*
X032569Y031591D02*
D03*
X035668Y034991D02*
D03*
X035668Y035091D02*
D03*
X035668Y035191D02*
D03*
X035668Y035791D02*
D03*
X035668Y035891D02*
D03*
X035668Y035991D02*
D03*
X035768Y037941D02*
D03*
X035768Y038041D02*
D03*
X035768Y038141D02*
D03*
X035768Y038741D02*
D03*
X035768Y038841D02*
D03*
X035768Y038941D02*
D03*
X035268Y038191D02*
D03*
X035268Y038091D02*
D03*
X035268Y037991D02*
D03*
X034769Y037991D02*
D03*
X034769Y038091D02*
D03*
X034769Y038191D02*
D03*
X034769Y037391D02*
D03*
X034769Y037291D02*
D03*
X034769Y037191D02*
D03*
X035268Y037191D02*
D03*
X035268Y037291D02*
D03*
X035268Y037391D02*
D03*
X034769Y036191D02*
D03*
X034769Y036091D02*
D03*
X034769Y035991D02*
D03*
X034769Y035391D02*
D03*
X034769Y035291D02*
D03*
X034769Y035191D02*
D03*
X032569Y038691D02*
D03*
X032569Y038791D02*
D03*
X032569Y038891D02*
D03*
X032569Y039491D02*
D03*
X032569Y039591D02*
D03*
X032569Y039691D02*
D03*
X035668Y043141D02*
D03*
X035668Y043241D02*
D03*
X035668Y043341D02*
D03*
X035668Y043941D02*
D03*
X035668Y044041D02*
D03*
X035668Y044141D02*
D03*
X035768Y046091D02*
D03*
X035768Y046191D02*
D03*
X035768Y046291D02*
D03*
X035768Y046891D02*
D03*
X035768Y046991D02*
D03*
X035768Y047091D02*
D03*
X035268Y046341D02*
D03*
X035268Y046241D02*
D03*
X035268Y046141D02*
D03*
X034769Y046141D02*
D03*
X034769Y046241D02*
D03*
X034769Y046341D02*
D03*
X034769Y045541D02*
D03*
X034769Y045441D02*
D03*
X034769Y045341D02*
D03*
X035268Y045341D02*
D03*
X035268Y045441D02*
D03*
X035268Y045541D02*
D03*
X034769Y044341D02*
D03*
X034769Y044241D02*
D03*
X034769Y044141D02*
D03*
X034769Y043541D02*
D03*
X034769Y043441D02*
D03*
X034769Y043341D02*
D03*
X032569Y046841D02*
D03*
X032569Y046941D02*
D03*
X032569Y047041D02*
D03*
X032569Y047641D02*
D03*
X032569Y047741D02*
D03*
X032569Y047841D02*
D03*
X030668Y045791D02*
D03*
X030668Y045691D02*
D03*
X030668Y045591D02*
D03*
X030668Y044991D02*
D03*
X030668Y044891D02*
D03*
X029700Y044950D02*
D03*
X029700Y045050D02*
D03*
X029700Y045150D02*
D03*
X029700Y044350D02*
D03*
X029700Y044250D02*
D03*
X029700Y044150D02*
D03*
X030668Y044791D02*
D03*
X028800Y045400D02*
D03*
X028800Y045500D02*
D03*
X028800Y045600D02*
D03*
X028800Y046200D02*
D03*
X028800Y046300D02*
D03*
X028800Y046400D02*
D03*
X028800Y044850D02*
D03*
X028800Y044750D02*
D03*
X028800Y044650D02*
D03*
X028800Y044050D02*
D03*
X028800Y043950D02*
D03*
X028800Y043850D02*
D03*
X028800Y043200D02*
D03*
X028800Y043100D02*
D03*
X028800Y043000D02*
D03*
X028800Y042400D02*
D03*
X028800Y042300D02*
D03*
X028800Y042200D02*
D03*
X028800Y038250D02*
D03*
X028800Y038150D02*
D03*
X028800Y038050D02*
D03*
X028800Y037450D02*
D03*
X028800Y037350D02*
D03*
X028800Y037250D02*
D03*
X028800Y036650D02*
D03*
X028800Y036550D02*
D03*
X028800Y036450D02*
D03*
X028800Y035850D02*
D03*
X028800Y035750D02*
D03*
X028800Y035650D02*
D03*
X028800Y035050D02*
D03*
X028800Y034950D02*
D03*
X028800Y034850D02*
D03*
X028800Y034250D02*
D03*
X028800Y034150D02*
D03*
X028800Y034050D02*
D03*
X029700Y036000D02*
D03*
X029700Y036100D02*
D03*
X029700Y036200D02*
D03*
X029700Y036800D02*
D03*
X029700Y036900D02*
D03*
X029700Y037000D02*
D03*
X030668Y036841D02*
D03*
X030668Y036741D02*
D03*
X030668Y036641D02*
D03*
X030668Y037441D02*
D03*
X030668Y037541D02*
D03*
X030668Y037641D02*
D03*
X028800Y050400D02*
D03*
X028800Y050500D02*
D03*
X028800Y050600D02*
D03*
X029700Y052350D02*
D03*
X029700Y052450D02*
D03*
X029700Y052550D02*
D03*
X029700Y053150D02*
D03*
X029700Y053250D02*
D03*
X029700Y053350D02*
D03*
X030668Y053141D02*
D03*
X030668Y053041D02*
D03*
X030668Y052941D02*
D03*
X030668Y053741D02*
D03*
X030668Y053841D02*
D03*
X030668Y053941D02*
D03*
X028800Y054400D02*
D03*
X028800Y054500D02*
D03*
X028800Y054600D02*
D03*
X028800Y053800D02*
D03*
X028800Y053700D02*
D03*
X028800Y053600D02*
D03*
X028800Y052950D02*
D03*
X028800Y052850D02*
D03*
X028800Y052750D02*
D03*
X028800Y052150D02*
D03*
X028800Y052050D02*
D03*
X028800Y051950D02*
D03*
X028800Y051400D02*
D03*
X028800Y051300D02*
D03*
X028800Y051200D02*
D03*
X032569Y054991D02*
D03*
X032569Y055091D02*
D03*
X032569Y055191D02*
D03*
X034769Y053691D02*
D03*
X034769Y053591D02*
D03*
X034769Y053491D02*
D03*
X035268Y053491D02*
D03*
X035268Y053591D02*
D03*
X035268Y053691D02*
D03*
X034769Y052491D02*
D03*
X034769Y052391D02*
D03*
X034769Y052291D02*
D03*
X034769Y051691D02*
D03*
X034769Y051591D02*
D03*
X034769Y051491D02*
D03*
X035668Y051491D02*
D03*
X035668Y051391D02*
D03*
X035668Y051291D02*
D03*
X035668Y052091D02*
D03*
X035668Y052191D02*
D03*
X035668Y052291D02*
D03*
X035768Y054241D02*
D03*
X035768Y054341D02*
D03*
X035768Y054441D02*
D03*
X035768Y055041D02*
D03*
X035768Y055141D02*
D03*
X035768Y055241D02*
D03*
X035268Y054491D02*
D03*
X035268Y054391D02*
D03*
X035268Y054291D02*
D03*
X034769Y054291D02*
D03*
X034769Y054391D02*
D03*
X034769Y054491D02*
D03*
X032569Y055791D02*
D03*
X032569Y055891D02*
D03*
X032569Y055991D02*
D03*
X035668Y059441D02*
D03*
X035668Y059541D02*
D03*
X035668Y059641D02*
D03*
X035668Y060241D02*
D03*
X035668Y060341D02*
D03*
X035668Y060441D02*
D03*
X035768Y062391D02*
D03*
X035768Y062491D02*
D03*
X035768Y062591D02*
D03*
X035768Y063191D02*
D03*
X035768Y063291D02*
D03*
X035768Y063391D02*
D03*
X035268Y062641D02*
D03*
X035268Y062541D02*
D03*
X035268Y062441D02*
D03*
X034769Y062441D02*
D03*
X034769Y062541D02*
D03*
X034769Y062641D02*
D03*
X034769Y061841D02*
D03*
X034769Y061741D02*
D03*
X034769Y061641D02*
D03*
X035268Y061641D02*
D03*
X035268Y061741D02*
D03*
X035268Y061841D02*
D03*
X034769Y060641D02*
D03*
X034769Y060541D02*
D03*
X034769Y060441D02*
D03*
X034769Y059841D02*
D03*
X034769Y059741D02*
D03*
X034769Y059641D02*
D03*
X032569Y063141D02*
D03*
X032569Y063241D02*
D03*
X032569Y063341D02*
D03*
X032569Y063941D02*
D03*
X032569Y064041D02*
D03*
X032569Y064141D02*
D03*
X035668Y067591D02*
D03*
X035668Y067691D02*
D03*
X035668Y067791D02*
D03*
X035668Y068391D02*
D03*
X035668Y068491D02*
D03*
X035668Y068591D02*
D03*
X035768Y070541D02*
D03*
X035768Y070641D02*
D03*
X035768Y070741D02*
D03*
X035768Y071341D02*
D03*
X035768Y071441D02*
D03*
X035768Y071541D02*
D03*
X035268Y070791D02*
D03*
X035268Y070691D02*
D03*
X035268Y070591D02*
D03*
X034769Y070591D02*
D03*
X034769Y070691D02*
D03*
X034769Y070791D02*
D03*
X034769Y069991D02*
D03*
X034769Y069891D02*
D03*
X034769Y069791D02*
D03*
X035268Y069791D02*
D03*
X035268Y069891D02*
D03*
X035268Y069991D02*
D03*
X034769Y068791D02*
D03*
X034769Y068691D02*
D03*
X034769Y068591D02*
D03*
X034769Y067991D02*
D03*
X034769Y067891D02*
D03*
X034769Y067791D02*
D03*
X032569Y071291D02*
D03*
X032569Y071391D02*
D03*
X032569Y071491D02*
D03*
X032569Y072091D02*
D03*
X032569Y072191D02*
D03*
X032569Y072291D02*
D03*
X030668Y070241D02*
D03*
X030668Y070141D02*
D03*
X030668Y070041D02*
D03*
X030668Y069441D02*
D03*
X030668Y069341D02*
D03*
X030668Y069241D02*
D03*
X029700Y069400D02*
D03*
X029700Y069500D02*
D03*
X029700Y069600D02*
D03*
X029700Y068800D02*
D03*
X029700Y068700D02*
D03*
X029700Y068600D02*
D03*
X028800Y069850D02*
D03*
X028800Y069950D02*
D03*
X028800Y070050D02*
D03*
X028800Y070650D02*
D03*
X028800Y070750D02*
D03*
X028800Y070850D02*
D03*
X028800Y069250D02*
D03*
X028800Y069150D02*
D03*
X028800Y069050D02*
D03*
X028800Y068450D02*
D03*
X028800Y068350D02*
D03*
X028800Y068250D02*
D03*
X028800Y067650D02*
D03*
X028800Y067550D02*
D03*
X028800Y067450D02*
D03*
X028800Y066850D02*
D03*
X028800Y066750D02*
D03*
X028800Y066650D02*
D03*
X028800Y062700D02*
D03*
X028800Y062600D02*
D03*
X028800Y062500D02*
D03*
X028800Y061900D02*
D03*
X028800Y061800D02*
D03*
X028800Y061700D02*
D03*
X028800Y061100D02*
D03*
X028800Y061000D02*
D03*
X028800Y060900D02*
D03*
X028800Y060300D02*
D03*
X028800Y060200D02*
D03*
X028800Y060100D02*
D03*
X028800Y059500D02*
D03*
X028800Y059400D02*
D03*
X028800Y059300D02*
D03*
X028800Y058700D02*
D03*
X028800Y058600D02*
D03*
X028800Y058500D02*
D03*
X029700Y060550D02*
D03*
X029700Y060650D02*
D03*
X029700Y060750D02*
D03*
X029700Y061350D02*
D03*
X029700Y061450D02*
D03*
X029700Y061550D02*
D03*
X030668Y061291D02*
D03*
X030668Y061191D02*
D03*
X030668Y061091D02*
D03*
X030668Y061891D02*
D03*
X030668Y061991D02*
D03*
X030668Y062091D02*
D03*
G54D70*
X030568Y027491D02*
D03*
X030668Y027491D02*
D03*
X030768Y027491D02*
D03*
X031369Y027491D02*
D03*
X031469Y027491D02*
D03*
X031569Y027491D02*
D03*
X032968Y026491D02*
D03*
X033068Y026491D02*
D03*
X033168Y026491D02*
D03*
X033768Y026491D02*
D03*
X033869Y026491D02*
D03*
X033969Y026491D02*
D03*
X033969Y030741D02*
D03*
X033869Y030741D02*
D03*
X033768Y030741D02*
D03*
X033168Y030741D02*
D03*
X033068Y030741D02*
D03*
X032968Y030741D02*
D03*
X030268Y029941D02*
D03*
X030168Y029941D02*
D03*
X030069Y029941D02*
D03*
X029469Y029941D02*
D03*
X029369Y029941D02*
D03*
X029269Y029941D02*
D03*
X032968Y034591D02*
D03*
X033068Y034591D02*
D03*
X033168Y034591D02*
D03*
X033768Y034591D02*
D03*
X033869Y034591D02*
D03*
X033969Y034591D02*
D03*
X031569Y035591D02*
D03*
X031469Y035591D02*
D03*
X031369Y035591D02*
D03*
X030268Y038041D02*
D03*
X030168Y038041D02*
D03*
X030069Y038041D02*
D03*
X029469Y038041D02*
D03*
X030568Y035591D02*
D03*
X030668Y035591D02*
D03*
X030768Y035591D02*
D03*
X029369Y038041D02*
D03*
X029269Y038041D02*
D03*
X032968Y038841D02*
D03*
X033068Y038841D02*
D03*
X033168Y038841D02*
D03*
X033768Y038841D02*
D03*
X033869Y038841D02*
D03*
X033969Y038841D02*
D03*
X033969Y042741D02*
D03*
X033869Y042741D02*
D03*
X033768Y042741D02*
D03*
X033168Y042741D02*
D03*
X033068Y042741D02*
D03*
X032968Y042741D02*
D03*
X031569Y043741D02*
D03*
X031469Y043741D02*
D03*
X031369Y043741D02*
D03*
X030268Y046191D02*
D03*
X030168Y046191D02*
D03*
X030069Y046191D02*
D03*
X029469Y046191D02*
D03*
X030568Y043741D02*
D03*
X030668Y043741D02*
D03*
X030768Y043741D02*
D03*
X029369Y046191D02*
D03*
X029269Y046191D02*
D03*
X032968Y046991D02*
D03*
X033068Y046991D02*
D03*
X033168Y046991D02*
D03*
X033768Y046991D02*
D03*
X033869Y046991D02*
D03*
X033969Y046991D02*
D03*
X033969Y050891D02*
D03*
X033869Y050891D02*
D03*
X033768Y050891D02*
D03*
X033168Y050891D02*
D03*
X033068Y050891D02*
D03*
X032968Y050891D02*
D03*
X031569Y051891D02*
D03*
X031469Y051891D02*
D03*
X031369Y051891D02*
D03*
X030768Y051891D02*
D03*
X030668Y051891D02*
D03*
X030568Y051891D02*
D03*
X032968Y055141D02*
D03*
X033068Y055141D02*
D03*
X033168Y055141D02*
D03*
X033768Y055141D02*
D03*
X033869Y055141D02*
D03*
X033969Y055141D02*
D03*
X030268Y054341D02*
D03*
X030168Y054341D02*
D03*
X030069Y054341D02*
D03*
X029469Y054341D02*
D03*
X029369Y054341D02*
D03*
X029269Y054341D02*
D03*
X032968Y059041D02*
D03*
X033068Y059041D02*
D03*
X033168Y059041D02*
D03*
X033768Y059041D02*
D03*
X033869Y059041D02*
D03*
X033969Y059041D02*
D03*
X031569Y060041D02*
D03*
X031469Y060041D02*
D03*
X031369Y060041D02*
D03*
X030768Y060041D02*
D03*
X030668Y060041D02*
D03*
X030568Y060041D02*
D03*
X032968Y063291D02*
D03*
X033068Y063291D02*
D03*
X033168Y063291D02*
D03*
X033768Y063291D02*
D03*
X033869Y063291D02*
D03*
X033969Y063291D02*
D03*
X030268Y062491D02*
D03*
X030168Y062491D02*
D03*
X030069Y062491D02*
D03*
X029469Y062491D02*
D03*
X029369Y062491D02*
D03*
X029269Y062491D02*
D03*
X032968Y067191D02*
D03*
X033068Y067191D02*
D03*
X033168Y067191D02*
D03*
X033768Y067191D02*
D03*
X033869Y067191D02*
D03*
X033969Y067191D02*
D03*
X031569Y068191D02*
D03*
X031469Y068191D02*
D03*
X031369Y068191D02*
D03*
X030268Y070641D02*
D03*
X030168Y070641D02*
D03*
X030069Y070641D02*
D03*
X029469Y070641D02*
D03*
X030568Y068191D02*
D03*
X030668Y068191D02*
D03*
X030768Y068191D02*
D03*
X029369Y070641D02*
D03*
X029269Y070641D02*
D03*
X032968Y071441D02*
D03*
X033068Y071441D02*
D03*
X033168Y071441D02*
D03*
X033768Y071441D02*
D03*
X033869Y071441D02*
D03*
X033969Y071441D02*
D03*
G54D71*
X048969Y026491D02*
D03*
X048969Y026591D02*
D03*
X048969Y026691D02*
D03*
X048969Y027491D02*
D03*
X048969Y027591D02*
D03*
X048969Y027691D02*
D03*
X050068Y027691D02*
D03*
X050068Y027591D02*
D03*
X050068Y027491D02*
D03*
X050068Y026691D02*
D03*
X050068Y026591D02*
D03*
X050068Y026491D02*
D03*
X053868Y030741D02*
D03*
X053868Y030841D02*
D03*
X055469Y032241D02*
D03*
X055469Y032341D02*
D03*
X055469Y032441D02*
D03*
X055469Y033241D02*
D03*
X055469Y033341D02*
D03*
X055469Y033441D02*
D03*
X053868Y031941D02*
D03*
X053868Y031841D02*
D03*
X053868Y031741D02*
D03*
X053868Y030941D02*
D03*
X047969Y030991D02*
D03*
X047969Y031091D02*
D03*
X047969Y031191D02*
D03*
X047969Y030191D02*
D03*
X047969Y030091D02*
D03*
X047969Y029991D02*
D03*
X060168Y034991D02*
D03*
X060168Y035091D02*
D03*
X060168Y035191D02*
D03*
X060968Y035191D02*
D03*
X060968Y035091D02*
D03*
X060968Y034991D02*
D03*
X060968Y035991D02*
D03*
X060968Y036091D02*
D03*
X060968Y036191D02*
D03*
X060168Y036191D02*
D03*
X060168Y036091D02*
D03*
X060168Y035991D02*
D03*
X060978Y046590D02*
D03*
X060978Y046690D02*
D03*
X060978Y046790D02*
D03*
X060978Y047590D02*
D03*
X060978Y047690D02*
D03*
X060978Y047790D02*
D03*
X059619Y066451D02*
D03*
X059619Y066551D02*
D03*
X059619Y066651D02*
D03*
X059619Y067451D02*
D03*
X059619Y067551D02*
D03*
X059619Y067651D02*
D03*
X059219Y070951D02*
D03*
X059219Y071051D02*
D03*
X059219Y071151D02*
D03*
X059219Y071951D02*
D03*
X059219Y072051D02*
D03*
X059219Y072151D02*
D03*
G54D72*
X047769Y030091D02*
D03*
X048169Y030091D02*
D03*
X048169Y031091D02*
D03*
X047769Y031091D02*
D03*
X048769Y027591D02*
D03*
X049169Y027591D02*
D03*
X049169Y026591D02*
D03*
X048769Y026591D02*
D03*
X049868Y026591D02*
D03*
X050269Y026591D02*
D03*
X050269Y027591D02*
D03*
X049868Y027591D02*
D03*
X053668Y030841D02*
D03*
X054068Y030841D02*
D03*
X055269Y032341D02*
D03*
X055669Y032341D02*
D03*
X055669Y033341D02*
D03*
X055269Y033341D02*
D03*
X054068Y031841D02*
D03*
X053668Y031841D02*
D03*
X059969Y035091D02*
D03*
X060368Y035091D02*
D03*
X060768Y035091D02*
D03*
X061168Y035091D02*
D03*
X061168Y036091D02*
D03*
X060768Y036091D02*
D03*
X060368Y036091D02*
D03*
X059969Y036091D02*
D03*
X060778Y046690D02*
D03*
X061178Y046690D02*
D03*
X061178Y047690D02*
D03*
X060778Y047690D02*
D03*
X059819Y066551D02*
D03*
X059419Y066551D02*
D03*
X059419Y067551D02*
D03*
X059819Y067551D02*
D03*
X059419Y071051D02*
D03*
X059019Y071051D02*
D03*
X059019Y072051D02*
D03*
X059419Y072051D02*
D03*
G54D73*
X046968Y028841D02*
D03*
X046968Y029241D02*
D03*
X047969Y029241D02*
D03*
X047969Y028841D02*
D03*
X049019Y025941D02*
D03*
X049019Y025541D02*
D03*
X050019Y025541D02*
D03*
X050019Y025941D02*
D03*
X054468Y026391D02*
D03*
X054468Y026791D02*
D03*
X055469Y026791D02*
D03*
X055469Y026391D02*
D03*
X052719Y033391D02*
D03*
X052719Y033791D02*
D03*
X051719Y033791D02*
D03*
X051719Y033391D02*
D03*
X062719Y036391D02*
D03*
X062719Y036791D02*
D03*
X063719Y036791D02*
D03*
X063719Y036391D02*
D03*
X064718Y036391D02*
D03*
X064718Y036791D02*
D03*
X065718Y036791D02*
D03*
X065718Y036391D02*
D03*
X063369Y047941D02*
D03*
X062368Y047941D02*
D03*
X062368Y048341D02*
D03*
X062368Y048691D02*
D03*
X062368Y049091D02*
D03*
X063369Y048341D02*
D03*
X061368Y048691D02*
D03*
X061368Y049091D02*
D03*
X063618Y051691D02*
D03*
X063618Y052091D02*
D03*
X063618Y052391D02*
D03*
X064619Y052391D02*
D03*
X064619Y052091D02*
D03*
X064619Y051691D02*
D03*
X064619Y052791D02*
D03*
X064569Y053391D02*
D03*
X064569Y053791D02*
D03*
X064569Y054091D02*
D03*
X063569Y054091D02*
D03*
X063569Y053791D02*
D03*
X063569Y053391D02*
D03*
X063618Y052791D02*
D03*
X063569Y054491D02*
D03*
X063569Y055141D02*
D03*
X063569Y055541D02*
D03*
X064569Y055541D02*
D03*
X064569Y055141D02*
D03*
X064569Y054491D02*
D03*
X064569Y055841D02*
D03*
X064569Y056241D02*
D03*
X063569Y056241D02*
D03*
X063569Y055841D02*
D03*
X060918Y068051D02*
D03*
X060918Y068451D02*
D03*
X060918Y069051D02*
D03*
X060918Y069451D02*
D03*
X060918Y069851D02*
D03*
X060918Y070251D02*
D03*
X060918Y070851D02*
D03*
X060918Y071251D02*
D03*
X059918Y071251D02*
D03*
X059918Y070851D02*
D03*
X059918Y070251D02*
D03*
X059918Y069851D02*
D03*
X059118Y069851D02*
D03*
X059118Y070251D02*
D03*
X059118Y069451D02*
D03*
X059118Y069051D02*
D03*
X059918Y069051D02*
D03*
X059918Y069451D02*
D03*
X059918Y068451D02*
D03*
X059918Y068051D02*
D03*
X058119Y069051D02*
D03*
X058119Y069451D02*
D03*
X058119Y069851D02*
D03*
X058119Y070251D02*
D03*
G54D74*
X046869Y029041D02*
D03*
X046968Y029041D02*
D03*
X047069Y029041D02*
D03*
X047868Y029041D02*
D03*
X047969Y029041D02*
D03*
X048068Y029041D02*
D03*
X048918Y025741D02*
D03*
X049019Y025741D02*
D03*
X049118Y025741D02*
D03*
X049918Y025741D02*
D03*
X050019Y025741D02*
D03*
X050118Y025741D02*
D03*
X054369Y026591D02*
D03*
X054468Y026591D02*
D03*
X054569Y026591D02*
D03*
X055368Y026591D02*
D03*
X055469Y026591D02*
D03*
X055568Y026591D02*
D03*
X052818Y033591D02*
D03*
X052719Y033591D02*
D03*
X052618Y033591D02*
D03*
X051818Y033591D02*
D03*
X051719Y033591D02*
D03*
X051618Y033591D02*
D03*
X062618Y036591D02*
D03*
X062719Y036591D02*
D03*
X062818Y036591D02*
D03*
X063618Y036591D02*
D03*
X063719Y036591D02*
D03*
X063818Y036591D02*
D03*
X064619Y036591D02*
D03*
X064718Y036591D02*
D03*
X064819Y036591D02*
D03*
X065619Y036591D02*
D03*
X065718Y036591D02*
D03*
X065819Y036591D02*
D03*
X063468Y048141D02*
D03*
X063369Y048141D02*
D03*
X063268Y048141D02*
D03*
X062469Y048141D02*
D03*
X062368Y048141D02*
D03*
X062269Y048141D02*
D03*
X062269Y048891D02*
D03*
X062368Y048891D02*
D03*
X062469Y048891D02*
D03*
X061469Y048891D02*
D03*
X061368Y048891D02*
D03*
X061269Y048891D02*
D03*
X063519Y051891D02*
D03*
X063618Y051891D02*
D03*
X063719Y051891D02*
D03*
X063719Y052591D02*
D03*
X063618Y052591D02*
D03*
X063519Y052591D02*
D03*
X064518Y052591D02*
D03*
X064619Y052591D02*
D03*
X064718Y052591D02*
D03*
X064718Y051891D02*
D03*
X064619Y051891D02*
D03*
X064518Y051891D02*
D03*
X064468Y053591D02*
D03*
X064569Y053591D02*
D03*
X064668Y053591D02*
D03*
X063668Y053591D02*
D03*
X063569Y053591D02*
D03*
X063468Y053591D02*
D03*
X063468Y054291D02*
D03*
X063569Y054291D02*
D03*
X063668Y054291D02*
D03*
X064468Y054291D02*
D03*
X064569Y054291D02*
D03*
X064668Y054291D02*
D03*
X064668Y055341D02*
D03*
X064569Y055341D02*
D03*
X064468Y055341D02*
D03*
X063668Y055341D02*
D03*
X063569Y055341D02*
D03*
X063468Y055341D02*
D03*
X063468Y056041D02*
D03*
X063569Y056041D02*
D03*
X063668Y056041D02*
D03*
X064468Y056041D02*
D03*
X064569Y056041D02*
D03*
X064668Y056041D02*
D03*
X061019Y068251D02*
D03*
X060918Y068251D02*
D03*
X060819Y068251D02*
D03*
X060819Y069251D02*
D03*
X060918Y069251D02*
D03*
X061019Y069251D02*
D03*
X061019Y070051D02*
D03*
X060918Y070051D02*
D03*
X060819Y070051D02*
D03*
X060819Y071051D02*
D03*
X060918Y071051D02*
D03*
X061019Y071051D02*
D03*
X060019Y071051D02*
D03*
X059918Y071051D02*
D03*
X059819Y071051D02*
D03*
X059819Y070051D02*
D03*
X059918Y070051D02*
D03*
X060019Y070051D02*
D03*
X059219Y070051D02*
D03*
X059118Y070051D02*
D03*
X059019Y070051D02*
D03*
X059019Y069251D02*
D03*
X059118Y069251D02*
D03*
X059219Y069251D02*
D03*
X059819Y069251D02*
D03*
X059918Y069251D02*
D03*
X060019Y069251D02*
D03*
X060019Y068251D02*
D03*
X059918Y068251D02*
D03*
X059819Y068251D02*
D03*
X058218Y070051D02*
D03*
X058119Y070051D02*
D03*
X058018Y070051D02*
D03*
X058018Y069251D02*
D03*
X058119Y069251D02*
D03*
X058218Y069251D02*
D03*
G54D75*
X036728Y027381D02*
D03*
X036728Y027637D02*
D03*
X036728Y027893D02*
D03*
X036728Y028149D02*
D03*
X036728Y028405D02*
D03*
X036728Y028661D02*
D03*
X036728Y028917D02*
D03*
X036728Y029172D02*
D03*
X036728Y029428D02*
D03*
X036728Y029684D02*
D03*
X036728Y029940D02*
D03*
X036728Y030196D02*
D03*
X036728Y030452D02*
D03*
X040980Y027637D02*
D03*
X040980Y027381D02*
D03*
X040980Y027893D02*
D03*
X040980Y028149D02*
D03*
X040980Y028405D02*
D03*
X040980Y028661D02*
D03*
X040980Y028917D02*
D03*
X040980Y029172D02*
D03*
X040980Y029428D02*
D03*
X040980Y029684D02*
D03*
X040980Y029940D02*
D03*
X040980Y030196D02*
D03*
X040980Y030452D02*
D03*
X040980Y035481D02*
D03*
X040980Y035737D02*
D03*
X040980Y035993D02*
D03*
X040980Y036249D02*
D03*
X040980Y036505D02*
D03*
X040980Y036761D02*
D03*
X040980Y037017D02*
D03*
X040980Y037272D02*
D03*
X040980Y037528D02*
D03*
X040980Y037784D02*
D03*
X040980Y038040D02*
D03*
X040980Y038296D02*
D03*
X040980Y038552D02*
D03*
X036728Y038552D02*
D03*
X036728Y038296D02*
D03*
X036728Y038040D02*
D03*
X036728Y037784D02*
D03*
X036728Y037528D02*
D03*
X036728Y037272D02*
D03*
X036728Y037017D02*
D03*
X036728Y036761D02*
D03*
X036728Y036505D02*
D03*
X036728Y036249D02*
D03*
X036728Y035993D02*
D03*
X036728Y035737D02*
D03*
X036728Y035481D02*
D03*
X040980Y043631D02*
D03*
X040980Y043887D02*
D03*
X040980Y044143D02*
D03*
X040980Y044399D02*
D03*
X040980Y044655D02*
D03*
X040980Y044911D02*
D03*
X040980Y045167D02*
D03*
X040980Y045422D02*
D03*
X040980Y045678D02*
D03*
X040980Y045934D02*
D03*
X040980Y046190D02*
D03*
X040980Y046446D02*
D03*
X040980Y046702D02*
D03*
X040980Y051781D02*
D03*
X040980Y052037D02*
D03*
X040980Y052293D02*
D03*
X040980Y052549D02*
D03*
X040980Y052805D02*
D03*
X040980Y053061D02*
D03*
X040980Y053317D02*
D03*
X040980Y053572D02*
D03*
X040980Y053828D02*
D03*
X040980Y054084D02*
D03*
X040980Y054340D02*
D03*
X040980Y054596D02*
D03*
X040980Y054852D02*
D03*
X040980Y059931D02*
D03*
X040980Y060187D02*
D03*
X040980Y060443D02*
D03*
X040980Y060699D02*
D03*
X040980Y060955D02*
D03*
X040980Y061211D02*
D03*
X040980Y061467D02*
D03*
X040980Y061722D02*
D03*
X040980Y061978D02*
D03*
X040980Y062234D02*
D03*
X040980Y062490D02*
D03*
X040980Y062746D02*
D03*
X040980Y063002D02*
D03*
X036728Y063002D02*
D03*
X036728Y062746D02*
D03*
X036728Y062490D02*
D03*
X036728Y062234D02*
D03*
X036728Y061978D02*
D03*
X036728Y061722D02*
D03*
X036728Y061467D02*
D03*
X036728Y061211D02*
D03*
X036728Y060955D02*
D03*
X036728Y060699D02*
D03*
X036728Y060443D02*
D03*
X036728Y060187D02*
D03*
X036728Y059931D02*
D03*
X036728Y054852D02*
D03*
X036728Y054596D02*
D03*
X036728Y054340D02*
D03*
X036728Y054084D02*
D03*
X036728Y053828D02*
D03*
X036728Y053572D02*
D03*
X036728Y053317D02*
D03*
X036728Y053061D02*
D03*
X036728Y052805D02*
D03*
X036728Y052549D02*
D03*
X036728Y052293D02*
D03*
X036728Y052037D02*
D03*
X036728Y051781D02*
D03*
X036728Y046702D02*
D03*
X036728Y046446D02*
D03*
X036728Y046190D02*
D03*
X036728Y045934D02*
D03*
X036728Y045678D02*
D03*
X036728Y045422D02*
D03*
X036728Y045167D02*
D03*
X036728Y044911D02*
D03*
X036728Y044655D02*
D03*
X036728Y044399D02*
D03*
X036728Y044143D02*
D03*
X036728Y043887D02*
D03*
X036728Y043631D02*
D03*
X040980Y068081D02*
D03*
X040980Y068337D02*
D03*
X040980Y068593D02*
D03*
X040980Y068849D02*
D03*
X040980Y069105D02*
D03*
X040980Y069361D02*
D03*
X040980Y069617D02*
D03*
X040980Y069872D02*
D03*
X040980Y070128D02*
D03*
X040980Y070384D02*
D03*
X040980Y070640D02*
D03*
X040980Y070896D02*
D03*
X040980Y071152D02*
D03*
X036728Y071152D02*
D03*
X036728Y070896D02*
D03*
X036728Y070640D02*
D03*
X036728Y070384D02*
D03*
X036728Y070128D02*
D03*
X036728Y069872D02*
D03*
X036728Y069617D02*
D03*
X036728Y069361D02*
D03*
X036728Y069105D02*
D03*
X036728Y068849D02*
D03*
X036728Y068593D02*
D03*
X036728Y068337D02*
D03*
X036728Y068081D02*
D03*
G54D76*
X037574Y026791D02*
D03*
X037830Y026791D02*
D03*
X038086Y026791D02*
D03*
X038342Y026791D02*
D03*
X038598Y026791D02*
D03*
X038854Y026791D02*
D03*
X039110Y026791D02*
D03*
X039366Y026791D02*
D03*
X039622Y026791D02*
D03*
X039878Y026791D02*
D03*
X040133Y026791D02*
D03*
X040389Y026791D02*
D03*
X040389Y031043D02*
D03*
X040133Y031043D02*
D03*
X039878Y031043D02*
D03*
X039622Y031043D02*
D03*
X039366Y031043D02*
D03*
X039110Y031043D02*
D03*
X038854Y031043D02*
D03*
X038598Y031043D02*
D03*
X038342Y031043D02*
D03*
X038086Y031043D02*
D03*
X037830Y031043D02*
D03*
X037574Y031043D02*
D03*
X037318Y031043D02*
D03*
X040389Y034891D02*
D03*
X040133Y034891D02*
D03*
X039878Y034891D02*
D03*
X039622Y034891D02*
D03*
X039366Y034891D02*
D03*
X039110Y034891D02*
D03*
X038854Y034891D02*
D03*
X038598Y034891D02*
D03*
X038342Y034891D02*
D03*
X038086Y034891D02*
D03*
X037830Y034891D02*
D03*
X037574Y034891D02*
D03*
X040389Y039143D02*
D03*
X040133Y039143D02*
D03*
X039878Y039143D02*
D03*
X039622Y039143D02*
D03*
X039366Y039143D02*
D03*
X039110Y039143D02*
D03*
X038854Y039143D02*
D03*
X038598Y039143D02*
D03*
X038342Y039143D02*
D03*
X038086Y039143D02*
D03*
X037830Y039143D02*
D03*
X037574Y039143D02*
D03*
X037318Y039143D02*
D03*
X040389Y043041D02*
D03*
X040133Y043041D02*
D03*
X039878Y043041D02*
D03*
X039622Y043041D02*
D03*
X039366Y043041D02*
D03*
X039110Y043041D02*
D03*
X038854Y043041D02*
D03*
X038598Y043041D02*
D03*
X038342Y043041D02*
D03*
X038086Y043041D02*
D03*
X037830Y043041D02*
D03*
X037574Y043041D02*
D03*
X040389Y047293D02*
D03*
X040133Y047293D02*
D03*
X039878Y047293D02*
D03*
X039622Y047293D02*
D03*
X039366Y047293D02*
D03*
X039110Y047293D02*
D03*
X038854Y047293D02*
D03*
X038598Y047293D02*
D03*
X038342Y047293D02*
D03*
X038086Y047293D02*
D03*
X037830Y047293D02*
D03*
X037574Y047293D02*
D03*
X037318Y047293D02*
D03*
X040389Y051191D02*
D03*
X040133Y051191D02*
D03*
X039878Y051191D02*
D03*
X039622Y051191D02*
D03*
X039366Y051191D02*
D03*
X039110Y051191D02*
D03*
X038854Y051191D02*
D03*
X038598Y051191D02*
D03*
X038342Y051191D02*
D03*
X038086Y051191D02*
D03*
X037830Y051191D02*
D03*
X037574Y051191D02*
D03*
X040389Y055443D02*
D03*
X040133Y055443D02*
D03*
X039878Y055443D02*
D03*
X039622Y055443D02*
D03*
X039366Y055443D02*
D03*
X039110Y055443D02*
D03*
X038854Y055443D02*
D03*
X038598Y055443D02*
D03*
X038342Y055443D02*
D03*
X038086Y055443D02*
D03*
X037830Y055443D02*
D03*
X037574Y055443D02*
D03*
X037318Y055443D02*
D03*
X040389Y059341D02*
D03*
X040133Y059341D02*
D03*
X039878Y059341D02*
D03*
X039622Y059341D02*
D03*
X039366Y059341D02*
D03*
X039110Y059341D02*
D03*
X038854Y059341D02*
D03*
X038598Y059341D02*
D03*
X038342Y059341D02*
D03*
X038086Y059341D02*
D03*
X037830Y059341D02*
D03*
X037574Y059341D02*
D03*
X040389Y063593D02*
D03*
X040133Y063593D02*
D03*
X039878Y063593D02*
D03*
X039622Y063593D02*
D03*
X039366Y063593D02*
D03*
X039110Y063593D02*
D03*
X038854Y063593D02*
D03*
X038598Y063593D02*
D03*
X038342Y063593D02*
D03*
X038086Y063593D02*
D03*
X037830Y063593D02*
D03*
X037574Y063593D02*
D03*
X037318Y063593D02*
D03*
X040389Y067491D02*
D03*
X040133Y067491D02*
D03*
X039878Y067491D02*
D03*
X039622Y067491D02*
D03*
X039366Y067491D02*
D03*
X039110Y067491D02*
D03*
X038854Y067491D02*
D03*
X038598Y067491D02*
D03*
X038342Y067491D02*
D03*
X038086Y067491D02*
D03*
X037830Y067491D02*
D03*
X037574Y067491D02*
D03*
X040389Y071743D02*
D03*
X040133Y071743D02*
D03*
X039878Y071743D02*
D03*
X039622Y071743D02*
D03*
X039366Y071743D02*
D03*
X039110Y071743D02*
D03*
X038854Y071743D02*
D03*
X038598Y071743D02*
D03*
X038342Y071743D02*
D03*
X038086Y071743D02*
D03*
X037830Y071743D02*
D03*
X037574Y071743D02*
D03*
X037318Y071743D02*
D03*
G54D77*
X037318Y026791D02*
D03*
X037318Y034891D02*
D03*
X037318Y043041D02*
D03*
X037318Y051191D02*
D03*
X037318Y059341D02*
D03*
X037318Y067491D02*
D03*
G54D78*
X046267Y041244D02*
D03*
X046464Y041244D02*
D03*
X046661Y041244D02*
D03*
X046858Y041244D02*
D03*
X047055Y041244D02*
D03*
X047252Y041244D02*
D03*
X047448Y041244D02*
D03*
X047645Y041244D02*
D03*
X047842Y041244D02*
D03*
X048039Y041244D02*
D03*
X048236Y041244D02*
D03*
X048433Y041244D02*
D03*
X048630Y041244D02*
D03*
X048826Y041244D02*
D03*
X049023Y041244D02*
D03*
X049220Y041244D02*
D03*
X049417Y041244D02*
D03*
X049614Y041244D02*
D03*
X049811Y041244D02*
D03*
X050007Y041244D02*
D03*
X050204Y041244D02*
D03*
X050401Y041244D02*
D03*
X050598Y041244D02*
D03*
X050795Y041244D02*
D03*
X050992Y041244D02*
D03*
X051189Y041244D02*
D03*
X051385Y041244D02*
D03*
X051582Y041244D02*
D03*
X051779Y041244D02*
D03*
X051976Y041244D02*
D03*
X052173Y041244D02*
D03*
X052370Y041244D02*
D03*
X052567Y041244D02*
D03*
X052763Y041244D02*
D03*
X052960Y041244D02*
D03*
X053157Y041244D02*
D03*
X053354Y041244D02*
D03*
X053551Y041244D02*
D03*
X053748Y041244D02*
D03*
X053944Y041244D02*
D03*
X054141Y041244D02*
D03*
X054338Y041244D02*
D03*
X054535Y041244D02*
D03*
X054732Y041244D02*
D03*
X054929Y041244D02*
D03*
X055126Y041244D02*
D03*
X055322Y041244D02*
D03*
X055519Y041244D02*
D03*
X055716Y041244D02*
D03*
X055913Y041244D02*
D03*
X056110Y041244D02*
D03*
X056307Y041244D02*
D03*
X056504Y041244D02*
D03*
X056700Y041244D02*
D03*
X056897Y041244D02*
D03*
X057094Y041244D02*
D03*
X057291Y041244D02*
D03*
X057488Y041244D02*
D03*
X057685Y041244D02*
D03*
X057881Y041244D02*
D03*
X057881Y054551D02*
D03*
X057685Y054551D02*
D03*
X057488Y054551D02*
D03*
X057291Y054551D02*
D03*
X057094Y054551D02*
D03*
X056897Y054551D02*
D03*
X056700Y054551D02*
D03*
X056504Y054551D02*
D03*
X056307Y054551D02*
D03*
X056110Y054551D02*
D03*
X055913Y054551D02*
D03*
X055716Y054551D02*
D03*
X055519Y054551D02*
D03*
X055322Y054551D02*
D03*
X055126Y054551D02*
D03*
X054929Y054551D02*
D03*
X054732Y054551D02*
D03*
X054535Y054551D02*
D03*
X054338Y054551D02*
D03*
X054141Y054551D02*
D03*
X053944Y054551D02*
D03*
X053748Y054551D02*
D03*
X053551Y054551D02*
D03*
X053354Y054551D02*
D03*
X053157Y054551D02*
D03*
X052960Y054551D02*
D03*
X052763Y054551D02*
D03*
X052567Y054551D02*
D03*
X052370Y054551D02*
D03*
X052173Y054551D02*
D03*
X051976Y054551D02*
D03*
X051779Y054551D02*
D03*
X051582Y054551D02*
D03*
X051385Y054551D02*
D03*
X051189Y054551D02*
D03*
X050992Y054551D02*
D03*
X050795Y054551D02*
D03*
X050598Y054551D02*
D03*
X050401Y054551D02*
D03*
X050204Y054551D02*
D03*
X050007Y054551D02*
D03*
X049811Y054551D02*
D03*
X049614Y054551D02*
D03*
X049417Y054551D02*
D03*
X049220Y054551D02*
D03*
X049023Y054551D02*
D03*
X048826Y054551D02*
D03*
X048630Y054551D02*
D03*
X048433Y054551D02*
D03*
X048236Y054551D02*
D03*
X048039Y054551D02*
D03*
X047842Y054551D02*
D03*
X047645Y054551D02*
D03*
X047448Y054551D02*
D03*
X047252Y054551D02*
D03*
X047055Y054551D02*
D03*
X046858Y054551D02*
D03*
X046661Y054551D02*
D03*
X046464Y054551D02*
D03*
X046267Y054551D02*
D03*
G54D79*
X045421Y042090D02*
D03*
X045421Y042287D02*
D03*
X045421Y042484D02*
D03*
X045421Y042681D02*
D03*
X045421Y042877D02*
D03*
X045421Y043074D02*
D03*
X045421Y043271D02*
D03*
X045421Y043468D02*
D03*
X045421Y043665D02*
D03*
X045421Y043862D02*
D03*
X045421Y044059D02*
D03*
X045421Y044255D02*
D03*
X045421Y044452D02*
D03*
X045421Y044649D02*
D03*
X045421Y044846D02*
D03*
X045421Y045043D02*
D03*
X045421Y045240D02*
D03*
X045421Y045437D02*
D03*
X045421Y045633D02*
D03*
X045421Y045830D02*
D03*
X045421Y046027D02*
D03*
X045421Y046224D02*
D03*
X045421Y046421D02*
D03*
X045421Y046618D02*
D03*
X045421Y046814D02*
D03*
X045421Y047011D02*
D03*
X045421Y047208D02*
D03*
X045421Y047405D02*
D03*
X045421Y047602D02*
D03*
X045421Y047799D02*
D03*
X045421Y047996D02*
D03*
X045421Y048192D02*
D03*
X045421Y048389D02*
D03*
X045421Y048586D02*
D03*
X045421Y048783D02*
D03*
X045421Y048980D02*
D03*
X045421Y049177D02*
D03*
X045421Y049374D02*
D03*
X045421Y049570D02*
D03*
X045421Y049767D02*
D03*
X045421Y049964D02*
D03*
X045421Y050161D02*
D03*
X045421Y050358D02*
D03*
X045421Y050555D02*
D03*
X045421Y050751D02*
D03*
X045421Y050948D02*
D03*
X045421Y051145D02*
D03*
X045421Y051342D02*
D03*
X045421Y051539D02*
D03*
X045421Y051736D02*
D03*
X045421Y051933D02*
D03*
X045421Y052129D02*
D03*
X045421Y052326D02*
D03*
X045421Y052523D02*
D03*
X045421Y052720D02*
D03*
X045421Y052917D02*
D03*
X045421Y053114D02*
D03*
X045421Y053311D02*
D03*
X045421Y053507D02*
D03*
X045421Y053704D02*
D03*
X058728Y043271D02*
D03*
X058728Y043074D02*
D03*
X058728Y042877D02*
D03*
X058728Y042681D02*
D03*
X058728Y042484D02*
D03*
X058728Y042287D02*
D03*
X058728Y042090D02*
D03*
X058728Y043468D02*
D03*
X058728Y043665D02*
D03*
X058728Y043862D02*
D03*
X058728Y044059D02*
D03*
X058728Y044255D02*
D03*
X058728Y044452D02*
D03*
X058728Y044649D02*
D03*
X058728Y044846D02*
D03*
X058728Y045043D02*
D03*
X058728Y045240D02*
D03*
X058728Y045437D02*
D03*
X058728Y045633D02*
D03*
X058728Y045830D02*
D03*
X058728Y046027D02*
D03*
X058728Y046224D02*
D03*
X058728Y046421D02*
D03*
X058728Y046618D02*
D03*
X058728Y046814D02*
D03*
X058728Y047011D02*
D03*
X058728Y047208D02*
D03*
X058728Y047405D02*
D03*
X058728Y047602D02*
D03*
X058728Y047799D02*
D03*
X058728Y047996D02*
D03*
X058728Y048192D02*
D03*
X058728Y048389D02*
D03*
X058728Y048586D02*
D03*
X058728Y048783D02*
D03*
X058728Y048980D02*
D03*
X058728Y049177D02*
D03*
X058728Y049374D02*
D03*
X058728Y049570D02*
D03*
X058728Y049767D02*
D03*
X058728Y049964D02*
D03*
X058728Y050161D02*
D03*
X058728Y050358D02*
D03*
X058728Y050555D02*
D03*
X058728Y050751D02*
D03*
X058728Y050948D02*
D03*
X058728Y051145D02*
D03*
X058728Y051342D02*
D03*
X058728Y051539D02*
D03*
X058728Y051736D02*
D03*
X058728Y051933D02*
D03*
X058728Y052129D02*
D03*
X058728Y052326D02*
D03*
X058728Y052523D02*
D03*
X058728Y052720D02*
D03*
X058728Y052917D02*
D03*
X058728Y053114D02*
D03*
X058728Y053311D02*
D03*
X058728Y053507D02*
D03*
X058728Y053704D02*
D03*
G54D80*
X049219Y028341D02*
D03*
X049219Y028841D02*
D03*
X049219Y029341D02*
D03*
X049219Y029841D02*
D03*
X051418Y029341D02*
D03*
X051418Y028841D02*
D03*
X051418Y028341D02*
D03*
X051418Y029841D02*
D03*
G54D81*
X055469Y027691D02*
D03*
X055469Y028591D02*
D03*
X055469Y029491D02*
D03*
G54D82*
X052969Y028591D02*
D03*
G54D83*
X058668Y026591D02*
D03*
X059468Y029091D02*
D03*
X057894Y029091D02*
D03*
G54D84*
X061818Y031841D02*
D03*
X062719Y031841D02*
D03*
X063618Y031841D02*
D03*
X064819Y031841D02*
D03*
X065718Y031841D02*
D03*
X066618Y031841D02*
D03*
X065718Y035341D02*
D03*
X062719Y035341D02*
D03*
G54D85*
X057094Y026591D02*
D03*
G54D86*
X049219Y031841D02*
D03*
X052719Y031841D02*
D03*
X052719Y030941D02*
D03*
X052719Y032741D02*
D03*
X056669Y033341D02*
D03*
X060168Y032441D02*
D03*
X060168Y033341D02*
D03*
X060168Y034241D02*
D03*
G54D87*
X058668Y060400D02*
D03*
X058668Y060597D02*
D03*
X058668Y060794D02*
D03*
X058668Y060991D02*
D03*
X058668Y061188D02*
D03*
X058668Y061385D02*
D03*
X058668Y061582D02*
D03*
X058668Y061778D02*
D03*
X058668Y061975D02*
D03*
X058668Y062172D02*
D03*
X058668Y062369D02*
D03*
X058668Y062566D02*
D03*
X058668Y062763D02*
D03*
X058668Y062959D02*
D03*
X058668Y063156D02*
D03*
X058668Y063353D02*
D03*
X058668Y063550D02*
D03*
X058668Y063747D02*
D03*
X058668Y063944D02*
D03*
X058668Y064141D02*
D03*
X053511Y064141D02*
D03*
X053511Y063944D02*
D03*
X053511Y063747D02*
D03*
X053511Y063550D02*
D03*
X053511Y063353D02*
D03*
X053511Y063156D02*
D03*
X053511Y062959D02*
D03*
X053511Y062763D02*
D03*
X053511Y062566D02*
D03*
X053511Y062369D02*
D03*
X053511Y062172D02*
D03*
X053511Y061975D02*
D03*
X053511Y061778D02*
D03*
X053511Y061582D02*
D03*
X053511Y061385D02*
D03*
X053511Y061188D02*
D03*
X053511Y060991D02*
D03*
X053511Y060794D02*
D03*
X053511Y060597D02*
D03*
X053511Y060400D02*
D03*
G54D88*
X057369Y059692D02*
D03*
X057566Y059692D02*
D03*
X057763Y059692D02*
D03*
X057960Y059692D02*
D03*
X057172Y059692D02*
D03*
X056976Y059692D02*
D03*
X056779Y059692D02*
D03*
X056582Y059692D02*
D03*
X056385Y059692D02*
D03*
X056188Y059692D02*
D03*
X055991Y059692D02*
D03*
X055794Y059692D02*
D03*
X055598Y059692D02*
D03*
X055401Y059692D02*
D03*
X055204Y059692D02*
D03*
X055007Y059692D02*
D03*
X054810Y059692D02*
D03*
X054613Y059692D02*
D03*
X054417Y059692D02*
D03*
X054220Y059692D02*
D03*
X057369Y064849D02*
D03*
X057566Y064849D02*
D03*
X057763Y064849D02*
D03*
X057960Y064849D02*
D03*
X057172Y064849D02*
D03*
X056976Y064849D02*
D03*
X056779Y064849D02*
D03*
X056582Y064849D02*
D03*
X056385Y064849D02*
D03*
X056188Y064849D02*
D03*
X055991Y064849D02*
D03*
X055794Y064849D02*
D03*
X055598Y064849D02*
D03*
X055401Y064849D02*
D03*
X055204Y064849D02*
D03*
X055007Y064849D02*
D03*
X054810Y064849D02*
D03*
X054613Y064849D02*
D03*
X054417Y064849D02*
D03*
X054220Y064849D02*
D03*
G54D89*
X054369Y071591D02*
D03*
X051368Y071591D02*
D03*
G54D90*
X027369Y042341D02*
D03*
G54D91*
X026168Y042841D02*
D03*
X027369Y043441D02*
D03*
X027369Y044541D02*
D03*
X027369Y045641D02*
D03*
X027369Y046741D02*
D03*
X027369Y047841D02*
D03*
X027369Y048941D02*
D03*
X027369Y050041D02*
D03*
X027369Y051141D02*
D03*
X027369Y052241D02*
D03*
X027369Y053341D02*
D03*
X027369Y054441D02*
D03*
X027369Y055541D02*
D03*
X026168Y055041D02*
D03*
X026168Y053941D02*
D03*
X026168Y052841D02*
D03*
X026168Y051741D02*
D03*
X026168Y050641D02*
D03*
X026168Y049541D02*
D03*
X026168Y048441D02*
D03*
X026168Y047241D02*
D03*
X026168Y046241D02*
D03*
X026168Y045141D02*
D03*
X026168Y044041D02*
D03*
G54D92*
X026769Y039541D02*
D03*
X026769Y057941D02*
D03*
G54D93*
X046469Y026841D02*
D03*
G54D94*
X044468Y026841D02*
D03*
X045469Y026841D02*
D03*
G54D95*
X062028Y042540D02*
D03*
X062028Y043540D02*
D03*
X062028Y044540D02*
D03*
X063028Y044540D02*
D03*
X063028Y043540D02*
D03*
X063028Y045540D02*
D03*
X062028Y045540D02*
D03*
X062028Y046540D02*
D03*
X063028Y046540D02*
D03*
G54D96*
X063028Y042540D02*
D03*
G54D97*
X031469Y025391D02*
D03*
X034969Y025391D02*
D03*
X034969Y032141D02*
D03*
X034969Y033491D02*
D03*
X031469Y033491D02*
D03*
X031469Y032141D02*
D03*
X034969Y040241D02*
D03*
X034969Y041641D02*
D03*
X031469Y041641D02*
D03*
X031469Y040241D02*
D03*
X034969Y048391D02*
D03*
X034969Y049791D02*
D03*
X031469Y049791D02*
D03*
X031469Y048391D02*
D03*
X034969Y056541D02*
D03*
X034969Y057941D02*
D03*
X031469Y057941D02*
D03*
X031469Y056541D02*
D03*
X034969Y064691D02*
D03*
X034969Y066091D02*
D03*
X031469Y066091D02*
D03*
X031469Y064691D02*
D03*
X034969Y072841D02*
D03*
X031469Y072841D02*
D03*
X042469Y065341D02*
D03*
X042469Y057091D02*
D03*
X045478Y054390D02*
D03*
X043969Y047341D02*
D03*
X042568Y041091D02*
D03*
X044718Y034841D02*
D03*
X042218Y031591D02*
D03*
X052719Y030091D02*
D03*
X056469Y031091D02*
D03*
X058868Y036591D02*
D03*
X060219Y038091D02*
D03*
X059928Y038940D02*
D03*
X058068Y036591D02*
D03*
X058068Y035791D02*
D03*
X056568Y035791D02*
D03*
X056568Y036591D02*
D03*
X055768Y036591D02*
D03*
X054969Y036591D02*
D03*
X062168Y028509D02*
D03*
X062168Y027525D02*
D03*
X062168Y026541D02*
D03*
X062168Y029493D02*
D03*
X062218Y060141D02*
D03*
X062218Y061141D02*
D03*
X062218Y061941D02*
D03*
X062218Y062941D02*
D03*
X062218Y068251D02*
D03*
X062218Y069251D02*
D03*
X062218Y070051D02*
D03*
X062218Y071051D02*
D03*
X052000Y066250D02*
D03*
G54D98*
X063319Y058941D02*
D03*
X063319Y064141D02*
D03*
X063319Y067051D02*
D03*
X063319Y072251D02*
D03*
G54D99*
X025724Y022575D02*
D03*
X035961Y022575D02*
D03*
X066276Y022575D02*
D03*
X066276Y075724D02*
D03*
X035961Y075724D02*
D03*
X025724Y075724D02*
D03*
G54D100*
X028800Y026300D02*
D03*
X029350Y027600D02*
D03*
X029769Y026841D02*
D03*
X031918Y027491D02*
D03*
X033219Y027041D02*
D03*
X033719Y027141D02*
D03*
X034369Y026191D02*
D03*
X036769Y026741D02*
D03*
X038468Y025941D02*
D03*
X039118Y025641D02*
D03*
X039718Y025891D02*
D03*
X040368Y025541D02*
D03*
X040968Y025891D02*
D03*
X041869Y025891D02*
D03*
X040219Y028141D02*
D03*
X038969Y028141D02*
D03*
X039625Y027541D02*
D03*
X040980Y029556D02*
D03*
X039118Y031891D02*
D03*
X040368Y033641D02*
D03*
X040968Y033991D02*
D03*
X041869Y033991D02*
D03*
X039625Y035641D02*
D03*
X040219Y036241D02*
D03*
X038969Y036241D02*
D03*
X040980Y037656D02*
D03*
X039118Y039991D02*
D03*
X037968Y039991D02*
D03*
X037469Y037791D02*
D03*
X035768Y037891D02*
D03*
X035768Y037041D02*
D03*
X036769Y034841D02*
D03*
X038468Y034041D02*
D03*
X039118Y033741D02*
D03*
X039718Y033991D02*
D03*
X037968Y031891D02*
D03*
X037469Y029691D02*
D03*
X035768Y029791D02*
D03*
X035768Y028941D02*
D03*
X035168Y030491D02*
D03*
X033719Y030041D02*
D03*
X031869Y031191D02*
D03*
X031969Y030391D02*
D03*
X031319Y029241D02*
D03*
X030319Y030091D02*
D03*
X030168Y028441D02*
D03*
X028660Y030050D02*
D03*
X028700Y029150D02*
D03*
X029218Y028391D02*
D03*
X028800Y027900D02*
D03*
X029769Y030991D02*
D03*
X033219Y035141D02*
D03*
X033719Y035241D02*
D03*
X034369Y034291D02*
D03*
X035168Y034841D02*
D03*
X035168Y038591D02*
D03*
X033719Y038141D02*
D03*
X031869Y039291D02*
D03*
X031969Y038491D02*
D03*
X031319Y037341D02*
D03*
X031918Y035591D02*
D03*
X030319Y038191D02*
D03*
X030168Y036541D02*
D03*
X029769Y034941D02*
D03*
X029350Y035700D02*
D03*
X028800Y036000D02*
D03*
X029218Y036491D02*
D03*
X028800Y034400D02*
D03*
X028700Y037250D02*
D03*
X028660Y038150D02*
D03*
X029769Y039091D02*
D03*
X033219Y043291D02*
D03*
X034369Y042441D02*
D03*
X035168Y042991D02*
D03*
X036769Y042991D02*
D03*
X038468Y042191D02*
D03*
X039118Y041891D02*
D03*
X039718Y042141D02*
D03*
X040368Y041791D02*
D03*
X040968Y042141D02*
D03*
X041869Y042141D02*
D03*
X044178Y042490D02*
D03*
X046478Y042240D02*
D03*
X046478Y043240D02*
D03*
X047818Y042241D02*
D03*
X048428Y043040D02*
D03*
X049619Y042291D02*
D03*
X050819Y042291D02*
D03*
X051928Y043040D02*
D03*
X053928Y042240D02*
D03*
X055515Y040418D02*
D03*
X056828Y043040D02*
D03*
X057478Y042240D02*
D03*
X059778Y042240D02*
D03*
X057478Y043890D02*
D03*
X057478Y045640D02*
D03*
X059678Y046790D02*
D03*
X060778Y047690D02*
D03*
X061578Y048890D02*
D03*
X060669Y050841D02*
D03*
X061019Y051191D02*
D03*
X061367Y051539D02*
D03*
X059778Y053490D02*
D03*
X059068Y055091D02*
D03*
X057469Y053541D02*
D03*
X057618Y052091D02*
D03*
X057628Y049790D02*
D03*
X058028Y047990D02*
D03*
X057978Y046640D02*
D03*
X056828Y048790D02*
D03*
X056028Y046790D02*
D03*
X056028Y045840D02*
D03*
X056678Y044840D02*
D03*
X055328Y046290D02*
D03*
X054628Y046790D02*
D03*
X054928Y043040D02*
D03*
X055528Y042240D02*
D03*
X052069Y040091D02*
D03*
X047278Y044090D02*
D03*
X046478Y045440D02*
D03*
X046628Y047640D02*
D03*
X047278Y047190D02*
D03*
X046478Y049940D02*
D03*
X047269Y050751D02*
D03*
X046478Y052140D02*
D03*
X049428Y052890D02*
D03*
X049985Y053533D02*
D03*
X050978Y052890D02*
D03*
X053128Y053690D02*
D03*
X054728Y052890D02*
D03*
X055568Y053741D02*
D03*
X056833Y051145D02*
D03*
X056890Y052952D02*
D03*
X059468Y049941D02*
D03*
X059969Y050141D02*
D03*
X060318Y050491D02*
D03*
X063978Y048890D02*
D03*
X063578Y048140D02*
D03*
X063868Y041241D02*
D03*
X047269Y052891D02*
D03*
X047319Y053691D02*
D03*
X044419Y053741D02*
D03*
X041869Y050291D02*
D03*
X042818Y048591D02*
D03*
X043719Y048591D02*
D03*
X044219Y048591D02*
D03*
X040968Y050291D02*
D03*
X040368Y049941D02*
D03*
X039625Y051941D02*
D03*
X040219Y052541D02*
D03*
X038969Y052541D02*
D03*
X039118Y050041D02*
D03*
X039718Y050291D02*
D03*
X039118Y048141D02*
D03*
X038468Y050341D02*
D03*
X037968Y048141D02*
D03*
X035768Y046041D02*
D03*
X035768Y045191D02*
D03*
X037469Y045941D02*
D03*
X038969Y044391D02*
D03*
X040219Y044391D02*
D03*
X039625Y043791D02*
D03*
X040980Y045806D02*
D03*
X036769Y051141D02*
D03*
X037469Y054091D02*
D03*
X035768Y054191D02*
D03*
X035768Y053341D02*
D03*
X035168Y054891D02*
D03*
X033719Y054441D02*
D03*
X031969Y054791D02*
D03*
X031869Y055591D02*
D03*
X031319Y053641D02*
D03*
X031918Y051891D02*
D03*
X033219Y051441D02*
D03*
X033719Y051541D02*
D03*
X034369Y050591D02*
D03*
X035168Y051141D02*
D03*
X031869Y047441D02*
D03*
X031969Y046641D02*
D03*
X031319Y045491D02*
D03*
X031918Y043741D02*
D03*
X033719Y043391D02*
D03*
X033719Y046291D02*
D03*
X035168Y046741D02*
D03*
X029769Y051241D02*
D03*
X030168Y052841D02*
D03*
X030319Y054491D02*
D03*
X029769Y055391D02*
D03*
X028660Y054450D02*
D03*
X028700Y053550D02*
D03*
X029218Y052791D02*
D03*
X028800Y052300D02*
D03*
X029350Y052000D02*
D03*
X028800Y050700D02*
D03*
X029769Y047241D02*
D03*
X030319Y046341D02*
D03*
X030168Y044691D02*
D03*
X029769Y043091D02*
D03*
X029350Y043850D02*
D03*
X028800Y044150D02*
D03*
X029218Y044641D02*
D03*
X028800Y042550D02*
D03*
X028700Y045400D02*
D03*
X028660Y046300D02*
D03*
X039118Y056291D02*
D03*
X040368Y058091D02*
D03*
X040968Y058441D02*
D03*
X042469Y056091D02*
D03*
X041869Y058441D02*
D03*
X040219Y060691D02*
D03*
X038969Y060691D02*
D03*
X039625Y060091D02*
D03*
X039718Y058441D02*
D03*
X039118Y058191D02*
D03*
X038468Y058491D02*
D03*
X037968Y056291D02*
D03*
X040980Y053956D02*
D03*
X036769Y059291D02*
D03*
X035768Y061491D02*
D03*
X037469Y062241D02*
D03*
X039118Y064441D02*
D03*
X040980Y062106D02*
D03*
X040368Y066241D02*
D03*
X041869Y066591D02*
D03*
X040968Y066591D02*
D03*
X039625Y068241D02*
D03*
X040219Y068841D02*
D03*
X038969Y068841D02*
D03*
X039718Y066591D02*
D03*
X039118Y066341D02*
D03*
X038468Y066641D02*
D03*
X036769Y067441D02*
D03*
X035168Y067441D02*
D03*
X034369Y066891D02*
D03*
X033719Y067841D02*
D03*
X033219Y067741D02*
D03*
X031918Y068191D02*
D03*
X033719Y070741D02*
D03*
X035168Y071191D02*
D03*
X035768Y070491D02*
D03*
X035768Y069641D02*
D03*
X037469Y070391D02*
D03*
X039118Y072591D02*
D03*
X040980Y070256D02*
D03*
X037968Y072591D02*
D03*
X031869Y071891D02*
D03*
X031969Y071091D02*
D03*
X031319Y069941D02*
D03*
X029769Y071691D02*
D03*
X030319Y070791D02*
D03*
X030168Y069141D02*
D03*
X029769Y067541D02*
D03*
X029350Y068300D02*
D03*
X028800Y068600D02*
D03*
X029218Y069091D02*
D03*
X028800Y067000D02*
D03*
X029769Y063541D02*
D03*
X030319Y062641D02*
D03*
X030168Y060991D02*
D03*
X029769Y059391D02*
D03*
X031918Y060041D02*
D03*
X033219Y059591D02*
D03*
X033719Y059691D02*
D03*
X034369Y058741D02*
D03*
X035168Y059291D02*
D03*
X035768Y062341D02*
D03*
X037968Y064441D02*
D03*
X035168Y063041D02*
D03*
X033719Y062591D02*
D03*
X031869Y063741D02*
D03*
X031969Y062941D02*
D03*
X031319Y061791D02*
D03*
X028660Y062600D02*
D03*
X028700Y061700D02*
D03*
X029218Y060941D02*
D03*
X028800Y060450D02*
D03*
X029350Y060150D02*
D03*
X028800Y058850D02*
D03*
X028700Y069850D02*
D03*
X028660Y070750D02*
D03*
X052319Y068841D02*
D03*
X051368Y070541D02*
D03*
X054718Y068341D02*
D03*
X055718Y068091D02*
D03*
X057108Y069641D02*
D03*
X056609Y070141D02*
D03*
X057909Y065691D02*
D03*
X056418Y063841D02*
D03*
X056469Y061991D02*
D03*
X056568Y060741D02*
D03*
X057919Y063091D02*
D03*
X059068Y059341D02*
D03*
X060718Y059841D02*
D03*
X061418Y060291D02*
D03*
X061418Y061741D02*
D03*
X060718Y061291D02*
D03*
X060718Y062641D02*
D03*
X061418Y063091D02*
D03*
X060419Y066551D02*
D03*
X060419Y069651D02*
D03*
X055168Y063641D02*
D03*
X054213Y063747D02*
D03*
X054169Y062291D02*
D03*
X054419Y060741D02*
D03*
X055368Y060741D02*
D03*
X055669Y061791D02*
D03*
X053418Y059741D02*
D03*
X035168Y026741D02*
D03*
G54D101*
X045469Y041441D02*
D03*
X049219Y037841D02*
D03*
X049019Y031841D02*
D03*
X052969Y028591D02*
D03*
X057094Y026591D02*
D03*
X058668Y026591D02*
D03*
X059468Y029091D02*
D03*
X057894Y029091D02*
D03*
X056469Y033341D02*
D03*
X062719Y035541D02*
D03*
X064219Y033091D02*
D03*
X065718Y035541D02*
D03*
X064219Y036091D02*
D03*
X058719Y041091D02*
D03*
X055478Y043690D02*
D03*
X054478Y044690D02*
D03*
X053478Y045690D02*
D03*
X053478Y043690D02*
D03*
X051478Y045690D02*
D03*
X051478Y043690D02*
D03*
X052478Y044690D02*
D03*
X050478Y044690D02*
D03*
X049478Y045690D02*
D03*
X049478Y043690D02*
D03*
X048478Y044690D02*
D03*
X051478Y047690D02*
D03*
X052478Y046690D02*
D03*
X053478Y047690D02*
D03*
X055478Y047690D02*
D03*
X054478Y048690D02*
D03*
X054478Y050690D02*
D03*
X055478Y049690D02*
D03*
X055478Y051690D02*
D03*
X053468Y051691D02*
D03*
X053478Y049690D02*
D03*
X051478Y051690D02*
D03*
X052478Y050690D02*
D03*
X051478Y049690D02*
D03*
X052478Y048690D02*
D03*
X050478Y050690D02*
D03*
X050478Y048690D02*
D03*
X050478Y046690D02*
D03*
X048478Y048690D02*
D03*
X049478Y047690D02*
D03*
X048478Y046690D02*
D03*
X048478Y050690D02*
D03*
X049478Y049690D02*
D03*
X049478Y051690D02*
D03*
X058468Y059091D02*
D03*
X057668Y060441D02*
D03*
X056069Y063091D02*
D03*
X048969Y069841D02*
D03*
X048969Y070691D02*
D03*
X052719Y072591D02*
D03*
X060978Y046490D02*
D03*
X049019Y025741D02*
D03*
M02*
