%FSAX43Y43*%
%MOMM*%
G71*
G01*
G75*
G04 Layer_Color=32896*
%ADD10C,0.200*%
%ADD11C,0.254*%
%ADD12R,1.600X1.000*%
%ADD13R,5.700X5.500*%
%ADD14R,3.050X2.040*%
%ADD15R,1.240X1.400*%
%ADD16R,2.200X3.100*%
%ADD17R,2.250X2.300*%
%ADD18R,0.950X0.600*%
%ADD19R,1.700X1.600*%
%ADD20R,0.600X0.950*%
%ADD21C,1.400*%
G04:AMPARAMS|DCode=22|XSize=0.8mm|YSize=1mm|CornerRadius=0.08mm|HoleSize=0mm|Usage=FLASHONLY|Rotation=0.000|XOffset=0mm|YOffset=0mm|HoleType=Round|Shape=RoundedRectangle|*
%AMROUNDEDRECTD22*
21,1,0.800,0.840,0,0,0.0*
21,1,0.640,1.000,0,0,0.0*
1,1,0.160,0.320,-0.420*
1,1,0.160,-0.320,-0.420*
1,1,0.160,-0.320,0.420*
1,1,0.160,0.320,0.420*
%
%ADD22ROUNDEDRECTD22*%
G04:AMPARAMS|DCode=23|XSize=1mm|YSize=2mm|CornerRadius=0.1mm|HoleSize=0mm|Usage=FLASHONLY|Rotation=0.000|XOffset=0mm|YOffset=0mm|HoleType=Round|Shape=RoundedRectangle|*
%AMROUNDEDRECTD23*
21,1,1.000,1.800,0,0,0.0*
21,1,0.800,2.000,0,0,0.0*
1,1,0.200,0.400,-0.900*
1,1,0.200,-0.400,-0.900*
1,1,0.200,-0.400,0.900*
1,1,0.200,0.400,0.900*
%
%ADD23ROUNDEDRECTD23*%
G04:AMPARAMS|DCode=24|XSize=1mm|YSize=1.5mm|CornerRadius=0.1mm|HoleSize=0mm|Usage=FLASHONLY|Rotation=180.000|XOffset=0mm|YOffset=0mm|HoleType=Round|Shape=RoundedRectangle|*
%AMROUNDEDRECTD24*
21,1,1.000,1.300,0,0,180.0*
21,1,0.800,1.500,0,0,180.0*
1,1,0.200,-0.400,0.650*
1,1,0.200,0.400,0.650*
1,1,0.200,0.400,-0.650*
1,1,0.200,-0.400,-0.650*
%
%ADD24ROUNDEDRECTD24*%
G04:AMPARAMS|DCode=25|XSize=0.8mm|YSize=1mm|CornerRadius=0.08mm|HoleSize=0mm|Usage=FLASHONLY|Rotation=270.000|XOffset=0mm|YOffset=0mm|HoleType=Round|Shape=RoundedRectangle|*
%AMROUNDEDRECTD25*
21,1,0.800,0.840,0,0,270.0*
21,1,0.640,1.000,0,0,270.0*
1,1,0.160,-0.420,-0.320*
1,1,0.160,-0.420,0.320*
1,1,0.160,0.420,0.320*
1,1,0.160,0.420,-0.320*
%
%ADD25ROUNDEDRECTD25*%
%ADD26R,1.400X0.450*%
%ADD27R,1.400X0.450*%
%ADD28R,1.400X0.450*%
%ADD29R,3.048X3.048*%
%ADD30O,0.250X1.600*%
%ADD31O,1.600X0.250*%
%ADD32R,1.600X0.250*%
%ADD33O,1.270X0.762*%
%ADD34R,1.270X0.762*%
%ADD35R,0.500X0.600*%
%ADD36O,0.250X0.900*%
%ADD37O,0.900X0.250*%
%ADD38R,0.900X0.250*%
%ADD39R,2.340X2.340*%
%ADD40R,4.600X0.810*%
%ADD41R,4.600X0.610*%
%ADD42R,0.600X0.500*%
%ADD43C,0.500*%
%ADD44R,1.778X0.381*%
%ADD45O,1.778X0.381*%
%ADD46R,2.108X1.270*%
G04:AMPARAMS|DCode=47|XSize=2.108mm|YSize=1.27mm|CornerRadius=0mm|HoleSize=0mm|Usage=FLASHONLY|Rotation=0.000|XOffset=0mm|YOffset=0mm|HoleType=Round|Shape=Octagon|*
%AMOCTAGOND47*
4,1,8,1.054,-0.318,1.054,0.318,0.737,0.635,-0.737,0.635,-1.054,0.318,-1.054,-0.318,-0.737,-0.635,0.737,-0.635,1.054,-0.318,0.0*
%
%ADD47OCTAGOND47*%

%ADD48R,0.381X1.778*%
%ADD49O,0.381X1.778*%
%ADD50O,1.000X0.250*%
%ADD51O,0.250X1.000*%
%ADD52R,0.250X1.000*%
%ADD53O,0.300X1.800*%
%ADD54O,1.800X0.300*%
%ADD55R,1.800X0.300*%
G04:AMPARAMS|DCode=56|XSize=1mm|YSize=1.5mm|CornerRadius=0.1mm|HoleSize=0mm|Usage=FLASHONLY|Rotation=90.000|XOffset=0mm|YOffset=0mm|HoleType=Round|Shape=RoundedRectangle|*
%AMROUNDEDRECTD56*
21,1,1.000,1.300,0,0,90.0*
21,1,0.800,1.500,0,0,90.0*
1,1,0.200,0.650,0.400*
1,1,0.200,0.650,-0.400*
1,1,0.200,-0.650,-0.400*
1,1,0.200,-0.650,0.400*
%
%ADD56ROUNDEDRECTD56*%
G04:AMPARAMS|DCode=57|XSize=1mm|YSize=2mm|CornerRadius=0.1mm|HoleSize=0mm|Usage=FLASHONLY|Rotation=90.000|XOffset=0mm|YOffset=0mm|HoleType=Round|Shape=RoundedRectangle|*
%AMROUNDEDRECTD57*
21,1,1.000,1.800,0,0,90.0*
21,1,0.800,2.000,0,0,90.0*
1,1,0.200,0.900,0.400*
1,1,0.200,0.900,-0.400*
1,1,0.200,-0.900,-0.400*
1,1,0.200,-0.900,0.400*
%
%ADD57ROUNDEDRECTD57*%
%ADD58R,1.778X1.016*%
%ADD59R,1.778X3.302*%
%ADD60R,0.508X1.600*%
%ADD61R,0.356X0.914*%
%ADD62R,2.540X2.540*%
G04:AMPARAMS|DCode=63|XSize=0.4mm|YSize=0.7mm|CornerRadius=0mm|HoleSize=0mm|Usage=FLASHONLY|Rotation=135.000|XOffset=0mm|YOffset=0mm|HoleType=Round|Shape=Round|*
%AMOVALD63*
21,1,0.300,0.400,0.000,0.000,225.0*
1,1,0.400,0.106,0.106*
1,1,0.400,-0.106,-0.106*
%
%ADD63OVALD63*%

%ADD64O,0.700X0.400*%
%ADD65C,0.175*%
%ADD66C,0.800*%
%ADD67C,0.400*%
%ADD68C,0.500*%
%ADD69C,0.150*%
%ADD70C,0.508*%
%ADD71C,0.600*%
%ADD72C,0.300*%
%ADD73R,1.500X5.900*%
%ADD74R,0.500X3.200*%
%ADD75R,3.800X2.200*%
%ADD76R,3.700X2.200*%
%ADD77R,4.000X3.700*%
%ADD78R,3.500X3.000*%
%ADD79R,3.500X5.300*%
%ADD80R,4.200X3.000*%
%ADD81R,4.000X3.000*%
%ADD82R,1.900X1.900*%
%ADD83R,2.700X6.800*%
%ADD84R,1.500X1.400*%
%ADD85R,1.400X1.400*%
%ADD86R,2.500X2.200*%
%ADD87R,2.300X11.700*%
%ADD88R,1.200X5.400*%
%ADD89R,1.500X2.400*%
%ADD90R,2.700X2.800*%
%ADD91R,6.100X6.100*%
%ADD92R,3.400X2.300*%
%ADD93C,1.690*%
%ADD94C,4.500*%
%ADD95C,3.800*%
%ADD96R,1.600X1.600*%
%ADD97C,1.600*%
%ADD98C,3.000*%
%ADD99C,1.575*%
%ADD100R,1.575X1.575*%
%ADD101C,1.800*%
%ADD102R,1.850X1.850*%
%ADD103C,1.850*%
%ADD104R,1.850X1.850*%
%ADD105C,1.500*%
%ADD106C,0.300*%
%ADD107C,0.700*%
%ADD108C,0.800*%
%ADD109C,1.000*%
%ADD110C,1.200*%
%ADD111C,5.000*%
%ADD112C,0.600*%
%ADD113C,1.016*%
%ADD114C,0.705*%
G04:AMPARAMS|DCode=115|XSize=2.29mm|YSize=2.29mm|CornerRadius=0mm|HoleSize=0mm|Usage=FLASHONLY|Rotation=0.000|XOffset=0mm|YOffset=0mm|HoleType=Round|Shape=Relief|Width=0.175mm|Gap=0.3mm|Entries=4|*
%AMTHD115*
7,0,0,2.290,1.690,0.175,45*
%
%ADD115THD115*%
%ADD116C,1.490*%
G04:AMPARAMS|DCode=117|XSize=4.4mm|YSize=4.4mm|CornerRadius=0mm|HoleSize=0mm|Usage=FLASHONLY|Rotation=0.000|XOffset=0mm|YOffset=0mm|HoleType=Round|Shape=Relief|Width=0.175mm|Gap=0.3mm|Entries=4|*
%AMTHD117*
7,0,0,4.400,3.800,0.175,45*
%
%ADD117THD117*%
G04:AMPARAMS|DCode=118|XSize=4.44mm|YSize=4.44mm|CornerRadius=0mm|HoleSize=0mm|Usage=FLASHONLY|Rotation=0.000|XOffset=0mm|YOffset=0mm|HoleType=Round|Shape=Relief|Width=0.175mm|Gap=0.3mm|Entries=4|*
%AMTHD118*
7,0,0,4.440,3.840,0.175,45*
%
%ADD118THD118*%
G04:AMPARAMS|DCode=119|XSize=3.5mm|YSize=3.5mm|CornerRadius=0mm|HoleSize=0mm|Usage=FLASHONLY|Rotation=0.000|XOffset=0mm|YOffset=0mm|HoleType=Round|Shape=Relief|Width=0.175mm|Gap=0.3mm|Entries=4|*
%AMTHD119*
7,0,0,3.500,2.900,0.175,45*
%
%ADD119THD119*%
%ADD120C,1.320*%
%ADD121C,3.400*%
G04:AMPARAMS|DCode=122|XSize=2.216mm|YSize=2.216mm|CornerRadius=0mm|HoleSize=0mm|Usage=FLASHONLY|Rotation=0.000|XOffset=0mm|YOffset=0mm|HoleType=Round|Shape=Relief|Width=0.175mm|Gap=0.3mm|Entries=4|*
%AMTHD122*
7,0,0,2.216,1.616,0.175,45*
%
%ADD122THD122*%
%ADD123C,1.416*%
G04:AMPARAMS|DCode=124|XSize=2.12mm|YSize=2.12mm|CornerRadius=0mm|HoleSize=0mm|Usage=FLASHONLY|Rotation=0.000|XOffset=0mm|YOffset=0mm|HoleType=Round|Shape=Relief|Width=0.175mm|Gap=0.3mm|Entries=4|*
%AMTHD124*
7,0,0,2.120,1.520,0.175,45*
%
%ADD124THD124*%
G04:AMPARAMS|DCode=125|XSize=2.2mm|YSize=2.2mm|CornerRadius=0mm|HoleSize=0mm|Usage=FLASHONLY|Rotation=0.000|XOffset=0mm|YOffset=0mm|HoleType=Round|Shape=Relief|Width=0.175mm|Gap=0.3mm|Entries=4|*
%AMTHD125*
7,0,0,2.200,1.600,0.175,45*
%
%ADD125THD125*%
G04:AMPARAMS|DCode=126|XSize=2.3mm|YSize=2.3mm|CornerRadius=0mm|HoleSize=0mm|Usage=FLASHONLY|Rotation=0.000|XOffset=0mm|YOffset=0mm|HoleType=Round|Shape=Relief|Width=0.175mm|Gap=0.3mm|Entries=4|*
%AMTHD126*
7,0,0,2.300,1.700,0.175,45*
%
%ADD126THD126*%
%ADD127C,0.520*%
G04:AMPARAMS|DCode=128|XSize=1.6mm|YSize=1.6mm|CornerRadius=0mm|HoleSize=0mm|Usage=FLASHONLY|Rotation=0.000|XOffset=0mm|YOffset=0mm|HoleType=Round|Shape=Relief|Width=0.175mm|Gap=0.3mm|Entries=4|*
%AMTHD128*
7,0,0,1.600,1.000,0.175,45*
%
%ADD128THD128*%
%ADD129C,0.800*%
G04:AMPARAMS|DCode=130|XSize=1.7mm|YSize=1.7mm|CornerRadius=0mm|HoleSize=0mm|Usage=FLASHONLY|Rotation=0.000|XOffset=0mm|YOffset=0mm|HoleType=Round|Shape=Relief|Width=0.175mm|Gap=0.3mm|Entries=4|*
%AMTHD130*
7,0,0,1.700,1.100,0.175,45*
%
%ADD130THD130*%
G04:AMPARAMS|DCode=131|XSize=1.9mm|YSize=1.9mm|CornerRadius=0mm|HoleSize=0mm|Usage=FLASHONLY|Rotation=0.000|XOffset=0mm|YOffset=0mm|HoleType=Round|Shape=Relief|Width=0.175mm|Gap=0.3mm|Entries=4|*
%AMTHD131*
7,0,0,1.900,1.300,0.175,45*
%
%ADD131THD131*%
G04:AMPARAMS|DCode=132|XSize=1.32mm|YSize=1.32mm|CornerRadius=0mm|HoleSize=0mm|Usage=FLASHONLY|Rotation=0.000|XOffset=0mm|YOffset=0mm|HoleType=Round|Shape=Relief|Width=0.175mm|Gap=0.3mm|Entries=4|*
%AMTHD132*
7,0,0,1.320,0.720,0.175,45*
%
%ADD132THD132*%
%ADD133C,0.700*%
%ADD134C,1.100*%
%ADD135C,1.000*%
%ADD136C,0.900*%
G04:AMPARAMS|DCode=137|XSize=1.5mm|YSize=1.5mm|CornerRadius=0mm|HoleSize=0mm|Usage=FLASHONLY|Rotation=0.000|XOffset=0mm|YOffset=0mm|HoleType=Round|Shape=Relief|Width=0.175mm|Gap=0.3mm|Entries=4|*
%AMTHD137*
7,0,0,1.500,0.900,0.175,45*
%
%ADD137THD137*%
G04:AMPARAMS|DCode=138|XSize=2.4mm|YSize=2.4mm|CornerRadius=0mm|HoleSize=0mm|Usage=FLASHONLY|Rotation=0.000|XOffset=0mm|YOffset=0mm|HoleType=Round|Shape=Relief|Width=0.175mm|Gap=0.3mm|Entries=4|*
%AMTHD138*
7,0,0,2.400,1.800,0.175,45*
%
%ADD138THD138*%
%ADD139C,0.120*%
%ADD140C,3.600*%
%ADD141C,3.640*%
%ADD142C,2.700*%
%ADD143R,0.550X1.450*%
%ADD144R,0.550X1.450*%
G04:AMPARAMS|DCode=145|XSize=0.5mm|YSize=0.6mm|CornerRadius=0mm|HoleSize=0mm|Usage=FLASHONLY|Rotation=135.000|XOffset=0mm|YOffset=0mm|HoleType=Round|Shape=Rectangle|*
%AMROTATEDRECTD145*
4,1,4,0.389,0.035,-0.035,-0.389,-0.389,-0.035,0.035,0.389,0.389,0.035,0.0*
%
%ADD145ROTATEDRECTD145*%

G04:AMPARAMS|DCode=146|XSize=0.5mm|YSize=0.6mm|CornerRadius=0mm|HoleSize=0mm|Usage=FLASHONLY|Rotation=225.000|XOffset=0mm|YOffset=0mm|HoleType=Round|Shape=Rectangle|*
%AMROTATEDRECTD146*
4,1,4,-0.035,0.389,0.389,-0.035,0.035,-0.389,-0.389,0.035,-0.035,0.389,0.0*
%
%ADD146ROTATEDRECTD146*%

%ADD147C,0.350*%
%ADD148R,1.450X0.550*%
%ADD149R,1.450X0.550*%
%ADD150R,3.048X3.048*%
%ADD151R,3.100X2.500*%
%ADD152C,0.250*%
%ADD153C,0.127*%
%ADD154C,0.203*%
%ADD155C,0.100*%
%ADD156C,0.305*%
%ADD157C,0.152*%
%ADD158C,0.102*%
%ADD159R,2.200X2.200*%
%ADD160R,0.900X0.550*%
%ADD161R,0.550X0.900*%
%ADD162R,0.025X0.025*%
%ADD163C,0.762*%
%ADD164R,6.300X6.300*%
%ADD165R,1.800X1.200*%
%ADD166R,5.900X5.700*%
%ADD167R,3.152X2.142*%
%ADD168R,1.342X1.502*%
%ADD169R,2.302X3.202*%
%ADD170R,1.052X0.702*%
%ADD171R,1.802X1.702*%
%ADD172R,0.702X1.052*%
%ADD173C,1.502*%
G04:AMPARAMS|DCode=174|XSize=1mm|YSize=1.2mm|CornerRadius=0.18mm|HoleSize=0mm|Usage=FLASHONLY|Rotation=0.000|XOffset=0mm|YOffset=0mm|HoleType=Round|Shape=RoundedRectangle|*
%AMROUNDEDRECTD174*
21,1,1.000,0.840,0,0,0.0*
21,1,0.640,1.200,0,0,0.0*
1,1,0.360,0.320,-0.420*
1,1,0.360,-0.320,-0.420*
1,1,0.360,-0.320,0.420*
1,1,0.360,0.320,0.420*
%
%ADD174ROUNDEDRECTD174*%
G04:AMPARAMS|DCode=175|XSize=1.2mm|YSize=2.2mm|CornerRadius=0.2mm|HoleSize=0mm|Usage=FLASHONLY|Rotation=0.000|XOffset=0mm|YOffset=0mm|HoleType=Round|Shape=RoundedRectangle|*
%AMROUNDEDRECTD175*
21,1,1.200,1.800,0,0,0.0*
21,1,0.800,2.200,0,0,0.0*
1,1,0.400,0.400,-0.900*
1,1,0.400,-0.400,-0.900*
1,1,0.400,-0.400,0.900*
1,1,0.400,0.400,0.900*
%
%ADD175ROUNDEDRECTD175*%
G04:AMPARAMS|DCode=176|XSize=1.2mm|YSize=1.7mm|CornerRadius=0.2mm|HoleSize=0mm|Usage=FLASHONLY|Rotation=180.000|XOffset=0mm|YOffset=0mm|HoleType=Round|Shape=RoundedRectangle|*
%AMROUNDEDRECTD176*
21,1,1.200,1.300,0,0,180.0*
21,1,0.800,1.700,0,0,180.0*
1,1,0.400,-0.400,0.650*
1,1,0.400,0.400,0.650*
1,1,0.400,0.400,-0.650*
1,1,0.400,-0.400,-0.650*
%
%ADD176ROUNDEDRECTD176*%
G04:AMPARAMS|DCode=177|XSize=1mm|YSize=1.2mm|CornerRadius=0.18mm|HoleSize=0mm|Usage=FLASHONLY|Rotation=270.000|XOffset=0mm|YOffset=0mm|HoleType=Round|Shape=RoundedRectangle|*
%AMROUNDEDRECTD177*
21,1,1.000,0.840,0,0,270.0*
21,1,0.640,1.200,0,0,270.0*
1,1,0.360,-0.420,-0.320*
1,1,0.360,-0.420,0.320*
1,1,0.360,0.420,0.320*
1,1,0.360,0.420,-0.320*
%
%ADD177ROUNDEDRECTD177*%
%ADD178R,1.600X0.650*%
%ADD179R,1.600X0.650*%
%ADD180R,1.600X0.650*%
%ADD181R,3.248X3.248*%
%ADD182O,0.450X1.800*%
%ADD183O,1.800X0.450*%
%ADD184R,1.800X0.450*%
%ADD185O,1.470X0.962*%
%ADD186R,1.470X0.962*%
%ADD187R,0.700X0.800*%
%ADD188O,0.450X1.100*%
%ADD189O,1.100X0.450*%
%ADD190R,1.100X0.450*%
%ADD191R,2.540X2.540*%
%ADD192R,4.800X1.010*%
%ADD193R,4.800X0.810*%
%ADD194R,0.800X0.700*%
%ADD195R,1.978X0.581*%
%ADD196O,1.978X0.581*%
%ADD197R,2.308X1.470*%
G04:AMPARAMS|DCode=198|XSize=2.308mm|YSize=1.47mm|CornerRadius=0mm|HoleSize=0mm|Usage=FLASHONLY|Rotation=0.000|XOffset=0mm|YOffset=0mm|HoleType=Round|Shape=Octagon|*
%AMOCTAGOND198*
4,1,8,1.154,-0.367,1.154,0.367,0.787,0.735,-0.787,0.735,-1.154,0.367,-1.154,-0.367,-0.787,-0.735,0.787,-0.735,1.154,-0.367,0.0*
%
%ADD198OCTAGOND198*%

%ADD199R,0.581X1.978*%
%ADD200O,0.581X1.978*%
%ADD201O,1.200X0.450*%
%ADD202O,0.450X1.200*%
%ADD203R,0.450X1.200*%
%ADD204O,0.500X2.000*%
%ADD205O,2.000X0.500*%
%ADD206R,2.000X0.500*%
G04:AMPARAMS|DCode=207|XSize=1.2mm|YSize=1.7mm|CornerRadius=0.2mm|HoleSize=0mm|Usage=FLASHONLY|Rotation=90.000|XOffset=0mm|YOffset=0mm|HoleType=Round|Shape=RoundedRectangle|*
%AMROUNDEDRECTD207*
21,1,1.200,1.300,0,0,90.0*
21,1,0.800,1.700,0,0,90.0*
1,1,0.400,0.650,0.400*
1,1,0.400,0.650,-0.400*
1,1,0.400,-0.650,-0.400*
1,1,0.400,-0.650,0.400*
%
%ADD207ROUNDEDRECTD207*%
G04:AMPARAMS|DCode=208|XSize=1.2mm|YSize=2.2mm|CornerRadius=0.2mm|HoleSize=0mm|Usage=FLASHONLY|Rotation=90.000|XOffset=0mm|YOffset=0mm|HoleType=Round|Shape=RoundedRectangle|*
%AMROUNDEDRECTD208*
21,1,1.200,1.800,0,0,90.0*
21,1,0.800,2.200,0,0,90.0*
1,1,0.400,0.900,0.400*
1,1,0.400,0.900,-0.400*
1,1,0.400,-0.900,-0.400*
1,1,0.400,-0.900,0.400*
%
%ADD208ROUNDEDRECTD208*%
%ADD209R,1.978X1.216*%
%ADD210R,1.978X3.502*%
%ADD211R,0.708X1.800*%
G04:AMPARAMS|DCode=212|XSize=0.6mm|YSize=0.9mm|CornerRadius=0mm|HoleSize=0mm|Usage=FLASHONLY|Rotation=135.000|XOffset=0mm|YOffset=0mm|HoleType=Round|Shape=Round|*
%AMOVALD212*
21,1,0.300,0.600,0.000,0.000,225.0*
1,1,0.600,0.106,0.106*
1,1,0.600,-0.106,-0.106*
%
%ADD212OVALD212*%

%ADD213O,0.900X0.600*%
%ADD214C,0.017*%
%ADD215C,1.890*%
%ADD216C,4.700*%
%ADD217C,4.000*%
%ADD218R,1.800X1.800*%
%ADD219C,3.200*%
%ADD220C,1.775*%
%ADD221R,1.775X1.775*%
%ADD222C,2.000*%
%ADD223R,2.050X2.050*%
%ADD224C,2.050*%
%ADD225R,2.050X2.050*%
%ADD226C,1.700*%
%ADD227C,0.900*%
%ADD228C,5.200*%
%ADD229R,0.750X1.650*%
%ADD230R,0.750X1.650*%
G04:AMPARAMS|DCode=231|XSize=0.7mm|YSize=0.8mm|CornerRadius=0mm|HoleSize=0mm|Usage=FLASHONLY|Rotation=135.000|XOffset=0mm|YOffset=0mm|HoleType=Round|Shape=Rectangle|*
%AMROTATEDRECTD231*
4,1,4,0.530,0.035,-0.035,-0.530,-0.530,-0.035,0.035,0.530,0.530,0.035,0.0*
%
%ADD231ROTATEDRECTD231*%

G04:AMPARAMS|DCode=232|XSize=0.7mm|YSize=0.8mm|CornerRadius=0mm|HoleSize=0mm|Usage=FLASHONLY|Rotation=225.000|XOffset=0mm|YOffset=0mm|HoleType=Round|Shape=Rectangle|*
%AMROTATEDRECTD232*
4,1,4,-0.035,0.530,0.530,-0.035,0.035,-0.530,-0.530,0.035,-0.035,0.530,0.0*
%
%ADD232ROTATEDRECTD232*%

%ADD233C,0.550*%
%ADD234R,1.650X0.750*%
%ADD235R,1.650X0.750*%
%ADD236R,3.248X3.248*%
%ADD237C,0.100*%
G54D10*
X0100900Y0113400D02*
X0103900D01*
X0100900Y0111800D02*
Y0113400D01*
Y0111800D02*
X0103900D01*
Y0113400D01*
X0097900Y0069700D02*
X0100900D01*
Y0071300D01*
X0097900D02*
X0100900D01*
X0097900Y0069700D02*
Y0071300D01*
X0110800Y0175900D02*
Y0178900D01*
X0109200D02*
X0110800D01*
X0109200Y0175900D02*
Y0178900D01*
Y0175900D02*
X0110800D01*
X0119300Y0081100D02*
X0122300D01*
Y0082700D01*
X0119300D02*
X0122300D01*
X0119300Y0081100D02*
Y0082700D01*
X0118800Y0085800D02*
Y0088800D01*
X0117200D02*
X0118800D01*
X0117200Y0085800D02*
Y0088800D01*
Y0085800D02*
X0118800D01*
X0117200Y0076700D02*
Y0079700D01*
Y0076700D02*
X0118800D01*
Y0079700D01*
X0117200D02*
X0118800D01*
X0119300Y0120900D02*
X0122300D01*
Y0122500D01*
X0119300D02*
X0122300D01*
X0119300Y0120900D02*
Y0122500D01*
X0117200Y0116500D02*
Y0119500D01*
Y0116500D02*
X0118800D01*
Y0119500D01*
X0117200D02*
X0118800D01*
Y0125200D02*
Y0128200D01*
X0117200D02*
X0118800D01*
X0117200Y0125200D02*
Y0128200D01*
Y0125200D02*
X0118800D01*
X0117200Y0156200D02*
Y0159200D01*
Y0156200D02*
X0118800D01*
Y0159200D01*
X0117200D02*
X0118800D01*
X0120100Y0160800D02*
X0123100D01*
Y0162400D01*
X0120100D02*
X0123100D01*
X0120100Y0160800D02*
Y0162400D01*
X0118800Y0164900D02*
Y0167900D01*
X0117200D02*
X0118800D01*
X0117200Y0164900D02*
Y0167900D01*
Y0164900D02*
X0118800D01*
X0102400Y0155300D02*
X0105400D01*
Y0156900D01*
X0102400D02*
X0105400D01*
X0102400Y0155300D02*
Y0156900D01*
X0102800Y0156500D02*
Y0159500D01*
X0101200D02*
X0102800D01*
X0101200Y0156500D02*
Y0159500D01*
Y0156500D02*
X0102800D01*
X0102400Y0166500D02*
X0105400D01*
Y0168100D01*
X0102400D02*
X0105400D01*
X0102400Y0166500D02*
Y0168100D01*
X0102800Y0167700D02*
Y0170700D01*
X0101200D02*
X0102800D01*
X0101200Y0167700D02*
Y0170700D01*
Y0167700D02*
X0102800D01*
X0101200Y0152600D02*
Y0155600D01*
Y0152600D02*
X0102800D01*
Y0155600D01*
X0101200D02*
X0102800D01*
X0098600Y0156800D02*
X0101600D01*
X0098600Y0155200D02*
Y0156800D01*
Y0155200D02*
X0101600D01*
Y0156800D01*
X0101200Y0163800D02*
Y0166800D01*
Y0163800D02*
X0102800D01*
Y0166800D01*
X0101200D02*
X0102800D01*
X0098600Y0168000D02*
X0101600D01*
X0098600Y0166400D02*
Y0168000D01*
Y0166400D02*
X0101600D01*
Y0168000D01*
X0104900Y0078000D02*
X0107900D01*
Y0079600D01*
X0104900D02*
X0107900D01*
X0104900Y0078000D02*
Y0079600D01*
Y0081200D02*
X0107900D01*
X0104900Y0079600D02*
Y0081200D01*
Y0079600D02*
X0107900D01*
Y0081200D01*
X0104900Y0084200D02*
X0107900D01*
Y0085800D01*
X0104900D02*
X0107900D01*
X0104900Y0084200D02*
Y0085800D01*
Y0087300D02*
X0107900D01*
X0104900Y0085700D02*
Y0087300D01*
Y0085700D02*
X0107900D01*
Y0087300D01*
X0104900Y0089200D02*
X0107900D01*
Y0090800D01*
X0104900D02*
X0107900D01*
X0104900Y0089200D02*
Y0090800D01*
X0093300Y0083700D02*
X0096300D01*
Y0085300D01*
X0093300D02*
X0096300D01*
X0093300Y0083700D02*
Y0085300D01*
X0104900Y0095700D02*
X0107900D01*
Y0097300D01*
X0104900D02*
X0107900D01*
X0104900Y0095700D02*
Y0097300D01*
Y0098800D02*
X0107900D01*
X0104900Y0097200D02*
Y0098800D01*
Y0097200D02*
X0107900D01*
Y0098800D01*
X0104900Y0100700D02*
X0107900D01*
Y0102300D01*
X0104900D02*
X0107900D01*
X0104900Y0100700D02*
Y0102300D01*
X0104900Y0144000D02*
X0107900D01*
X0104900Y0142400D02*
Y0144000D01*
Y0142400D02*
X0107900D01*
Y0144000D01*
X0104900Y0145900D02*
X0107900D01*
Y0147500D01*
X0104900D02*
X0107900D01*
X0104900Y0145900D02*
Y0147500D01*
Y0149100D02*
X0107900D01*
X0104900Y0147500D02*
Y0149100D01*
Y0147500D02*
X0107900D01*
Y0149100D01*
X0102600Y0141000D02*
X0105600D01*
X0102600Y0139400D02*
Y0141000D01*
Y0139400D02*
X0105600D01*
Y0141000D01*
X0104900Y0152500D02*
X0107900D01*
Y0154100D01*
X0104900D02*
X0107900D01*
X0104900Y0152500D02*
Y0154100D01*
Y0155600D02*
X0107900D01*
X0104900Y0154000D02*
Y0155600D01*
Y0154000D02*
X0107900D01*
Y0155600D01*
X0104900Y0157500D02*
X0107900D01*
Y0159100D01*
X0104900D02*
X0107900D01*
X0104900Y0157500D02*
Y0159100D01*
Y0160700D02*
X0107900D01*
X0104900Y0159100D02*
Y0160700D01*
Y0159100D02*
X0107900D01*
Y0160700D01*
X0104900Y0163700D02*
X0107900D01*
Y0165300D01*
X0104900D02*
X0107900D01*
X0104900Y0163700D02*
Y0165300D01*
Y0168700D02*
X0107900D01*
Y0170300D01*
X0104900D02*
X0107900D01*
X0104900Y0168700D02*
Y0170300D01*
X0073900Y0072625D02*
X0073950D01*
X0073900Y0074425D02*
X0073950D01*
X0076950Y0072625D02*
X0077000D01*
X0076950Y0074425D02*
X0077000D01*
Y0072625D02*
Y0074425D01*
X0073900Y0072625D02*
Y0074425D01*
Y0078625D02*
X0073950D01*
X0073900Y0080425D02*
X0073950D01*
X0076950Y0078625D02*
X0077000D01*
X0076950Y0080425D02*
X0077000D01*
Y0078625D02*
Y0080425D01*
X0073900Y0078625D02*
Y0080425D01*
Y0084625D02*
X0073950D01*
X0073900Y0086425D02*
X0073950D01*
X0076950Y0084625D02*
X0077000D01*
X0076950Y0086425D02*
X0077000D01*
Y0084625D02*
Y0086425D01*
X0073900Y0084625D02*
Y0086425D01*
Y0090625D02*
X0073950D01*
X0073900Y0092425D02*
X0073950D01*
X0076950Y0090625D02*
X0077000D01*
X0076950Y0092425D02*
X0077000D01*
Y0090625D02*
Y0092425D01*
X0073900Y0090625D02*
Y0092425D01*
X0073900Y0096625D02*
X0073950D01*
X0073900Y0098425D02*
X0073950D01*
X0076950Y0096625D02*
X0077000D01*
X0076950Y0098425D02*
X0077000D01*
Y0096625D02*
Y0098425D01*
X0073900Y0096625D02*
Y0098425D01*
Y0102625D02*
X0073950D01*
X0073900Y0104425D02*
X0073950D01*
X0076950Y0102625D02*
X0077000D01*
X0076950Y0104425D02*
X0077000D01*
Y0102625D02*
Y0104425D01*
X0073900Y0102625D02*
Y0104425D01*
X0073900Y0141625D02*
X0073950D01*
X0073900Y0143425D02*
X0073950D01*
X0076950Y0141625D02*
X0077000D01*
X0076950Y0143425D02*
X0077000D01*
Y0141625D02*
Y0143425D01*
X0073900Y0141625D02*
Y0143425D01*
Y0147625D02*
X0073950D01*
X0073900Y0149425D02*
X0073950D01*
X0076950Y0147625D02*
X0077000D01*
X0076950Y0149425D02*
X0077000D01*
Y0147625D02*
Y0149425D01*
X0073900Y0147625D02*
Y0149425D01*
Y0153625D02*
X0073950D01*
X0073900Y0155425D02*
X0073950D01*
X0076950Y0153625D02*
X0077000D01*
X0076950Y0155425D02*
X0077000D01*
Y0153625D02*
Y0155425D01*
X0073900Y0153625D02*
Y0155425D01*
Y0159625D02*
X0073950D01*
X0073900Y0161425D02*
X0073950D01*
X0076950Y0159625D02*
X0077000D01*
X0076950Y0161425D02*
X0077000D01*
Y0159625D02*
Y0161425D01*
X0073900Y0159625D02*
Y0161425D01*
Y0165625D02*
X0073950D01*
X0073900Y0167425D02*
X0073950D01*
X0076950Y0165625D02*
X0077000D01*
X0076950Y0167425D02*
X0077000D01*
Y0165625D02*
Y0167425D01*
X0073900Y0165625D02*
Y0167425D01*
X0087200Y0070100D02*
Y0073100D01*
X0085600D02*
X0087200D01*
X0085600Y0070100D02*
Y0073100D01*
Y0070100D02*
X0087200D01*
X0080600Y0071600D02*
X0083600D01*
Y0073200D01*
X0080600D02*
X0083600D01*
X0080600Y0071600D02*
Y0073200D01*
X0082700Y0074500D02*
X0085700D01*
X0082700Y0072900D02*
Y0074500D01*
Y0072900D02*
X0085700D01*
Y0074500D01*
X0077200Y0073800D02*
X0080200D01*
Y0075400D01*
X0077200D02*
X0080200D01*
X0077200Y0073800D02*
Y0075400D01*
X0067900Y0071900D02*
Y0074900D01*
Y0071900D02*
X0069500D01*
Y0074900D01*
X0067900D02*
X0069500D01*
X0087200Y0076100D02*
Y0079100D01*
X0085600D02*
X0087200D01*
X0085600Y0076100D02*
Y0079100D01*
Y0076100D02*
X0087200D01*
X0080600Y0077600D02*
X0083600D01*
Y0079200D01*
X0080600D02*
X0083600D01*
X0080600Y0077600D02*
Y0079200D01*
X0082700Y0080500D02*
X0085700D01*
X0082700Y0078900D02*
Y0080500D01*
Y0078900D02*
X0085700D01*
Y0080500D01*
X0077200Y0079800D02*
X0080200D01*
Y0081400D01*
X0077200D02*
X0080200D01*
X0077200Y0079800D02*
Y0081400D01*
X0067900Y0077900D02*
Y0080900D01*
Y0077900D02*
X0069500D01*
Y0080900D01*
X0067900D02*
X0069500D01*
X0087200Y0082100D02*
Y0085100D01*
X0085600D02*
X0087200D01*
X0085600Y0082100D02*
Y0085100D01*
Y0082100D02*
X0087200D01*
X0080600Y0083600D02*
X0083600D01*
Y0085200D01*
X0080600D02*
X0083600D01*
X0080600Y0083600D02*
Y0085200D01*
X0082700Y0086500D02*
X0085700D01*
X0082700Y0084900D02*
Y0086500D01*
Y0084900D02*
X0085700D01*
Y0086500D01*
X0077200Y0085800D02*
X0080200D01*
Y0087400D01*
X0077200D02*
X0080200D01*
X0077200Y0085800D02*
Y0087400D01*
X0067900Y0083900D02*
Y0086900D01*
Y0083900D02*
X0069500D01*
Y0086900D01*
X0067900D02*
X0069500D01*
X0087200Y0088100D02*
Y0091100D01*
X0085600D02*
X0087200D01*
X0085600Y0088100D02*
Y0091100D01*
Y0088100D02*
X0087200D01*
X0080600Y0089600D02*
X0083600D01*
Y0091200D01*
X0080600D02*
X0083600D01*
X0080600Y0089600D02*
Y0091200D01*
X0082700Y0092500D02*
X0085700D01*
X0082700Y0090900D02*
Y0092500D01*
Y0090900D02*
X0085700D01*
Y0092500D01*
X0077200Y0091800D02*
X0080200D01*
Y0093400D01*
X0077200D02*
X0080200D01*
X0077200Y0091800D02*
Y0093400D01*
X0067900Y0089900D02*
Y0092900D01*
Y0089900D02*
X0069500D01*
Y0092900D01*
X0067900D02*
X0069500D01*
X0087200Y0094100D02*
Y0097100D01*
X0085600D02*
X0087200D01*
X0085600Y0094100D02*
Y0097100D01*
Y0094100D02*
X0087200D01*
X0080600Y0095600D02*
X0083600D01*
Y0097200D01*
X0080600D02*
X0083600D01*
X0080600Y0095600D02*
Y0097200D01*
X0082700Y0098500D02*
X0085700D01*
X0082700Y0096900D02*
Y0098500D01*
Y0096900D02*
X0085700D01*
Y0098500D01*
X0077200Y0097800D02*
X0080200D01*
Y0099400D01*
X0077200D02*
X0080200D01*
X0077200Y0097800D02*
Y0099400D01*
X0067900Y0095900D02*
Y0098900D01*
Y0095900D02*
X0069500D01*
Y0098900D01*
X0067900D02*
X0069500D01*
X0087200Y0100100D02*
Y0103100D01*
X0085600D02*
X0087200D01*
X0085600Y0100100D02*
Y0103100D01*
Y0100100D02*
X0087200D01*
X0080600Y0101600D02*
X0083600D01*
Y0103200D01*
X0080600D02*
X0083600D01*
X0080600Y0101600D02*
Y0103200D01*
X0082700Y0104500D02*
X0085700D01*
X0082700Y0102900D02*
Y0104500D01*
Y0102900D02*
X0085700D01*
Y0104500D01*
X0077200Y0103800D02*
X0080200D01*
Y0105400D01*
X0077200D02*
X0080200D01*
X0077200Y0103800D02*
Y0105400D01*
X0067900Y0101900D02*
Y0104900D01*
Y0101900D02*
X0069500D01*
Y0104900D01*
X0067900D02*
X0069500D01*
X0087200Y0139100D02*
Y0142100D01*
X0085600D02*
X0087200D01*
X0085600Y0139100D02*
Y0142100D01*
Y0139100D02*
X0087200D01*
X0080600Y0140600D02*
X0083600D01*
Y0142200D01*
X0080600D02*
X0083600D01*
X0080600Y0140600D02*
Y0142200D01*
X0082700Y0143500D02*
X0085700D01*
X0082700Y0141900D02*
Y0143500D01*
Y0141900D02*
X0085700D01*
Y0143500D01*
X0077200Y0142800D02*
X0080200D01*
Y0144400D01*
X0077200D02*
X0080200D01*
X0077200Y0142800D02*
Y0144400D01*
X0067900Y0140900D02*
Y0143900D01*
Y0140900D02*
X0069500D01*
Y0143900D01*
X0067900D02*
X0069500D01*
X0087200Y0145100D02*
Y0148100D01*
X0085600D02*
X0087200D01*
X0085600Y0145100D02*
Y0148100D01*
Y0145100D02*
X0087200D01*
X0080600Y0146600D02*
X0083600D01*
Y0148200D01*
X0080600D02*
X0083600D01*
X0080600Y0146600D02*
Y0148200D01*
X0082700Y0149500D02*
X0085700D01*
X0082700Y0147900D02*
Y0149500D01*
Y0147900D02*
X0085700D01*
Y0149500D01*
X0077200Y0148800D02*
X0080200D01*
Y0150400D01*
X0077200D02*
X0080200D01*
X0077200Y0148800D02*
Y0150400D01*
X0067900Y0146900D02*
Y0149900D01*
Y0146900D02*
X0069500D01*
Y0149900D01*
X0067900D02*
X0069500D01*
X0087200Y0151100D02*
Y0154100D01*
X0085600D02*
X0087200D01*
X0085600Y0151100D02*
Y0154100D01*
Y0151100D02*
X0087200D01*
X0080600Y0152600D02*
X0083600D01*
Y0154200D01*
X0080600D02*
X0083600D01*
X0080600Y0152600D02*
Y0154200D01*
X0082700Y0155500D02*
X0085700D01*
X0082700Y0153900D02*
Y0155500D01*
Y0153900D02*
X0085700D01*
Y0155500D01*
X0077200Y0154800D02*
X0080200D01*
Y0156400D01*
X0077200D02*
X0080200D01*
X0077200Y0154800D02*
Y0156400D01*
X0067900Y0152900D02*
Y0155900D01*
Y0152900D02*
X0069500D01*
Y0155900D01*
X0067900D02*
X0069500D01*
X0087200Y0157100D02*
Y0160100D01*
X0085600D02*
X0087200D01*
X0085600Y0157100D02*
Y0160100D01*
Y0157100D02*
X0087200D01*
X0080600Y0158600D02*
X0083600D01*
Y0160200D01*
X0080600D02*
X0083600D01*
X0080600Y0158600D02*
Y0160200D01*
X0082700Y0161500D02*
X0085700D01*
X0082700Y0159900D02*
Y0161500D01*
Y0159900D02*
X0085700D01*
Y0161500D01*
X0077200Y0160800D02*
X0080200D01*
Y0162400D01*
X0077200D02*
X0080200D01*
X0077200Y0160800D02*
Y0162400D01*
X0067900Y0158900D02*
Y0161900D01*
Y0158900D02*
X0069500D01*
Y0161900D01*
X0067900D02*
X0069500D01*
X0087200Y0163100D02*
Y0166100D01*
X0085600D02*
X0087200D01*
X0085600Y0163100D02*
Y0166100D01*
Y0163100D02*
X0087200D01*
X0080600Y0164600D02*
X0083600D01*
Y0166200D01*
X0080600D02*
X0083600D01*
X0080600Y0164600D02*
Y0166200D01*
X0082700Y0167500D02*
X0085700D01*
X0082700Y0165900D02*
Y0167500D01*
Y0165900D02*
X0085700D01*
Y0167500D01*
X0077200Y0166800D02*
X0080200D01*
Y0168400D01*
X0077200D02*
X0080200D01*
X0077200Y0166800D02*
Y0168400D01*
X0067900Y0164900D02*
Y0167900D01*
Y0164900D02*
X0069500D01*
Y0167900D01*
X0067900D02*
X0069500D01*
X0154000Y0071300D02*
X0157000D01*
Y0072900D01*
X0154000D02*
X0157000D01*
X0154000Y0071300D02*
Y0072900D01*
X0087100Y0072100D02*
Y0075100D01*
Y0072100D02*
X0088700D01*
Y0075100D01*
X0087100D02*
X0088700D01*
X0077200Y0071600D02*
X0080200D01*
Y0073200D01*
X0077200D02*
X0080200D01*
X0077200Y0071600D02*
Y0073200D01*
X0087100Y0078100D02*
Y0081100D01*
Y0078100D02*
X0088700D01*
Y0081100D01*
X0087100D02*
X0088700D01*
X0077200Y0077600D02*
X0080200D01*
Y0079200D01*
X0077200D02*
X0080200D01*
X0077200Y0077600D02*
Y0079200D01*
X0087100Y0084100D02*
Y0087100D01*
Y0084100D02*
X0088700D01*
Y0087100D01*
X0087100D02*
X0088700D01*
X0077200Y0083600D02*
X0080200D01*
Y0085200D01*
X0077200D02*
X0080200D01*
X0077200Y0083600D02*
Y0085200D01*
X0087100Y0090100D02*
Y0093100D01*
Y0090100D02*
X0088700D01*
Y0093100D01*
X0087100D02*
X0088700D01*
X0077200Y0089600D02*
X0080200D01*
Y0091200D01*
X0077200D02*
X0080200D01*
X0077200Y0089600D02*
Y0091200D01*
X0087100Y0096100D02*
Y0099100D01*
Y0096100D02*
X0088700D01*
Y0099100D01*
X0087100D02*
X0088700D01*
X0077200Y0095600D02*
X0080200D01*
Y0097200D01*
X0077200D02*
X0080200D01*
X0077200Y0095600D02*
Y0097200D01*
X0087100Y0102100D02*
Y0105100D01*
Y0102100D02*
X0088700D01*
Y0105100D01*
X0087100D02*
X0088700D01*
X0077200Y0101600D02*
X0080200D01*
Y0103200D01*
X0077200D02*
X0080200D01*
X0077200Y0101600D02*
Y0103200D01*
X0087100Y0141100D02*
Y0144100D01*
Y0141100D02*
X0088700D01*
Y0144100D01*
X0087100D02*
X0088700D01*
X0077200Y0140600D02*
X0080200D01*
Y0142200D01*
X0077200D02*
X0080200D01*
X0077200Y0140600D02*
Y0142200D01*
X0087100Y0147100D02*
Y0150100D01*
Y0147100D02*
X0088700D01*
Y0150100D01*
X0087100D02*
X0088700D01*
X0077200Y0146600D02*
X0080200D01*
Y0148200D01*
X0077200D02*
X0080200D01*
X0077200Y0146600D02*
Y0148200D01*
X0087100Y0153100D02*
Y0156100D01*
Y0153100D02*
X0088700D01*
Y0156100D01*
X0087100D02*
X0088700D01*
X0077200Y0152600D02*
X0080200D01*
Y0154200D01*
X0077200D02*
X0080200D01*
X0077200Y0152600D02*
Y0154200D01*
X0087100Y0159100D02*
Y0162100D01*
Y0159100D02*
X0088700D01*
Y0162100D01*
X0087100D02*
X0088700D01*
X0077200Y0158600D02*
X0080200D01*
Y0160200D01*
X0077200D02*
X0080200D01*
X0077200Y0158600D02*
Y0160200D01*
X0087100Y0165100D02*
Y0168100D01*
Y0165100D02*
X0088700D01*
Y0168100D01*
X0087100D02*
X0088700D01*
X0077200Y0164600D02*
X0080200D01*
Y0166200D01*
X0077200D02*
X0080200D01*
X0077200Y0164600D02*
Y0166200D01*
X0094200Y0171100D02*
X0097200D01*
Y0172700D01*
X0094200D02*
X0097200D01*
X0094200Y0171100D02*
Y0172700D01*
X0093300Y0163200D02*
X0096300D01*
Y0164800D01*
X0093300D02*
X0096300D01*
X0093300Y0163200D02*
Y0164800D01*
X0073900Y0171625D02*
X0073950D01*
X0073900Y0173425D02*
X0073950D01*
X0076950Y0171625D02*
X0077000D01*
X0076950Y0173425D02*
X0077000D01*
Y0171625D02*
Y0173425D01*
X0073900Y0171625D02*
Y0173425D01*
X0087200Y0169100D02*
Y0172100D01*
X0085600D02*
X0087200D01*
X0085600Y0169100D02*
Y0172100D01*
Y0169100D02*
X0087200D01*
X0080600Y0170600D02*
X0083600D01*
Y0172200D01*
X0080600D02*
X0083600D01*
X0080600Y0170600D02*
Y0172200D01*
X0082700Y0173500D02*
X0085700D01*
X0082700Y0171900D02*
Y0173500D01*
Y0171900D02*
X0085700D01*
Y0173500D01*
X0077200Y0172800D02*
X0080200D01*
Y0174400D01*
X0077200D02*
X0080200D01*
X0077200Y0172800D02*
Y0174400D01*
X0067900Y0170900D02*
Y0173900D01*
Y0170900D02*
X0069500D01*
Y0173900D01*
X0067900D02*
X0069500D01*
X0087100Y0171100D02*
Y0174100D01*
Y0171100D02*
X0088700D01*
Y0174100D01*
X0087100D02*
X0088700D01*
X0077200Y0170600D02*
X0080200D01*
Y0172200D01*
X0077200D02*
X0080200D01*
X0077200Y0170600D02*
Y0172200D01*
X0112900Y0083100D02*
Y0086100D01*
X0111300D02*
X0112900D01*
X0111300Y0083100D02*
Y0086100D01*
Y0083100D02*
X0112900D01*
X0116600Y0085500D02*
Y0088500D01*
X0115000D02*
X0116600D01*
X0115000Y0085500D02*
Y0088500D01*
Y0085500D02*
X0116600D01*
X0105700Y0081200D02*
X0108700D01*
Y0082800D01*
X0105700D02*
X0108700D01*
X0105700Y0081200D02*
Y0082800D01*
X0115000Y0076700D02*
Y0079700D01*
Y0076700D02*
X0116600D01*
Y0079700D01*
X0115000D02*
X0116600D01*
X0111300Y0079000D02*
Y0082000D01*
Y0079000D02*
X0112900D01*
Y0082000D01*
X0111300D02*
X0112900D01*
X0115000Y0116450D02*
Y0119450D01*
Y0116450D02*
X0116600D01*
Y0119450D01*
X0115000D02*
X0116600D01*
X0111300Y0118800D02*
Y0121800D01*
Y0118800D02*
X0112900D01*
Y0121800D01*
X0111300D02*
X0112900D01*
X0105700Y0121000D02*
X0108700D01*
Y0122600D01*
X0105700D02*
X0108700D01*
X0105700Y0121000D02*
Y0122600D01*
X0112900Y0122900D02*
Y0125900D01*
X0111300D02*
X0112900D01*
X0111300Y0122900D02*
Y0125900D01*
Y0122900D02*
X0112900D01*
X0116600Y0125250D02*
Y0128250D01*
X0115000D02*
X0116600D01*
X0115000Y0125250D02*
Y0128250D01*
Y0125250D02*
X0116600D01*
X0115000Y0156150D02*
Y0159150D01*
Y0156150D02*
X0116600D01*
Y0159150D01*
X0115000D02*
X0116600D01*
X0111300Y0158500D02*
Y0161500D01*
Y0158500D02*
X0112900D01*
Y0161500D01*
X0111300D02*
X0112900D01*
X0105700Y0160700D02*
X0108700D01*
Y0162300D01*
X0105700D02*
X0108700D01*
X0105700Y0160700D02*
Y0162300D01*
X0112900Y0162600D02*
Y0165600D01*
X0111300D02*
X0112900D01*
X0111300Y0162600D02*
Y0165600D01*
Y0162600D02*
X0112900D01*
X0116600Y0164950D02*
Y0167950D01*
X0115000D02*
X0116600D01*
X0115000Y0164950D02*
Y0167950D01*
Y0164950D02*
X0116600D01*
X0086400Y0117300D02*
X0089400D01*
X0086400Y0115700D02*
Y0117300D01*
Y0115700D02*
X0089400D01*
Y0117300D01*
X0094600Y0122800D02*
X0097600D01*
X0094600Y0121200D02*
Y0122800D01*
Y0121200D02*
X0097600D01*
Y0122800D01*
X0088150Y0114200D02*
X0091150D01*
X0088150Y0112600D02*
Y0114200D01*
Y0112600D02*
X0091150D01*
Y0114200D01*
X0094200Y0148300D02*
X0097200D01*
Y0149900D01*
X0094200D02*
X0097200D01*
X0094200Y0148300D02*
Y0149900D01*
X0107500Y0156800D02*
X0110500D01*
X0107500Y0155200D02*
Y0156800D01*
Y0155200D02*
X0110500D01*
Y0156800D01*
X0145600Y0125000D02*
X0147200D01*
Y0122000D02*
Y0125000D01*
X0145600Y0122000D02*
X0147200D01*
X0145600D02*
Y0125000D01*
X0149625Y0154125D02*
X0157125D01*
Y0148125D02*
Y0154125D01*
X0149125Y0148125D02*
X0157125D01*
X0149125D02*
Y0153625D01*
X0149625Y0154125D01*
X0104525Y0063500D02*
Y0063550D01*
X0102725Y0063500D02*
Y0063550D01*
X0104525Y0066550D02*
Y0066600D01*
X0102725Y0066550D02*
Y0066600D01*
X0104525D01*
X0102725Y0063500D02*
X0104525D01*
X0110550Y0115325D02*
X0110600D01*
X0110550Y0113525D02*
X0110600D01*
X0107500Y0115325D02*
X0107550D01*
X0107500Y0113525D02*
X0107550D01*
X0107500D02*
Y0115325D01*
X0110600Y0113525D02*
Y0115325D01*
X0112825Y0171500D02*
Y0171550D01*
X0111025Y0171500D02*
Y0171550D01*
X0112825Y0174550D02*
Y0174600D01*
X0111025Y0174550D02*
Y0174600D01*
X0112825D01*
X0111025Y0171500D02*
X0112825D01*
X0095200Y0071100D02*
X0096800D01*
Y0068100D02*
Y0071100D01*
X0095200Y0068100D02*
X0096800D01*
X0095200D02*
Y0071100D01*
X0100700Y0113200D02*
X0102300D01*
X0100700D02*
Y0116200D01*
X0102300D01*
Y0113200D02*
Y0116200D01*
X0107400Y0175900D02*
X0109000D01*
X0107400D02*
Y0178900D01*
X0109000D01*
Y0175900D02*
Y0178900D01*
X0102400Y0068400D02*
X0104000D01*
X0102400D02*
Y0071400D01*
X0104000D01*
Y0068400D02*
Y0071400D01*
X0105700Y0113200D02*
Y0114800D01*
X0102700Y0113200D02*
X0105700D01*
X0102700D02*
Y0114800D01*
X0105700D01*
X0110700Y0176400D02*
X0112300D01*
X0110700D02*
Y0179400D01*
X0112300D01*
Y0176400D02*
Y0179400D01*
X0103900Y0068400D02*
X0105500D01*
X0103900D02*
Y0071400D01*
X0105500D01*
Y0068400D02*
Y0071400D01*
X0112200Y0176400D02*
X0113800D01*
X0112200D02*
Y0179400D01*
X0113800D01*
Y0176400D02*
Y0179400D01*
X0094000Y0080500D02*
X0095600D01*
X0094000D02*
Y0083500D01*
X0095600D01*
Y0080500D02*
Y0083500D01*
X0105800Y0116100D02*
X0107400D01*
Y0113100D02*
Y0116100D01*
X0105800Y0113100D02*
X0107400D01*
X0105800D02*
Y0116100D01*
X0113600Y0174700D02*
Y0176300D01*
X0110600Y0174700D02*
X0113600D01*
X0110600D02*
Y0176300D01*
X0113600D01*
X0147000Y0098200D02*
Y0099800D01*
X0144000Y0098200D02*
X0147000D01*
X0144000D02*
Y0099800D01*
X0147000D01*
X0146900Y0089500D02*
Y0091100D01*
X0143900Y0089500D02*
X0146900D01*
X0143900D02*
Y0091100D01*
X0146900D01*
X0160000Y0094000D02*
X0161600D01*
X0160000D02*
Y0097000D01*
X0161600D01*
Y0094000D02*
Y0097000D01*
X0134900Y0171100D02*
Y0172700D01*
X0131900Y0171100D02*
X0134900D01*
X0131900D02*
Y0172700D01*
X0134900D01*
X0149200Y0125000D02*
X0150800D01*
Y0122000D02*
Y0125000D01*
X0149200Y0122000D02*
X0150800D01*
X0149200D02*
Y0125000D01*
X0150200Y0118600D02*
X0151800D01*
X0150200D02*
Y0121600D01*
X0151800D01*
Y0118600D02*
Y0121600D01*
X0154800Y0120200D02*
Y0121800D01*
X0151800Y0120200D02*
X0154800D01*
X0151800D02*
Y0121800D01*
X0154800D01*
X0147200Y0125000D02*
X0148800D01*
Y0122000D02*
Y0125000D01*
X0147200Y0122000D02*
X0148800D01*
X0147200D02*
Y0125000D01*
X0144900Y0119200D02*
Y0120800D01*
X0147900D01*
Y0119200D02*
Y0120800D01*
X0144900Y0119200D02*
X0147900D01*
X0136400Y0122200D02*
Y0123800D01*
X0133400Y0122200D02*
X0136400D01*
X0133400D02*
Y0123800D01*
X0136400D01*
X0102400Y0075800D02*
Y0077400D01*
X0105400D01*
Y0075800D02*
Y0077400D01*
X0102400Y0075800D02*
X0105400D01*
X0102400Y0098500D02*
Y0100100D01*
X0105400D01*
Y0098500D02*
Y0100100D01*
X0102400Y0098500D02*
X0105400D01*
X0101200Y0076900D02*
X0102800D01*
X0101200D02*
Y0079900D01*
X0102800D01*
Y0076900D02*
Y0079900D01*
X0101200Y0099600D02*
X0102800D01*
X0101200D02*
Y0102600D01*
X0102800D01*
Y0099600D02*
Y0102600D01*
X0101200Y0088200D02*
X0102800D01*
X0101200D02*
Y0091200D01*
X0102800D01*
Y0088200D02*
Y0091200D01*
X0101200Y0144900D02*
X0102800D01*
X0101200D02*
Y0147900D01*
X0102800D01*
Y0144900D02*
Y0147900D01*
X0102400Y0087000D02*
Y0088600D01*
X0105400D01*
Y0087000D02*
Y0088600D01*
X0102400Y0087000D02*
X0105400D01*
X0102400Y0143700D02*
Y0145300D01*
X0105400D01*
Y0143700D02*
Y0145300D01*
X0102400Y0143700D02*
X0105400D01*
X0101200Y0076100D02*
X0102800D01*
Y0073100D02*
Y0076100D01*
X0101200Y0073100D02*
X0102800D01*
X0101200D02*
Y0076100D01*
X0101600Y0098400D02*
Y0100000D01*
X0098600Y0098400D02*
X0101600D01*
X0098600D02*
Y0100000D01*
X0101600D01*
Y0075700D02*
Y0077300D01*
X0098600Y0075700D02*
X0101600D01*
X0098600D02*
Y0077300D01*
X0101600D01*
X0101200Y0098800D02*
X0102800D01*
Y0095800D02*
Y0098800D01*
X0101200Y0095800D02*
X0102800D01*
X0101200D02*
Y0098800D01*
X0101600Y0086900D02*
Y0088500D01*
X0098600Y0086900D02*
X0101600D01*
X0098600D02*
Y0088500D01*
X0101600D01*
Y0143600D02*
Y0145200D01*
X0098600Y0143600D02*
X0101600D01*
X0098600D02*
Y0145200D01*
X0101600D01*
X0101200Y0087300D02*
X0102800D01*
Y0084300D02*
Y0087300D01*
X0101200Y0084300D02*
X0102800D01*
X0101200D02*
Y0087300D01*
Y0144000D02*
X0102800D01*
Y0141000D02*
Y0144000D01*
X0101200Y0141000D02*
X0102800D01*
X0101200D02*
Y0144000D01*
X0160100Y0075700D02*
Y0077300D01*
X0157100Y0075700D02*
X0160100D01*
X0157100D02*
Y0077300D01*
X0160100D01*
X0142000Y0092900D02*
X0143600D01*
Y0089900D02*
Y0092900D01*
X0142000Y0089900D02*
X0143600D01*
X0142000D02*
Y0092900D01*
X0138700Y0091600D02*
X0140300D01*
X0138700D02*
Y0094600D01*
X0140300D01*
Y0091600D02*
Y0094600D01*
X0140400Y0096800D02*
Y0098400D01*
X0143400D01*
Y0096800D02*
Y0098400D01*
X0140400Y0096800D02*
X0143400D01*
X0145300Y0091600D02*
X0146900D01*
X0145300D02*
Y0094600D01*
X0146900D01*
Y0091600D02*
Y0094600D01*
X0143200Y0177100D02*
X0144800D01*
X0143200D02*
Y0180100D01*
X0144800D01*
Y0177100D02*
Y0180100D01*
X0131200Y0181900D02*
Y0183500D01*
X0134200D01*
Y0181900D02*
Y0183500D01*
X0131200Y0181900D02*
X0134200D01*
X0128300Y0179000D02*
X0129900D01*
Y0176000D02*
Y0179000D01*
X0128300Y0176000D02*
X0129900D01*
X0128300D02*
Y0179000D01*
X0130800D02*
X0132400D01*
Y0176000D02*
Y0179000D01*
X0130800Y0176000D02*
X0132400D01*
X0130800D02*
Y0179000D01*
X0140200Y0120200D02*
X0141800D01*
X0140200D02*
Y0123200D01*
X0141800D01*
Y0120200D02*
Y0123200D01*
X0094200Y0091700D02*
Y0093300D01*
X0097200D01*
Y0091700D02*
Y0093300D01*
X0094200Y0091700D02*
X0097200D01*
X0093200Y0095200D02*
Y0096800D01*
X0096200D01*
Y0095200D02*
Y0096800D01*
X0093200Y0095200D02*
X0096200D01*
X0110500Y0086900D02*
Y0088500D01*
X0107500Y0086900D02*
X0110500D01*
X0107500D02*
Y0088500D01*
X0110500D01*
X0093100Y0103000D02*
Y0104600D01*
X0096100D01*
Y0103000D02*
Y0104600D01*
X0093100Y0103000D02*
X0096100D01*
X0110500Y0166400D02*
Y0168000D01*
X0107500Y0166400D02*
X0110500D01*
X0107500D02*
Y0168000D01*
X0110500D01*
X0105600Y0162200D02*
Y0163800D01*
X0102600Y0162200D02*
X0105600D01*
X0102600D02*
Y0163800D01*
X0105600D01*
X0107900Y0090800D02*
Y0092400D01*
X0104900Y0090800D02*
X0107900D01*
X0104900D02*
Y0092400D01*
X0107900D01*
X0105600Y0151000D02*
Y0152600D01*
X0102600Y0151000D02*
X0105600D01*
X0102600D02*
Y0152600D01*
X0105600D01*
X0110700Y0144900D02*
Y0146500D01*
X0107700Y0144900D02*
X0110700D01*
X0107700D02*
Y0146500D01*
X0110700D01*
X0105600Y0082700D02*
Y0084300D01*
X0102600Y0082700D02*
X0105600D01*
X0102600D02*
Y0084300D01*
X0105600D01*
X0153200Y0136600D02*
Y0139600D01*
Y0136600D02*
X0154800D01*
Y0139600D01*
X0153200D02*
X0154800D01*
X0094000Y0160100D02*
X0095600D01*
X0094000D02*
Y0163100D01*
X0095600D01*
Y0160100D02*
Y0163100D01*
X0093200Y0152000D02*
Y0153600D01*
X0096200D01*
Y0152000D02*
Y0153600D01*
X0093200Y0152000D02*
X0096200D01*
X0110500Y0098400D02*
Y0100000D01*
X0107500Y0098400D02*
X0110500D01*
X0107500D02*
Y0100000D01*
X0110500D01*
X0110649Y0077000D02*
Y0078600D01*
X0107649Y0077000D02*
X0110649D01*
X0107649D02*
Y0078600D01*
X0110649D01*
X0093200Y0140400D02*
Y0142000D01*
X0096200D01*
Y0140400D02*
Y0142000D01*
X0093200Y0140400D02*
X0096200D01*
X0110700Y0099700D02*
Y0101300D01*
X0107700Y0099700D02*
X0110700D01*
X0107700D02*
Y0101300D01*
X0110700D01*
X0093200Y0072500D02*
Y0074100D01*
X0096200D01*
Y0072500D02*
Y0074100D01*
X0093200Y0072500D02*
X0096200D01*
X0110700Y0088200D02*
Y0089800D01*
X0107700Y0088200D02*
X0110700D01*
X0107700D02*
Y0089800D01*
X0110700D01*
X0110449Y0075700D02*
Y0077300D01*
X0107449Y0075700D02*
X0110449D01*
X0107449D02*
Y0077300D01*
X0110449D01*
X0105600Y0071500D02*
Y0073100D01*
X0102600Y0071500D02*
X0105600D01*
X0102600D02*
Y0073100D01*
X0105600D01*
X0110700Y0167700D02*
Y0169300D01*
X0107700Y0167700D02*
X0110700D01*
X0107700D02*
Y0169300D01*
X0110700D01*
X0110700Y0156500D02*
Y0158100D01*
X0107700Y0156500D02*
X0110700D01*
X0107700D02*
Y0158100D01*
X0110700D01*
X0107900Y0170300D02*
Y0171900D01*
X0104900Y0170300D02*
X0107900D01*
X0104900D02*
Y0171900D01*
X0107900D01*
Y0165200D02*
Y0166800D01*
X0104900Y0165200D02*
X0107900D01*
X0104900D02*
Y0166800D01*
X0107900D01*
X0110500Y0143600D02*
Y0145200D01*
X0107500Y0143600D02*
X0110500D01*
X0107500D02*
Y0145200D01*
X0110500D01*
X0104900Y0140900D02*
Y0142500D01*
X0107900D01*
Y0140900D02*
Y0142500D01*
X0104900Y0140900D02*
X0107900D01*
Y0102300D02*
Y0103900D01*
X0104900Y0102300D02*
X0107900D01*
X0104900D02*
Y0103900D01*
X0107900D01*
Y0074500D02*
Y0076100D01*
X0104900Y0074500D02*
X0107900D01*
X0104900D02*
Y0076100D01*
X0107900D01*
X0104900Y0073000D02*
Y0074600D01*
X0107900D01*
Y0073000D02*
Y0074600D01*
X0104900Y0073000D02*
X0107900D01*
X0105300Y0066700D02*
Y0068300D01*
X0102300Y0066700D02*
X0105300D01*
X0102300D02*
Y0068300D01*
X0105300D01*
X0157100Y0062300D02*
X0160100D01*
X0157100Y0060700D02*
Y0062300D01*
Y0060700D02*
X0160100D01*
Y0062300D01*
X0105600Y0094200D02*
Y0095800D01*
X0102600Y0094200D02*
X0105600D01*
X0102600D02*
Y0095800D01*
X0105600D01*
X0092500Y0113400D02*
Y0116400D01*
X0090900D02*
X0092500D01*
X0090900Y0113400D02*
Y0116400D01*
Y0113400D02*
X0092500D01*
X0105700Y0114700D02*
Y0116300D01*
X0102700Y0114700D02*
X0105700D01*
X0102700D02*
Y0116300D01*
X0105700D01*
X0107834Y0067433D02*
X0108000Y0067600D01*
X0108333D01*
X0108500Y0067433D01*
Y0066767D01*
X0108333Y0066600D01*
X0108000D01*
X0107834Y0066767D01*
X0106834Y0067600D02*
X0107167Y0067433D01*
X0107500Y0067100D01*
Y0066767D01*
X0107334Y0066600D01*
X0107000D01*
X0106834Y0066767D01*
Y0066933D01*
X0107000Y0067100D01*
X0107500D01*
X0106501Y0067433D02*
X0106334Y0067600D01*
X0106001D01*
X0105834Y0067433D01*
Y0067266D01*
X0106001Y0067100D01*
X0106167D01*
X0106001D01*
X0105834Y0066933D01*
Y0066767D01*
X0106001Y0066600D01*
X0106334D01*
X0106501Y0066767D01*
X0106934Y0173233D02*
X0107100Y0173400D01*
X0107433D01*
X0107600Y0173233D01*
Y0172567D01*
X0107433Y0172400D01*
X0107100D01*
X0106934Y0172567D01*
X0106600Y0172400D02*
X0106267D01*
X0106434D01*
Y0173400D01*
X0106600Y0173233D01*
X0105767D02*
X0105601Y0173400D01*
X0105267D01*
X0105101Y0173233D01*
Y0173066D01*
X0105267Y0172900D01*
X0105434D01*
X0105267D01*
X0105101Y0172733D01*
Y0172567D01*
X0105267Y0172400D01*
X0105601D01*
X0105767Y0172567D01*
X0095334Y0075333D02*
X0095500Y0075500D01*
X0095833D01*
X0096000Y0075333D01*
Y0074667D01*
X0095833Y0074500D01*
X0095500D01*
X0095334Y0074667D01*
X0094500Y0074500D02*
Y0075500D01*
X0095000Y0075000D01*
X0094334D01*
X0093334Y0075500D02*
X0093667Y0075333D01*
X0094001Y0075000D01*
Y0074667D01*
X0093834Y0074500D01*
X0093501D01*
X0093334Y0074667D01*
Y0074833D01*
X0093501Y0075000D01*
X0094001D01*
X0062833Y0109966D02*
X0063000Y0109800D01*
Y0109467D01*
X0062833Y0109300D01*
X0062167D01*
X0062000Y0109467D01*
Y0109800D01*
X0062167Y0109966D01*
X0062000Y0110300D02*
Y0110800D01*
X0062167Y0110966D01*
X0062333Y0110800D01*
Y0110466D01*
X0062500Y0110300D01*
X0062666Y0110466D01*
Y0110966D01*
Y0111299D02*
X0062167D01*
X0062000Y0111466D01*
Y0111966D01*
X0062666D01*
X0061667Y0112299D02*
X0062666D01*
Y0112799D01*
X0062500Y0112965D01*
X0062167D01*
X0062000Y0112799D01*
Y0112299D01*
Y0113965D02*
Y0113299D01*
X0062666Y0113965D01*
X0062833D01*
X0063000Y0113799D01*
Y0113465D01*
X0062833Y0113299D01*
X0062000Y0114298D02*
Y0114632D01*
Y0114465D01*
X0063000D01*
X0062833Y0114298D01*
X0095334Y0143233D02*
X0095500Y0143400D01*
X0095833D01*
X0096000Y0143233D01*
Y0142567D01*
X0095833Y0142400D01*
X0095500D01*
X0095334Y0142567D01*
X0094334Y0142400D02*
X0095000D01*
X0094334Y0143066D01*
Y0143233D01*
X0094500Y0143400D01*
X0094834D01*
X0095000Y0143233D01*
X0094001D02*
X0093834Y0143400D01*
X0093501D01*
X0093334Y0143233D01*
Y0143066D01*
X0093501Y0142900D01*
X0093667D01*
X0093501D01*
X0093334Y0142733D01*
Y0142567D01*
X0093501Y0142400D01*
X0093834D01*
X0094001Y0142567D01*
X0094834Y0154833D02*
X0095000Y0155000D01*
X0095333D01*
X0095500Y0154833D01*
Y0154167D01*
X0095333Y0154000D01*
X0095000D01*
X0094834Y0154167D01*
X0094000Y0154000D02*
Y0155000D01*
X0094500Y0154500D01*
X0093834D01*
X0095467Y0165661D02*
X0095634Y0165827D01*
X0095967D01*
X0096133Y0165661D01*
Y0164994D01*
X0095967Y0164827D01*
X0095634D01*
X0095467Y0164994D01*
X0095134Y0165661D02*
X0094967Y0165827D01*
X0094634D01*
X0094467Y0165661D01*
Y0165494D01*
X0094634Y0165327D01*
X0094801D01*
X0094634D01*
X0094467Y0165161D01*
Y0164994D01*
X0094634Y0164827D01*
X0094967D01*
X0095134Y0164994D01*
X0151600Y0136400D02*
X0152600D01*
Y0136900D01*
X0152433Y0137066D01*
X0152100D01*
X0151933Y0136900D01*
Y0136400D01*
Y0136733D02*
X0151600Y0137066D01*
X0152433Y0138066D02*
X0152600Y0137900D01*
Y0137566D01*
X0152433Y0137400D01*
X0152266D01*
X0152100Y0137566D01*
Y0137900D01*
X0151933Y0138066D01*
X0151767D01*
X0151600Y0137900D01*
Y0137566D01*
X0151767Y0137400D01*
X0152600Y0138399D02*
X0151600D01*
Y0139066D01*
X0152433Y0139399D02*
X0152600Y0139566D01*
Y0139899D01*
X0152433Y0140065D01*
X0152266D01*
X0152100Y0139899D01*
Y0139732D01*
Y0139899D01*
X0151933Y0140065D01*
X0151767D01*
X0151600Y0139899D01*
Y0139566D01*
X0151767Y0139399D01*
X0074634Y0060333D02*
X0074800Y0060500D01*
X0075133D01*
X0075300Y0060333D01*
Y0059667D01*
X0075133Y0059500D01*
X0074800D01*
X0074634Y0059667D01*
X0074300Y0059500D02*
X0073800D01*
X0073634Y0059667D01*
X0073800Y0059833D01*
X0074134D01*
X0074300Y0060000D01*
X0074134Y0060166D01*
X0073634D01*
X0073301D02*
Y0059667D01*
X0073134Y0059500D01*
X0072634D01*
Y0060166D01*
X0072301Y0059167D02*
Y0060166D01*
X0071801D01*
X0071635Y0060000D01*
Y0059667D01*
X0071801Y0059500D01*
X0072301D01*
X0071301Y0059333D02*
X0070635D01*
X0070302Y0059500D02*
X0069968D01*
X0070135D01*
Y0060500D01*
X0070302Y0060333D01*
X0142234Y0084233D02*
X0142400Y0084400D01*
X0142733D01*
X0142900Y0084233D01*
Y0083567D01*
X0142733Y0083400D01*
X0142400D01*
X0142234Y0083567D01*
X0141900Y0083400D02*
X0141400D01*
X0141234Y0083567D01*
X0141400Y0083733D01*
X0141734D01*
X0141900Y0083900D01*
X0141734Y0084066D01*
X0141234D01*
X0140901D02*
Y0083567D01*
X0140734Y0083400D01*
X0140234D01*
Y0084066D01*
X0139901Y0083067D02*
Y0084066D01*
X0139401D01*
X0139235Y0083900D01*
Y0083567D01*
X0139401Y0083400D01*
X0139901D01*
X0138901D02*
X0138568D01*
X0138735D01*
Y0084400D01*
X0138901Y0084233D01*
X0137402Y0083400D02*
X0138068D01*
X0137402Y0084066D01*
Y0084233D01*
X0137568Y0084400D01*
X0137902D01*
X0138068Y0084233D01*
X0142634Y0076333D02*
X0142800Y0076500D01*
X0143133D01*
X0143300Y0076333D01*
Y0075667D01*
X0143133Y0075500D01*
X0142800D01*
X0142634Y0075667D01*
X0142300Y0075500D02*
X0141800D01*
X0141634Y0075667D01*
X0141800Y0075833D01*
X0142134D01*
X0142300Y0076000D01*
X0142134Y0076166D01*
X0141634D01*
X0141301D02*
Y0075667D01*
X0141134Y0075500D01*
X0140634D01*
Y0076166D01*
X0140301Y0075167D02*
Y0076166D01*
X0139801D01*
X0139635Y0076000D01*
Y0075667D01*
X0139801Y0075500D01*
X0140301D01*
X0139301D02*
X0138968D01*
X0139135D01*
Y0076500D01*
X0139301Y0076333D01*
X0138468Y0075500D02*
X0138135D01*
X0138302D01*
Y0076500D01*
X0138468Y0076333D01*
X0096034Y0138033D02*
X0096200Y0138200D01*
X0096533D01*
X0096700Y0138033D01*
Y0137367D01*
X0096533Y0137200D01*
X0096200D01*
X0096034Y0137367D01*
X0095700Y0137200D02*
X0095200D01*
X0095034Y0137367D01*
X0095200Y0137533D01*
X0095534D01*
X0095700Y0137700D01*
X0095534Y0137866D01*
X0095034D01*
X0094701D02*
Y0137367D01*
X0094534Y0137200D01*
X0094034D01*
Y0137866D01*
X0093701Y0136867D02*
Y0137866D01*
X0093201D01*
X0093035Y0137700D01*
Y0137367D01*
X0093201Y0137200D01*
X0093701D01*
X0092701D02*
X0092368D01*
X0092535D01*
Y0138200D01*
X0092701Y0138033D01*
X0091868D02*
X0091702Y0138200D01*
X0091368D01*
X0091202Y0138033D01*
Y0137367D01*
X0091368Y0137200D01*
X0091702D01*
X0091868Y0137367D01*
Y0138033D01*
X0157334Y0084433D02*
X0157500Y0084600D01*
X0157833D01*
X0158000Y0084433D01*
Y0083767D01*
X0157833Y0083600D01*
X0157500D01*
X0157334Y0083767D01*
X0157000Y0083600D02*
X0156500D01*
X0156334Y0083767D01*
X0156500Y0083933D01*
X0156834D01*
X0157000Y0084100D01*
X0156834Y0084266D01*
X0156334D01*
X0156001D02*
Y0083767D01*
X0155834Y0083600D01*
X0155334D01*
Y0084266D01*
X0155001Y0083267D02*
Y0084266D01*
X0154501D01*
X0154335Y0084100D01*
Y0083767D01*
X0154501Y0083600D01*
X0155001D01*
X0154001Y0083767D02*
X0153835Y0083600D01*
X0153501D01*
X0153335Y0083767D01*
Y0084433D01*
X0153501Y0084600D01*
X0153835D01*
X0154001Y0084433D01*
Y0084266D01*
X0153835Y0084100D01*
X0153335D01*
X0094634Y0105733D02*
X0094800Y0105900D01*
X0095133D01*
X0095300Y0105733D01*
Y0105067D01*
X0095133Y0104900D01*
X0094800D01*
X0094634Y0105067D01*
X0093634Y0104900D02*
X0094300D01*
X0093634Y0105566D01*
Y0105733D01*
X0093800Y0105900D01*
X0094134D01*
X0094300Y0105733D01*
X0092801Y0104900D02*
Y0105900D01*
X0093301Y0105400D01*
X0092634D01*
X0095334Y0098033D02*
X0095500Y0098200D01*
X0095833D01*
X0096000Y0098033D01*
Y0097367D01*
X0095833Y0097200D01*
X0095500D01*
X0095334Y0097367D01*
X0094334Y0097200D02*
X0095000D01*
X0094334Y0097866D01*
Y0098033D01*
X0094500Y0098200D01*
X0094834D01*
X0095000Y0098033D01*
X0093334Y0098200D02*
X0094001D01*
Y0097700D01*
X0093667Y0097866D01*
X0093501D01*
X0093334Y0097700D01*
Y0097367D01*
X0093501Y0097200D01*
X0093834D01*
X0094001Y0097367D01*
X0094734Y0094533D02*
X0094900Y0094700D01*
X0095233D01*
X0095400Y0094533D01*
Y0093867D01*
X0095233Y0093700D01*
X0094900D01*
X0094734Y0093867D01*
X0093900Y0093700D02*
Y0094700D01*
X0094400Y0094200D01*
X0093734D01*
X0093401Y0094533D02*
X0093234Y0094700D01*
X0092901D01*
X0092734Y0094533D01*
Y0094366D01*
X0092901Y0094200D01*
X0093067D01*
X0092901D01*
X0092734Y0094033D01*
Y0093867D01*
X0092901Y0093700D01*
X0093234D01*
X0093401Y0093867D01*
X0142533Y0116466D02*
X0142700Y0116300D01*
Y0115967D01*
X0142533Y0115800D01*
X0141867D01*
X0141700Y0115967D01*
Y0116300D01*
X0141867Y0116466D01*
X0141700Y0116800D02*
Y0117133D01*
Y0116966D01*
X0142700D01*
X0142533Y0116800D01*
Y0117633D02*
X0142700Y0117799D01*
Y0118133D01*
X0142533Y0118299D01*
X0141867D01*
X0141700Y0118133D01*
Y0117799D01*
X0141867Y0117633D01*
X0142533D01*
X0141867Y0118632D02*
X0141700Y0118799D01*
Y0119132D01*
X0141867Y0119299D01*
X0142533D01*
X0142700Y0119132D01*
Y0118799D01*
X0142533Y0118632D01*
X0142366D01*
X0142200Y0118799D01*
Y0119299D01*
X0133167Y0178534D02*
X0133000Y0178700D01*
Y0179033D01*
X0133167Y0179200D01*
X0133833D01*
X0134000Y0179033D01*
Y0178700D01*
X0133833Y0178534D01*
X0134000Y0178200D02*
Y0177867D01*
Y0178034D01*
X0133000D01*
X0133167Y0178200D01*
X0134000Y0177367D02*
Y0177034D01*
Y0177201D01*
X0133000D01*
X0133167Y0177367D01*
Y0176534D02*
X0133000Y0176368D01*
Y0176034D01*
X0133167Y0175868D01*
X0133833D01*
X0134000Y0176034D01*
Y0176368D01*
X0133833Y0176534D01*
X0133167D01*
X0126567Y0178034D02*
X0126400Y0178200D01*
Y0178533D01*
X0126567Y0178700D01*
X0127233D01*
X0127400Y0178533D01*
Y0178200D01*
X0127233Y0178034D01*
X0127400Y0177700D02*
Y0177367D01*
Y0177534D01*
X0126400D01*
X0126567Y0177700D01*
X0127400Y0176867D02*
Y0176534D01*
Y0176701D01*
X0126400D01*
X0126567Y0176867D01*
X0127400Y0176034D02*
Y0175701D01*
Y0175868D01*
X0126400D01*
X0126567Y0176034D01*
X0133734Y0181333D02*
X0133900Y0181500D01*
X0134233D01*
X0134400Y0181333D01*
Y0180667D01*
X0134233Y0180500D01*
X0133900D01*
X0133734Y0180667D01*
X0133400Y0180500D02*
X0133067D01*
X0133234D01*
Y0181500D01*
X0133400Y0181333D01*
X0132567Y0180500D02*
X0132234D01*
X0132401D01*
Y0181500D01*
X0132567Y0181333D01*
X0131068Y0180500D02*
X0131734D01*
X0131068Y0181166D01*
Y0181333D01*
X0131234Y0181500D01*
X0131568D01*
X0131734Y0181333D01*
X0142633Y0177666D02*
X0142800Y0177500D01*
Y0177167D01*
X0142633Y0177000D01*
X0141967D01*
X0141800Y0177167D01*
Y0177500D01*
X0141967Y0177666D01*
X0141800Y0178000D02*
Y0178333D01*
Y0178166D01*
X0142800D01*
X0142633Y0178000D01*
X0141800Y0178833D02*
Y0179166D01*
Y0178999D01*
X0142800D01*
X0142633Y0178833D01*
X0141800Y0180166D02*
X0142800D01*
X0142300Y0179666D01*
Y0180332D01*
X0149033Y0092166D02*
X0149200Y0092000D01*
Y0091667D01*
X0149033Y0091500D01*
X0148367D01*
X0148200Y0091667D01*
Y0092000D01*
X0148367Y0092166D01*
X0149200Y0092500D02*
Y0092833D01*
Y0092666D01*
X0148200D01*
Y0092500D01*
Y0092833D01*
X0149200Y0093833D02*
Y0093499D01*
X0149033Y0093333D01*
X0148367D01*
X0148200Y0093499D01*
Y0093833D01*
X0148367Y0093999D01*
X0149033D01*
X0149200Y0093833D01*
X0148200Y0094332D02*
Y0094666D01*
Y0094499D01*
X0149200D01*
X0149033Y0094332D01*
X0142734Y0100433D02*
X0142900Y0100600D01*
X0143233D01*
X0143400Y0100433D01*
Y0099767D01*
X0143233Y0099600D01*
X0142900D01*
X0142734Y0099767D01*
X0142400Y0100600D02*
X0142067D01*
X0142234D01*
Y0099600D01*
X0142400D01*
X0142067D01*
X0141067Y0100600D02*
X0141401D01*
X0141567Y0100433D01*
Y0099767D01*
X0141401Y0099600D01*
X0141067D01*
X0140901Y0099767D01*
Y0100433D01*
X0141067Y0100600D01*
X0139901Y0099600D02*
X0140568D01*
X0139901Y0100266D01*
Y0100433D01*
X0140068Y0100600D01*
X0140401D01*
X0140568Y0100433D01*
X0137333Y0091966D02*
X0137500Y0091800D01*
Y0091467D01*
X0137333Y0091300D01*
X0136667D01*
X0136500Y0091467D01*
Y0091800D01*
X0136667Y0091966D01*
X0137500Y0092300D02*
Y0092633D01*
Y0092466D01*
X0136500D01*
Y0092300D01*
Y0092633D01*
X0137500Y0093633D02*
Y0093299D01*
X0137333Y0093133D01*
X0136667D01*
X0136500Y0093299D01*
Y0093633D01*
X0136667Y0093799D01*
X0137333D01*
X0137500Y0093633D01*
X0137333Y0094132D02*
X0137500Y0094299D01*
Y0094632D01*
X0137333Y0094799D01*
X0137166D01*
X0137000Y0094632D01*
Y0094466D01*
Y0094632D01*
X0136833Y0094799D01*
X0136667D01*
X0136500Y0094632D01*
Y0094299D01*
X0136667Y0094132D01*
X0141233Y0088366D02*
X0141400Y0088200D01*
Y0087867D01*
X0141233Y0087700D01*
X0140567D01*
X0140400Y0087867D01*
Y0088200D01*
X0140567Y0088366D01*
X0141400Y0088700D02*
Y0089033D01*
Y0088866D01*
X0140400D01*
Y0088700D01*
Y0089033D01*
X0141400Y0090033D02*
Y0089699D01*
X0141233Y0089533D01*
X0140567D01*
X0140400Y0089699D01*
Y0090033D01*
X0140567Y0090199D01*
X0141233D01*
X0141400Y0090033D01*
X0140400Y0091032D02*
X0141400D01*
X0140900Y0090532D01*
Y0091199D01*
X0155934Y0076833D02*
X0156100Y0077000D01*
X0156433D01*
X0156600Y0076833D01*
Y0076167D01*
X0156433Y0076000D01*
X0156100D01*
X0155934Y0076167D01*
X0155600Y0076000D02*
X0155100D01*
X0154934Y0076167D01*
X0155100Y0076333D01*
X0155434D01*
X0155600Y0076500D01*
X0155434Y0076666D01*
X0154934D01*
X0154601D02*
Y0076167D01*
X0154434Y0076000D01*
X0153934D01*
Y0076666D01*
X0153601Y0075667D02*
Y0076666D01*
X0153101D01*
X0152935Y0076500D01*
Y0076167D01*
X0153101Y0076000D01*
X0153601D01*
X0152601D02*
X0152268D01*
X0152435D01*
Y0077000D01*
X0152601Y0076833D01*
X0151102Y0077000D02*
X0151768D01*
Y0076500D01*
X0151435Y0076666D01*
X0151268D01*
X0151102Y0076500D01*
Y0076167D01*
X0151268Y0076000D01*
X0151602D01*
X0151768Y0076167D01*
X0131200Y0122200D02*
Y0123200D01*
X0130700D01*
X0130534Y0123033D01*
Y0122700D01*
X0130700Y0122533D01*
X0131200D01*
X0130867D02*
X0130534Y0122200D01*
X0130200D02*
X0129867D01*
X0130034D01*
Y0123200D01*
X0130200Y0123033D01*
X0129367D02*
X0129201Y0123200D01*
X0128867D01*
X0128701Y0123033D01*
Y0122866D01*
X0128867Y0122700D01*
X0129034D01*
X0128867D01*
X0128701Y0122533D01*
Y0122367D01*
X0128867Y0122200D01*
X0129201D01*
X0129367Y0122367D01*
X0128368D02*
X0128201Y0122200D01*
X0127868D01*
X0127701Y0122367D01*
Y0123033D01*
X0127868Y0123200D01*
X0128201D01*
X0128368Y0123033D01*
Y0122866D01*
X0128201Y0122700D01*
X0127701D01*
X0146400Y0117200D02*
Y0118200D01*
X0145900D01*
X0145734Y0118033D01*
Y0117700D01*
X0145900Y0117533D01*
X0146400D01*
X0146067D02*
X0145734Y0117200D01*
X0145400D02*
X0145067D01*
X0145234D01*
Y0118200D01*
X0145400Y0118033D01*
X0144067Y0117200D02*
Y0118200D01*
X0144567Y0117700D01*
X0143901D01*
X0143568Y0117200D02*
X0143234D01*
X0143401D01*
Y0118200D01*
X0143568Y0118033D01*
X0154500Y0123000D02*
X0155500D01*
Y0123500D01*
X0155333Y0123666D01*
X0155000D01*
X0154833Y0123500D01*
Y0123000D01*
Y0123333D02*
X0154500Y0123666D01*
Y0124000D02*
Y0124333D01*
Y0124166D01*
X0155500D01*
X0155333Y0124000D01*
X0154500Y0125333D02*
X0155500D01*
X0155000Y0124833D01*
Y0125499D01*
X0155333Y0125832D02*
X0155500Y0125999D01*
Y0126332D01*
X0155333Y0126499D01*
X0155166D01*
X0155000Y0126332D01*
Y0126166D01*
Y0126332D01*
X0154833Y0126499D01*
X0154667D01*
X0154500Y0126332D01*
Y0125999D01*
X0154667Y0125832D01*
X0158700Y0120400D02*
Y0121400D01*
X0158200D01*
X0158034Y0121233D01*
Y0120900D01*
X0158200Y0120733D01*
X0158700D01*
X0158367D02*
X0158034Y0120400D01*
X0157700D02*
X0157367D01*
X0157534D01*
Y0121400D01*
X0157700Y0121233D01*
X0156367Y0120400D02*
Y0121400D01*
X0156867Y0120900D01*
X0156201D01*
X0155201Y0121400D02*
X0155868D01*
Y0120900D01*
X0155534Y0121066D01*
X0155368D01*
X0155201Y0120900D01*
Y0120567D01*
X0155368Y0120400D01*
X0155701D01*
X0155868Y0120567D01*
X0152500Y0116300D02*
X0153500D01*
Y0116800D01*
X0153333Y0116966D01*
X0153000D01*
X0152833Y0116800D01*
Y0116300D01*
Y0116633D02*
X0152500Y0116966D01*
Y0117300D02*
Y0117633D01*
Y0117466D01*
X0153500D01*
X0153333Y0117300D01*
X0152500Y0118633D02*
X0153500D01*
X0153000Y0118133D01*
Y0118799D01*
X0152500Y0119632D02*
X0153500D01*
X0153000Y0119132D01*
Y0119799D01*
X0156000Y0123000D02*
X0157000D01*
Y0123500D01*
X0156833Y0123666D01*
X0156500D01*
X0156333Y0123500D01*
Y0123000D01*
Y0123333D02*
X0156000Y0123666D01*
Y0124000D02*
Y0124333D01*
Y0124166D01*
X0157000D01*
X0156833Y0124000D01*
X0156000Y0125333D02*
X0157000D01*
X0156500Y0124833D01*
Y0125499D01*
X0156000Y0126499D02*
Y0125832D01*
X0156666Y0126499D01*
X0156833D01*
X0157000Y0126332D01*
Y0125999D01*
X0156833Y0125832D01*
X0135200Y0169700D02*
Y0170700D01*
X0134700D01*
X0134534Y0170533D01*
Y0170200D01*
X0134700Y0170033D01*
X0135200D01*
X0134867D02*
X0134534Y0169700D01*
X0134200D02*
X0133867D01*
X0134034D01*
Y0170700D01*
X0134200Y0170533D01*
X0132867Y0169700D02*
Y0170700D01*
X0133367Y0170200D01*
X0132701D01*
X0131701Y0170700D02*
X0132034Y0170533D01*
X0132368Y0170200D01*
Y0169867D01*
X0132201Y0169700D01*
X0131868D01*
X0131701Y0169867D01*
Y0170033D01*
X0131868Y0170200D01*
X0132368D01*
X0158300Y0094100D02*
X0159300D01*
Y0094600D01*
X0159133Y0094766D01*
X0158800D01*
X0158633Y0094600D01*
Y0094100D01*
Y0094433D02*
X0158300Y0094766D01*
X0159300Y0095766D02*
Y0095100D01*
X0158800D01*
Y0095433D01*
Y0095100D01*
X0158300D01*
X0159300Y0096099D02*
X0158300D01*
Y0096766D01*
Y0097099D02*
Y0097432D01*
Y0097266D01*
X0159300D01*
X0159133Y0097099D01*
X0147500Y0087600D02*
Y0088600D01*
X0147000D01*
X0146834Y0088433D01*
Y0088100D01*
X0147000Y0087933D01*
X0147500D01*
X0147167D02*
X0146834Y0087600D01*
X0145834Y0088600D02*
X0146500D01*
Y0088100D01*
X0146167D01*
X0146500D01*
Y0087600D01*
X0145501Y0088600D02*
Y0087600D01*
X0144834D01*
X0143835D02*
X0144501D01*
X0143835Y0088266D01*
Y0088433D01*
X0144001Y0088600D01*
X0144334D01*
X0144501Y0088433D01*
X0147700Y0100300D02*
Y0101300D01*
X0147200D01*
X0147034Y0101133D01*
Y0100800D01*
X0147200Y0100633D01*
X0147700D01*
X0147367D02*
X0147034Y0100300D01*
X0146034Y0101300D02*
X0146700D01*
Y0100800D01*
X0146367D01*
X0146700D01*
Y0100300D01*
X0145701Y0101300D02*
Y0100300D01*
X0145034D01*
X0144201D02*
Y0101300D01*
X0144701Y0100800D01*
X0144035D01*
X0115834Y0175833D02*
X0116000Y0176000D01*
X0116333D01*
X0116500Y0175833D01*
Y0175167D01*
X0116333Y0175000D01*
X0116000D01*
X0115834Y0175167D01*
X0114834Y0175000D02*
X0115500D01*
X0114834Y0175666D01*
Y0175833D01*
X0115000Y0176000D01*
X0115334D01*
X0115500Y0175833D01*
X0114501Y0175000D02*
X0114167D01*
X0114334D01*
Y0176000D01*
X0114501Y0175833D01*
X0106933Y0117166D02*
X0107100Y0117000D01*
Y0116667D01*
X0106933Y0116500D01*
X0106267D01*
X0106100Y0116667D01*
Y0117000D01*
X0106267Y0117166D01*
X0106100Y0118000D02*
X0107100D01*
X0106600Y0117500D01*
Y0118166D01*
X0106100Y0119166D02*
Y0118499D01*
X0106766Y0119166D01*
X0106933D01*
X0107100Y0118999D01*
Y0118666D01*
X0106933Y0118499D01*
X0093433Y0081266D02*
X0093600Y0081100D01*
Y0080767D01*
X0093433Y0080600D01*
X0092767D01*
X0092600Y0080767D01*
Y0081100D01*
X0092767Y0081266D01*
X0092600Y0082100D02*
X0093600D01*
X0093100Y0081600D01*
Y0082266D01*
X0093600Y0083266D02*
Y0082599D01*
X0093100D01*
X0093266Y0082933D01*
Y0083099D01*
X0093100Y0083266D01*
X0092767D01*
X0092600Y0083099D01*
Y0082766D01*
X0092767Y0082599D01*
X0116200Y0176800D02*
X0117200D01*
Y0177300D01*
X0117033Y0177466D01*
X0116700D01*
X0116533Y0177300D01*
Y0176800D01*
Y0177133D02*
X0116200Y0177466D01*
Y0178300D02*
X0117200D01*
X0116700Y0177800D01*
Y0178466D01*
X0116200Y0178799D02*
Y0179133D01*
Y0178966D01*
X0117200D01*
X0117033Y0178799D01*
X0105500Y0118100D02*
Y0119100D01*
X0105000D01*
X0104834Y0118933D01*
Y0118600D01*
X0105000Y0118433D01*
X0105500D01*
X0105167D02*
X0104834Y0118100D01*
X0104500Y0118933D02*
X0104334Y0119100D01*
X0104000D01*
X0103834Y0118933D01*
Y0118766D01*
X0104000Y0118600D01*
X0103834Y0118433D01*
Y0118267D01*
X0104000Y0118100D01*
X0104334D01*
X0104500Y0118267D01*
Y0118433D01*
X0104334Y0118600D01*
X0104500Y0118766D01*
Y0118933D01*
X0104334Y0118600D02*
X0104000D01*
X0103501Y0119100D02*
X0102834D01*
Y0118933D01*
X0103501Y0118267D01*
Y0118100D01*
X0107700Y0068000D02*
X0108700D01*
Y0068500D01*
X0108533Y0068666D01*
X0108200D01*
X0108033Y0068500D01*
Y0068000D01*
Y0068333D02*
X0107700Y0068666D01*
Y0069000D02*
Y0069333D01*
Y0069166D01*
X0108700D01*
X0108533Y0069000D01*
Y0069833D02*
X0108700Y0069999D01*
Y0070333D01*
X0108533Y0070499D01*
X0108366D01*
X0108200Y0070333D01*
Y0070166D01*
Y0070333D01*
X0108033Y0070499D01*
X0107867D01*
X0107700Y0070333D01*
Y0069999D01*
X0107867Y0069833D01*
X0108533Y0070832D02*
X0108700Y0070999D01*
Y0071332D01*
X0108533Y0071499D01*
X0108366D01*
X0108200Y0071332D01*
Y0071166D01*
Y0071332D01*
X0108033Y0071499D01*
X0107867D01*
X0107700Y0071332D01*
Y0070999D01*
X0107867Y0070832D01*
X0114700Y0176800D02*
X0115700D01*
Y0177300D01*
X0115533Y0177466D01*
X0115200D01*
X0115033Y0177300D01*
Y0176800D01*
Y0177133D02*
X0114700Y0177466D01*
Y0178300D02*
X0115700D01*
X0115200Y0177800D01*
Y0178466D01*
X0114700Y0179466D02*
Y0178799D01*
X0115366Y0179466D01*
X0115533D01*
X0115700Y0179299D01*
Y0178966D01*
X0115533Y0178799D01*
X0105500Y0116700D02*
Y0117700D01*
X0105000D01*
X0104834Y0117533D01*
Y0117200D01*
X0105000Y0117033D01*
X0105500D01*
X0105167D02*
X0104834Y0116700D01*
X0104500Y0117533D02*
X0104334Y0117700D01*
X0104000D01*
X0103834Y0117533D01*
Y0117366D01*
X0104000Y0117200D01*
X0103834Y0117033D01*
Y0116867D01*
X0104000Y0116700D01*
X0104334D01*
X0104500Y0116867D01*
Y0117033D01*
X0104334Y0117200D01*
X0104500Y0117366D01*
Y0117533D01*
X0104334Y0117200D02*
X0104000D01*
X0103501Y0117533D02*
X0103334Y0117700D01*
X0103001D01*
X0102834Y0117533D01*
Y0117366D01*
X0103001Y0117200D01*
X0102834Y0117033D01*
Y0116867D01*
X0103001Y0116700D01*
X0103334D01*
X0103501Y0116867D01*
Y0117033D01*
X0103334Y0117200D01*
X0103501Y0117366D01*
Y0117533D01*
X0103334Y0117200D02*
X0103001D01*
X0106200Y0068000D02*
X0107200D01*
Y0068500D01*
X0107033Y0068666D01*
X0106700D01*
X0106533Y0068500D01*
Y0068000D01*
Y0068333D02*
X0106200Y0068666D01*
Y0069000D02*
Y0069333D01*
Y0069166D01*
X0107200D01*
X0107033Y0069000D01*
Y0069833D02*
X0107200Y0069999D01*
Y0070333D01*
X0107033Y0070499D01*
X0106866D01*
X0106700Y0070333D01*
Y0070166D01*
Y0070333D01*
X0106533Y0070499D01*
X0106367D01*
X0106200Y0070333D01*
Y0069999D01*
X0106367Y0069833D01*
X0106200Y0071332D02*
X0107200D01*
X0106700Y0070832D01*
Y0071499D01*
X0104600Y0176100D02*
X0105600D01*
Y0176600D01*
X0105433Y0176766D01*
X0105100D01*
X0104933Y0176600D01*
Y0176100D01*
Y0176433D02*
X0104600Y0176766D01*
Y0177600D02*
X0105600D01*
X0105100Y0177100D01*
Y0177766D01*
X0105433Y0178099D02*
X0105600Y0178266D01*
Y0178599D01*
X0105433Y0178766D01*
X0105266D01*
X0105100Y0178599D01*
Y0178433D01*
Y0178599D01*
X0104933Y0178766D01*
X0104767D01*
X0104600Y0178599D01*
Y0178266D01*
X0104767Y0178099D01*
X0099200Y0113400D02*
X0100200D01*
Y0113900D01*
X0100033Y0114066D01*
X0099700D01*
X0099533Y0113900D01*
Y0113400D01*
Y0113733D02*
X0099200Y0114066D01*
X0100033Y0114400D02*
X0100200Y0114566D01*
Y0114900D01*
X0100033Y0115066D01*
X0099866D01*
X0099700Y0114900D01*
X0099533Y0115066D01*
X0099367D01*
X0099200Y0114900D01*
Y0114566D01*
X0099367Y0114400D01*
X0099533D01*
X0099700Y0114566D01*
X0099866Y0114400D01*
X0100033D01*
X0099700Y0114566D02*
Y0114900D01*
X0099367Y0115399D02*
X0099200Y0115566D01*
Y0115899D01*
X0099367Y0116066D01*
X0100033D01*
X0100200Y0115899D01*
Y0115566D01*
X0100033Y0115399D01*
X0099866D01*
X0099700Y0115566D01*
Y0116066D01*
X0093700Y0067800D02*
X0094700D01*
Y0068300D01*
X0094533Y0068466D01*
X0094200D01*
X0094033Y0068300D01*
Y0067800D01*
Y0068133D02*
X0093700Y0068466D01*
Y0068800D02*
Y0069133D01*
Y0068966D01*
X0094700D01*
X0094533Y0068800D01*
Y0069633D02*
X0094700Y0069799D01*
Y0070133D01*
X0094533Y0070299D01*
X0094366D01*
X0094200Y0070133D01*
Y0069966D01*
Y0070133D01*
X0094033Y0070299D01*
X0093867D01*
X0093700Y0070133D01*
Y0069799D01*
X0093867Y0069633D01*
X0094700Y0071299D02*
Y0070632D01*
X0094200D01*
X0094366Y0070966D01*
Y0071132D01*
X0094200Y0071299D01*
X0093867D01*
X0093700Y0071132D01*
Y0070799D01*
X0093867Y0070632D01*
X0114000Y0171200D02*
Y0170367D01*
X0113833Y0170200D01*
X0113500D01*
X0113334Y0170367D01*
Y0171200D01*
X0113000Y0170200D02*
X0112500D01*
X0112334Y0170367D01*
X0112500Y0170533D01*
X0112834D01*
X0113000Y0170700D01*
X0112834Y0170866D01*
X0112334D01*
X0112001D02*
Y0170367D01*
X0111834Y0170200D01*
X0111334D01*
Y0170866D01*
X0111001Y0169867D02*
Y0170866D01*
X0110501D01*
X0110335Y0170700D01*
Y0170367D01*
X0110501Y0170200D01*
X0111001D01*
X0110001D02*
X0109668D01*
X0109835D01*
Y0171200D01*
X0110001Y0171033D01*
X0112200Y0112100D02*
X0111367D01*
X0111200Y0112267D01*
Y0112600D01*
X0111367Y0112766D01*
X0112200D01*
X0111200Y0113100D02*
Y0113600D01*
X0111367Y0113766D01*
X0111533Y0113600D01*
Y0113266D01*
X0111700Y0113100D01*
X0111866Y0113266D01*
Y0113766D01*
Y0114099D02*
X0111367D01*
X0111200Y0114266D01*
Y0114766D01*
X0111866D01*
X0110867Y0115099D02*
X0111866D01*
Y0115599D01*
X0111700Y0115765D01*
X0111367D01*
X0111200Y0115599D01*
Y0115099D01*
Y0116765D02*
Y0116099D01*
X0111866Y0116765D01*
X0112033D01*
X0112200Y0116599D01*
Y0116265D01*
X0112033Y0116099D01*
X0105800Y0062800D02*
Y0061967D01*
X0105633Y0061800D01*
X0105300D01*
X0105134Y0061967D01*
Y0062800D01*
X0104800Y0061800D02*
X0104300D01*
X0104134Y0061967D01*
X0104300Y0062133D01*
X0104634D01*
X0104800Y0062300D01*
X0104634Y0062466D01*
X0104134D01*
X0103801D02*
Y0061967D01*
X0103634Y0061800D01*
X0103134D01*
Y0062466D01*
X0102801Y0061467D02*
Y0062466D01*
X0102301D01*
X0102135Y0062300D01*
Y0061967D01*
X0102301Y0061800D01*
X0102801D01*
X0101801Y0062633D02*
X0101635Y0062800D01*
X0101301D01*
X0101135Y0062633D01*
Y0062466D01*
X0101301Y0062300D01*
X0101468D01*
X0101301D01*
X0101135Y0062133D01*
Y0061967D01*
X0101301Y0061800D01*
X0101635D01*
X0101801Y0061967D01*
X0155500Y0154700D02*
Y0155700D01*
X0155000D01*
X0154834Y0155533D01*
Y0155200D01*
X0155000Y0155033D01*
X0155500D01*
X0155167D02*
X0154834Y0154700D01*
X0154500D02*
Y0155366D01*
X0154167Y0155700D01*
X0153834Y0155366D01*
Y0154700D01*
Y0155200D01*
X0154500D01*
X0153501Y0154700D02*
Y0155700D01*
X0153167Y0155366D01*
X0152834Y0155700D01*
Y0154700D01*
X0152501Y0154533D02*
X0151835D01*
X0151501Y0154700D02*
X0151168D01*
X0151335D01*
Y0155700D01*
X0151501Y0155533D01*
X0153000Y0123000D02*
X0154000D01*
Y0123500D01*
X0153833Y0123666D01*
X0153500D01*
X0153333Y0123500D01*
Y0123000D01*
Y0123333D02*
X0153000Y0123666D01*
Y0124000D02*
Y0124333D01*
Y0124166D01*
X0154000D01*
X0153833Y0124000D01*
X0153000Y0125333D02*
X0154000D01*
X0153500Y0124833D01*
Y0125499D01*
X0153833Y0125832D02*
X0154000Y0125999D01*
Y0126332D01*
X0153833Y0126499D01*
X0153167D01*
X0153000Y0126332D01*
Y0125999D01*
X0153167Y0125832D01*
X0153833D01*
X0134500Y0133200D02*
X0135500D01*
Y0133700D01*
X0135333Y0133866D01*
X0135000D01*
X0134833Y0133700D01*
Y0133200D01*
Y0133533D02*
X0134500Y0133866D01*
X0135333Y0134200D02*
X0135500Y0134366D01*
Y0134700D01*
X0135333Y0134866D01*
X0135166D01*
X0135000Y0134700D01*
Y0134533D01*
Y0134700D01*
X0134833Y0134866D01*
X0134667D01*
X0134500Y0134700D01*
Y0134366D01*
X0134667Y0134200D01*
Y0135199D02*
X0134500Y0135366D01*
Y0135699D01*
X0134667Y0135866D01*
X0135333D01*
X0135500Y0135699D01*
Y0135366D01*
X0135333Y0135199D01*
X0135166D01*
X0135000Y0135366D01*
Y0135866D01*
X0131200Y0123600D02*
Y0124600D01*
X0130700D01*
X0130534Y0124433D01*
Y0124100D01*
X0130700Y0123933D01*
X0131200D01*
X0130867D02*
X0130534Y0123600D01*
X0130200Y0124433D02*
X0130034Y0124600D01*
X0129700D01*
X0129534Y0124433D01*
Y0124266D01*
X0129700Y0124100D01*
X0129534Y0123933D01*
Y0123767D01*
X0129700Y0123600D01*
X0130034D01*
X0130200Y0123767D01*
Y0123933D01*
X0130034Y0124100D01*
X0130200Y0124266D01*
Y0124433D01*
X0130034Y0124100D02*
X0129700D01*
X0128534Y0124600D02*
X0129201D01*
Y0124100D01*
X0128867Y0124266D01*
X0128701D01*
X0128534Y0124100D01*
Y0123767D01*
X0128701Y0123600D01*
X0129034D01*
X0129201Y0123767D01*
X0096434Y0151133D02*
X0096600Y0151300D01*
X0096933D01*
X0097100Y0151133D01*
Y0150467D01*
X0096933Y0150300D01*
X0096600D01*
X0096434Y0150467D01*
X0095434Y0150300D02*
X0096100D01*
X0095434Y0150966D01*
Y0151133D01*
X0095600Y0151300D01*
X0095934D01*
X0096100Y0151133D01*
X0094434Y0150300D02*
X0095101D01*
X0094434Y0150966D01*
Y0151133D01*
X0094601Y0151300D01*
X0094934D01*
X0095101Y0151133D01*
X0091334Y0112033D02*
X0091500Y0112200D01*
X0091833D01*
X0092000Y0112033D01*
Y0111367D01*
X0091833Y0111200D01*
X0091500D01*
X0091334Y0111367D01*
X0090334Y0111866D02*
X0090834D01*
X0091000Y0111700D01*
Y0111367D01*
X0090834Y0111200D01*
X0090334D01*
X0090001D02*
X0089667D01*
X0089834D01*
Y0112200D01*
X0090001D01*
X0089168Y0111200D02*
Y0112200D01*
Y0111533D02*
X0088668Y0111866D01*
X0089168Y0111533D02*
X0088668Y0111200D01*
X0087501D02*
X0088168D01*
X0087501Y0111866D01*
Y0112033D01*
X0087668Y0112200D01*
X0088001D01*
X0088168Y0112033D01*
X0097634Y0124133D02*
X0097800Y0124300D01*
X0098133D01*
X0098300Y0124133D01*
Y0123467D01*
X0098133Y0123300D01*
X0097800D01*
X0097634Y0123467D01*
X0096634Y0123966D02*
X0097134D01*
X0097300Y0123800D01*
Y0123467D01*
X0097134Y0123300D01*
X0096634D01*
X0096301D02*
X0095967D01*
X0096134D01*
Y0124300D01*
X0096301D01*
X0095468Y0123300D02*
Y0124300D01*
Y0123633D02*
X0094968Y0123966D01*
X0095468Y0123633D02*
X0094968Y0123300D01*
X0093968D02*
Y0124300D01*
X0094468Y0123800D01*
X0093801D01*
X0091534Y0118533D02*
X0091700Y0118700D01*
X0092033D01*
X0092200Y0118533D01*
Y0117867D01*
X0092033Y0117700D01*
X0091700D01*
X0091534Y0117867D01*
X0090534Y0118366D02*
X0091034D01*
X0091200Y0118200D01*
Y0117867D01*
X0091034Y0117700D01*
X0090534D01*
X0090201D02*
X0089867D01*
X0090034D01*
Y0118700D01*
X0090201D01*
X0089368Y0117700D02*
Y0118700D01*
Y0118033D02*
X0088868Y0118366D01*
X0089368Y0118033D02*
X0088868Y0117700D01*
X0087701Y0118700D02*
X0088368D01*
Y0118200D01*
X0088035Y0118366D01*
X0087868D01*
X0087701Y0118200D01*
Y0117867D01*
X0087868Y0117700D01*
X0088201D01*
X0088368Y0117867D01*
X0120333Y0165966D02*
X0120500Y0165800D01*
Y0165467D01*
X0120333Y0165300D01*
X0119667D01*
X0119500Y0165467D01*
Y0165800D01*
X0119667Y0165966D01*
X0120166Y0166300D02*
X0119667D01*
X0119500Y0166466D01*
Y0166966D01*
X0120166D01*
X0119667Y0167299D02*
X0119500Y0167466D01*
Y0167799D01*
X0119667Y0167966D01*
X0120333D01*
X0120500Y0167799D01*
Y0167466D01*
X0120333Y0167299D01*
X0120166D01*
X0120000Y0167466D01*
Y0167966D01*
X0113933Y0166566D02*
X0114100Y0166400D01*
Y0166067D01*
X0113933Y0165900D01*
X0113267D01*
X0113100Y0166067D01*
Y0166400D01*
X0113267Y0166566D01*
X0113766Y0166900D02*
X0113267D01*
X0113100Y0167066D01*
Y0167566D01*
X0113766D01*
X0113100Y0167899D02*
Y0168233D01*
Y0168066D01*
X0114100D01*
X0113933Y0167899D01*
Y0168732D02*
X0114100Y0168899D01*
Y0169232D01*
X0113933Y0169399D01*
X0113267D01*
X0113100Y0169232D01*
Y0168899D01*
X0113267Y0168732D01*
X0113933D01*
X0114033Y0155666D02*
X0114200Y0155500D01*
Y0155167D01*
X0114033Y0155000D01*
X0113367D01*
X0113200Y0155167D01*
Y0155500D01*
X0113367Y0155666D01*
X0113866Y0156000D02*
X0113367D01*
X0113200Y0156166D01*
Y0156666D01*
X0113866D01*
X0113200Y0156999D02*
Y0157333D01*
Y0157166D01*
X0114200D01*
X0114033Y0156999D01*
X0113200Y0158499D02*
Y0157832D01*
X0113866Y0158499D01*
X0114033D01*
X0114200Y0158332D01*
Y0157999D01*
X0114033Y0157832D01*
X0116133Y0152866D02*
X0116300Y0152700D01*
Y0152367D01*
X0116133Y0152200D01*
X0115467D01*
X0115300Y0152367D01*
Y0152700D01*
X0115467Y0152866D01*
X0115966Y0153200D02*
X0115467D01*
X0115300Y0153366D01*
Y0153866D01*
X0115966D01*
X0115300Y0154199D02*
Y0154533D01*
Y0154366D01*
X0116300D01*
X0116133Y0154199D01*
Y0155032D02*
X0116300Y0155199D01*
Y0155532D01*
X0116133Y0155699D01*
X0115966D01*
X0115800Y0155532D01*
Y0155366D01*
Y0155532D01*
X0115633Y0155699D01*
X0115467D01*
X0115300Y0155532D01*
Y0155199D01*
X0115467Y0155032D01*
X0116033Y0129366D02*
X0116200Y0129200D01*
Y0128867D01*
X0116033Y0128700D01*
X0115367D01*
X0115200Y0128867D01*
Y0129200D01*
X0115367Y0129366D01*
X0115866Y0129700D02*
X0115367D01*
X0115200Y0129866D01*
Y0130366D01*
X0115866D01*
X0115200Y0131366D02*
Y0130699D01*
X0115866Y0131366D01*
X0116033D01*
X0116200Y0131199D01*
Y0130866D01*
X0116033Y0130699D01*
X0116200Y0132365D02*
Y0131699D01*
X0115700D01*
X0115866Y0132032D01*
Y0132199D01*
X0115700Y0132365D01*
X0115367D01*
X0115200Y0132199D01*
Y0131866D01*
X0115367Y0131699D01*
X0113733Y0127066D02*
X0113900Y0126900D01*
Y0126567D01*
X0113733Y0126400D01*
X0113067D01*
X0112900Y0126567D01*
Y0126900D01*
X0113067Y0127066D01*
X0113566Y0127400D02*
X0113067D01*
X0112900Y0127566D01*
Y0128066D01*
X0113566D01*
X0112900Y0129066D02*
Y0128399D01*
X0113566Y0129066D01*
X0113733D01*
X0113900Y0128899D01*
Y0128566D01*
X0113733Y0128399D01*
X0113900Y0130065D02*
X0113733Y0129732D01*
X0113400Y0129399D01*
X0113067D01*
X0112900Y0129566D01*
Y0129899D01*
X0113067Y0130065D01*
X0113233D01*
X0113400Y0129899D01*
Y0129399D01*
X0106934Y0123933D02*
X0107100Y0124100D01*
X0107433D01*
X0107600Y0123933D01*
Y0123267D01*
X0107433Y0123100D01*
X0107100D01*
X0106934Y0123267D01*
X0106600Y0123766D02*
Y0123267D01*
X0106434Y0123100D01*
X0105934D01*
Y0123766D01*
X0104934Y0123100D02*
X0105601D01*
X0104934Y0123766D01*
Y0123933D01*
X0105101Y0124100D01*
X0105434D01*
X0105601Y0123933D01*
X0104601Y0124100D02*
X0103935D01*
Y0123933D01*
X0104601Y0123267D01*
Y0123100D01*
X0113733Y0115366D02*
X0113900Y0115200D01*
Y0114867D01*
X0113733Y0114700D01*
X0113067D01*
X0112900Y0114867D01*
Y0115200D01*
X0113067Y0115366D01*
X0113566Y0115700D02*
X0113067D01*
X0112900Y0115866D01*
Y0116366D01*
X0113566D01*
X0112900Y0117366D02*
Y0116699D01*
X0113566Y0117366D01*
X0113733D01*
X0113900Y0117199D01*
Y0116866D01*
X0113733Y0116699D01*
Y0117699D02*
X0113900Y0117866D01*
Y0118199D01*
X0113733Y0118365D01*
X0113566D01*
X0113400Y0118199D01*
X0113233Y0118365D01*
X0113067D01*
X0112900Y0118199D01*
Y0117866D01*
X0113067Y0117699D01*
X0113233D01*
X0113400Y0117866D01*
X0113566Y0117699D01*
X0113733D01*
X0113400Y0117866D02*
Y0118199D01*
X0120133Y0115866D02*
X0120300Y0115700D01*
Y0115367D01*
X0120133Y0115200D01*
X0119467D01*
X0119300Y0115367D01*
Y0115700D01*
X0119467Y0115866D01*
X0119966Y0116200D02*
X0119467D01*
X0119300Y0116366D01*
Y0116866D01*
X0119966D01*
X0119300Y0117866D02*
Y0117199D01*
X0119966Y0117866D01*
X0120133D01*
X0120300Y0117699D01*
Y0117366D01*
X0120133Y0117199D01*
X0119467Y0118199D02*
X0119300Y0118366D01*
Y0118699D01*
X0119467Y0118865D01*
X0120133D01*
X0120300Y0118699D01*
Y0118366D01*
X0120133Y0118199D01*
X0119966D01*
X0119800Y0118366D01*
Y0118865D01*
X0114033Y0076466D02*
X0114200Y0076300D01*
Y0075967D01*
X0114033Y0075800D01*
X0113367D01*
X0113200Y0075967D01*
Y0076300D01*
X0113367Y0076466D01*
X0113866Y0076800D02*
X0113367D01*
X0113200Y0076966D01*
Y0077466D01*
X0113866D01*
X0113200Y0078299D02*
X0114200D01*
X0113700Y0077799D01*
Y0078466D01*
X0113200Y0078799D02*
Y0079132D01*
Y0078966D01*
X0114200D01*
X0114033Y0078799D01*
X0116233Y0073166D02*
X0116400Y0073000D01*
Y0072667D01*
X0116233Y0072500D01*
X0115567D01*
X0115400Y0072667D01*
Y0073000D01*
X0115567Y0073166D01*
X0116066Y0073500D02*
X0115567D01*
X0115400Y0073666D01*
Y0074166D01*
X0116066D01*
X0115400Y0074999D02*
X0116400D01*
X0115900Y0074499D01*
Y0075166D01*
X0115400Y0076165D02*
Y0075499D01*
X0116066Y0076165D01*
X0116233D01*
X0116400Y0075999D01*
Y0075666D01*
X0116233Y0075499D01*
X0116333Y0089566D02*
X0116500Y0089400D01*
Y0089067D01*
X0116333Y0088900D01*
X0115667D01*
X0115500Y0089067D01*
Y0089400D01*
X0115667Y0089566D01*
X0116166Y0089900D02*
X0115667D01*
X0115500Y0090066D01*
Y0090566D01*
X0116166D01*
X0115500Y0091399D02*
X0116500D01*
X0116000Y0090899D01*
Y0091566D01*
X0115500Y0092399D02*
X0116500D01*
X0116000Y0091899D01*
Y0092565D01*
X0113833Y0087066D02*
X0114000Y0086900D01*
Y0086567D01*
X0113833Y0086400D01*
X0113167D01*
X0113000Y0086567D01*
Y0086900D01*
X0113167Y0087066D01*
X0113666Y0087400D02*
X0113167D01*
X0113000Y0087566D01*
Y0088066D01*
X0113666D01*
X0113000Y0088899D02*
X0114000D01*
X0113500Y0088399D01*
Y0089066D01*
X0114000Y0090065D02*
Y0089399D01*
X0113500D01*
X0113666Y0089732D01*
Y0089899D01*
X0113500Y0090065D01*
X0113167D01*
X0113000Y0089899D01*
Y0089566D01*
X0113167Y0089399D01*
X0066200Y0170900D02*
X0067200D01*
Y0171400D01*
X0067033Y0171566D01*
X0066700D01*
X0066533Y0171400D01*
Y0170900D01*
Y0171233D02*
X0066200Y0171566D01*
Y0171900D02*
Y0172400D01*
X0066367Y0172566D01*
X0066533Y0172400D01*
Y0172066D01*
X0066700Y0171900D01*
X0066866Y0172066D01*
Y0172566D01*
X0067200Y0172899D02*
X0066200D01*
X0066700D01*
X0066866Y0173066D01*
Y0173399D01*
X0066700Y0173566D01*
X0066200D01*
Y0173899D02*
Y0174232D01*
Y0174066D01*
X0067200D01*
X0067033Y0173899D01*
X0072766Y0170700D02*
X0071933D01*
X0071766Y0170867D01*
Y0171200D01*
X0071933Y0171366D01*
X0072766D01*
X0071766Y0171700D02*
Y0172200D01*
X0071933Y0172366D01*
X0072100Y0172200D01*
Y0171866D01*
X0072266Y0171700D01*
X0072433Y0171866D01*
Y0172366D01*
X0072766Y0172699D02*
X0071766D01*
X0072266D01*
X0072433Y0172866D01*
Y0173199D01*
X0072266Y0173366D01*
X0071766D01*
Y0173699D02*
Y0174032D01*
Y0173866D01*
X0072766D01*
X0072599Y0173699D01*
X0093716Y0160817D02*
X0093549Y0160651D01*
X0093216D01*
X0093049Y0160817D01*
Y0161484D01*
X0093216Y0161650D01*
X0093549D01*
X0093716Y0161484D01*
X0094715Y0161650D02*
X0094049D01*
X0094715Y0160984D01*
Y0160817D01*
X0094549Y0160651D01*
X0094215D01*
X0094049Y0160817D01*
X0094616Y0168717D02*
X0094449Y0168551D01*
X0094116D01*
X0093949Y0168717D01*
Y0169384D01*
X0094116Y0169551D01*
X0094449D01*
X0094616Y0169384D01*
X0094949Y0169551D02*
X0095282D01*
X0095115D01*
Y0168551D01*
X0094949Y0168717D01*
X0160534Y0060133D02*
X0160700Y0060300D01*
X0161033D01*
X0161200Y0060133D01*
Y0059467D01*
X0161033Y0059300D01*
X0160700D01*
X0160534Y0059467D01*
X0160200Y0059300D02*
X0159700D01*
X0159534Y0059467D01*
X0159700Y0059633D01*
X0160034D01*
X0160200Y0059800D01*
X0160034Y0059966D01*
X0159534D01*
X0159201D02*
Y0059467D01*
X0159034Y0059300D01*
X0158534D01*
Y0059966D01*
X0158201Y0058967D02*
Y0059966D01*
X0157701D01*
X0157535Y0059800D01*
Y0059467D01*
X0157701Y0059300D01*
X0158201D01*
X0157201D02*
X0156868D01*
X0157035D01*
Y0060300D01*
X0157201Y0060133D01*
X0156368D02*
X0156202Y0060300D01*
X0155868D01*
X0155702Y0060133D01*
Y0059966D01*
X0155868Y0059800D01*
X0156035D01*
X0155868D01*
X0155702Y0059633D01*
Y0059467D01*
X0155868Y0059300D01*
X0156202D01*
X0156368Y0059467D01*
X0157600Y0073900D02*
Y0074900D01*
X0157100D01*
X0156934Y0074733D01*
Y0074400D01*
X0157100Y0074233D01*
X0157600D01*
X0157267D02*
X0156934Y0073900D01*
X0156600Y0074566D02*
Y0073900D01*
Y0074233D01*
X0156434Y0074400D01*
X0156267Y0074566D01*
X0156100D01*
X0155101Y0073900D02*
X0155434D01*
X0155601Y0074067D01*
Y0074400D01*
X0155434Y0074566D01*
X0155101D01*
X0154934Y0074400D01*
Y0074233D01*
X0155601D01*
X0154434Y0073900D02*
Y0074733D01*
Y0074400D01*
X0154601D01*
X0154268D01*
X0154434D01*
Y0074733D01*
X0154268Y0074900D01*
X0153101D02*
X0153768D01*
Y0074400D01*
X0153435Y0074566D01*
X0153268D01*
X0153101Y0074400D01*
Y0074067D01*
X0153268Y0073900D01*
X0153601D01*
X0153768Y0074067D01*
X0066200Y0164900D02*
X0067200D01*
Y0165400D01*
X0067033Y0165566D01*
X0066700D01*
X0066533Y0165400D01*
Y0164900D01*
Y0165233D02*
X0066200Y0165566D01*
Y0165900D02*
Y0166400D01*
X0066367Y0166566D01*
X0066533Y0166400D01*
Y0166066D01*
X0066700Y0165900D01*
X0066866Y0166066D01*
Y0166566D01*
X0067200Y0166899D02*
X0066200D01*
X0066700D01*
X0066866Y0167066D01*
Y0167399D01*
X0066700Y0167566D01*
X0066200D01*
Y0167899D02*
Y0168232D01*
Y0168066D01*
X0067200D01*
X0067033Y0167899D01*
X0067200Y0168732D02*
Y0169399D01*
X0067033D01*
X0066367Y0168732D01*
X0066200D01*
Y0158900D02*
X0067200D01*
Y0159400D01*
X0067033Y0159566D01*
X0066700D01*
X0066533Y0159400D01*
Y0158900D01*
Y0159233D02*
X0066200Y0159566D01*
Y0159900D02*
Y0160400D01*
X0066367Y0160566D01*
X0066533Y0160400D01*
Y0160066D01*
X0066700Y0159900D01*
X0066866Y0160066D01*
Y0160566D01*
X0067200Y0160899D02*
X0066200D01*
X0066700D01*
X0066866Y0161066D01*
Y0161399D01*
X0066700Y0161566D01*
X0066200D01*
X0067033Y0161899D02*
X0067200Y0162066D01*
Y0162399D01*
X0067033Y0162565D01*
X0066866D01*
X0066700Y0162399D01*
Y0162232D01*
Y0162399D01*
X0066533Y0162565D01*
X0066367D01*
X0066200Y0162399D01*
Y0162066D01*
X0066367Y0161899D01*
X0067033Y0162899D02*
X0067200Y0163065D01*
Y0163399D01*
X0067033Y0163565D01*
X0066866D01*
X0066700Y0163399D01*
Y0163232D01*
Y0163399D01*
X0066533Y0163565D01*
X0066367D01*
X0066200Y0163399D01*
Y0163065D01*
X0066367Y0162899D01*
X0066200Y0152900D02*
X0067200D01*
Y0153400D01*
X0067033Y0153566D01*
X0066700D01*
X0066533Y0153400D01*
Y0152900D01*
Y0153233D02*
X0066200Y0153566D01*
Y0153900D02*
Y0154400D01*
X0066367Y0154566D01*
X0066533Y0154400D01*
Y0154066D01*
X0066700Y0153900D01*
X0066866Y0154066D01*
Y0154566D01*
X0067200Y0154899D02*
X0066200D01*
X0066700D01*
X0066866Y0155066D01*
Y0155399D01*
X0066700Y0155566D01*
X0066200D01*
Y0156399D02*
X0067200D01*
X0066700Y0155899D01*
Y0156565D01*
X0066367Y0156899D02*
X0066200Y0157065D01*
Y0157399D01*
X0066367Y0157565D01*
X0067033D01*
X0067200Y0157399D01*
Y0157065D01*
X0067033Y0156899D01*
X0066866D01*
X0066700Y0157065D01*
Y0157565D01*
X0066200Y0146900D02*
X0067200D01*
Y0147400D01*
X0067033Y0147566D01*
X0066700D01*
X0066533Y0147400D01*
Y0146900D01*
Y0147233D02*
X0066200Y0147566D01*
Y0147900D02*
Y0148400D01*
X0066367Y0148566D01*
X0066533Y0148400D01*
Y0148066D01*
X0066700Y0147900D01*
X0066866Y0148066D01*
Y0148566D01*
X0067200Y0148899D02*
X0066200D01*
X0066700D01*
X0066866Y0149066D01*
Y0149399D01*
X0066700Y0149566D01*
X0066200D01*
X0067200Y0150565D02*
X0067033Y0150232D01*
X0066700Y0149899D01*
X0066367D01*
X0066200Y0150066D01*
Y0150399D01*
X0066367Y0150565D01*
X0066533D01*
X0066700Y0150399D01*
Y0149899D01*
X0067200Y0151565D02*
Y0150899D01*
X0066700D01*
X0066866Y0151232D01*
Y0151399D01*
X0066700Y0151565D01*
X0066367D01*
X0066200Y0151399D01*
Y0151065D01*
X0066367Y0150899D01*
X0066200Y0140900D02*
X0067200D01*
Y0141400D01*
X0067033Y0141566D01*
X0066700D01*
X0066533Y0141400D01*
Y0140900D01*
Y0141233D02*
X0066200Y0141566D01*
Y0141900D02*
Y0142400D01*
X0066367Y0142566D01*
X0066533Y0142400D01*
Y0142066D01*
X0066700Y0141900D01*
X0066866Y0142066D01*
Y0142566D01*
X0067200Y0142899D02*
X0066200D01*
X0066700D01*
X0066866Y0143066D01*
Y0143399D01*
X0066700Y0143566D01*
X0066200D01*
X0067033Y0143899D02*
X0067200Y0144066D01*
Y0144399D01*
X0067033Y0144565D01*
X0066866D01*
X0066700Y0144399D01*
X0066533Y0144565D01*
X0066367D01*
X0066200Y0144399D01*
Y0144066D01*
X0066367Y0143899D01*
X0066533D01*
X0066700Y0144066D01*
X0066866Y0143899D01*
X0067033D01*
X0066700Y0144066D02*
Y0144399D01*
X0066200Y0144899D02*
Y0145232D01*
Y0145065D01*
X0067200D01*
X0067033Y0144899D01*
X0066200Y0101200D02*
X0067200D01*
Y0101700D01*
X0067033Y0101866D01*
X0066700D01*
X0066533Y0101700D01*
Y0101200D01*
Y0101533D02*
X0066200Y0101866D01*
Y0102200D02*
Y0102700D01*
X0066367Y0102866D01*
X0066533Y0102700D01*
Y0102366D01*
X0066700Y0102200D01*
X0066866Y0102366D01*
Y0102866D01*
X0067200Y0103199D02*
X0066200D01*
X0066700D01*
X0066866Y0103366D01*
Y0103699D01*
X0066700Y0103866D01*
X0066200D01*
X0066367Y0104199D02*
X0066200Y0104366D01*
Y0104699D01*
X0066367Y0104865D01*
X0067033D01*
X0067200Y0104699D01*
Y0104366D01*
X0067033Y0104199D01*
X0066866D01*
X0066700Y0104366D01*
Y0104865D01*
X0067200Y0105199D02*
Y0105865D01*
X0067033D01*
X0066367Y0105199D01*
X0066200D01*
Y0095000D02*
X0067200D01*
Y0095500D01*
X0067033Y0095666D01*
X0066700D01*
X0066533Y0095500D01*
Y0095000D01*
Y0095333D02*
X0066200Y0095666D01*
Y0096000D02*
Y0096500D01*
X0066367Y0096666D01*
X0066533Y0096500D01*
Y0096166D01*
X0066700Y0096000D01*
X0066866Y0096166D01*
Y0096666D01*
X0067200Y0096999D02*
X0066200D01*
X0066700D01*
X0066866Y0097166D01*
Y0097499D01*
X0066700Y0097666D01*
X0066200D01*
Y0097999D02*
Y0098332D01*
Y0098166D01*
X0067200D01*
X0067033Y0097999D01*
X0066200Y0098832D02*
Y0099165D01*
Y0098999D01*
X0067200D01*
X0067033Y0098832D01*
Y0099665D02*
X0067200Y0099832D01*
Y0100165D01*
X0067033Y0100332D01*
X0066866D01*
X0066700Y0100165D01*
Y0099998D01*
Y0100165D01*
X0066533Y0100332D01*
X0066367D01*
X0066200Y0100165D01*
Y0099832D01*
X0066367Y0099665D01*
X0066200Y0088700D02*
X0067200D01*
Y0089200D01*
X0067033Y0089366D01*
X0066700D01*
X0066533Y0089200D01*
Y0088700D01*
Y0089033D02*
X0066200Y0089366D01*
Y0089700D02*
Y0090200D01*
X0066367Y0090366D01*
X0066533Y0090200D01*
Y0089866D01*
X0066700Y0089700D01*
X0066866Y0089866D01*
Y0090366D01*
X0067200Y0090699D02*
X0066200D01*
X0066700D01*
X0066866Y0090866D01*
Y0091199D01*
X0066700Y0091366D01*
X0066200D01*
Y0091699D02*
Y0092032D01*
Y0091866D01*
X0067200D01*
X0067033Y0091699D01*
X0066200Y0093199D02*
Y0092532D01*
X0066866Y0093199D01*
X0067033D01*
X0067200Y0093032D01*
Y0092699D01*
X0067033Y0092532D01*
X0066367Y0093532D02*
X0066200Y0093698D01*
Y0094032D01*
X0066367Y0094198D01*
X0067033D01*
X0067200Y0094032D01*
Y0093698D01*
X0067033Y0093532D01*
X0066866D01*
X0066700Y0093698D01*
Y0094198D01*
X0066200Y0082700D02*
X0067200D01*
Y0083200D01*
X0067033Y0083366D01*
X0066700D01*
X0066533Y0083200D01*
Y0082700D01*
Y0083033D02*
X0066200Y0083366D01*
Y0083700D02*
Y0084200D01*
X0066367Y0084366D01*
X0066533Y0084200D01*
Y0083866D01*
X0066700Y0083700D01*
X0066866Y0083866D01*
Y0084366D01*
X0067200Y0084699D02*
X0066200D01*
X0066700D01*
X0066866Y0084866D01*
Y0085199D01*
X0066700Y0085366D01*
X0066200D01*
Y0085699D02*
Y0086032D01*
Y0085866D01*
X0067200D01*
X0067033Y0085699D01*
X0066200Y0087032D02*
X0067200D01*
X0066700Y0086532D01*
Y0087199D01*
X0067200Y0088198D02*
Y0087532D01*
X0066700D01*
X0066866Y0087865D01*
Y0088032D01*
X0066700Y0088198D01*
X0066367D01*
X0066200Y0088032D01*
Y0087698D01*
X0066367Y0087532D01*
X0066200Y0076700D02*
X0067200D01*
Y0077200D01*
X0067033Y0077366D01*
X0066700D01*
X0066533Y0077200D01*
Y0076700D01*
Y0077033D02*
X0066200Y0077366D01*
Y0077700D02*
Y0078200D01*
X0066367Y0078366D01*
X0066533Y0078200D01*
Y0077866D01*
X0066700Y0077700D01*
X0066866Y0077866D01*
Y0078366D01*
X0067200Y0078699D02*
X0066200D01*
X0066700D01*
X0066866Y0078866D01*
Y0079199D01*
X0066700Y0079366D01*
X0066200D01*
Y0079699D02*
Y0080032D01*
Y0079866D01*
X0067200D01*
X0067033Y0079699D01*
X0067200Y0081199D02*
X0067033Y0080865D01*
X0066700Y0080532D01*
X0066367D01*
X0066200Y0080699D01*
Y0081032D01*
X0066367Y0081199D01*
X0066533D01*
X0066700Y0081032D01*
Y0080532D01*
X0066200Y0081532D02*
Y0081865D01*
Y0081698D01*
X0067200D01*
X0067033Y0081532D01*
X0066200Y0070600D02*
X0067200D01*
Y0071100D01*
X0067033Y0071266D01*
X0066700D01*
X0066533Y0071100D01*
Y0070600D01*
Y0070933D02*
X0066200Y0071266D01*
Y0071600D02*
Y0072100D01*
X0066367Y0072266D01*
X0066533Y0072100D01*
Y0071766D01*
X0066700Y0071600D01*
X0066866Y0071766D01*
Y0072266D01*
X0067200Y0072599D02*
X0066200D01*
X0066700D01*
X0066866Y0072766D01*
Y0073099D01*
X0066700Y0073266D01*
X0066200D01*
Y0073599D02*
Y0073932D01*
Y0073766D01*
X0067200D01*
X0067033Y0073599D01*
X0067200Y0074432D02*
Y0075099D01*
X0067033D01*
X0066367Y0074432D01*
X0066200D01*
X0067200Y0075432D02*
Y0076098D01*
X0067033D01*
X0066367Y0075432D01*
X0066200D01*
X0072700Y0164700D02*
X0071867D01*
X0071700Y0164867D01*
Y0165200D01*
X0071867Y0165366D01*
X0072700D01*
X0071700Y0165700D02*
Y0166200D01*
X0071867Y0166366D01*
X0072033Y0166200D01*
Y0165866D01*
X0072200Y0165700D01*
X0072366Y0165866D01*
Y0166366D01*
X0072700Y0166699D02*
X0071700D01*
X0072200D01*
X0072366Y0166866D01*
Y0167199D01*
X0072200Y0167366D01*
X0071700D01*
X0072533Y0167699D02*
X0072700Y0167866D01*
Y0168199D01*
X0072533Y0168365D01*
X0072366D01*
X0072200Y0168199D01*
Y0168032D01*
Y0168199D01*
X0072033Y0168365D01*
X0071867D01*
X0071700Y0168199D01*
Y0167866D01*
X0071867Y0167699D01*
X0072700Y0158700D02*
X0071867D01*
X0071700Y0158867D01*
Y0159200D01*
X0071867Y0159366D01*
X0072700D01*
X0071700Y0159700D02*
Y0160200D01*
X0071867Y0160366D01*
X0072033Y0160200D01*
Y0159866D01*
X0072200Y0159700D01*
X0072366Y0159866D01*
Y0160366D01*
X0072700Y0160699D02*
X0071700D01*
X0072200D01*
X0072366Y0160866D01*
Y0161199D01*
X0072200Y0161366D01*
X0071700D01*
X0072700Y0162365D02*
Y0161699D01*
X0072200D01*
X0072366Y0162032D01*
Y0162199D01*
X0072200Y0162365D01*
X0071867D01*
X0071700Y0162199D01*
Y0161866D01*
X0071867Y0161699D01*
X0072700Y0152700D02*
X0071867D01*
X0071700Y0152867D01*
Y0153200D01*
X0071867Y0153366D01*
X0072700D01*
X0071700Y0153700D02*
Y0154200D01*
X0071867Y0154366D01*
X0072033Y0154200D01*
Y0153866D01*
X0072200Y0153700D01*
X0072366Y0153866D01*
Y0154366D01*
X0072700Y0154699D02*
X0071700D01*
X0072200D01*
X0072366Y0154866D01*
Y0155199D01*
X0072200Y0155366D01*
X0071700D01*
X0072700Y0155699D02*
Y0156365D01*
X0072533D01*
X0071867Y0155699D01*
X0071700D01*
X0072700Y0146700D02*
X0071867D01*
X0071700Y0146867D01*
Y0147200D01*
X0071867Y0147366D01*
X0072700D01*
X0071700Y0147700D02*
Y0148200D01*
X0071867Y0148366D01*
X0072033Y0148200D01*
Y0147866D01*
X0072200Y0147700D01*
X0072366Y0147866D01*
Y0148366D01*
X0072700Y0148699D02*
X0071700D01*
X0072200D01*
X0072366Y0148866D01*
Y0149199D01*
X0072200Y0149366D01*
X0071700D01*
X0071867Y0149699D02*
X0071700Y0149866D01*
Y0150199D01*
X0071867Y0150365D01*
X0072533D01*
X0072700Y0150199D01*
Y0149866D01*
X0072533Y0149699D01*
X0072366D01*
X0072200Y0149866D01*
Y0150365D01*
X0072700Y0140500D02*
X0071867D01*
X0071700Y0140667D01*
Y0141000D01*
X0071867Y0141166D01*
X0072700D01*
X0071700Y0141500D02*
Y0142000D01*
X0071867Y0142166D01*
X0072033Y0142000D01*
Y0141666D01*
X0072200Y0141500D01*
X0072366Y0141666D01*
Y0142166D01*
X0072700Y0142499D02*
X0071700D01*
X0072200D01*
X0072366Y0142666D01*
Y0142999D01*
X0072200Y0143166D01*
X0071700D01*
Y0143499D02*
Y0143832D01*
Y0143666D01*
X0072700D01*
X0072533Y0143499D01*
X0071700Y0144332D02*
Y0144665D01*
Y0144499D01*
X0072700D01*
X0072533Y0144332D01*
X0072800Y0101200D02*
X0071967D01*
X0071800Y0101367D01*
Y0101700D01*
X0071967Y0101866D01*
X0072800D01*
X0071800Y0102200D02*
Y0102700D01*
X0071967Y0102866D01*
X0072133Y0102700D01*
Y0102366D01*
X0072300Y0102200D01*
X0072466Y0102366D01*
Y0102866D01*
X0072800Y0103199D02*
X0071800D01*
X0072300D01*
X0072466Y0103366D01*
Y0103699D01*
X0072300Y0103866D01*
X0071800D01*
Y0104199D02*
Y0104532D01*
Y0104366D01*
X0072800D01*
X0072633Y0104199D01*
Y0105032D02*
X0072800Y0105199D01*
Y0105532D01*
X0072633Y0105699D01*
X0072466D01*
X0072300Y0105532D01*
Y0105365D01*
Y0105532D01*
X0072133Y0105699D01*
X0071967D01*
X0071800Y0105532D01*
Y0105199D01*
X0071967Y0105032D01*
X0072800Y0095100D02*
X0071967D01*
X0071800Y0095267D01*
Y0095600D01*
X0071967Y0095766D01*
X0072800D01*
X0071800Y0096100D02*
Y0096600D01*
X0071967Y0096766D01*
X0072133Y0096600D01*
Y0096266D01*
X0072300Y0096100D01*
X0072466Y0096266D01*
Y0096766D01*
X0072800Y0097099D02*
X0071800D01*
X0072300D01*
X0072466Y0097266D01*
Y0097599D01*
X0072300Y0097766D01*
X0071800D01*
Y0098099D02*
Y0098432D01*
Y0098266D01*
X0072800D01*
X0072633Y0098099D01*
X0072800Y0099599D02*
Y0098932D01*
X0072300D01*
X0072466Y0099265D01*
Y0099432D01*
X0072300Y0099599D01*
X0071967D01*
X0071800Y0099432D01*
Y0099099D01*
X0071967Y0098932D01*
X0072800Y0089100D02*
X0071967D01*
X0071800Y0089267D01*
Y0089600D01*
X0071967Y0089766D01*
X0072800D01*
X0071800Y0090100D02*
Y0090600D01*
X0071967Y0090766D01*
X0072133Y0090600D01*
Y0090266D01*
X0072300Y0090100D01*
X0072466Y0090266D01*
Y0090766D01*
X0072800Y0091099D02*
X0071800D01*
X0072300D01*
X0072466Y0091266D01*
Y0091599D01*
X0072300Y0091766D01*
X0071800D01*
Y0092099D02*
Y0092432D01*
Y0092266D01*
X0072800D01*
X0072633Y0092099D01*
X0072800Y0092932D02*
Y0093599D01*
X0072633D01*
X0071967Y0092932D01*
X0071800D01*
X0072800Y0083100D02*
X0071967D01*
X0071800Y0083267D01*
Y0083600D01*
X0071967Y0083766D01*
X0072800D01*
X0071800Y0084100D02*
Y0084600D01*
X0071967Y0084766D01*
X0072133Y0084600D01*
Y0084266D01*
X0072300Y0084100D01*
X0072466Y0084266D01*
Y0084766D01*
X0072800Y0085099D02*
X0071800D01*
X0072300D01*
X0072466Y0085266D01*
Y0085599D01*
X0072300Y0085766D01*
X0071800D01*
Y0086099D02*
Y0086432D01*
Y0086266D01*
X0072800D01*
X0072633Y0086099D01*
X0071967Y0086932D02*
X0071800Y0087099D01*
Y0087432D01*
X0071967Y0087599D01*
X0072633D01*
X0072800Y0087432D01*
Y0087099D01*
X0072633Y0086932D01*
X0072466D01*
X0072300Y0087099D01*
Y0087599D01*
X0072800Y0077300D02*
X0071967D01*
X0071800Y0077467D01*
Y0077800D01*
X0071967Y0077966D01*
X0072800D01*
X0071800Y0078300D02*
Y0078800D01*
X0071967Y0078966D01*
X0072133Y0078800D01*
Y0078466D01*
X0072300Y0078300D01*
X0072466Y0078466D01*
Y0078966D01*
X0072800Y0079299D02*
X0071800D01*
X0072300D01*
X0072466Y0079466D01*
Y0079799D01*
X0072300Y0079966D01*
X0071800D01*
Y0080965D02*
Y0080299D01*
X0072466Y0080965D01*
X0072633D01*
X0072800Y0080799D01*
Y0080466D01*
X0072633Y0080299D01*
X0071800Y0081299D02*
Y0081632D01*
Y0081465D01*
X0072800D01*
X0072633Y0081299D01*
X0072800Y0070800D02*
X0071967D01*
X0071800Y0070967D01*
Y0071300D01*
X0071967Y0071466D01*
X0072800D01*
X0071800Y0071800D02*
Y0072300D01*
X0071967Y0072466D01*
X0072133Y0072300D01*
Y0071966D01*
X0072300Y0071800D01*
X0072466Y0071966D01*
Y0072466D01*
X0072800Y0072799D02*
X0071800D01*
X0072300D01*
X0072466Y0072966D01*
Y0073299D01*
X0072300Y0073466D01*
X0071800D01*
Y0074465D02*
Y0073799D01*
X0072466Y0074465D01*
X0072633D01*
X0072800Y0074299D01*
Y0073966D01*
X0072633Y0073799D01*
Y0074799D02*
X0072800Y0074965D01*
Y0075299D01*
X0072633Y0075465D01*
X0072466D01*
X0072300Y0075299D01*
Y0075132D01*
Y0075299D01*
X0072133Y0075465D01*
X0071967D01*
X0071800Y0075299D01*
Y0074965D01*
X0071967Y0074799D01*
X0095334Y0086533D02*
X0095500Y0086700D01*
X0095833D01*
X0096000Y0086533D01*
Y0085867D01*
X0095833Y0085700D01*
X0095500D01*
X0095334Y0085867D01*
X0094500Y0085700D02*
Y0086700D01*
X0095000Y0086200D01*
X0094334D01*
X0093501Y0085700D02*
Y0086700D01*
X0094001Y0086200D01*
X0093334D01*
X0121833Y0165966D02*
X0122000Y0165800D01*
Y0165467D01*
X0121833Y0165300D01*
X0121167D01*
X0121000Y0165467D01*
Y0165800D01*
X0121167Y0165966D01*
X0121666Y0166300D02*
X0121167D01*
X0121000Y0166466D01*
Y0166966D01*
X0121666D01*
X0121000Y0167299D02*
Y0167633D01*
Y0167466D01*
X0122000D01*
X0121833Y0167299D01*
X0121000Y0168632D02*
X0122000D01*
X0121500Y0168132D01*
Y0168799D01*
X0126334Y0161833D02*
X0126500Y0162000D01*
X0126833D01*
X0127000Y0161833D01*
Y0161167D01*
X0126833Y0161000D01*
X0126500D01*
X0126334Y0161167D01*
X0126000Y0161666D02*
Y0161167D01*
X0125834Y0161000D01*
X0125334D01*
Y0161666D01*
X0125001Y0161000D02*
X0124667D01*
X0124834D01*
Y0162000D01*
X0125001Y0161833D01*
X0123501Y0162000D02*
X0124168D01*
Y0161500D01*
X0123834Y0161666D01*
X0123668D01*
X0123501Y0161500D01*
Y0161167D01*
X0123668Y0161000D01*
X0124001D01*
X0124168Y0161167D01*
X0120133Y0155666D02*
X0120300Y0155500D01*
Y0155167D01*
X0120133Y0155000D01*
X0119467D01*
X0119300Y0155167D01*
Y0155500D01*
X0119467Y0155666D01*
X0119966Y0156000D02*
X0119467D01*
X0119300Y0156166D01*
Y0156666D01*
X0119966D01*
X0119300Y0156999D02*
Y0157333D01*
Y0157166D01*
X0120300D01*
X0120133Y0156999D01*
X0120300Y0158499D02*
X0120133Y0158166D01*
X0119800Y0157832D01*
X0119467D01*
X0119300Y0157999D01*
Y0158332D01*
X0119467Y0158499D01*
X0119633D01*
X0119800Y0158332D01*
Y0157832D01*
X0120033Y0126666D02*
X0120200Y0126500D01*
Y0126167D01*
X0120033Y0126000D01*
X0119367D01*
X0119200Y0126167D01*
Y0126500D01*
X0119367Y0126666D01*
X0119866Y0127000D02*
X0119367D01*
X0119200Y0127166D01*
Y0127666D01*
X0119866D01*
X0120033Y0127999D02*
X0120200Y0128166D01*
Y0128499D01*
X0120033Y0128666D01*
X0119866D01*
X0119700Y0128499D01*
Y0128333D01*
Y0128499D01*
X0119533Y0128666D01*
X0119367D01*
X0119200Y0128499D01*
Y0128166D01*
X0119367Y0127999D01*
X0120033Y0128999D02*
X0120200Y0129166D01*
Y0129499D01*
X0120033Y0129665D01*
X0119367D01*
X0119200Y0129499D01*
Y0129166D01*
X0119367Y0128999D01*
X0120033D01*
X0121633Y0115866D02*
X0121800Y0115700D01*
Y0115367D01*
X0121633Y0115200D01*
X0120967D01*
X0120800Y0115367D01*
Y0115700D01*
X0120967Y0115866D01*
X0121466Y0116200D02*
X0120967D01*
X0120800Y0116366D01*
Y0116866D01*
X0121466D01*
X0121633Y0117199D02*
X0121800Y0117366D01*
Y0117699D01*
X0121633Y0117866D01*
X0121466D01*
X0121300Y0117699D01*
Y0117533D01*
Y0117699D01*
X0121133Y0117866D01*
X0120967D01*
X0120800Y0117699D01*
Y0117366D01*
X0120967Y0117199D01*
X0120800Y0118199D02*
Y0118532D01*
Y0118366D01*
X0121800D01*
X0121633Y0118199D01*
X0122834Y0120333D02*
X0123000Y0120500D01*
X0123333D01*
X0123500Y0120333D01*
Y0119667D01*
X0123333Y0119500D01*
X0123000D01*
X0122834Y0119667D01*
X0122500Y0120166D02*
Y0119667D01*
X0122334Y0119500D01*
X0121834D01*
Y0120166D01*
X0121501Y0120333D02*
X0121334Y0120500D01*
X0121001D01*
X0120834Y0120333D01*
Y0120166D01*
X0121001Y0120000D01*
X0121167D01*
X0121001D01*
X0120834Y0119833D01*
Y0119667D01*
X0121001Y0119500D01*
X0121334D01*
X0121501Y0119667D01*
X0119835Y0119500D02*
X0120501D01*
X0119835Y0120166D01*
Y0120333D01*
X0120001Y0120500D01*
X0120334D01*
X0120501Y0120333D01*
X0120233Y0075966D02*
X0120400Y0075800D01*
Y0075467D01*
X0120233Y0075300D01*
X0119567D01*
X0119400Y0075467D01*
Y0075800D01*
X0119567Y0075966D01*
X0120066Y0076300D02*
X0119567D01*
X0119400Y0076466D01*
Y0076966D01*
X0120066D01*
X0119400Y0077799D02*
X0120400D01*
X0119900Y0077299D01*
Y0077966D01*
X0120400Y0078965D02*
X0120233Y0078632D01*
X0119900Y0078299D01*
X0119567D01*
X0119400Y0078466D01*
Y0078799D01*
X0119567Y0078965D01*
X0119733D01*
X0119900Y0078799D01*
Y0078299D01*
X0120333Y0086866D02*
X0120500Y0086700D01*
Y0086367D01*
X0120333Y0086200D01*
X0119667D01*
X0119500Y0086367D01*
Y0086700D01*
X0119667Y0086866D01*
X0120166Y0087200D02*
X0119667D01*
X0119500Y0087366D01*
Y0087866D01*
X0120166D01*
X0119500Y0088699D02*
X0120500D01*
X0120000Y0088199D01*
Y0088866D01*
X0120500Y0089199D02*
Y0089865D01*
X0120333D01*
X0119667Y0089199D01*
X0119500D01*
X0123034Y0080533D02*
X0123200Y0080700D01*
X0123533D01*
X0123700Y0080533D01*
Y0079867D01*
X0123533Y0079700D01*
X0123200D01*
X0123034Y0079867D01*
X0122700Y0080366D02*
Y0079867D01*
X0122534Y0079700D01*
X0122034D01*
Y0080366D01*
X0121201Y0079700D02*
Y0080700D01*
X0121701Y0080200D01*
X0121034D01*
X0120701Y0080533D02*
X0120534Y0080700D01*
X0120201D01*
X0120035Y0080533D01*
Y0080366D01*
X0120201Y0080200D01*
X0120035Y0080033D01*
Y0079867D01*
X0120201Y0079700D01*
X0120534D01*
X0120701Y0079867D01*
Y0080033D01*
X0120534Y0080200D01*
X0120701Y0080366D01*
Y0080533D01*
X0120534Y0080200D02*
X0120201D01*
X0106000Y0176100D02*
X0107000D01*
Y0176600D01*
X0106833Y0176766D01*
X0106500D01*
X0106333Y0176600D01*
Y0176100D01*
Y0176433D02*
X0106000Y0176766D01*
Y0177600D02*
X0107000D01*
X0106500Y0177100D01*
Y0177766D01*
X0107000Y0178766D02*
X0106833Y0178433D01*
X0106500Y0178099D01*
X0106167D01*
X0106000Y0178266D01*
Y0178599D01*
X0106167Y0178766D01*
X0106333D01*
X0106500Y0178599D01*
Y0178099D01*
X0101300Y0068200D02*
Y0069200D01*
X0100800D01*
X0100634Y0069033D01*
Y0068700D01*
X0100800Y0068533D01*
X0101300D01*
X0100967D02*
X0100634Y0068200D01*
X0100300D02*
X0099967D01*
X0100134D01*
Y0069200D01*
X0100300Y0069033D01*
X0099467D02*
X0099301Y0069200D01*
X0098967D01*
X0098801Y0069033D01*
Y0068866D01*
X0098967Y0068700D01*
X0099134D01*
X0098967D01*
X0098801Y0068533D01*
Y0068367D01*
X0098967Y0068200D01*
X0099301D01*
X0099467Y0068367D01*
X0098468Y0069033D02*
X0098301Y0069200D01*
X0097968D01*
X0097801Y0069033D01*
Y0068866D01*
X0097968Y0068700D01*
X0097801Y0068533D01*
Y0068367D01*
X0097968Y0068200D01*
X0098301D01*
X0098468Y0068367D01*
Y0068533D01*
X0098301Y0068700D01*
X0098468Y0068866D01*
Y0069033D01*
X0098301Y0068700D02*
X0097968D01*
X0103700Y0110200D02*
Y0111200D01*
X0103200D01*
X0103034Y0111033D01*
Y0110700D01*
X0103200Y0110533D01*
X0103700D01*
X0103367D02*
X0103034Y0110200D01*
X0102700Y0110367D02*
X0102534Y0110200D01*
X0102200D01*
X0102034Y0110367D01*
Y0111033D01*
X0102200Y0111200D01*
X0102534D01*
X0102700Y0111033D01*
Y0110866D01*
X0102534Y0110700D01*
X0102034D01*
X0101034Y0110200D02*
X0101701D01*
X0101034Y0110866D01*
Y0111033D01*
X0101201Y0111200D01*
X0101534D01*
X0101701Y0111033D01*
X0093933Y0113466D02*
X0094100Y0113300D01*
Y0112967D01*
X0093933Y0112800D01*
X0093267D01*
X0093100Y0112967D01*
Y0113300D01*
X0093267Y0113466D01*
X0093766Y0114466D02*
Y0113966D01*
X0093600Y0113800D01*
X0093267D01*
X0093100Y0113966D01*
Y0114466D01*
Y0114799D02*
Y0115133D01*
Y0114966D01*
X0094100D01*
Y0114799D01*
X0093100Y0115632D02*
X0094100D01*
X0093433D02*
X0093766Y0116132D01*
X0093433Y0115632D02*
X0093100Y0116132D01*
X0093933Y0116632D02*
X0094100Y0116799D01*
Y0117132D01*
X0093933Y0117299D01*
X0093766D01*
X0093600Y0117132D01*
Y0116965D01*
Y0117132D01*
X0093433Y0117299D01*
X0093267D01*
X0093100Y0117132D01*
Y0116799D01*
X0093267Y0116632D01*
G54D11*
X0147728Y0065105D02*
X0147474Y0065359D01*
Y0065867D01*
X0147728Y0066121D01*
X0148743D01*
X0148997Y0065867D01*
Y0065359D01*
X0148743Y0065105D01*
X0148997Y0064597D02*
Y0063836D01*
X0148743Y0063582D01*
X0148489Y0063836D01*
Y0064343D01*
X0148235Y0064597D01*
X0147981Y0064343D01*
Y0063582D01*
Y0063074D02*
X0148743D01*
X0148997Y0062820D01*
Y0062058D01*
X0147981D01*
X0149505Y0061550D02*
X0147981D01*
Y0060789D01*
X0148235Y0060535D01*
X0148743D01*
X0148997Y0060789D01*
Y0061550D01*
X0147474Y0060027D02*
Y0059011D01*
X0147728D01*
X0148743Y0060027D01*
X0148997D01*
G54D154*
X0157468Y0063492D02*
Y0064508D01*
X0156960Y0064000D02*
X0157976D01*
X0158484Y0061714D02*
Y0066286D01*
X0158738Y0061714D02*
Y0066286D01*
X0158992Y0061714D02*
Y0066286D01*
X0159246Y0061714D02*
Y0066286D01*
X0151626Y0065270D02*
X0151880D01*
X0151626Y0062730D02*
Y0065270D01*
Y0062730D02*
X0151880D01*
X0159500D02*
X0159754D01*
Y0065270D01*
X0159500D02*
X0159754D01*
X0151880Y0061714D02*
X0159500D01*
X0151880D02*
Y0066286D01*
X0159500D01*
Y0061714D02*
Y0066286D01*
X0157468Y0079992D02*
Y0081008D01*
X0156960Y0080500D02*
X0157976D01*
X0158484Y0078214D02*
Y0082786D01*
X0158738Y0078214D02*
Y0082786D01*
X0158992Y0078214D02*
Y0082786D01*
X0159246Y0078214D02*
Y0082786D01*
X0151626Y0081770D02*
X0151880D01*
X0151626Y0079230D02*
Y0081770D01*
Y0079230D02*
X0151880D01*
X0159500D02*
X0159754D01*
Y0081770D01*
X0159500D02*
X0159754D01*
X0151880Y0078214D02*
X0159500D01*
X0151880D02*
Y0082786D01*
X0159500D01*
Y0078214D02*
Y0082786D01*
X0095468Y0133792D02*
Y0134808D01*
X0094960Y0134300D02*
X0095976D01*
X0096484Y0132014D02*
Y0136586D01*
X0096738Y0132014D02*
Y0136586D01*
X0096992Y0132014D02*
Y0136586D01*
X0097246Y0132014D02*
Y0136586D01*
X0089626Y0135570D02*
X0089880D01*
X0089626Y0133030D02*
Y0135570D01*
Y0133030D02*
X0089880D01*
X0097500D02*
X0097754D01*
Y0135570D01*
X0097500D02*
X0097754D01*
X0089880Y0132014D02*
X0097500D01*
X0089880D02*
Y0136586D01*
X0097500D01*
Y0132014D02*
Y0136586D01*
X0138532Y0071992D02*
Y0073008D01*
X0138024Y0072500D02*
X0139040D01*
X0137516Y0070214D02*
Y0074786D01*
X0137262Y0070214D02*
Y0074786D01*
X0137008Y0070214D02*
Y0074786D01*
X0136754Y0070214D02*
Y0074786D01*
X0144120Y0071230D02*
X0144374D01*
Y0073770D01*
X0144120D02*
X0144374D01*
X0136246D02*
X0136500D01*
X0136246Y0071230D02*
Y0073770D01*
Y0071230D02*
X0136500D01*
Y0074786D02*
X0144120D01*
Y0070214D02*
Y0074786D01*
X0136500Y0070214D02*
X0144120D01*
X0136500D02*
Y0074786D01*
X0138532Y0079992D02*
Y0081008D01*
X0138024Y0080500D02*
X0139040D01*
X0137516Y0078214D02*
Y0082786D01*
X0137262Y0078214D02*
Y0082786D01*
X0137008Y0078214D02*
Y0082786D01*
X0136754Y0078214D02*
Y0082786D01*
X0144120Y0079230D02*
X0144374D01*
Y0081770D01*
X0144120D02*
X0144374D01*
X0136246D02*
X0136500D01*
X0136246Y0079230D02*
Y0081770D01*
Y0079230D02*
X0136500D01*
Y0082786D02*
X0144120D01*
Y0078214D02*
Y0082786D01*
X0136500Y0078214D02*
X0144120D01*
X0136500D02*
Y0082786D01*
X0074368Y0062992D02*
Y0064008D01*
X0073860Y0063500D02*
X0074876D01*
X0075384Y0061214D02*
Y0065786D01*
X0075638Y0061214D02*
Y0065786D01*
X0075892Y0061214D02*
Y0065786D01*
X0076146Y0061214D02*
Y0065786D01*
X0068526Y0064770D02*
X0068780D01*
X0068526Y0062230D02*
Y0064770D01*
Y0062230D02*
X0068780D01*
X0076400D02*
X0076654D01*
Y0064770D01*
X0076400D02*
X0076654D01*
X0068780Y0061214D02*
X0076400D01*
X0068780D02*
Y0065786D01*
X0076400D01*
Y0061214D02*
Y0065786D01*
X0066492Y0113888D02*
X0067508D01*
X0067000Y0113380D02*
Y0114396D01*
X0064714Y0114904D02*
X0069286D01*
X0064714Y0115158D02*
X0069286D01*
X0064714Y0115412D02*
X0069286D01*
X0064714Y0115666D02*
X0069286D01*
X0065730Y0108046D02*
Y0108300D01*
Y0108046D02*
X0068270D01*
Y0108300D01*
Y0115920D02*
Y0116174D01*
X0065730D02*
X0068270D01*
X0065730Y0115920D02*
Y0116174D01*
X0069286Y0108300D02*
Y0115920D01*
X0064714Y0108300D02*
X0069286D01*
X0064714D02*
Y0115920D01*
X0069286D01*
G54D237*
X0077025Y0072225D02*
D03*
X0077025Y0078225D02*
D03*
X0077025Y0084225D02*
D03*
X0077025Y0090225D02*
D03*
X0077025Y0096225D02*
D03*
X0077025Y0102225D02*
D03*
X0077025Y0141225D02*
D03*
X0077025Y0147225D02*
D03*
X0077025Y0153225D02*
D03*
X0077025Y0159225D02*
D03*
X0077025Y0165225D02*
D03*
X0077025Y0171225D02*
D03*
X0104975Y0066575D02*
D03*
X0107575Y0115725D02*
D03*
X0113275Y0174575D02*
D03*
M02*
